<svg width="163" height="166" viewBox="0 0 163 166" fill="none" xmlns="http://www.w3.org/2000/svg">
<path d="M81.5001 165.9C61.6001 165.9 41.7001 165.9 21.9001 165.9C11.6001 165.9 3.3001 159.1 1.0001 149.1C0.700099 147.7 0.600098 146.2 0.600098 144.8C0.600098 117.1 0.600098 89.2999 0.600098 61.5999C0.600098 49.1999 11.1001 38.4999 23.5001 38.3999C62.2001 38.2999 100.9 38.3999 139.6 38.3999C152 38.3999 162.8 49.9999 162.7 61.3999C162.4 89.1999 162.6 117.1 162.6 144.9C162.6 156.4 153.3 165.9 141.8 165.9C121.7 166 101.6 165.9 81.5001 165.9Z" fill="#1F97D1"/>
<path d="M9.1001 34.0999C15.1001 28.8999 22.1001 25.3999 29.7001 23.2999C55.2001 16.0999 80.8001 9.19988 106.3 2.19988C110.2 1.09988 114.2 0.0998756 118.3 -0.0001244C126.7 -0.100124 131.1 3.89988 131.6 12.2999C131.9 17.7999 131.7 23.3999 131.8 28.8999C131.8 30.2999 131.4 30.8999 130 30.7999C129.2 30.6999 128.4 30.7999 127.7 30.7999C94.6001 30.7999 61.5001 30.7999 28.5001 30.7999C21.7001 30.6999 15.2001 30.9999 9.1001 34.0999Z" fill="#1F97D1"/>
<path d="M94.4001 86.2C94.6001 86.7 94.8001 87.3 95.0001 87.8C95.5001 88.8 95.6001 89.6 94.6001 90.3C93.6001 91 92.6001 90.6 92.1001 89.7C85.5001 79.3 75.6001 77.9 64.6001 79.6C64.4001 79.6 64.2001 79.6 64.0001 79.6C70.4001 74.3 86.4001 71.5 98.7001 84.8C95.9001 75.7 80.0001 67.7 63.5001 73.4C60.9001 75.4 57.7001 76.5 55.1001 78.5C49.9001 82.6 47.2001 86.1 43.9001 93C46.2001 87.1 51.0001 81.9 57.1001 77.9C58.3001 77.1 59.6001 75.9 61.3001 76.7C59.0001 79 56.5001 81.2 54.4001 83.7C39.7001 100.4 39.1001 120.5 52.7001 138.2C53.4001 139.1 54.1001 140 54.9001 141C53.8001 141.6 53.4001 140.7 52.9001 140.3C43.6001 132.4 37.2001 122.7 34.7001 110.7C32.5001 99.6 36.4001 89.9 42.7001 81C53.8001 65.5 74.7001 61.1 90.8001 70.5C101.3 76.6 105.6 87.8 101.5 98.2C101 99.4 100.6 100.5 99.3001 101.8C99.0001 95.8 98.7001 90.2 95.0001 85.5C93.5001 84.5 92.8001 82.6 91.4001 82C92.5001 83 93.9001 84.2 94.4001 86.2Z" fill="#FAFCFD"/>
<path d="M119.5 114.1C115.9 119.2 111.5 123.4 105.7 126.1C114.7 117.4 122 107.8 122.8 94.6999C123.6 81.6999 118.3 70.9999 109.8 61.3999C111.8 61.7999 113.1 63.0999 114.3 64.2999C122.9 72.1999 129.1 81.3999 131.3 92.9999C135.1 112.9 118 135.6 97.8002 137.5C86.8002 138.5 77.0002 136 69.1002 128C62.3002 121 61.3002 110 66.8002 101.9C67.0002 106.8 67.2002 111.3 69.4002 115.3C71.3002 117 72.2002 119.7 74.1002 121C72.6002 119.2 70.0002 117.6 70.8002 114.2C72.0002 112.9 73.3002 112.9 74.2002 114.3C81.0002 124.4 90.7002 125.7 101.7 123.6C102 123.5 102.3 123.6 102.6 123.6C102.7 123.6 102.7 123.7 102.8 123.7C94.9002 129.5 79.6002 131.7 67.4002 119C69.0002 125.1 78.3002 131.3 88.0002 132C100.8 132.9 113.6 127.8 120.1 115.4C120.5 113.2 121.9 111.5 122.5 109.5C121.6 111 121.2 113 119.5 114.1Z" fill="#FCFEFE"/>
<path d="M69.3001 90.1998C70.6001 91.3998 70.6001 92.5999 69.2001 93.5999C58.7001 100.9 58.2001 111.2 60.4001 122.3C54.1001 114.7 51.5001 98.7999 64.9001 86.4999C53.6001 90.5998 47.8001 108.7 54.7001 124C55.1001 124.5 55.7001 125 56.0001 125.6C60.0001 133.5 66.8001 138.3 72.2001 140.7C67.5001 138.7 61.8001 133.9 57.8001 127.2C57.2001 126.3 56.2001 125.3 57.1001 124.1C62.3001 129.8 67.9001 134.9 75.0001 138.2C89.1001 144.8 102.5 142.6 115.2 134.4C117.8 132.7 120.1 130.6 123 128.1C120.8 132.7 117.8 135.6 114.6 138.4C105.7 146 95.9001 151.7 83.7001 151C64.6001 149.8 45.1001 134.3 46.1001 111.4C46.5001 101 50.0001 91.7999 59.3001 85.8999C66.1001 81.4999 75.7001 81.6998 81.3001 86.1998C76.6001 86.4998 72.1001 86.6999 68.1001 89.0999C66.4001 91.1999 63.5001 91.8999 62.3001 93.9999C64.3001 92.3998 65.7001 89.2998 69.3001 90.1998Z" fill="#FBFEFD"/>
<path d="M97.9002 114.1C97.0002 114 95.8002 115.1 95.1002 113.6C94.5002 112.1 95.3002 111.3 96.4002 110.5C104.6 104.8 106.7 96.7 105.6 87.3C105.4 85.7 105.5 84 104.8 82.5C111.3 90.6 113 106 100.4 118C106.3 116.6 112.9 106.7 113.4 97.1C114.3 82.3 106.8 69.4 94.4002 64.0999C92.4002 63.7999 90.6002 62.8 89.4002 62.4C88.4002 62.1 88.5002 62.8 88.6002 62.4C88.6002 62.3 88.7002 62.3 88.7002 62.3C90.5002 62.9 92.3002 63.2999 93.7002 64.6999C99.5002 68.4999 104.5 73 107.6 79.6C87.5002 58.4 66.1002 56.6 43.3002 74.9C42.9002 74.2 43.5002 73.8 43.8002 73.4C51.4002 63.9 60.8002 57 72.8002 54.3C84.8002 51.6 95.4002 55.5 104.8 62.8C113.5 69.5 118.6 78.6 119 89.6C119.5 101.1 116.2 111.3 106.4 118.4C99.0002 123.6 87.8002 122.6 83.4002 118.2C88.6002 118.4 93.4002 117.7 97.7002 115.3C99.0002 113.7 101 112.8 102.1 111.3C102.6 110.8 102.1 110.6 102.4 110.9C102.4 110.9 102.4 111 102.3 111.1C101 112.1 100.1 114 97.9002 114.1Z" fill="#FBFDFD"/>
<path d="M61.3001 76.8C53.5001 79.9 48.5001 85.9 44.4001 92.8C43.9001 93.7 43.4001 94.7 42.9001 95.7C43.6001 87.2 53.2001 76.9 63.5001 73.5C61.9001 73.9 63.6001 76.7 61.3001 76.8Z" fill="#3795C2"/>
<path d="M57.1002 124C59.8002 131 65.7002 136.5 76.4002 142.2C68.8002 142 57.7002 132.6 54.7002 124C55.5002 124.8 56.3002 123.7 57.1002 124Z" fill="#3896C1"/>
<path d="M69.3 90.2C67.4 90.1 66 91.3 64.7 92.4C63.3 93.4 62.2 94.7 60.8 95.7C62.3 92.5 64.8001 90.3 68.1001 89C68.5001 89.3 68.9 89.8 69.3 90.2Z" fill="#60A1C1"/>
<path d="M70.9001 114.1C71.2001 117.8 74.0001 119.9 75.9001 122.6C73.0001 120.8 70.6001 118.6 69.4001 115.2C70.3001 115.3 70.4001 114.5 70.9001 114.1Z" fill="#599CBB"/>
<path d="M97.9001 114.1C99.9001 112.5 102.3 111.2 104.1 109.3C102.7 111.9 100.7 114 97.9001 115.3C97.9001 114.8 97.9001 114.4 97.9001 114.1Z" fill="#5EA1C0"/>
<path d="M94.4001 86.1999C92.8001 84.2999 91.3001 82.2999 89.6001 80.5999C91.9001 81.6999 94.0001 83.0999 95.0001 85.5999C94.7001 85.7999 94.5001 85.9999 94.4001 86.1999Z" fill="#6BA8C4"/>
<path d="M119.5 114.1C120.5 112.2 121.6 110.3 122.6 108.4C122.6 111.1 121.5 113.2 120.1 115.3C119.8 114.9 119.6 114.5 119.5 114.1Z" fill="#619FBC"/>
<path d="M93.8 64.5999C92 63.7999 90.1 62.9999 88.3 62.0999C90.5 62.0999 92.7 62.4999 94.4 63.8999C94.2 64.1999 94 64.3999 93.8 64.5999Z" fill="#77AAC0"/>
</svg>
