<svg width="110" height="15" viewBox="0 0 110 15" fill="none" xmlns="http://www.w3.org/2000/svg">
<path d="M2.79569 12V10.656H5.60969C6.12302 10.656 6.51969 10.516 6.79969 10.236C7.07969 9.94667 7.21969 9.55467 7.21969 9.06C7.21969 8.54667 7.07035 8.14067 6.77169 7.842C6.47302 7.54333 6.05769 7.394 5.52569 7.394H2.79569V6.05H5.39969C5.90369 6.05 6.29102 5.92867 6.56169 5.686C6.83235 5.44333 6.96769 5.09333 6.96769 4.636C6.96769 4.188 6.83702 3.84733 6.57569 3.614C6.32369 3.38067 5.95035 3.264 5.45569 3.264H2.79569V1.92H5.79169C6.69702 1.92 7.42035 2.14867 7.96169 2.606C8.51235 3.054 8.78769 3.66533 8.78769 4.44C8.78769 4.92533 8.67102 5.35 8.43769 5.714C8.21369 6.06867 7.91035 6.344 7.52769 6.54C7.14502 6.736 6.71102 6.834 6.22569 6.834L6.29569 6.54C6.80902 6.54 7.27569 6.65667 7.69569 6.89C8.11569 7.114 8.44702 7.43133 8.68969 7.842C8.94169 8.25267 9.06769 8.72867 9.06769 9.27C9.06769 9.82067 8.93702 10.3013 8.67569 10.712C8.42369 11.1227 8.06435 11.44 7.59769 11.664C7.14035 11.888 6.59902 12 5.97369 12H2.79569ZM1.36769 12V1.92H3.18769V12H1.36769ZM10.7144 14.87L12.5624 10.726L12.8844 10.194L14.9004 4.86H16.7764L12.5064 14.87H10.7144ZM12.2964 11.93L9.39844 4.86H11.3164L13.7384 11.272L12.2964 11.93Z" fill="white" fill-opacity="0.2"/>
<path d="M25.167 3.16949C25.167 1.97131 26.1383 1 27.3365 1H34.9975C36.1956 1 37.1669 1.97131 37.1669 3.16949V10.8305C37.1669 12.0287 36.1956 13 34.9975 13H33.0365C32.7372 13 32.4946 12.7574 32.4946 12.4582V6.75597C32.4946 6.15749 32.0095 5.67232 31.411 5.67232H25.7088C25.4096 5.67232 25.167 5.42973 25.167 5.13049V3.16949Z" fill="white" fill-opacity="0.2"/>
<path d="M29.8393 9.41134C29.8393 8.81285 29.3541 8.32768 28.7556 8.32768H25.7088C25.4096 8.32768 25.167 8.57027 25.167 8.86951V10.8305C25.167 12.0287 26.1383 13 27.3365 13H29.2975C29.5967 13 29.8393 12.7574 29.8393 12.4582V9.41134Z" fill="white" fill-opacity="0.2"/>
<path d="M44.888 13V0.760021H50.379C51.2743 0.760021 52.0393 0.913021 52.674 1.21902C53.32 1.52502 53.813 1.95569 54.153 2.51102C54.5043 3.06635 54.68 3.72368 54.68 4.48301C54.68 5.23101 54.5043 5.88835 54.153 6.45501C53.8016 7.02168 53.3086 7.46368 52.674 7.78101C52.0393 8.08701 51.2743 8.24001 50.379 8.24001H46.605V6.50601H50.277C50.9796 6.50601 51.518 6.32468 51.892 5.96201C52.2773 5.59935 52.47 5.10635 52.47 4.48301C52.47 3.87102 52.2773 3.38935 51.892 3.03802C51.518 2.68668 50.9796 2.51102 50.277 2.51102H47.098V13H44.888ZM55.6318 13V4.33001H57.7228V6.42101H57.7738V13H55.6318ZM57.7738 8.47801L57.5528 6.42101C57.7568 5.68435 58.1025 5.12335 58.5898 4.73801C59.0772 4.35268 59.6608 4.16002 60.3408 4.16002C60.5788 4.16002 60.7488 4.18268 60.8508 4.22802V6.25101C60.7942 6.22835 60.7148 6.21701 60.6128 6.21701C60.5108 6.20568 60.3862 6.20001 60.2388 6.20001C59.4115 6.20001 58.7938 6.38134 58.3858 6.74401C57.9778 7.10668 57.7738 7.68468 57.7738 8.47801ZM65.4368 13.17C64.5188 13.17 63.7085 12.9773 63.0058 12.592C62.3145 12.2067 61.7762 11.674 61.3908 10.994C61.0055 10.3027 60.8128 9.51501 60.8128 8.63101C60.8128 7.74701 61.0055 6.97068 61.3908 6.30201C61.7762 5.63335 62.3145 5.11201 63.0058 4.73801C63.7085 4.35268 64.5188 4.16002 65.4368 4.16002C66.3662 4.16002 67.1765 4.35268 67.8678 4.73801C68.5592 5.11201 69.0975 5.63335 69.4828 6.30201C69.8682 6.97068 70.0608 7.74701 70.0608 8.63101C70.0608 9.51501 69.8625 10.3027 69.4658 10.994C69.0805 11.674 68.5422 12.2067 67.8508 12.592C67.1595 12.9773 66.3548 13.17 65.4368 13.17ZM65.4368 11.453C65.8902 11.453 66.2982 11.3397 66.6608 11.113C67.0235 10.875 67.3068 10.5463 67.5108 10.127C67.7148 9.69634 67.8168 9.19201 67.8168 8.61401C67.8168 7.76401 67.5902 7.09534 67.1368 6.60801C66.6948 6.12068 66.1282 5.87701 65.4368 5.87701C64.7455 5.87701 64.1732 6.12068 63.7198 6.60801C63.2665 7.09534 63.0398 7.76401 63.0398 8.61401C63.0398 9.19201 63.1418 9.69634 63.3458 10.127C63.5612 10.5463 63.8445 10.875 64.1958 11.113C64.5585 11.3397 64.9722 11.453 65.4368 11.453ZM73.1213 13L69.6534 4.33001H71.9653L74.7363 12.303H73.5973L76.3683 4.33001H78.6123L75.1273 13H73.1213ZM84.1325 13C84.0759 12.7733 84.0305 12.524 83.9965 12.252C83.9739 11.98 83.9625 11.6513 83.9625 11.266H83.8945V7.15201C83.8945 6.69868 83.7642 6.35868 83.5035 6.13201C83.2542 5.89401 82.8689 5.77501 82.3475 5.77501C81.8375 5.77501 81.4295 5.87135 81.1235 6.06401C80.8289 6.24535 80.6475 6.51168 80.5795 6.86301H78.5226C78.6132 6.05835 78.9986 5.40668 79.6786 4.90801C80.3586 4.40935 81.2709 4.16002 82.4155 4.16002C83.6055 4.16002 84.5065 4.43201 85.1185 4.97601C85.7305 5.50868 86.0365 6.29635 86.0365 7.33901V11.266C86.0365 11.538 86.0535 11.8157 86.0875 12.099C86.1329 12.3823 86.1952 12.6827 86.2745 13H84.1325ZM81.1235 13.17C80.2509 13.17 79.5539 12.9547 79.0326 12.524C78.5226 12.082 78.2676 11.4927 78.2676 10.756C78.2676 9.96267 78.5566 9.33367 79.1346 8.86901C79.7126 8.40434 80.5285 8.09268 81.5825 7.93401L84.2855 7.52601V8.88601L81.9395 9.24301C81.4295 9.32234 81.0442 9.46401 80.7835 9.66801C80.5342 9.87201 80.4096 10.1553 80.4096 10.518C80.4096 10.8467 80.5285 11.1017 80.7665 11.283C81.0045 11.453 81.3332 11.538 81.7525 11.538C82.3645 11.538 82.8745 11.385 83.2825 11.079C83.6905 10.773 83.8945 10.399 83.8945 9.95701L84.1325 11.266C83.9059 11.8893 83.5319 12.3653 83.0105 12.694C82.5005 13.0113 81.8715 13.17 81.1235 13.17ZM92.473 13.17C91.6457 13.17 90.9657 12.9773 90.433 12.592C89.9117 12.1953 89.5887 11.6513 89.464 10.96L89.617 10.943V13H87.526V0.760021H89.668V6.28501L89.515 6.25101C89.6624 5.60501 90.008 5.09501 90.552 4.72101C91.1074 4.34701 91.793 4.16002 92.609 4.16002C93.3797 4.16002 94.0484 4.34701 94.615 4.72101C95.193 5.08368 95.6407 5.59935 95.958 6.26801C96.2753 6.93668 96.434 7.72434 96.434 8.63101C96.434 9.54901 96.2697 10.348 95.941 11.028C95.6123 11.708 95.1533 12.235 94.564 12.609C93.9747 12.983 93.2777 13.17 92.473 13.17ZM91.929 11.402C92.6204 11.402 93.17 11.164 93.578 10.688C93.986 10.2007 94.19 9.52067 94.19 8.64801C94.19 7.77534 93.9804 7.10101 93.561 6.62501C93.153 6.14901 92.6034 5.91101 91.912 5.91101C91.232 5.91101 90.6824 6.15468 90.263 6.64201C89.8437 7.11801 89.634 7.79234 89.634 8.66501C89.634 9.53767 89.8437 10.212 90.263 10.688C90.6824 11.164 91.2377 11.402 91.929 11.402ZM97.4046 13V0.760021H99.5466V13H97.4046ZM105.034 13.17C104.116 13.17 103.311 12.9773 102.62 12.592C101.94 12.2067 101.407 11.674 101.022 10.994C100.648 10.314 100.461 9.53201 100.461 8.64801C100.461 7.76401 100.648 6.98768 101.022 6.31901C101.407 5.63901 101.94 5.11201 102.62 4.73801C103.3 4.35268 104.093 4.16002 105 4.16002C105.861 4.16002 106.609 4.34135 107.244 4.70401C107.878 5.05535 108.371 5.55401 108.723 6.20001C109.074 6.84601 109.25 7.59968 109.25 8.46101C109.25 8.61967 109.244 8.76701 109.233 8.90301C109.221 9.03901 109.204 9.17501 109.182 9.31101H101.787V7.81501H107.533L107.091 8.22301C107.091 7.40701 106.904 6.79501 106.53 6.38701C106.156 5.97901 105.634 5.77501 104.966 5.77501C104.24 5.77501 103.662 6.02435 103.232 6.52301C102.812 7.02168 102.603 7.74134 102.603 8.68201C102.603 9.61134 102.812 10.3253 103.232 10.824C103.662 11.3113 104.269 11.555 105.051 11.555C105.504 11.555 105.901 11.47 106.241 11.3C106.581 11.13 106.83 10.8693 106.989 10.518H109.012C108.728 11.334 108.247 11.98 107.567 12.456C106.898 12.932 106.054 13.17 105.034 13.17Z" fill="white" fill-opacity="0.2"/>
</svg>
