<svg width="25" height="24" viewBox="0 0 25 24" fill="none" xmlns="http://www.w3.org/2000/svg">
<path fill-rule="evenodd" clip-rule="evenodd" d="M3.5 7.49992C3.5 7.23165 3.64329 6.98381 3.87578 6.84995L12.1258 2.10003C12.3574 1.96666 12.6426 1.96666 12.8742 2.10003L21.1242 6.84998C21.3567 6.98383 21.5 7.23167 21.5 7.49995V16.4999C21.5 16.7682 21.3567 17.0161 21.1242 17.1499L12.8742 21.8998C12.6426 22.0332 12.3574 22.0332 12.1258 21.8998L3.8758 17.1502C3.6433 17.0164 3.5 16.7685 3.5 16.5002V7.49992ZM8.87502 12C8.87502 9.99797 10.498 8.375 12.5 8.375C14.5021 8.375 16.125 9.99797 16.125 12C16.125 14.002 14.5021 15.625 12.5 15.625C10.498 15.625 8.87502 14.002 8.87502 12Z" fill="currentColor"/>
</svg>
