<svg width="18" height="18" viewBox="0 0 18 18" fill="none" xmlns="http://www.w3.org/2000/svg">
<path d="M8.69765 0.888189C8.89706 0.847166 9.10274 0.847166 9.30215 0.888189C9.5324 0.935439 9.73865 1.05094 9.90215 1.14319L9.94715 1.16794L15.4972 4.25044L15.5444 4.27744C15.7169 4.37269 15.9359 4.49269 16.1032 4.67494C16.2479 4.83169 16.3574 5.01769 16.4242 5.22019C16.5014 5.45494 16.5007 5.70394 16.4999 5.90119V12.0977C16.5007 12.2957 16.5014 12.5439 16.4242 12.7787C16.3567 12.9812 16.2479 13.1679 16.1032 13.3247C15.9359 13.5062 15.7177 13.6262 15.5444 13.7222L15.4972 13.7477L9.94715 16.8317L9.90215 16.8564C9.73865 16.9479 9.5324 17.0634 9.30215 17.1114C9.10265 17.1519 8.89715 17.1519 8.69765 17.1114C8.4674 17.0634 8.26115 16.9479 8.09765 16.8564C8.08268 16.8481 8.06768 16.8399 8.05265 16.8317L2.50265 13.7477L2.4554 13.7222C2.2829 13.6262 2.0639 13.5062 1.89665 13.3247C1.75201 13.1676 1.64257 12.9815 1.57565 12.7787C1.4984 12.5439 1.49915 12.2957 1.4999 12.0977V5.95594V5.90119C1.49915 5.70394 1.4984 5.45494 1.57565 5.22019C1.64257 5.01742 1.75201 4.83127 1.89665 4.67419C2.0639 4.49269 2.28215 4.37269 2.4554 4.27669L2.50265 4.25119L8.05265 1.16794L8.09765 1.14244C8.26115 1.05094 8.4674 0.935439 8.69765 0.888189ZM8.9999 2.36119L8.99615 2.36269C8.9534 2.38369 8.8949 2.41519 8.78165 2.47894L3.79415 5.24944L8.9999 8.14144L14.2049 5.24944L9.21815 2.47894C9.14762 2.43843 9.0761 2.39967 9.00365 2.36269L8.9999 2.36194V2.36119ZM14.9999 6.52369L9.7499 9.44119V15.2244L14.7682 12.4359C14.8882 12.3692 14.9497 12.3347 14.9932 12.3077L14.9962 12.3054V12.3009C14.9999 12.2499 14.9999 12.1802 14.9999 12.0429V6.52294V6.52369ZM8.2499 9.44119L2.9999 6.52369V12.0437C2.9999 12.1809 2.9999 12.2507 3.00365 12.3017V12.3062L3.0074 12.3084C3.05015 12.3354 3.11165 12.3699 3.23165 12.4367L8.2499 15.2252V9.44119Z" fill="white"/>
</svg>
