<svg width="18" height="18" viewBox="0 0 18 18" fill="none" xmlns="http://www.w3.org/2000/svg">
<path d="M6.56925 0.75H11.4307C12.0345 0.75 12.5332 0.75 12.9382 0.783C13.3605 0.8175 13.7483 0.89175 14.112 1.077C14.6765 1.36462 15.1354 1.82354 15.423 2.388C15.6082 2.75175 15.6825 3.1395 15.717 3.561C15.75 3.9675 15.75 4.4655 15.75 5.0685V7.5C15.75 7.5985 15.7306 7.69604 15.6929 7.78705C15.6553 7.87806 15.6 7.96075 15.5304 8.0304C15.4607 8.10006 15.378 8.15532 15.287 8.19301C15.196 8.23071 15.0985 8.25012 15 8.25012C14.9015 8.25012 14.804 8.23071 14.713 8.19301C14.622 8.15532 14.5393 8.10006 14.4696 8.0304C14.4 7.96075 14.3447 7.87806 14.3071 7.78705C14.2694 7.69604 14.25 7.5985 14.25 7.5V5.1C14.25 4.45725 14.25 4.02075 14.2215 3.68325C14.1953 3.35475 14.1465 3.186 14.0865 3.069C13.9427 2.78677 13.7132 2.55731 13.431 2.4135C13.314 2.3535 13.146 2.30475 12.8168 2.2785C12.4792 2.25 12.0427 2.25 11.4 2.25H6.6C5.95725 2.25 5.52075 2.25 5.18325 2.2785C4.85475 2.30475 4.686 2.3535 4.569 2.4135C4.28677 2.55731 4.05731 2.78677 3.9135 3.069C3.8535 3.186 3.80475 3.354 3.7785 3.68325C3.75 4.02075 3.75 4.45725 3.75 5.1V12.9C3.75 13.5427 3.75 13.9792 3.7785 14.3167C3.80475 14.6452 3.8535 14.814 3.9135 14.931C4.05731 15.2132 4.28677 15.4427 4.569 15.5865C4.686 15.6465 4.854 15.6952 5.18325 15.7215C5.52075 15.75 5.95725 15.75 6.6 15.75H9.375C9.4735 15.75 9.57104 15.7694 9.66205 15.8071C9.75306 15.8447 9.83575 15.9 9.9054 15.9696C9.97506 16.0393 10.0303 16.122 10.068 16.213C10.1057 16.304 10.1251 16.4015 10.1251 16.5C10.1251 16.5985 10.1057 16.696 10.068 16.787C10.0303 16.878 9.97506 16.9607 9.9054 17.0304C9.83575 17.1 9.75306 17.1553 9.66205 17.1929C9.57104 17.2306 9.4735 17.25 9.375 17.25H6.56925C5.9655 17.25 5.46675 17.25 5.06175 17.217C4.6395 17.1825 4.25175 17.1082 3.888 16.923C3.32354 16.6354 2.86462 16.1765 2.577 15.612C2.39175 15.2483 2.3175 14.8605 2.283 14.439C2.25 14.0325 2.25 13.5345 2.25 12.9315V5.0685C2.25 4.46475 2.25 3.966 2.283 3.561C2.3175 3.13875 2.39175 2.751 2.577 2.38725C2.86462 1.82279 3.32354 1.36387 3.888 1.07625C4.25175 0.891 4.6395 0.81675 5.061 0.78225C5.4675 0.75 5.9655 0.75 6.5685 0.75H6.56925Z" fill="white"/>
<path d="M5.25 5.25C5.25 5.05109 5.32902 4.86032 5.46967 4.71967C5.61032 4.57902 5.80109 4.5 6 4.5H12C12.0985 4.49998 12.196 4.51937 12.287 4.55706C12.3781 4.59474 12.4607 4.64998 12.5304 4.71963C12.6001 4.78927 12.6553 4.87196 12.693 4.96296C12.7307 5.05396 12.7501 5.1515 12.7501 5.25C12.7501 5.3485 12.7307 5.44604 12.693 5.53704C12.6553 5.62804 12.6001 5.71073 12.5304 5.78037C12.4607 5.85002 12.3781 5.90526 12.287 5.94294C12.196 5.98063 12.0985 6.00002 12 6H6C5.80109 6 5.61032 5.92098 5.46967 5.78033C5.32902 5.63968 5.25 5.44891 5.25 5.25ZM5.25 8.25C5.25 8.05109 5.32902 7.86032 5.46967 7.71967C5.61032 7.57902 5.80109 7.5 6 7.5H10.5C10.5985 7.49998 10.696 7.51937 10.787 7.55706C10.8781 7.59474 10.9607 7.64998 11.0304 7.71963C11.1001 7.78927 11.1553 7.87196 11.193 7.96296C11.2307 8.05396 11.2501 8.1515 11.2501 8.25C11.2501 8.3485 11.2307 8.44604 11.193 8.53704C11.1553 8.62804 11.1001 8.71072 11.0304 8.78037C10.9607 8.85002 10.8781 8.90526 10.787 8.94294C10.696 8.98063 10.5985 9.00001 10.5 9H6C5.80109 9 5.61032 8.92098 5.46967 8.78033C5.32902 8.63968 5.25 8.44891 5.25 8.25ZM14.3625 9.9L16.0028 10.4857C16.1484 10.5379 16.2743 10.6337 16.3633 10.7602C16.4523 10.8867 16.5001 11.0376 16.5 11.1922V13.0687C16.5 14.2237 15.708 15.0862 15.105 15.5887C14.7213 15.9065 14.3041 16.1814 13.8608 16.4085L13.8353 16.4212L13.8278 16.425L13.8247 16.4265H13.8233L13.5 15.75L13.1775 16.4265H13.1753L13.1723 16.425L13.1647 16.4212L13.1393 16.4085C13.012 16.3437 12.8869 16.2746 12.7642 16.2015C12.4588 16.0201 12.1679 15.8153 11.8943 15.5887C11.292 15.0862 10.5 14.2237 10.5 13.0687V11.1922C10.4999 11.0376 10.5477 10.8867 10.6367 10.7602C10.7257 10.6337 10.8516 10.5379 10.9973 10.4857L12.6368 9.9C13.1944 9.70042 13.8041 9.70042 14.3617 9.9H14.3625ZM13.5 14.8935C13.726 14.7575 13.9416 14.6048 14.145 14.4367C14.6678 14.001 15 13.5232 15 13.0687V11.7202L13.857 11.3122C13.6262 11.2297 13.3738 11.2297 13.143 11.3122L12 11.7202V13.0687C12 13.5232 12.333 14.001 12.855 14.4367C13.0845 14.628 13.317 14.7825 13.5 14.8942V14.8935Z" fill="white"/>
<path d="M13.5 15.75L13.1775 16.4265C13.3807 16.524 13.6185 16.524 13.8225 16.4265L13.5 15.75ZM5.25 11.25C5.25 11.0511 5.32902 10.8603 5.46967 10.7197C5.61032 10.579 5.80109 10.5 6 10.5H7.5C7.59849 10.5 7.69602 10.5194 7.78701 10.5571C7.87801 10.5948 7.96069 10.65 8.03033 10.7197C8.09997 10.7893 8.15522 10.872 8.19291 10.963C8.2306 11.054 8.25 11.1515 8.25 11.25C8.25 11.3485 8.2306 11.446 8.19291 11.537C8.15522 11.628 8.09997 11.7107 8.03033 11.7803C7.96069 11.85 7.87801 11.9052 7.78701 11.9429C7.69602 11.9806 7.59849 12 7.5 12H6C5.80109 12 5.61032 11.921 5.46967 11.7803C5.32902 11.6397 5.25 11.4489 5.25 11.25Z" fill="white"/>
</svg>
