<svg width="28" height="28" viewBox="0 0 28 28" fill="none" xmlns="http://www.w3.org/2000/svg">
<path fill-rule="evenodd" clip-rule="evenodd" d="M5.25 4.59995C5.25 4.37904 5.42909 4.19995 5.65 4.19995H21.1833C21.4042 4.19995 21.5833 4.37904 21.5833 4.59995V19.898C21.5833 20.1189 21.4042 20.298 21.1833 20.298H7.51678C7.29587 20.298 7.11678 20.4771 7.11678 20.698V21.5332C7.11678 21.7541 7.29587 21.9332 7.51678 21.9332H21.1833C21.4042 21.9332 21.5833 22.1123 21.5833 22.3332V23.4C21.5833 23.6209 21.4042 23.8 21.1833 23.8H5.65C5.42909 23.8 5.25 23.6209 5.25 23.4V22.97V22.3332V19.898V19.3666V4.59995Z" fill="url(#paint0_linear_4232_19098)"/>
<path d="M21.5833 6.53345H22.8999C23.0104 6.53345 23.0999 6.62299 23.0999 6.73345V9.83345C23.0999 9.9439 23.0104 10.0334 22.8999 10.0334H21.5833V6.53345Z" fill="url(#paint1_linear_4232_19098)"/>
<path d="M21.5833 11.2002H22.8999C23.0104 11.2002 23.0999 11.2897 23.0999 11.4002V14.5002C23.0999 14.6107 23.0104 14.7002 22.8999 14.7002H21.5833V11.2002Z" fill="url(#paint2_linear_4232_19098)"/>
<path d="M16.982 14.78C16.3823 13.9285 15.1176 13.8397 14.7375 13.586C14.078 13.1474 15.0697 12.4736 15.2377 12.0219L15.6061 11.4967C15.7432 11.3012 15.6948 11.0288 15.4994 10.8916C15.4519 10.8584 15.4008 10.8369 15.3479 10.8253V9.8393C15.3479 9.35975 15.1292 8.93219 14.7868 8.64804C14.8908 8.72961 15.0261 8.83538 14.7106 8.5862C14.3288 8.28556 13.8431 7.99691 13.1597 7.83345C13.0093 7.79746 12.8399 7.96476 12.77 8.10274C12.7141 8.21292 12.6203 8.32011 12.4859 8.389C12.4778 8.39348 12.4715 8.39617 12.4644 8.39975C11.8907 8.62743 11.4846 9.18496 11.4846 9.8393V10.8253C11.4318 10.8369 11.3798 10.8593 11.3332 10.8916C11.1377 11.0288 11.0893 11.3012 11.2265 11.4967L11.5949 12.0219C11.7618 12.4744 12.7546 13.1463 12.0951 13.586C11.715 13.8388 10.4502 13.9285 9.85059 14.78C9.5188 15.2512 9.49381 15.6136 9.51193 15.7977C9.52002 15.88 9.5932 15.9318 9.6759 15.9318H17.1574C17.2402 15.9318 17.3134 15.8799 17.3213 15.7975C17.3391 15.6135 17.3135 15.2515 16.982 14.78Z" fill="url(#paint3_linear_4232_19098)"/>
<path d="M7.06006 20.4983C7.06006 20.3879 7.1496 20.2983 7.26006 20.2983H20.4742V21.9336H7.26006C7.1496 21.9336 7.06006 21.844 7.06006 21.7336V20.4983Z" fill="url(#paint4_linear_4232_19098)"/>
<defs>
<linearGradient id="paint0_linear_4232_19098" x1="13.4167" y1="4.19995" x2="13.4167" y2="23.8" gradientUnits="userSpaceOnUse">
<stop stop-color="#929CB3"/>
<stop offset="1" stop-color="#505662"/>
</linearGradient>
<linearGradient id="paint1_linear_4232_19098" x1="22.3416" y1="10.0334" x2="22.3416" y2="6.53345" gradientUnits="userSpaceOnUse">
<stop stop-color="#E1E1E3"/>
<stop offset="1" stop-color="#F4F7FF"/>
</linearGradient>
<linearGradient id="paint2_linear_4232_19098" x1="22.3416" y1="14.7002" x2="22.3416" y2="11.2002" gradientUnits="userSpaceOnUse">
<stop stop-color="#E1E1E3"/>
<stop offset="1" stop-color="#F4F7FF"/>
</linearGradient>
<linearGradient id="paint3_linear_4232_19098" x1="13.4167" y1="15.9318" x2="13.4167" y2="7.76514" gradientUnits="userSpaceOnUse">
<stop stop-color="#E1E1E3"/>
<stop offset="1" stop-color="#F4F7FF"/>
</linearGradient>
<linearGradient id="paint4_linear_4232_19098" x1="13.7671" y1="21.9336" x2="13.7671" y2="20.2983" gradientUnits="userSpaceOnUse">
<stop stop-color="#E1E1E3"/>
<stop offset="1" stop-color="#F4F7FF"/>
</linearGradient>
</defs>
</svg>
