<svg width="20" height="20" viewBox="0 0 20 20" fill="none" xmlns="http://www.w3.org/2000/svg">
<path d="M6.86195 5.36795C6.56279 5.36795 6.32028 5.61046 6.32028 5.90961C6.32028 6.20877 6.56279 6.45128 6.86195 6.45128H13.1383C13.4375 6.45128 13.68 6.20877 13.68 5.90961C13.68 5.61046 13.4375 5.36795 13.1383 5.36795H6.86195Z" fill="#777F91"/>
<path d="M6.32028 8.52039C6.32028 8.22124 6.56279 7.97872 6.86195 7.97872H13.1383C13.4375 7.97872 13.68 8.22124 13.68 8.52039C13.68 8.81955 13.4375 9.06206 13.1383 9.06206H6.86195C6.56279 9.06206 6.32028 8.81955 6.32028 8.52039Z" fill="#777F91"/>
<path d="M6.86195 10.5897C6.56279 10.5897 6.32028 10.8322 6.32028 11.1313C6.32028 11.4305 6.56279 11.673 6.86195 11.673H13.1383C13.4375 11.673 13.68 11.4305 13.68 11.1313C13.68 10.8322 13.4375 10.5897 13.1383 10.5897H6.86195Z" fill="#777F91"/>
<path fill-rule="evenodd" clip-rule="evenodd" d="M3.38892 3.87121C3.38892 3.11182 4.00453 2.49622 4.76392 2.49622H15.227C15.9864 2.49622 16.602 3.11182 16.602 3.87122L16.6019 14.5724H5.39628C4.88595 14.5724 4.47225 14.9861 4.47225 15.4965C4.47225 16.0068 4.88595 16.4205 5.39628 16.4205H16.0698C16.3689 16.4205 16.6115 16.663 16.6115 16.9622C16.6115 17.2613 16.3689 17.5038 16.0698 17.5038H5.39628C4.34156 17.5038 3.47682 16.6904 3.39521 15.6566H3.38892V3.87121ZM15.5186 3.87122V13.4891H5.39628C5.06308 13.4891 4.74883 13.5703 4.47225 13.714V3.87121C4.47225 3.71013 4.60283 3.57955 4.76392 3.57955H15.227C15.3881 3.57955 15.5186 3.71013 15.5186 3.87122Z" fill="#777F91"/>
</svg>
