<svg width="18" height="18" viewBox="0 0 18 18" fill="none" xmlns="http://www.w3.org/2000/svg">
<path d="M15.7416 4.56356C15.6319 4.2885 15.4665 4.12369 15.4119 4.01344C15.2466 3.7935 15.0817 3.68381 14.8618 3.57413C14.6964 3.519 14.4219 3.46388 14.202 3.519C13.9986 3.56716 13.797 3.62213 13.5973 3.68381L12.663 3.90431C12.4425 3.95888 12.2777 3.95888 12.0583 3.84919L11.8384 3.7395C11.6829 3.63315 11.5669 3.47856 11.5082 3.29963L11.2882 2.53013C11.1786 2.31019 11.1229 2.09025 11.0137 1.98056C10.9581 1.76006 10.7932 1.59525 10.6836 1.48556C10.4914 1.38849 10.2884 1.31466 10.0789 1.26562H7.98974C7.7698 1.32075 7.54987 1.37588 7.38505 1.48556C7.16512 1.65038 7.05543 1.81519 6.94518 1.98056C6.89005 2.09025 6.83493 2.25506 6.78037 2.53013L6.5053 3.29963C6.45018 3.51956 6.28537 3.62925 6.17568 3.7395L5.9563 3.84863C5.73637 3.95888 5.57155 3.95888 5.35218 3.90375L4.4173 3.68381C4.14224 3.57413 3.92287 3.57413 3.81262 3.519C3.59268 3.46388 3.31818 3.519 3.15337 3.57413C2.93287 3.68381 2.76805 3.79406 2.60324 4.01344C2.54812 4.12369 2.3833 4.2885 2.27362 4.56356L1.8883 5.2785C1.72349 5.49788 1.6138 5.66269 1.6138 5.77294C1.50412 5.99288 1.39387 6.21225 1.44899 6.43219C1.50412 6.65213 1.55868 6.87206 1.72405 7.03688C1.77862 7.14713 1.94343 7.31194 2.1088 7.47731L2.8783 8.3565C2.8783 8.3565 2.93343 8.46675 2.98799 8.63156C3.04312 8.74181 3.04312 8.8515 3.04312 8.96119C3.04312 9.07144 3.04312 9.23625 2.98799 9.34594C2.93287 9.51075 2.8783 9.56588 2.8783 9.621L2.1088 10.5002C1.88887 10.6644 1.77918 10.8298 1.72405 10.9395C1.55924 11.1049 1.50412 11.3254 1.44899 11.5442C1.39387 11.7641 1.50412 11.9841 1.6138 12.1494C1.6138 12.2586 1.72405 12.4791 1.88887 12.699L2.27362 13.4134C2.43843 13.6884 2.54868 13.8538 2.60324 13.9635C2.76805 14.1289 2.93287 14.2931 3.15337 14.4034C3.31818 14.5131 3.59268 14.5131 3.81262 14.4585C4.03255 14.4039 4.25249 14.3494 4.4173 14.2931L5.35218 14.0186C5.51699 13.9635 5.73693 14.0186 5.95687 14.1289L6.17681 14.238C6.28649 14.3488 6.45187 14.5131 6.50643 14.6784L6.72637 15.3377C6.78149 15.5576 6.89118 15.7776 6.9463 15.9418C7.05599 16.1623 7.16624 16.3277 7.38618 16.4919C7.55099 16.6022 7.71637 16.6573 7.99087 16.6573C8.10055 16.7124 8.26593 16.7124 8.54099 16.7124H9.4753C9.7498 16.7124 9.91518 16.7124 10.08 16.6573C10.2999 16.6573 10.4653 16.6022 10.6847 16.4919C10.8495 16.3277 10.9592 16.1623 11.0149 15.9418C11.124 15.7776 11.1797 15.6122 11.2894 15.3917V15.3371L11.5093 14.6779C11.5682 14.4989 11.6842 14.3441 11.8395 14.2374L12.0594 14.1283C12.2794 14.0181 12.4442 13.9629 12.6641 14.0181L13.5984 14.2926C13.7638 14.3488 13.9832 14.4028 14.2031 14.4579C14.4231 14.5131 14.6976 14.5131 14.8629 14.4028C15.0829 14.2926 15.2477 14.1283 15.4131 13.9629C15.4676 13.8538 15.5779 13.6884 15.7427 13.4128L16.128 12.6984C16.2928 12.4785 16.4025 12.2586 16.4576 12.1489C16.5127 11.9284 16.5673 11.7084 16.5673 11.5436C16.5122 11.3243 16.4576 11.1043 16.2928 10.9389C16.2377 10.8293 16.128 10.6639 15.9075 10.4996L15.1926 9.62044C15.1374 9.56475 15.0829 9.51019 15.0277 9.34538C14.9721 9.23569 14.9721 9.07088 14.9721 8.96063C14.9721 8.85094 14.9721 8.74069 15.0277 8.631C15.0829 8.46619 15.1374 8.35594 15.1926 8.35594V8.30194L15.9075 7.53188C16.0723 7.31194 16.2377 7.14713 16.2928 7.03744C16.4576 6.87263 16.5127 6.59756 16.5673 6.43275C16.5673 6.21281 16.5122 5.99288 16.4576 5.7735C16.4025 5.66325 16.2928 5.49844 16.1826 5.27906L15.7416 4.56356ZM14.3674 4.56356H14.4771L14.5322 4.67381C14.6419 4.7835 14.7527 4.94831 14.8624 5.11313L15.192 5.77294C15.3017 5.88263 15.3568 6.04744 15.4665 6.21225V6.3225C15.4665 6.3225 15.4665 6.37763 15.4119 6.43219C15.2919 6.55152 15.1815 6.68017 15.0817 6.81694L14.3122 7.69669C14.0377 8.02631 13.8724 8.46619 13.8724 8.96119C13.8724 9.51075 14.0377 9.95119 14.3122 10.2808L15.0817 11.16C15.1914 11.2703 15.3017 11.4351 15.4119 11.6004L15.4665 11.6556V11.7647C15.4119 11.8749 15.3017 11.9852 15.192 12.2046L14.8624 12.8093C14.697 13.0838 14.5879 13.2491 14.5322 13.3043L14.4771 13.4134L14.3674 13.3583C14.3122 13.3583 14.0929 13.3037 13.8172 13.2491L12.9381 12.9746C12.4431 12.8638 12.0037 12.9189 11.5644 13.1389L11.2894 13.3043C10.9041 13.5788 10.6296 13.8544 10.4647 14.2931L10.2442 15.0081C10.1897 15.2826 10.1346 15.4479 10.0794 15.5576C10.0794 15.5576 10.0243 15.5576 10.0243 15.6128H7.9903L7.93518 15.5576C7.93518 15.4485 7.82493 15.2831 7.77037 15.0081L7.4953 14.2931C7.33049 13.8544 7.11055 13.5788 6.7258 13.3043L6.4513 13.1389C6.01143 12.9189 5.57155 12.8638 5.13168 12.9746H5.07712L4.19737 13.2491C3.92287 13.3043 3.75749 13.3588 3.6478 13.3588L3.53755 13.4139C3.53755 13.3588 3.48299 13.3588 3.48299 13.3048C3.42787 13.2497 3.31818 13.0843 3.20793 12.8098L2.82318 12.2051C2.71293 11.9852 2.60324 11.8755 2.60324 11.7653C2.54812 11.7096 2.54812 11.6556 2.54812 11.6556L2.60324 11.6004C2.71293 11.4351 2.82318 11.2703 2.93287 11.16L3.6478 10.2808C3.97743 9.95119 4.14224 9.51075 4.14224 8.96119C4.14224 8.46675 3.97743 8.02688 3.6478 7.69669L2.93287 6.81694C2.76805 6.597 2.60324 6.48731 2.60324 6.43219C2.54812 6.37763 2.54812 6.3225 2.54812 6.3225C2.54812 6.3225 2.54812 6.26738 2.60324 6.21225C2.65837 6.04744 2.76805 5.88263 2.82318 5.77294L3.20793 5.11313C3.26249 4.94831 3.37274 4.78294 3.48299 4.67381L3.53755 4.56356H3.6478C3.86718 4.61813 4.03255 4.67381 4.19737 4.72838L5.07712 5.00344H5.13224C5.57212 5.058 6.01143 5.00344 6.45187 4.83863V4.78294L6.72637 4.67325C7.11112 4.39819 7.33106 4.12313 7.49587 3.68325L7.77093 2.96888C7.82549 2.74894 7.88118 2.58356 7.93574 2.47444L7.99087 2.36419H8.10055C8.15568 2.30906 8.37562 2.30906 8.59555 2.30906H9.42018C9.58443 2.30906 9.74924 2.30906 9.91462 2.36419H10.0243C10.0243 2.36419 10.0794 2.41931 10.0794 2.47444C10.1346 2.58413 10.1897 2.74894 10.2442 2.96888L10.4647 3.68325C10.6291 4.07724 10.919 4.4059 11.2894 4.61813V4.67381L11.5644 4.83863C12.0037 5.00344 12.4436 5.05856 12.9381 5.00344V4.94831L13.8172 4.72838C13.9821 4.67381 14.2026 4.61813 14.3674 4.56356Z" fill="white" stroke="white"/>
<path d="M8.79146 7.08421C8.7334 7.1449 8.69932 7.22459 8.69553 7.30849V8.68428H7.31986C7.25602 8.68428 7.15976 8.71636 7.09592 8.78021C7.03176 8.84438 7 8.90823 7 9.00416C7 9.06833 7.03208 9.16427 7.09592 9.22844C7.15976 9.29196 7.25569 9.32404 7.31986 9.32404H8.69586V10.6681C8.69586 10.7637 8.72794 10.8282 8.79178 10.892C8.85595 10.9559 8.92012 10.9883 9.01604 10.9883C9.07988 10.9883 9.17581 10.9559 9.23997 10.892C9.27121 10.8639 9.29596 10.8292 9.31252 10.7906C9.32908 10.7519 9.33706 10.7101 9.3359 10.6681V9.32404H10.6798C10.7757 9.32404 10.8396 9.29196 10.9037 9.22844C10.9676 9.16427 11 9.06833 11 9.00416C11 8.90823 10.9676 8.84438 10.9037 8.78021C10.8399 8.71636 10.7757 8.68428 10.6798 8.68428H9.3359V7.30849C9.33211 7.22459 9.29803 7.1449 9.23997 7.08421C9.17937 7.02622 9.09983 6.99215 9.01604 6.98828C8.91979 6.98828 8.85562 7.02037 8.79146 7.08421Z" fill="white" stroke="white"/>
</svg>
