<svg width="36" height="36" viewBox="0 0 36 36" fill="none" xmlns="http://www.w3.org/2000/svg">
<path d="M16.0306 9.84189C18.2854 13.0829 23.0011 15.4026 26.5786 15.034C30.156 14.6655 31.2292 11.7388 28.9744 8.49779C26.7195 5.25678 22.0038 2.93712 18.4263 3.30567C14.8489 3.67421 13.7757 6.60088 16.0306 9.84189ZM20.7896 4.46549C22.9036 4.2487 25.6896 5.61448 27.023 7.53307C28.3564 9.44083 27.7168 11.1751 25.6029 11.3919C23.489 11.6087 20.7029 10.243 19.3695 8.32436C18.0361 6.4166 18.6757 4.68228 20.7896 4.46549Z" fill="url(#paint0_linear_8995_2774)"/>
<path d="M26.6544 22.833C26.6544 22.83 26.6568 22.8274 26.6599 22.8271C30.4398 22.4353 32.4758 20.2573 32.3892 17.3428C32.3675 16.9526 32.335 16.4215 32.2916 16.0313C32.0965 14.7522 32.0639 14.5246 31.7062 13.3105C31.6303 13.0937 31.5327 12.8228 31.446 12.5626C32.6385 15.9662 30.9365 18.7086 26.9471 19.1205C22.0796 19.63 15.6403 16.4648 12.5723 12.0532C9.7104 7.93414 10.7945 4.18367 14.9248 3.29483C14.6646 3.33819 14.3936 3.39239 14.1659 3.45742C12.8759 3.82597 12.5507 3.93436 11.2281 4.51969L10.3717 4.97495C7.32544 6.70928 6.90265 10.4597 9.72124 14.5137C13.3301 19.7042 20.9041 23.4323 26.6491 22.839C26.6521 22.8387 26.6544 22.8361 26.6544 22.833Z" fill="url(#paint1_linear_8995_2774)"/>
<path d="M25.6138 26.5076C25.6138 26.5107 25.6115 26.5133 25.6084 26.5136C19.3648 27.1611 11.1295 23.1078 7.20627 17.4621C4.85384 14.0801 4.58282 10.8825 6.08968 8.73627C5.45008 9.59259 5.23326 9.89609 4.90804 10.5031C4.43105 11.4353 4.09824 12.154 3.9107 12.6602L3.86733 12.7686C3.16269 15.1966 3.65052 17.3103 5.60185 20.302C9.52618 25.9494 17.776 30.0034 24.0094 29.353C26.3401 29.1145 28.0529 28.2474 29.0937 26.9683L29.549 26.3721C29.8417 25.9386 30.2319 25.3532 30.4921 24.898C30.9691 23.9658 31.3019 23.2471 31.4895 22.7409L31.5328 22.6325C30.7852 24.7125 28.7491 26.1753 25.6192 26.5017C25.6162 26.502 25.6138 26.5046 25.6138 26.5076Z" fill="url(#paint2_linear_8995_2774)"/>
<path d="M4.90255 23.0877C4.89916 23.0877 4.89596 23.086 4.89402 23.0833C3.74692 21.4372 3.14084 19.8346 3.03253 18.4051C3.05421 18.7411 3.06505 19.1096 3.10842 19.4023C3.30355 20.6814 3.33607 20.909 3.69381 22.123C3.81306 22.4699 3.97567 22.936 4.1166 23.2828C4.37678 23.9115 4.73452 24.5619 5.18983 25.2123C8.25775 29.624 14.6971 32.7891 19.5646 32.2796C19.7164 32.2688 19.8573 32.2471 19.9982 32.2254C21.2124 31.987 21.4401 31.9544 22.5024 31.6076C23.7058 31.1415 23.9551 31.0548 25.05 30.4478C24.1828 30.9464 23.1095 31.2716 21.8412 31.4125C16.1081 32.0085 8.52225 28.282 4.91106 23.0922C4.90911 23.0894 4.90595 23.0877 4.90255 23.0877Z" fill="url(#paint3_linear_8995_2774)"/>
<path d="M30.4973 12.3404C30.5002 12.3376 30.5049 12.338 30.5071 12.3413C31.74 14.1167 32.3457 15.8271 32.389 17.332C32.3782 16.9418 32.324 16.4106 32.2915 16.0204C32.118 14.7522 32.0313 14.4704 31.7061 13.2997C31.5868 12.9528 31.4134 12.4867 31.2833 12.1399C31.0231 11.5112 30.6654 10.8608 30.2101 10.2104C27.1421 5.79876 20.7028 2.63362 15.8353 3.14308C15.6727 3.16476 15.5209 3.17559 15.3691 3.20811C15.0005 3.27315 14.5235 3.38155 14.155 3.45742C12.6698 3.88016 12.3662 4.01024 11.2171 4.51969L10.6968 4.80152C11.499 4.4113 12.453 4.14031 13.5587 4.02108C19.2912 3.42514 26.8759 7.1507 30.4876 12.3396C30.4898 12.3428 30.4945 12.3432 30.4973 12.3404Z" fill="url(#paint4_linear_8995_2774)"/>
<path d="M11.3908 6.05889C9.06001 6.29736 7.34718 7.16452 6.30647 8.44358C5.74275 9.14815 5.71023 9.1915 4.90802 10.5031C4.50691 11.2077 4.49607 11.2402 3.91067 12.6601L3.86731 12.7685C4.72373 10.6332 6.57749 9.34326 9.36355 8.95303C19.5755 7.50054 34.579 19.2614 29.0936 26.9791L29.5489 26.383C29.8525 25.9494 30.2211 25.364 30.4921 24.9088C30.8932 24.2042 30.904 24.1717 31.4894 22.7517L31.5328 22.6433C32.27 20.5838 31.7496 17.9065 29.7983 15.1099C25.8739 9.46249 17.6242 5.40852 11.3908 6.05889Z" fill="url(#paint5_linear_8995_2774)"/>
<path d="M8.74557 12.5951C4.96216 12.9853 2.92411 15.164 3.01084 18.0799C3.02168 18.4701 3.07588 19.0012 3.1084 19.3914C3.28185 20.6597 3.36858 20.9415 3.6938 22.1122C3.75885 22.3181 3.84557 22.5674 3.94314 22.8059C2.78318 19.4348 4.49601 16.7141 8.46371 16.3022C13.3312 15.7927 19.7706 18.9579 22.8385 23.3695C25.7221 27.5102 24.6055 31.2824 20.421 32.1495C21.169 32.0086 21.4617 31.9219 22.5133 31.6076C23.6732 31.1848 23.89 31.0656 25.0608 30.4477C28.0962 28.7026 28.519 24.963 25.7004 20.9198C22.0905 15.7277 14.5128 11.9989 8.76725 12.5951H8.74557Z" fill="url(#paint6_linear_8995_2774)"/>
<path d="M19.3696 25.5809C17.1147 22.3398 12.399 20.0202 8.82155 20.3887C5.24412 20.7573 4.17089 23.6839 6.42576 26.925C8.68062 30.166 13.3963 32.4856 16.9738 32.1171C20.5512 31.7485 21.6244 28.8219 19.3696 25.5809ZM14.5996 30.9573C12.4857 31.174 9.69965 29.8083 8.36624 27.8897C7.03283 25.9819 7.67244 24.2476 9.78637 24.0308C11.9003 23.814 14.6864 25.1798 16.0198 27.0984C17.3532 29.0061 16.7136 30.7405 14.5996 30.9573Z" fill="url(#paint7_linear_8995_2774)"/>
<defs>
<linearGradient id="paint0_linear_8995_2774" x1="22.5025" y1="5.98014" x2="22.5025" y2="14.6133" gradientUnits="userSpaceOnUse">
<stop stop-color="#929CB3"/>
<stop offset="1" stop-color="#707889"/>
</linearGradient>
<linearGradient id="paint1_linear_8995_2774" x1="20.1103" y1="7.80051" x2="20.1103" y2="22.1384" gradientUnits="userSpaceOnUse">
<stop stop-color="#929CB3"/>
<stop offset="1" stop-color="#707889"/>
</linearGradient>
<linearGradient id="paint2_linear_8995_2774" x1="17.5473" y1="13.4899" x2="17.5473" y2="28.6168" gradientUnits="userSpaceOnUse">
<stop stop-color="#929CB3"/>
<stop offset="1" stop-color="#707889"/>
</linearGradient>
<linearGradient id="paint3_linear_8995_2774" x1="14.0413" y1="21.6059" x2="14.0413" y2="31.7916" gradientUnits="userSpaceOnUse">
<stop stop-color="#929CB3"/>
<stop offset="1" stop-color="#707889"/>
</linearGradient>
<linearGradient id="paint4_linear_8995_2774" x1="21.5429" y1="17.332" x2="21.5429" y2="3.08926" gradientUnits="userSpaceOnUse">
<stop stop-color="#76777B"/>
<stop offset="1" stop-color="#F4F7FF"/>
</linearGradient>
<linearGradient id="paint5_linear_8995_2774" x1="17.86" y1="26.9791" x2="17.86" y2="5.99039" gradientUnits="userSpaceOnUse">
<stop stop-color="#76777B"/>
<stop offset="1" stop-color="#F4F7FF"/>
</linearGradient>
<linearGradient id="paint6_linear_8995_2774" x1="15.301" y1="32.1495" x2="15.301" y2="12.5325" gradientUnits="userSpaceOnUse">
<stop stop-color="#76777B"/>
<stop offset="1" stop-color="#F4F7FF"/>
</linearGradient>
<linearGradient id="paint7_linear_8995_2774" x1="12.8977" y1="32.1556" x2="12.8977" y2="20.3503" gradientUnits="userSpaceOnUse">
<stop stop-color="#76777B"/>
<stop offset="1" stop-color="#F4F7FF"/>
</linearGradient>
</defs>
</svg>
