<svg width="82" height="82" viewBox="0 0 82 82" fill="none" xmlns="http://www.w3.org/2000/svg">
<path d="M39.5003 14.0555C40.4285 13.5196 41.5721 13.5196 42.5003 14.0555L68.4117 29.0154V59.5127C68.4117 60.2273 68.0305 60.8875 67.4117 61.2448L42.5003 75.6274C41.5721 76.1633 40.4285 76.1633 39.5003 75.6274L14.5889 61.2448C13.9701 60.8875 13.5889 60.2273 13.5889 59.5127V29.0154L39.5003 14.0555Z" fill="#5132AA"/>
<path opacity="0.16" d="M64.4683 62.9441L42.7573 75.479C42.2145 75.7924 41.6088 75.9493 41.003 75.9498L41.0029 45.7447L68.3485 29.4409C68.3867 29.5644 68.4074 29.6924 68.4116 29.8204V59.3148C68.4116 59.9969 68.1151 60.6367 67.6131 61.0767L64.4683 62.9441Z" fill="url(#paint0_linear_8002_24297)"/>
<path fill-rule="evenodd" clip-rule="evenodd" d="M23.858 43.0664C23.5843 43.8039 23.0878 44.2956 22.3584 44.5654C23.0963 44.8377 23.5874 45.3356 23.858 46.0643V43.0664Z" fill="white"/>
<path fill-rule="evenodd" clip-rule="evenodd" d="M23.8549 43.0664C24.1286 43.8039 24.6251 44.2956 25.3545 44.5654C24.6166 44.8377 24.1255 45.3356 23.8549 46.0643V43.0664Z" fill="white"/>
<path d="M28.6402 37.1353H26.5576V40.4707H28.6402V37.1353Z" fill="#8D96A8"/>
<path d="M55.6051 37.1353H53.5225V40.4707H55.6051V37.1353Z" fill="#8D96A8"/>
<path d="M41.089 48.2028C49.1144 48.2028 55.6203 44.7394 55.6203 40.4671C55.6203 36.1948 49.1144 32.7314 41.089 32.7314C33.0635 32.7314 26.5576 36.1948 26.5576 40.4671C26.5576 44.7394 33.0635 48.2028 41.089 48.2028Z" fill="#838B9C"/>
<path d="M41.089 44.8673C49.1144 44.8673 55.6203 41.404 55.6203 37.1317C55.6203 32.8594 49.1144 29.396 41.089 29.396C33.0635 29.396 26.5576 32.8594 26.5576 37.1317C26.5576 41.404 33.0635 44.8673 41.089 44.8673Z" fill="#C7CAD1"/>
<path d="M41.0919 43.3253C47.5122 43.3253 52.717 40.5546 52.717 37.1368C52.717 33.7189 47.5122 30.9482 41.0919 30.9482C34.6715 30.9482 29.4668 33.7189 29.4668 37.1368C29.4668 40.5546 34.6715 43.3253 41.0919 43.3253Z" fill="#8D96A8"/>
<path d="M30.8744 28.2312L28.7969 28.0859L28.5642 31.4132L30.6418 31.5585L30.8744 28.2312Z" fill="#8D96A8"/>
<path d="M57.7738 30.1121L55.6963 29.9668L55.4636 33.2941L57.5412 33.4394L57.7738 30.1121Z" fill="#8D96A8"/>
<path d="M42.5212 40.1397C50.5271 40.6995 57.2588 37.6984 57.5568 33.4365C57.8548 29.1746 51.6063 25.2659 43.6004 24.706C35.5946 24.1462 28.8629 27.1473 28.5649 31.4092C28.2669 35.6711 34.5153 39.5799 42.5212 40.1397Z" fill="#838B9C"/>
<path d="M42.7536 36.8126C50.7595 37.3724 57.4912 34.3713 57.7892 30.1094C58.0872 25.8475 51.8388 21.9387 43.8329 21.3789C35.827 20.8191 29.0953 23.8202 28.7973 28.0821C28.4993 32.344 34.7477 36.2527 42.7536 36.8126Z" fill="#C7CAD1"/>
<path d="M42.8642 35.2638C49.269 35.7117 54.6543 33.3108 54.8927 29.9013C55.1311 26.4918 50.1323 23.3647 43.7276 22.9169C37.3229 22.469 31.9376 24.8699 31.6992 28.2794C31.4608 31.6889 36.4595 34.816 42.8642 35.2638Z" fill="#8D96A8"/>
<path d="M43.1494 31.1783C45.3154 31.3298 47.1367 30.5178 47.2173 29.3648C47.2979 28.2117 45.6074 27.1542 43.4414 27.0028C41.2754 26.8513 39.4542 27.6632 39.3735 28.8163C39.2929 29.9694 40.9834 31.0269 43.1494 31.1783Z" fill="#F7F7F8"/>
<path d="M42.8597 35.2701C49.2644 35.718 54.6497 33.3182 54.888 29.9101C55.1263 26.5019 50.1275 23.376 43.7227 22.9281C37.318 22.4803 31.9328 24.88 31.6945 28.2882C31.4561 31.6964 36.455 34.8223 42.8597 35.2701Z" fill="#8D96A8"/>
<path d="M42.5809 25.8558C42.7358 25.7065 42.9811 25.7065 43.136 25.8558L46.83 29.4152C47.0892 29.6649 46.9124 30.1032 46.5525 30.1032H39.1645C38.8045 30.1032 38.6277 29.6649 38.8869 29.4152L42.5809 25.8558Z" fill="#F7F7F8"/>
<path d="M27.8641 22.173L26.0605 23.2144L27.7283 26.1029L29.5319 25.0616L27.8641 22.173Z" fill="#8D96A8"/>
<path d="M51.2284 8.67744L49.4248 9.71875L51.0925 12.6073L52.8961 11.566L51.2284 8.67744Z" fill="#8D96A8"/>
<path d="M44.1786 25.5338C51.1288 21.5211 55.0314 15.2687 52.8953 11.5688C50.7591 7.8689 43.3932 8.12248 36.4429 12.1352C29.4927 16.1479 25.5901 22.4003 27.7262 26.1002C29.8624 29.8001 37.2284 29.5465 44.1786 25.5338Z" fill="#838B9C"/>
<path d="M42.5106 22.6456C49.4609 18.6329 53.3635 12.3805 51.2273 8.68063C49.0912 4.98071 41.7252 5.23429 34.775 9.24702C27.8247 13.2597 23.9221 19.5121 26.0583 23.212C28.1944 26.9119 35.5604 26.6583 42.5106 22.6456Z" fill="#C7CAD1"/>
<path d="M41.7386 21.3057C47.2988 18.0956 50.4209 13.0937 48.7119 10.1338C47.003 7.17383 41.1102 7.37669 35.55 10.5869C29.9898 13.7971 26.8678 18.7989 28.5767 21.7588C30.2856 24.7188 36.1784 24.5159 41.7386 21.3057Z" fill="#8D96A8"/>
<path d="M37.5274 13.2464L42.7776 13.3108C42.9664 13.3139 43.0835 13.5168 42.9918 13.6819L40.4225 18.2609C40.2894 18.4988 40.0348 18.6458 39.7622 18.6421L34.512 18.5777C34.3232 18.5745 34.2061 18.3717 34.2977 18.2066L36.8671 13.6276C37.0002 13.3896 37.2548 13.2426 37.5274 13.2464Z" fill="#F7F7F8"/>
<path d="M68.4102 29.0156L40.9985 45.3588L47.9687 56.5111C48.2571 56.9725 48.8615 57.1187 49.3288 56.84L75.0223 41.5213C75.5037 41.2343 75.6552 40.6077 75.3582 40.1324L68.4102 29.0156Z" fill="#694CD9"/>
<path d="M13.5898 29.0156L41.0015 45.3588L34.0313 56.5111C33.7429 56.9725 33.1385 57.1187 32.6712 56.84L6.97771 41.5213C6.49629 41.2343 6.34476 40.6077 6.64182 40.1324L13.5898 29.0156Z" fill="#694CD9"/>
<g opacity="0.2" filter="url(#filter0_d_8002_24297)">
<ellipse cx="53.5191" cy="45.2147" rx="16.1754" ry="16.1747" fill="#F7F7F8"/>
</g>
<path d="M64.8428 56.541L68.4014 60.0994" stroke="#585E6B" stroke-width="2.15458" stroke-linecap="round"/>
<path d="M68.2627 59.9595L77.98 69.6763" stroke="#303541" stroke-width="4.5" stroke-linecap="round"/>
<path d="M68.4445 45.2147C68.4445 53.4573 61.7622 60.1394 53.5191 60.1394C45.276 60.1394 38.5938 53.4573 38.5938 45.2147C38.5938 36.9721 45.276 30.29 53.5191 30.29C61.7622 30.29 68.4445 36.9721 68.4445 45.2147Z" stroke="#343A46" stroke-width="2.5"/>
<path fill-rule="evenodd" clip-rule="evenodd" d="M60.8916 15.4614C60.4107 16.7576 59.5379 17.622 58.2559 18.0962C59.5529 18.5749 60.4161 19.4501 60.8916 20.7308V15.4614Z" fill="white"/>
<path fill-rule="evenodd" clip-rule="evenodd" d="M60.8916 15.4614C61.3725 16.7576 62.2453 17.622 63.5273 18.0962C62.2303 18.5749 61.3671 19.4501 60.8916 20.7308V15.4614Z" fill="white"/>
<path fill-rule="evenodd" clip-rule="evenodd" d="M22.2619 26.6982C21.8343 27.8504 21.0585 28.6188 19.9189 29.0403C21.0718 29.4658 21.8391 30.2437 22.2619 31.3821V26.6982Z" fill="white"/>
<path fill-rule="evenodd" clip-rule="evenodd" d="M22.2616 26.6982C22.6891 27.8504 23.4649 28.6188 24.6045 29.0403C23.4516 29.4658 22.6843 30.2437 22.2616 31.3821V26.6982Z" fill="white"/>
<path fill-rule="evenodd" clip-rule="evenodd" d="M57.3781 8.43457C57.0575 9.29861 56.4757 9.87479 55.6211 10.1909C56.4857 10.51 57.0611 11.0933 57.3781 11.947V8.43457Z" fill="white"/>
<path fill-rule="evenodd" clip-rule="evenodd" d="M57.3778 8.43506C57.6984 9.29909 58.2802 9.87528 59.1348 10.1914C58.2702 10.5105 57.6948 11.0938 57.3778 11.9475V8.43506Z" fill="white"/>
<defs>
<filter id="filter0_d_8002_24297" x="34.3438" y="29.04" width="35.3506" height="35.3491" filterUnits="userSpaceOnUse" color-interpolation-filters="sRGB">
<feFlood flood-opacity="0" result="BackgroundImageFix"/>
<feColorMatrix in="SourceAlpha" type="matrix" values="0 0 0 0 0 0 0 0 0 0 0 0 0 0 0 0 0 0 127 0" result="hardAlpha"/>
<feOffset dx="-3" dy="3"/>
<feComposite in2="hardAlpha" operator="out"/>
<feColorMatrix type="matrix" values="0 0 0 0 0 0 0 0 0 0 0 0 0 0 0 0 0 0 0.6 0"/>
<feBlend mode="normal" in2="BackgroundImageFix" result="effect1_dropShadow_8002_24297"/>
<feBlend mode="normal" in="SourceGraphic" in2="effect1_dropShadow_8002_24297" result="shape"/>
</filter>
<linearGradient id="paint0_linear_8002_24297" x1="54.7073" y1="42.0027" x2="54.7073" y2="76.2138" gradientUnits="userSpaceOnUse">
<stop stop-opacity="0"/>
<stop offset="1"/>
</linearGradient>
</defs>
</svg>
