<svg width="28" height="28" viewBox="0 0 28 28" fill="none" xmlns="http://www.w3.org/2000/svg">
<path d="M7.14846 9.10981C7.00808 9.2546 6.96321 9.46806 7.03123 9.65913L7.03268 9.65465L8.5234 13.8224C8.56538 13.9388 8.56538 14.0672 8.5234 14.1836L7.03702 18.3379C6.969 18.529 7.01531 18.7439 7.15425 18.8872L9.05167 20.8442C9.19206 20.989 9.39902 21.0353 9.58428 20.9651L13.6251 19.4276C13.725 19.3888 13.7901 19.2917 13.7901 19.1828V18.2692C13.7901 18.2006 13.7641 18.1349 13.7163 18.0856L12.7365 17.075C12.667 17.0034 12.5628 16.9795 12.4702 17.0153L10.1893 17.8826C10.0879 17.9214 9.98952 17.8199 10.0272 17.7154L10.868 15.3629C10.9028 15.2673 10.8796 15.1599 10.8101 15.0882L9.93018 14.1806C9.83176 14.0791 9.83176 13.9134 9.93018 13.8119L10.8058 12.9088C10.8753 12.8372 10.8984 12.7297 10.8637 12.6341L10.0228 10.2816C9.98518 10.1771 10.0836 10.0756 10.1849 10.1144L11.3789 10.5682L12.4659 10.9817C12.5585 11.0175 12.6627 10.9936 12.7322 10.922L13.7163 9.90693C13.7641 9.85916 13.7901 9.79198 13.7901 9.72332V8.80977C13.7901 8.7008 13.725 8.60228 13.6251 8.56496L9.57848 7.03192C9.39323 6.96176 9.18482 7.00953 9.04588 7.15283L7.14846 9.10981Z" fill="url(#paint0_linear_9505_15542)"/>
<path d="M20.8515 18.8902C20.9919 18.7454 21.0368 18.5319 20.9688 18.3409L20.9673 18.3453L19.4766 14.1776C19.4346 14.0612 19.4346 13.9328 19.4766 13.8164L20.963 9.66212C21.031 9.47105 20.9847 9.25609 20.8457 9.11279L18.9483 7.15582C18.8079 7.01102 18.601 6.96475 18.4157 7.03491L14.3749 8.57242C14.2764 8.61123 14.2099 8.70826 14.2099 8.81723V9.73078C14.2099 9.79945 14.2359 9.86513 14.2837 9.91439L15.2635 10.925C15.333 10.9966 15.4372 11.0205 15.5298 10.9847L17.8107 10.1174C17.9121 10.0786 18.0105 10.1801 17.9728 10.2846L17.132 12.6371C17.0972 12.7327 17.1204 12.8401 17.1899 12.9118L18.0698 13.8194C18.1682 13.9209 18.1682 14.0866 18.0698 14.1881L17.1942 15.0912C17.1247 15.1628 17.1016 15.2703 17.1363 15.3659L17.9772 17.7184C18.0148 17.8229 17.9164 17.9244 17.8151 17.8856L16.6211 17.4318L15.5341 17.0183C15.4415 16.9825 15.3373 17.0064 15.2678 17.078L14.2837 18.0931C14.2359 18.1408 14.2099 18.208 14.2099 18.2767V19.1902C14.2099 19.2992 14.275 19.3977 14.3749 19.435L18.4215 20.9681C18.6068 21.0382 18.8152 20.9905 18.9541 20.8472L20.8515 18.8902Z" fill="url(#paint1_linear_9505_15542)"/>
<path fill-rule="evenodd" clip-rule="evenodd" d="M7.22842 3.11819C7.01745 3.24976 6.81058 3.38729 6.60804 3.53055C6.55013 3.57152 6.49256 3.61296 6.43536 3.65485C6.26418 3.78025 6.09622 3.90978 5.93164 4.04332C3.03622 6.39256 1.18562 9.97933 1.18512 13.9983C1.18512 13.9989 1.18512 13.9994 1.18512 14C1.18512 15.468 1.43196 16.8784 1.88641 18.1918C1.95779 18.3982 2.0343 18.6021 2.11578 18.8035C2.13758 18.8574 2.15974 18.9111 2.18225 18.9646C2.28021 19.1975 2.38485 19.4269 2.49593 19.6525C4.58463 23.8954 8.95144 26.815 14.0002 26.815C16.5632 26.815 18.9505 26.0626 20.9533 24.7665C21.1655 24.6291 21.3735 24.4857 21.5769 24.3363C21.6229 24.3025 21.6686 24.2685 21.7142 24.2341C21.8882 24.1027 22.0588 23.967 22.2258 23.8271C25.0312 21.4763 26.8152 17.9465 26.8152 14C26.8152 13.9994 26.8152 13.9989 26.8152 13.9983C26.815 12.4775 26.5499 11.0186 26.0635 9.66525C25.9917 9.46544 25.9151 9.26792 25.8338 9.07285C25.8061 9.00657 25.778 8.94058 25.7493 8.87487C25.6497 8.64696 25.5437 8.4225 25.4315 8.20173C23.3153 4.03782 18.9909 1.18494 14.0002 1.18494C11.514 1.18494 9.19325 1.89289 7.22842 3.11819ZM7.4737 4.75426C7.26938 4.89879 7.07006 5.04993 6.87606 5.20736C6.59535 5.43516 6.32576 5.67613 6.06824 5.92933C3.9804 7.98215 2.68565 10.839 2.68565 13.9983C2.68565 13.9989 2.68565 13.9994 2.68565 14C2.68578 14.9158 2.7947 15.8061 3.0002 16.6589C3.08553 17.013 3.18753 17.3606 3.3053 17.7009C3.38513 17.9316 3.47221 18.1588 3.56627 18.3824L2.32754 18.0392C1.88964 16.7736 1.65179 15.4145 1.65179 14C1.65179 13.9994 1.65179 13.9989 1.65179 13.9983C1.65229 10.1256 3.43558 6.6694 6.22567 4.40572L7.4737 4.75426ZM20.6891 23.1266C20.885 22.9829 21.0762 22.8329 21.2622 22.6771C21.5402 22.4442 21.8069 22.1983 22.0612 21.9401C24.0739 19.8977 25.316 17.0939 25.3165 14C25.3165 13.9994 25.3165 13.9989 25.3165 13.9983C25.3165 13.0354 25.1962 12.1005 24.9698 11.2079C24.8805 10.8558 24.7747 10.5102 24.6532 10.1721C24.5683 9.93583 24.4758 9.70321 24.376 9.47452L25.6242 9.82312C26.0929 11.1272 26.3483 12.533 26.3485 13.9983C26.3485 13.9989 26.3485 13.9994 26.3485 14C26.3485 17.8028 24.6295 21.2042 21.9261 23.4694L20.6891 23.1266ZM22.6275 7.41866C20.6452 4.82372 17.5187 3.1496 14.0011 3.1496C12.5987 3.1496 11.2585 3.41567 10.0282 3.90008C9.21379 4.22075 8.44751 4.63709 7.74322 5.13527C7.58144 5.24971 7.42292 5.36847 7.26784 5.49137C7.23511 5.51732 7.20252 5.54345 7.17009 5.56977C6.97087 5.73143 6.7775 5.9 6.59033 6.07514C4.47457 8.05487 3.15231 10.8722 3.15231 13.9983C3.15231 13.9989 3.15231 13.9994 3.15231 14C3.15246 14.9691 3.27966 15.9085 3.51818 16.8024C3.58551 17.0548 3.66171 17.3035 3.74643 17.5483C3.75582 17.5754 3.7653 17.6024 3.77489 17.6294C3.84351 17.8227 3.91745 18.0134 3.99654 18.2014C4.32901 18.9919 4.75243 19.7346 5.25369 20.4166C7.22836 23.1033 10.4111 24.8471 14.0011 24.8471C15.4903 24.8471 16.9094 24.547 18.2013 24.004C18.9904 23.6724 19.7319 23.2502 20.413 22.7504C20.5782 22.6291 20.7399 22.5033 20.8979 22.373C20.9195 22.3552 20.941 22.3373 20.9625 22.3194C21.1623 22.152 21.356 21.9777 21.5431 21.7966C23.5818 19.8245 24.8494 17.0603 24.8498 14C24.8498 13.9994 24.8498 13.9989 24.8498 13.9983C24.8498 12.9808 24.7097 11.996 24.4478 11.0622C24.3783 10.8144 24.3002 10.5702 24.2139 10.33C24.1996 10.2901 24.1851 10.2504 24.1703 10.2108C24.1012 10.0252 24.0271 9.84198 23.9482 9.66131C23.5976 8.85846 23.1527 8.10623 22.6275 7.41866Z" fill="url(#paint2_linear_9505_15542)"/>
<defs>
<linearGradient id="paint0_linear_9505_15542" x1="14" y1="7" x2="14" y2="21" gradientUnits="userSpaceOnUse">
<stop stop-color="#F7F7F8"/>
<stop offset="1" stop-color="#E3E3E7"/>
</linearGradient>
<linearGradient id="paint1_linear_9505_15542" x1="14" y1="7" x2="14" y2="21" gradientUnits="userSpaceOnUse">
<stop stop-color="#F7F7F8"/>
<stop offset="1" stop-color="#E3E3E7"/>
</linearGradient>
<linearGradient id="paint2_linear_9505_15542" x1="14.0002" y1="1.16664" x2="14.0002" y2="26.8333" gradientUnits="userSpaceOnUse">
<stop stop-color="#707889"/>
<stop offset="1" stop-color="#929CB3"/>
</linearGradient>
</defs>
</svg>
