<svg width="18" height="18" viewBox="0 0 18 18" fill="none" xmlns="http://www.w3.org/2000/svg">
<g clip-path="url(#clip0_2268_109)">
<path d="M9.90519 8.84459C10.0458 8.98524 10.1248 9.17597 10.1248 9.37484C10.1248 9.57371 10.0458 9.76444 9.90519 9.90509L6.53019 13.2801C6.38954 13.4207 6.19881 13.4997 5.99994 13.4997C5.80107 13.4997 5.61034 13.4207 5.46969 13.2801L3.96969 11.7801C3.89806 11.7109 3.84092 11.6281 3.80161 11.5366C3.76231 11.4451 3.74162 11.3467 3.74075 11.2471C3.73989 11.1476 3.75886 11.0488 3.79657 10.9566C3.83428 10.8645 3.88997 10.7807 3.96039 10.7103C4.03081 10.6399 4.11455 10.5842 4.20672 10.5465C4.2989 10.5088 4.39766 10.4898 4.49724 10.4907C4.59682 10.4915 4.69524 10.5122 4.78674 10.5515C4.87825 10.5908 4.961 10.648 5.03019 10.7196L5.99994 11.6893L8.84469 8.84459C8.98534 8.70399 9.17607 8.625 9.37494 8.625C9.57381 8.625 9.76454 8.70399 9.90519 8.84459Z" fill="white"/>
<path d="M8.3715 0.75H14.1285C14.5245 0.75 14.865 0.75 15.1462 0.7725C15.4425 0.79725 15.738 0.8505 16.0215 0.99525C16.4448 1.21096 16.789 1.55515 17.0047 1.9785C17.1495 2.262 17.2027 2.5575 17.2267 2.85375C17.25 3.135 17.25 3.47625 17.25 3.87075V9.62925C17.25 10.0245 17.25 10.365 17.2275 10.6462C17.2027 10.9425 17.1495 11.238 17.0047 11.5215C16.789 11.9448 16.4448 12.289 16.0215 12.5048C15.738 12.6495 15.4425 12.7028 15.1462 12.7267C14.865 12.75 14.5237 12.75 14.1285 12.75H12.75V14.1285C12.75 14.5245 12.75 14.865 12.7275 15.1462C12.7028 15.4425 12.6495 15.738 12.5048 16.0215C12.289 16.4448 11.9448 16.789 11.5215 17.0047C11.238 17.1495 10.9425 17.2027 10.6462 17.2267C10.365 17.25 10.0238 17.25 9.62925 17.25H3.87C3.47475 17.25 3.13425 17.25 2.853 17.2275C2.55675 17.2027 2.26125 17.1495 1.97775 17.0047C1.5544 16.789 1.21021 16.4448 0.9945 16.0215C0.84975 15.738 0.7965 15.4425 0.7725 15.1462C0.75 14.865 0.75 14.5237 0.75 14.1285V8.37075C0.75 7.9755 0.75 7.635 0.7725 7.35375C0.79725 7.0575 0.8505 6.762 0.99525 6.4785C1.21096 6.05515 1.55515 5.71096 1.9785 5.49525C2.262 5.3505 2.5575 5.29725 2.85375 5.27325C3.135 5.25 3.47625 5.25 3.87075 5.25H5.25V3.87075C5.25 3.4755 5.25 3.135 5.2725 2.85375C5.29725 2.5575 5.3505 2.262 5.49525 1.9785C5.71096 1.55515 6.05515 1.21096 6.4785 0.99525C6.762 0.8505 7.0575 0.79725 7.35375 0.77325C7.635 0.75 7.97625 0.75 8.3715 0.75ZM3.9 6.75C3.46725 6.75 3.18825 6.75 2.976 6.768C2.772 6.7845 2.69625 6.813 2.6595 6.83175C2.51838 6.90365 2.40365 7.01838 2.33175 7.1595C2.313 7.197 2.2845 7.272 2.268 7.476C2.25 7.6875 2.25 7.96725 2.25 8.4V14.1C2.25 14.5328 2.25 14.8117 2.268 15.024C2.2845 15.228 2.313 15.3037 2.33175 15.3405C2.40365 15.4816 2.51838 15.5963 2.6595 15.6682C2.697 15.687 2.772 15.7155 2.976 15.732C3.1875 15.75 3.46725 15.75 3.9 15.75H9.6C10.0328 15.75 10.3117 15.75 10.524 15.732C10.728 15.7155 10.8037 15.687 10.8405 15.6682C10.9816 15.5963 11.0963 15.4816 11.1682 15.3405C11.187 15.303 11.2155 15.228 11.232 15.024C11.25 14.8125 11.25 14.5328 11.25 14.1V8.4C11.25 7.96725 11.25 7.68825 11.232 7.476C11.2155 7.272 11.187 7.19625 11.1682 7.1595C11.0963 7.01838 10.9816 6.90365 10.8405 6.83175C10.803 6.813 10.728 6.7845 10.524 6.768C10.3125 6.75 10.0328 6.75 9.6 6.75H3.9ZM12.75 11.25H14.1C14.5328 11.25 14.8117 11.25 15.024 11.232C15.228 11.2155 15.3037 11.187 15.3405 11.1682C15.4816 11.0963 15.5963 10.9816 15.6682 10.8405C15.687 10.803 15.7155 10.728 15.732 10.524C15.75 10.3125 15.75 10.0328 15.75 9.6V3.9C15.75 3.46725 15.75 3.18825 15.732 2.976C15.7155 2.772 15.687 2.69625 15.6682 2.6595C15.5963 2.51838 15.4816 2.40365 15.3405 2.33175C15.303 2.313 15.228 2.2845 15.024 2.268C14.8125 2.25 14.5328 2.25 14.1 2.25H8.4C7.96725 2.25 7.68825 2.25 7.476 2.268C7.272 2.2845 7.19625 2.313 7.1595 2.33175C7.01838 2.40365 6.90365 2.51838 6.83175 2.6595C6.813 2.697 6.7845 2.772 6.768 2.976C6.75 3.1875 6.75 3.46725 6.75 3.9V5.25H9.6285C10.0245 5.25 10.365 5.25 10.6462 5.2725C10.9425 5.29725 11.238 5.3505 11.5215 5.49525C11.9448 5.71096 12.289 6.05515 12.5048 6.4785C12.6495 6.762 12.7028 7.0575 12.7267 7.35375C12.75 7.635 12.75 7.97625 12.75 8.3715V11.25Z" fill="white"/>
</g>
<defs>
<clipPath id="clip0_2268_109">
<rect width="18" height="18" fill="white"/>
</clipPath>
</defs>
</svg>
