<svg width="20" height="20" viewBox="0 0 20 20" fill="none" xmlns="http://www.w3.org/2000/svg">
<path d="M0 1.66667C0 0.746192 0.746192 0 1.66667 0H18.3333C19.2538 0 20 0.746192 20 1.66667V18.3333C20 19.2538 19.2538 20 18.3333 20H1.66667C0.746192 20 0 19.2538 0 18.3333V1.66667Z" fill="#292E38"/>
<path fill-rule="evenodd" clip-rule="evenodd" d="M12.2559 5.52186C11.9305 5.19642 11.4028 5.19642 11.0774 5.52186L7.18852 9.41075C6.86308 9.73618 6.86308 10.2638 7.18852 10.5893L11.0774 14.4781C11.4028 14.8036 11.9305 14.8036 12.2559 14.4781C12.5814 14.1527 12.5814 13.6251 12.2559 13.2996L8.95629 10L12.2559 6.70037C12.5814 6.37493 12.5814 5.84729 12.2559 5.52186Z" fill="#777F91"/>
</svg>
