<svg width="28" height="28" viewBox="0 0 28 28" fill="none" xmlns="http://www.w3.org/2000/svg">
<path fill-rule="evenodd" clip-rule="evenodd" d="M12.5187 12.8601C14.916 12.8601 16.8593 10.9168 16.8593 8.51939C16.8593 8.40586 16.8527 8.28565 16.846 8.17213C16.679 6.05521 14.9828 4.35902 12.8659 4.19207C12.7524 4.18539 12.6322 4.17871 12.5187 4.17871C10.1213 4.17871 8.17798 6.122 8.17798 8.51939C8.17798 10.9168 10.1213 12.8601 12.5187 12.8601ZM12.8015 6.84546C12.6452 6.68925 12.392 6.68925 12.2358 6.84546L10.8444 8.23682C10.6882 8.39303 10.6882 8.6463 10.8444 8.80251L12.2358 10.1939C12.392 10.3501 12.6452 10.3501 12.8015 10.1939L14.1928 8.80251C14.349 8.6463 14.349 8.39303 14.1928 8.23683L12.8015 6.84546Z" fill="url(#paint0_linear_8613_10204)"/>
<path d="M7.72241 24.0336C7.72241 23.0889 8.48973 22.3216 9.43444 22.3216C10.3778 22.3216 11.1451 23.0889 11.1451 24.0336C11.1451 24.9783 10.3778 25.747 9.43444 25.747C8.48973 25.747 7.72241 24.9783 7.72241 24.0336Z" fill="url(#paint1_linear_8613_10204)"/>
<path d="M19.0613 24.0337C19.0613 23.089 19.8286 22.3217 20.7733 22.3217C21.7167 22.3217 22.484 23.089 22.484 24.0337C22.484 24.9784 21.7167 25.7471 20.7733 25.7471C19.8286 25.7471 19.0613 24.9784 19.0613 24.0337Z" fill="url(#paint2_linear_8613_10204)"/>
<path fill-rule="evenodd" clip-rule="evenodd" d="M7.19603 9.30014C6.99719 9.30014 6.82854 9.15408 6.80014 8.95728L6.39147 6.12587C6.36307 5.92907 6.19441 5.78301 5.99557 5.78301H2.25938C2.03846 5.78301 1.85938 5.9621 1.85938 6.18301V7.10709C1.85938 7.32801 2.03846 7.50709 2.25938 7.50709H4.43193C4.63098 7.50709 4.79974 7.65344 4.82791 7.85049L6.63771 20.5107C6.66588 20.7077 6.83464 20.8541 7.03369 20.8541H22.9382C23.1367 20.8541 23.3052 20.7084 23.334 20.5119L24.9066 9.75802C24.9419 9.51663 24.7548 9.30014 24.5108 9.30014H7.19603Z" fill="url(#paint3_linear_8613_10204)"/>
<rect x="16.5156" y="12.7834" width="5.09143" height="1.63004" rx="0.2" fill="#F7F7F8"/>
<circle cx="19.8063" cy="4.40378" r="2.15082" fill="url(#paint4_linear_8613_10204)"/>
<defs>
<linearGradient id="paint0_linear_8613_10204" x1="12.5187" y1="4.17871" x2="12.5187" y2="12.8601" gradientUnits="userSpaceOnUse">
<stop stop-color="#F7F7F8"/>
<stop offset="1" stop-color="#E3E3E7"/>
</linearGradient>
<linearGradient id="paint1_linear_8613_10204" x1="9.43377" y1="22.3216" x2="9.43377" y2="25.747" gradientUnits="userSpaceOnUse">
<stop stop-color="#F7F7F8"/>
<stop offset="1" stop-color="#E3E3E7"/>
</linearGradient>
<linearGradient id="paint2_linear_8613_10204" x1="20.7726" y1="22.3217" x2="20.7726" y2="25.7471" gradientUnits="userSpaceOnUse">
<stop stop-color="#F7F7F8"/>
<stop offset="1" stop-color="#E3E3E7"/>
</linearGradient>
<linearGradient id="paint3_linear_8613_10204" x1="13.4165" y1="5.78301" x2="13.4165" y2="20.8541" gradientUnits="userSpaceOnUse">
<stop stop-color="#929CB3"/>
<stop offset="1" stop-color="#707889"/>
</linearGradient>
<linearGradient id="paint4_linear_8613_10204" x1="19.8063" y1="2.25297" x2="19.8063" y2="6.5546" gradientUnits="userSpaceOnUse">
<stop stop-color="#929CB3"/>
<stop offset="1" stop-color="#707889"/>
</linearGradient>
</defs>
</svg>
