<svg width="14" height="14" viewBox="0 0 14 14" fill="none" xmlns="http://www.w3.org/2000/svg">
<path d="M4.89998 7.93333C5.15771 7.93333 5.36664 7.7244 5.36664 7.46667C5.36664 7.20893 5.15771 7 4.89998 7C4.64224 7 4.43331 7.20893 4.43331 7.46667C4.43331 7.7244 4.64224 7.93333 4.89998 7.93333Z" fill="#838B9C"/>
<path d="M5.36664 9.42878C5.36664 9.68651 5.15771 9.89544 4.89998 9.89544C4.64224 9.89544 4.43331 9.68651 4.43331 9.42878C4.43331 9.17104 4.64224 8.96211 4.89998 8.96211C5.15771 8.96211 5.36664 9.17104 5.36664 9.42878Z" fill="#838B9C"/>
<path d="M7.00003 7.93333C7.25777 7.93333 7.4667 7.7244 7.4667 7.46667C7.4667 7.20893 7.25777 7 7.00003 7C6.7423 7 6.53337 7.20893 6.53337 7.46667C6.53337 7.7244 6.7423 7.93333 7.00003 7.93333Z" fill="#838B9C"/>
<path d="M7.4667 9.42878C7.4667 9.68651 7.25777 9.89544 7.00003 9.89544C6.7423 9.89544 6.53337 9.68651 6.53337 9.42878C6.53337 9.17104 6.7423 8.96211 7.00003 8.96211C7.25777 8.96211 7.4667 9.17104 7.4667 9.42878Z" fill="#838B9C"/>
<path d="M9.10009 7.93333C9.35782 7.93333 9.56676 7.7244 9.56676 7.46667C9.56676 7.20893 9.35782 7 9.10009 7C8.84236 7 8.63342 7.20893 8.63342 7.46667C8.63342 7.7244 8.84236 7.93333 9.10009 7.93333Z" fill="#838B9C"/>
<path fill-rule="evenodd" clip-rule="evenodd" d="M9.33334 1.28331C9.59107 1.28331 9.8 1.49224 9.8 1.74997V2.45H11.3167C11.7677 2.45 12.1334 2.81564 12.1334 3.26667V11.3167C12.1334 11.7677 11.7677 12.1333 11.3167 12.1333H2.68337C2.23233 12.1333 1.8667 11.7677 1.8667 11.3167V3.26667C1.8667 2.81564 2.23233 2.45 2.68337 2.45H4.2V1.74997C4.2 1.49224 4.40894 1.28331 4.66667 1.28331C4.9244 1.28331 5.13334 1.49224 5.13334 1.74997V2.45H8.86667V1.74997C8.86667 1.49224 9.0756 1.28331 9.33334 1.28331ZM11.2 4.78333V3.38333H2.80003V4.78333H11.2ZM2.80003 5.71667H11.2V11.2H2.80003V5.71667Z" fill="#838B9C"/>
</svg>
