<svg width="16" height="16" viewBox="0 0 16 16" fill="none" xmlns="http://www.w3.org/2000/svg">
<path fill-rule="evenodd" clip-rule="evenodd" d="M1.99902 8.0001C1.99902 4.68607 4.68558 1.99951 7.99961 1.99951C11.3136 1.99951 14.0002 4.68607 14.0002 8.0001C14.0002 11.3141 11.3136 14.0007 7.99961 14.0007C4.68558 14.0007 1.99902 11.3141 1.99902 8.0001ZM7.99942 4.48741C8.57481 4.48798 9.02237 4.99088 8.95362 5.56445L8.53106 9.09823C8.49961 9.36946 8.26966 9.57386 7.99647 9.57386C7.72328 9.57386 7.49333 9.36946 7.46188 9.09823L7.04522 5.56248C6.97843 4.99088 7.42403 4.48798 7.99942 4.48741ZM7.99942 4.48741C7.99975 4.48741 8.00007 4.48741 8.0004 4.48741H7.99844C7.99876 4.48741 7.99909 4.48741 7.99942 4.48741ZM7.23044 10.7478C7.23044 10.962 7.30512 11.1448 7.45253 11.2922C7.59993 11.4396 7.78272 11.5143 7.99695 11.5143C8.21117 11.5143 8.39396 11.4396 8.54136 11.2922C8.68876 11.1448 8.76345 10.962 8.76345 10.7478C8.76345 10.5335 8.68876 10.3508 8.54136 10.2033C8.39396 10.0559 8.21117 9.98126 7.99695 9.98126C7.78272 9.98126 7.59993 10.0559 7.45253 10.2033C7.30512 10.3508 7.23044 10.5335 7.23044 10.7478Z" fill="white"/>
</svg>
