<svg width="18" height="18" viewBox="0 0 18 18" fill="none" xmlns="http://www.w3.org/2000/svg">
<g clip-path="url(#clip0_2268_140)">
<path d="M6 7.49971C6.00005 7.0009 6.12447 6.50997 6.36201 6.07136C6.59955 5.63274 6.94271 5.26028 7.36043 4.98767C7.77816 4.71506 8.25726 4.55091 8.7544 4.51007C9.25153 4.46923 9.751 4.553 10.2076 4.75379C10.6642 4.95458 11.0636 5.26605 11.3695 5.66003C11.6754 6.054 11.8783 6.51804 11.9597 7.01015C12.0412 7.50227 11.9986 8.00692 11.836 8.47845C11.6733 8.94999 11.3956 9.37351 11.028 9.71071L11.6985 11.723L11.7053 11.7432C11.7435 11.8587 11.7863 11.987 11.8133 12.101C11.8433 12.2247 11.877 12.4235 11.8208 12.6485C11.7509 12.9273 11.577 13.1688 11.3348 13.3235C11.139 13.448 10.9395 13.478 10.8127 13.4892C10.6885 13.498 10.5638 13.5015 10.4392 13.4997H7.56075C7.43925 13.4997 7.3035 13.4997 7.18725 13.4892C7.00239 13.477 6.82326 13.4202 6.66525 13.3235C6.42297 13.1688 6.24907 12.9273 6.17925 12.6485C6.123 12.4235 6.15675 12.2247 6.18675 12.101C6.21375 11.987 6.2565 11.858 6.29475 11.7432L6.30225 11.723L6.972 9.71071L6.957 9.69571C6.65491 9.41526 6.41398 9.07546 6.24931 8.69759C6.08463 8.31971 5.99976 7.9119 6 7.49971ZM9 5.99971C8.69862 5.99964 8.40421 6.09035 8.15514 6.26003C7.90606 6.42971 7.71388 6.67048 7.60363 6.95096C7.49337 7.23145 7.47017 7.53865 7.53704 7.83251C7.6039 8.12638 7.75774 8.39329 7.9785 8.59846L7.98825 8.60746C8.0595 8.67346 8.13075 8.73946 8.1855 8.79496C8.33614 8.93801 8.4437 9.1204 8.496 9.32146C8.54436 9.51402 8.54021 9.71603 8.484 9.90646C8.46525 9.97471 8.43975 10.052 8.4165 10.121L7.791 11.9997H10.2105L9.5835 10.121C9.561 10.052 9.5355 9.97471 9.516 9.90646C9.4619 9.71568 9.45802 9.51417 9.50475 9.32146C9.55718 9.12067 9.66473 8.93856 9.81525 8.79571C9.87075 8.73946 9.94125 8.67346 10.0125 8.60746L10.0223 8.59846C10.2431 8.39324 10.3969 8.12627 10.4638 7.83233C10.5306 7.53839 10.5073 7.23113 10.397 6.95062C10.2866 6.6701 10.0943 6.42933 9.84515 6.25971C9.59596 6.09009 9.30144 5.99948 9 5.99971Z" fill="white"/>
<path d="M0.75 9C0.75 4.44375 4.44375 0.75 9 0.75C13.5563 0.75 17.25 4.44375 17.25 9C17.25 13.5563 13.5563 17.25 9 17.25C4.44375 17.25 0.75 13.5563 0.75 9ZM9 2.25C8.11358 2.25 7.23583 2.42459 6.41689 2.76381C5.59794 3.10303 4.85382 3.60023 4.22703 4.22703C3.60023 4.85382 3.10303 5.59794 2.76381 6.41689C2.42459 7.23583 2.25 8.11358 2.25 9C2.25 9.88642 2.42459 10.7642 2.76381 11.5831C3.10303 12.4021 3.60023 13.1462 4.22703 13.773C4.85382 14.3998 5.59794 14.897 6.41689 15.2362C7.23583 15.5754 8.11358 15.75 9 15.75C10.7902 15.75 12.5071 15.0388 13.773 13.773C15.0388 12.5071 15.75 10.7902 15.75 9C15.75 7.20979 15.0388 5.4929 13.773 4.22703C12.5071 2.96116 10.7902 2.25 9 2.25Z" fill="white"/>
</g>
<defs>
<clipPath id="clip0_2268_140">
<rect width="18" height="18" fill="white"/>
</clipPath>
</defs>
</svg>
