<svg width="28" height="28" viewBox="0 0 28 28" fill="none" xmlns="http://www.w3.org/2000/svg">
<path fill-rule="evenodd" clip-rule="evenodd" d="M9.56665 7.47166C9.56665 5.0232 11.5515 3.03833 14 3.03833C16.4484 3.03833 18.4333 5.0232 18.4333 7.47166V11.1096C18.4333 11.3305 18.2542 11.5096 18.0333 11.5096H16.9667C16.7457 11.5096 16.5667 11.3305 16.5667 11.1096V7.47166C16.5667 6.05413 15.4175 4.905 14 4.905C12.5825 4.905 11.4333 6.05413 11.4333 7.47166V11.1096C11.4333 11.3305 11.2542 11.5096 11.0333 11.5096H9.96665C9.74574 11.5096 9.56665 11.3305 9.56665 11.1096V7.47166Z" fill="url(#paint0_linear_4232_19049)"/>
<path d="M6.01587 9.53721C6.01587 9.31629 6.19496 9.13721 6.41587 9.13721H21.5842C21.8051 9.13721 21.9842 9.31629 21.9842 9.53721V22.6583C21.9842 22.8793 21.8051 23.0583 21.5842 23.0583H6.41587C6.19495 23.0583 6.01587 22.8793 6.01587 22.6583V9.53721Z" fill="url(#paint1_linear_4232_19049)"/>
<path fill-rule="evenodd" clip-rule="evenodd" d="M14.6312 16.9239C15.1205 16.6886 15.4582 16.1882 15.4582 15.609C15.4582 14.8036 14.8053 14.1506 13.9998 14.1506C13.1944 14.1506 12.5415 14.8036 12.5415 15.609C12.5415 16.1882 12.8792 16.6886 13.3685 16.9239L13.145 18.774C13.1307 18.8931 13.2236 18.998 13.3436 18.998H14.6564C14.7764 18.998 14.8694 18.8931 14.855 18.7739L14.6312 16.9239Z" fill="#292E38"/>
<path fill-rule="evenodd" clip-rule="evenodd" d="M11.3172 9.1362L13.1837 9.1362C13.1837 8.10527 12.348 7.26953 11.317 7.26953V7.27309H8.35667C6.55254 7.27309 5.09 8.73563 5.09 10.5398V13.4519H3.93206C3.76436 13.4519 3.67113 13.6459 3.77589 13.7769L5.86745 16.3913C5.94751 16.4914 6.09973 16.4914 6.1798 16.3913L8.27136 13.7769C8.37612 13.6459 8.28288 13.4519 8.11518 13.4519H6.95667V10.5398C6.95667 9.76656 7.58347 9.13976 8.35667 9.13976H11.3172V9.1362Z" fill="url(#paint2_linear_4232_19049)"/>
<path fill-rule="evenodd" clip-rule="evenodd" d="M21.8235 15.8827C21.9036 15.7826 22.0558 15.7826 22.1358 15.8827L24.2288 18.4988C24.3335 18.6298 24.2403 18.8238 24.0726 18.8238L22.9125 18.8238L22.9125 21.6519C22.9125 23.456 21.45 24.9185 19.6458 24.9185L16.6854 24.9185V24.9173C15.6547 24.9169 14.8193 24.0813 14.8193 23.0506H16.686V23.0519H19.6458C20.419 23.0519 21.0458 22.4251 21.0458 21.6519V18.8238L19.8867 18.8238C19.719 18.8238 19.6258 18.6298 19.7306 18.4988L21.8235 15.8827Z" fill="url(#paint3_linear_4232_19049)"/>
<defs>
<linearGradient id="paint0_linear_4232_19049" x1="14" y1="3.03833" x2="14" y2="11.5096" gradientUnits="userSpaceOnUse">
<stop stop-color="#929CB3"/>
<stop offset="1" stop-color="#505662"/>
</linearGradient>
<linearGradient id="paint1_linear_4232_19049" x1="14.0001" y1="9.13721" x2="14.0001" y2="23.0583" gradientUnits="userSpaceOnUse">
<stop stop-color="#929CB3"/>
<stop offset="1" stop-color="#505662"/>
</linearGradient>
<linearGradient id="paint2_linear_4232_19049" x1="8.45769" y1="16.4664" x2="8.45769" y2="7.26953" gradientUnits="userSpaceOnUse">
<stop stop-color="#CACBCE"/>
<stop offset="1" stop-color="#F4F7FF"/>
</linearGradient>
<linearGradient id="paint3_linear_4232_19049" x1="19.5462" y1="24.9185" x2="19.5462" y2="15.8076" gradientUnits="userSpaceOnUse">
<stop stop-color="#CACBCE"/>
<stop offset="1" stop-color="#F4F7FF"/>
</linearGradient>
</defs>
</svg>
