<svg width="16" height="16" viewBox="0 0 16 16" fill="none" xmlns="http://www.w3.org/2000/svg">
<path d="M13.8243 5.0836H8.01554C6.51247 5.09107 5.28316 6.26303 5.17343 7.74823L2.95712 3.93693C4.14129 2.43103 5.97297 1.46484 8.02982 1.46484C10.5702 1.46484 12.7682 2.93913 13.8243 5.0836Z" fill="#F7F7F8"/>
<path d="M2.55074 4.39141L5.45514 9.45025C6.21311 10.7555 7.83704 11.2401 9.17094 10.5931L6.99686 14.4289C5.10792 14.1506 3.36001 13.0385 2.33158 11.2472C1.06141 9.03481 1.23203 6.38343 2.55074 4.39141Z" fill="#F7F7F8"/>
<path d="M7.65107 14.5183L10.5555 9.4595C11.3006 8.14676 10.9059 6.49018 9.68177 5.65202L14.0722 5.6275C14.7769 7.41173 14.6932 9.49002 13.6647 11.2813C12.3946 13.4937 10.0259 14.6708 7.65107 14.5183Z" fill="#F7F7F8"/>
<ellipse cx="8.02731" cy="8.03873" rx="2.03122" ry="2.04263" fill="#F7F7F8"/>
</svg>
