<svg width="16" height="16" viewBox="0 0 16 16" fill="none" xmlns="http://www.w3.org/2000/svg">
<path fill-rule="evenodd" clip-rule="evenodd" d="M2.1333 13.3333C2.1333 13.0388 2.37208 12.8 2.66663 12.8H13.3333C13.6279 12.8 13.8666 13.0388 13.8666 13.3333C13.8666 13.6279 13.6279 13.8666 13.3333 13.8666H2.66663C2.37208 13.8666 2.1333 13.6279 2.1333 13.3333Z" fill="#777F91"/>
<path fill-rule="evenodd" clip-rule="evenodd" d="M4.95618 5.62285C5.16446 5.41457 5.50214 5.41457 5.71042 5.62285L10.4245 10.3369C10.6327 10.5452 10.6327 10.8829 10.4245 11.0911C10.2162 11.2994 9.8785 11.2994 9.67022 11.0911L4.95618 6.3771C4.7479 6.16882 4.7479 5.83113 4.95618 5.62285Z" fill="#777F91"/>
<path fill-rule="evenodd" clip-rule="evenodd" d="M8.96293 2.75422L3.42088 8.29627L7.70367 12.5791L13.2457 7.03701L8.96293 2.75422ZM8.30296 1.90569C8.66745 1.5412 9.25841 1.5412 9.6229 1.90569L14.0942 6.37704C14.4587 6.74153 14.4587 7.33249 14.0942 7.69697L8.36364 13.4276C7.99915 13.7921 7.40819 13.7921 7.0437 13.4276L2.57235 8.95623C2.20786 8.59174 2.20786 8.00079 2.57235 7.6363L8.30296 1.90569Z" fill="#777F91"/>
</svg>
