<svg width="20" height="20" viewBox="0 0 20 20" fill="none" xmlns="http://www.w3.org/2000/svg">
<path d="M9.96052 8.26614C9.96052 8.6527 9.72845 9.01028 9.36099 9.15524C9.00321 9.3002 8.5874 9.22289 8.30698 8.94263C8.02655 8.66237 7.94919 8.25648 8.09424 7.88924C8.23929 7.53167 8.59707 7.29007 8.98387 7.29007C9.52538 7.29973 9.96052 7.73461 9.96052 8.26614Z" fill="#8D96A8"/>
<path fill-rule="evenodd" clip-rule="evenodd" d="M10.0002 18.1666C14.5105 18.1666 18.1668 14.5102 18.1668 9.99992C18.1668 5.48959 14.5105 1.83325 10.0002 1.83325C5.48984 1.83325 1.8335 5.48959 1.8335 9.99992C1.8335 14.5102 5.48984 18.1666 10.0002 18.1666ZM12.7455 16.5386C15.395 15.4273 17.1066 12.8373 17.0969 9.96706C17.0776 6.0531 13.8865 2.90261 9.96057 2.92194C7.09829 2.94127 4.51645 4.67114 3.43342 7.32877C2.51271 9.57988 2.822 12.1173 4.18898 14.0683L4.16831 14.0355C4.77382 12.6897 4.87255 11.5043 5.00128 9.9586L5.00963 9.85836C5.09645 8.24848 5.45826 6.90787 8.17129 6.15916C8.77082 6.01419 9.39936 6.07218 10.0279 6.21714L10.0397 6.21436C10.762 6.00136 11.6152 6.08363 11.9498 6.75055C11.9807 6.80162 12.0006 6.84892 12.0101 6.89313L12.1068 6.93158C12.615 7.13131 13.1141 7.32748 13.5961 7.46381C16.3055 8.20294 16.0496 9.68424 14.7285 10.9237C14.5424 11.1153 14.3479 11.3012 14.1709 11.4703C14.0279 11.6069 13.8963 11.7327 13.7898 11.8417C12.7767 12.8735 10.9645 14.8964 11.2544 16.9694L11.256 16.9733L11.2558 16.9795C11.7599 16.8889 12.2594 16.7425 12.7455 16.5386ZM15.2099 10.3287C15.2298 10.3114 15.2495 10.2937 15.269 10.2758H15.2787C15.256 10.2938 15.233 10.3114 15.2099 10.3287ZM15.2099 10.3287C14.8753 10.6207 14.4915 10.8381 14.099 11.0296C13.6735 11.2326 13.2384 11.3872 12.7839 11.5128C12.3294 11.6288 11.8556 11.7158 11.3818 11.6771C10.8983 11.6385 10.4148 11.4742 10.0957 11.1166L10.115 11.0973C10.5018 11.3486 10.9563 11.4355 11.4011 11.4549C11.8556 11.4645 12.3101 11.4355 12.7549 11.3486C13.1997 11.2519 13.6445 11.1166 14.07 10.9427C14.4691 10.7795 14.8597 10.5908 15.2099 10.3287ZM14.2053 9.61925C14.2053 9.88018 13.8862 10.0155 13.7025 9.83186C13.5187 9.64824 13.6444 9.32933 13.9055 9.31966C14.0699 9.32933 14.2053 9.45496 14.2053 9.61925ZM10.3664 8.25661C10.3664 8.80746 10.0279 9.31 9.51542 9.52261C9.00292 9.73522 8.41306 9.61925 8.01659 9.22302C7.62013 8.82679 7.50409 8.23728 7.71683 7.72509C7.92957 7.21289 8.4324 6.87464 8.98358 6.87464C9.35103 6.87464 9.69915 7.01961 9.95056 7.27087C10.2213 7.54147 10.3664 7.88938 10.3664 8.25661Z" fill="#8D96A8"/>
</svg>
