<svg width="20" height="20" viewBox="0 0 20 20" fill="none" xmlns="http://www.w3.org/2000/svg">
<path d="M6.5504 9.45497L9.17457 12.0792L13.4369 7.81689" stroke="#32C891" stroke-width="1.6" stroke-linecap="round" stroke-linejoin="round"/>
<path fill-rule="evenodd" clip-rule="evenodd" d="M1.83325 9.99998C1.83325 5.48965 5.48959 1.83331 9.99992 1.83331C14.5102 1.83331 18.1666 5.48965 18.1666 9.99998C18.1666 14.5103 14.5102 18.1666 9.99992 18.1666C5.48959 18.1666 1.83325 14.5103 1.83325 9.99998ZM9.99992 3.16665C6.22597 3.16665 3.16659 6.22603 3.16659 9.99998C3.16659 13.7739 6.22597 16.8333 9.99992 16.8333C13.7739 16.8333 16.8333 13.7739 16.8333 9.99998C16.8333 6.22603 13.7739 3.16665 9.99992 3.16665Z" fill="#32C891"/>
</svg>
