<svg width="19" height="18" viewBox="0 0 19 18" fill="none" xmlns="http://www.w3.org/2000/svg">
<g clip-path="url(#clip0_2176_23054)">
<path d="M8.9375 11.8125H5C4.70163 11.8125 4.41548 11.694 4.2045 11.483C3.99353 11.272 3.875 10.9859 3.875 10.6875V3.9375C3.875 3.63913 3.99353 3.35298 4.2045 3.142C4.41548 2.93103 4.70163 2.8125 5 2.8125H11.75V3.9375H5V10.6875H8.9375V9.5625L11.1875 11.25L8.9375 12.9375V11.8125ZM13.4375 14.0625V6.1875H7.25V9.5625H6.125V6.1875C6.125 5.88913 6.24353 5.60298 6.4545 5.392C6.66548 5.18103 6.95163 5.0625 7.25 5.0625H13.4375C13.7359 5.0625 14.022 5.18103 14.233 5.392C14.444 5.60298 14.5625 5.88913 14.5625 6.1875V14.0625C14.5625 14.3609 14.444 14.647 14.233 14.858C14.022 15.069 13.7359 15.1875 13.4375 15.1875H7.25C6.95163 15.1875 6.66548 15.069 6.4545 14.858C6.24353 14.647 6.125 14.3609 6.125 14.0625V12.9375H7.25V14.0625H13.4375Z" fill="#777F91"/>
</g>
<defs>
<clipPath id="clip0_2176_23054">
<rect width="13.5" height="13.5" fill="white" transform="translate(2.75 2.25)"/>
</clipPath>
</defs>
</svg>
