<svg width="28" height="28" viewBox="0 0 28 28" fill="none" xmlns="http://www.w3.org/2000/svg">
<path fill-rule="evenodd" clip-rule="evenodd" d="M14.0001 11.9001C14.5155 11.9001 14.9334 12.3179 14.9334 12.8334V18.6667C14.9334 19.1822 14.5155 19.6001 14.0001 19.6001C13.4846 19.6001 13.0667 19.1822 13.0667 18.6667V12.8334C13.0667 12.3179 13.4846 11.9001 14.0001 11.9001Z" fill="#777F91"/>
<path fill-rule="evenodd" clip-rule="evenodd" d="M17.8501 15.7501C17.8501 16.2655 17.4322 16.6834 16.9167 16.6834H11.0834C10.5679 16.6834 10.1501 16.2655 10.1501 15.7501C10.1501 15.2346 10.5679 14.8167 11.0834 14.8167L16.9167 14.8167C17.4322 14.8167 17.8501 15.2346 17.8501 15.7501Z" fill="#777F91"/>
<path fill-rule="evenodd" clip-rule="evenodd" d="M18.8531 2.82519C19.7481 2.54981 20.6909 3.08172 20.918 3.99016L21.7288 7.2334H22.6334C23.5355 7.2334 24.2667 7.96467 24.2667 8.86674V22.6334C24.2667 23.5355 23.5355 24.2667 22.6334 24.2667H5.36673C4.46467 24.2667 3.7334 23.5355 3.7334 22.6334V8.16674C3.7334 7.757 4.00063 7.39517 4.39225 7.27468L18.8531 2.82519ZM20.9791 9.10007C20.9926 9.10036 21.0061 9.10036 21.0196 9.10007H22.4001V22.4001H5.60007V9.10007H20.9791ZM19.8047 7.2334L19.1667 4.68171L10.8737 7.2334H19.8047Z" fill="#777F91"/>
</svg>
