<svg width="28" height="28" viewBox="0 0 28 28" fill="none" xmlns="http://www.w3.org/2000/svg">
<path d="M22.0781 17.3877L10.6737 5.98327L4.66949 15.2459L12.8155 23.3919L22.0781 17.3877Z" fill="url(#paint0_linear_4232_19080)"/>
<path d="M2.97835 19.2501C2.97835 22.4719 5.58989 25.0834 8.81169 25.0834C12.0335 25.0834 14.645 22.4719 14.645 19.2501C14.645 16.0283 12.0335 13.4167 8.81169 13.4167C8.65912 13.4167 8.49759 13.4257 8.34503 13.4347C5.50016 13.6591 3.22065 15.9385 2.99629 18.7834C2.98732 18.936 2.97835 19.0975 2.97835 19.2501Z" fill="url(#paint1_linear_4232_19080)"/>
<path d="M10.7223 16.9933C10.7331 16.9484 10.7733 16.9167 10.8195 16.9167H11.5543C11.619 16.9167 11.6667 16.9773 11.6515 17.0402L11.3407 18.3311H11.9452C12.0004 18.3311 12.0452 18.3759 12.0452 18.4311V19.1501C12.0452 19.2053 12.0004 19.2501 11.9452 19.2501H11.1262V19.2221L10.5761 21.5068C10.5653 21.5518 10.5251 21.5834 10.4789 21.5834H9.45744C9.41123 21.5834 9.37103 21.5518 9.36022 21.5068L8.81126 19.2272L8.26251 21.5068C8.2517 21.5517 8.2115 21.5834 8.16529 21.5834H7.14385C7.09764 21.5834 7.05745 21.5518 7.04663 21.5068L6.49722 19.2249V19.2501H5.67824C5.62301 19.2501 5.57824 19.2053 5.57824 19.1501V18.4311C5.57824 18.3759 5.62301 18.3311 5.67824 18.3311H6.28201L5.97119 17.0402C5.95605 16.9773 6.00372 16.9167 6.06841 16.9167H6.80321C6.84942 16.9167 6.88962 16.9484 6.90043 16.9933L7.65446 20.1255L8.40871 16.9933C8.41953 16.9484 8.45972 16.9167 8.50593 16.9167H9.1168C9.16301 16.9167 9.20321 16.9484 9.21402 16.9933L9.96805 20.1255L10.7223 16.9933Z" fill="url(#paint2_linear_4232_19080)"/>
<g filter="url(#filter0_d_4232_19080)">
<path d="M8.68815 11.0834C8.68815 15.5939 12.3443 19.2501 16.8548 19.2501C21.3653 19.2501 25.0215 15.5939 25.0215 11.0834C25.0215 6.5729 21.3653 2.91675 16.8548 2.91675C16.6412 2.91675 16.4151 2.92932 16.2015 2.94188C12.2187 3.25598 9.02737 6.44726 8.71327 10.4301C8.7007 10.6437 8.68815 10.8698 8.68815 11.0834Z" fill="url(#paint3_linear_4232_19080)"/>
</g>
<path d="M17.2898 6.94727C17.4003 6.94727 17.4898 7.03681 17.4898 7.14727V7.94737H19.1171C19.2275 7.94737 19.3171 8.03691 19.3171 8.14737V9.01797C19.3171 9.12843 19.2275 9.21797 19.1171 9.21797H16.2775C15.9379 9.21797 15.6627 9.49322 15.6627 9.83276C15.6627 10.1723 15.9379 10.4476 16.2775 10.4476H17.4317C18.4729 10.4476 19.3171 11.2917 19.3171 12.333C19.3171 13.3548 18.5042 14.1867 17.4898 14.2175V15.0192C17.4898 15.1296 17.4003 15.2192 17.2898 15.2192H16.4192C16.3087 15.2192 16.2192 15.1296 16.2192 15.0192V14.2184H14.5921C14.4816 14.2184 14.3921 14.1288 14.3921 14.0184V13.1478C14.3921 13.0373 14.4816 12.9478 14.5921 12.9478H17.4317C17.7712 12.9478 18.0465 12.6725 18.0465 12.333C18.0465 11.9934 17.7712 11.7182 17.4317 11.7182H16.2775C15.2362 11.7182 14.3921 10.874 14.3921 9.83276C14.3921 8.81099 15.2049 7.97905 16.2192 7.94825V7.14727C16.2192 7.03681 16.3087 6.94727 16.4192 6.94727H17.2898Z" fill="#292E38"/>
<defs>
<filter id="filter0_d_4232_19080" x="7.54788" y="1.7764" width="18.614" height="18.614" filterUnits="userSpaceOnUse" color-interpolation-filters="sRGB">
<feFlood flood-opacity="0" result="BackgroundImageFix"/>
<feColorMatrix in="SourceAlpha" type="matrix" values="0 0 0 0 0 0 0 0 0 0 0 0 0 0 0 0 0 0 127 0" result="hardAlpha"/>
<feOffset/>
<feGaussianBlur stdDeviation="0.570175"/>
<feComposite in2="hardAlpha" operator="out"/>
<feColorMatrix type="matrix" values="0 0 0 0 0 0 0 0 0 0 0 0 0 0 0 0 0 0 0.25 0"/>
<feBlend mode="normal" in2="BackgroundImageFix" result="effect1_dropShadow_4232_19080"/>
<feBlend mode="normal" in="SourceGraphic" in2="effect1_dropShadow_4232_19080" result="shape"/>
</filter>
<linearGradient id="paint0_linear_4232_19080" x1="15.3642" y1="11.8844" x2="7.62283" y2="19.6258" gradientUnits="userSpaceOnUse">
<stop stop-color="white" stop-opacity="0.48"/>
<stop offset="1" stop-color="white" stop-opacity="0.04"/>
</linearGradient>
<linearGradient id="paint1_linear_4232_19080" x1="8.81169" y1="13.4167" x2="8.81169" y2="25.0834" gradientUnits="userSpaceOnUse">
<stop stop-color="#929CB3"/>
<stop offset="1" stop-color="#505662"/>
</linearGradient>
<linearGradient id="paint2_linear_4232_19080" x1="8.81167" y1="21.5834" x2="8.81167" y2="16.9167" gradientUnits="userSpaceOnUse">
<stop stop-color="#E1E1E3"/>
<stop offset="1" stop-color="#F4F7FF"/>
</linearGradient>
<linearGradient id="paint3_linear_4232_19080" x1="16.8548" y1="19.2501" x2="16.8548" y2="2.91675" gradientUnits="userSpaceOnUse">
<stop stop-color="#CACBCE"/>
<stop offset="1" stop-color="#F4F7FF"/>
</linearGradient>
</defs>
</svg>
