<svg width="18" height="18" viewBox="0 0 18 18" fill="none" xmlns="http://www.w3.org/2000/svg">
<g clip-path="url(#clip0_2268_158)">
<path d="M7.05078 2.46405C8.18021 1.35963 9.69961 0.745161 11.2793 0.754C12.8589 0.76284 14.3713 1.39427 15.4883 2.51127C16.6053 3.62826 17.2367 5.14069 17.2456 6.72033C17.2544 8.29998 16.64 9.81938 15.5355 10.9488C15.3956 11.0875 15.2067 11.1656 15.0096 11.1662C14.8125 11.1667 14.6232 11.0897 14.4825 10.9517C14.3418 10.8138 14.261 10.626 14.2576 10.4289C14.2543 10.2319 14.3286 10.0415 14.4645 9.8988C14.8824 9.4809 15.2138 8.98479 15.4399 8.4388C15.6661 7.89281 15.7824 7.30762 15.7824 6.71666C15.7824 6.1257 15.6659 5.54053 15.4397 4.99456C15.2136 4.4486 14.8821 3.95253 14.4642 3.53468C14.0463 3.11683 13.5501 2.78538 13.0042 2.55926C12.4582 2.33314 11.873 2.21678 11.282 2.21681C10.0885 2.21688 8.94392 2.69107 8.10003 3.53505C8.03006 3.60564 7.94675 3.66162 7.85496 3.69973C7.76316 3.73784 7.66471 3.75732 7.56531 3.75705C7.46592 3.75677 7.36757 3.73675 7.27599 3.69813C7.18441 3.65951 7.10141 3.60308 7.03183 3.5321C6.96225 3.46113 6.90747 3.37703 6.87067 3.2847C6.83387 3.19237 6.8158 3.09365 6.81749 2.99427C6.81919 2.89489 6.84062 2.79684 6.88054 2.70582C6.92046 2.61479 6.97807 2.53261 7.05003 2.46405H7.05078Z" fill="white"/>
<path d="M0.75 11.25C0.75 9.6587 1.38214 8.13258 2.50736 7.00736C3.63258 5.88214 5.1587 5.25 6.75 5.25C8.3413 5.25 9.86742 5.88214 10.9926 7.00736C12.1179 8.13258 12.75 9.6587 12.75 11.25C12.75 12.8413 12.1179 14.3674 10.9926 15.4926C9.86742 16.6179 8.3413 17.25 6.75 17.25C5.1587 17.25 3.63258 16.6179 2.50736 15.4926C1.38214 14.3674 0.75 12.8413 0.75 11.25ZM6.75 6.75C5.55653 6.75 4.41193 7.22411 3.56802 8.06802C2.72411 8.91193 2.25 10.0565 2.25 11.25C2.25 12.4435 2.72411 13.5881 3.56802 14.432C4.41193 15.2759 5.55653 15.75 6.75 15.75C7.94348 15.75 9.08807 15.2759 9.93198 14.432C10.7759 13.5881 11.25 12.4435 11.25 11.25C11.25 10.0565 10.7759 8.91193 9.93198 8.06802C9.08807 7.22411 7.94348 6.75 6.75 6.75Z" fill="white"/>
</g>
<defs>
<clipPath id="clip0_2268_158">
<rect width="18" height="18" fill="white"/>
</clipPath>
</defs>
</svg>
