<svg width="28" height="28" viewBox="0 0 28 28" fill="none" xmlns="http://www.w3.org/2000/svg">
<path fill-rule="evenodd" clip-rule="evenodd" d="M13.9998 4.43332C8.71631 4.43332 4.43317 8.71647 4.43317 14C4.43317 19.2835 8.71631 23.5667 13.9998 23.5667C15.1196 23.5667 16.1926 23.3746 17.1888 23.0225C17.6748 22.8508 18.208 23.1055 18.3798 23.5915C18.5516 24.0775 18.2969 24.6107 17.8109 24.7825C16.6176 25.2043 15.3345 25.4333 13.9998 25.4333C7.68538 25.4333 2.5665 20.3144 2.5665 14C2.5665 7.68553 7.68538 2.56666 13.9998 2.56666C20.3143 2.56666 25.4332 7.68553 25.4332 14C25.4332 15.3346 25.2041 16.6178 24.7824 17.811C24.6106 18.297 24.0773 18.5518 23.5913 18.38C23.1053 18.2082 22.8506 17.675 23.0224 17.189C23.3745 16.1927 23.5665 15.1198 23.5665 14C23.5665 8.71647 19.2834 4.43332 13.9998 4.43332Z" fill="#F7F7F8"/>
<path d="M12.6397 1.55361C12.7583 1.31646 13.0007 1.16666 13.2658 1.16666H14.7339C14.999 1.16666 15.2414 1.31646 15.36 1.55361L15.8266 2.48694C16.0594 2.95237 15.7209 3.49999 15.2005 3.49999H12.7991C12.2788 3.49999 11.9403 2.95237 12.173 2.48694L12.6397 1.55361Z" fill="#F7F7F8"/>
<path d="M15.36 26.4464C15.2414 26.6835 14.999 26.8333 14.7339 26.8333H13.2658C13.0007 26.8333 12.7583 26.6835 12.6397 26.4464L12.173 25.513C11.9403 25.0476 12.2788 24.5 12.7991 24.5H15.2005C15.7209 24.5 16.0594 25.0476 15.8266 25.513L15.36 26.4464Z" fill="#F7F7F8"/>
<path d="M26.4462 12.6398C26.6834 12.7584 26.8332 13.0008 26.8332 13.2659V14.734C26.8332 14.9992 26.6834 15.2416 26.4462 15.3601L25.5129 15.8268C25.0475 16.0595 24.4998 15.7211 24.4998 15.2007V12.7993C24.4998 12.2789 25.0475 11.9405 25.5129 12.1732L26.4462 12.6398Z" fill="#F7F7F8"/>
<path d="M1.55345 15.3601C1.31631 15.2416 1.1665 14.9992 1.1665 14.734L1.1665 13.2659C1.1665 13.0008 1.31631 12.7584 1.55345 12.6398L2.48679 12.1732C2.95222 11.9405 3.49984 12.2789 3.49984 12.7993L3.49984 15.2007C3.49984 15.7211 2.95222 16.0595 2.48679 15.8268L1.55345 15.3601Z" fill="#F7F7F8"/>
<path d="M21.7563 4.15482C22.0079 4.07097 22.2852 4.13644 22.4727 4.32392L23.6758 5.52701C23.8633 5.71449 23.9287 5.99181 23.8449 6.24334L23.4324 7.48078C23.2678 7.97444 22.6413 8.12235 22.2733 7.75439L20.2453 5.72635C19.8773 5.35839 20.0252 4.73185 20.5189 4.5673L21.7563 4.15482Z" fill="#F7F7F8"/>
<path d="M6.24333 23.8452C5.99179 23.929 5.71447 23.8635 5.52699 23.6761L4.32391 22.473C4.13642 22.2855 4.07096 22.0082 4.1548 21.7566L4.56728 20.5192C4.73184 20.0255 5.35838 19.8776 5.72634 20.2456L7.75438 22.2736C8.12233 22.6416 7.97443 23.2681 7.48076 23.4327L6.24333 23.8452Z" fill="#F7F7F8"/>
<path d="M4.15445 6.24348C4.07061 5.99195 4.13607 5.71463 4.32355 5.52714L5.52664 4.32406C5.71412 4.13658 5.99144 4.07111 6.24297 4.15496L7.48041 4.56744C7.97407 4.73199 8.12198 5.35853 7.75403 5.72649L5.72598 7.75453C5.35803 8.12249 4.73148 7.97458 4.56693 7.48092L4.15445 6.24348Z" fill="#F7F7F8"/>
<path fill-rule="evenodd" clip-rule="evenodd" d="M15.5511 19.3808C14.2744 19.7489 12.9085 19.6511 11.6973 19.1047C10.4861 18.5584 9.50857 17.5993 8.93946 16.3986C8.37035 15.1979 8.24669 13.834 8.59059 12.5506C8.724 12.0527 9.23578 11.7572 9.73368 11.8906C10.2316 12.0241 10.5271 12.5358 10.3936 13.0337C10.1644 13.8894 10.2468 14.7986 10.6262 15.5991C11.0056 16.3995 11.6573 17.039 12.4648 17.4032C13.2722 17.7674 14.1829 17.8326 15.034 17.5872C15.8852 17.3418 16.6213 16.8018 17.1109 16.0636C17.6006 15.3254 17.8118 14.4372 17.7068 13.5576C17.6018 12.6781 17.1876 11.8645 16.538 11.2622C15.8884 10.66 15.0458 10.3084 14.1608 10.2701C13.6459 10.2479 13.2464 9.8124 13.2686 9.29741C13.2909 8.78242 13.7264 8.38297 14.2414 8.40521C15.5688 8.46254 16.8327 8.99 17.8071 9.89336C18.7814 10.7967 19.4029 12.0171 19.5603 13.3364C19.7178 14.6558 19.401 15.9881 18.6665 17.0954C17.9321 18.2027 16.8278 19.0127 15.5511 19.3808Z" fill="#F7F7F8"/>
<path fill-rule="evenodd" clip-rule="evenodd" d="M16.8399 16.84C17.2044 16.4755 17.7953 16.4755 18.1598 16.84L23.9931 22.6734C24.3576 23.0378 24.3576 23.6288 23.9931 23.9933C23.6286 24.3578 23.0377 24.3578 22.6732 23.9933L16.8399 18.16C16.4754 17.7955 16.4754 17.2045 16.8399 16.84Z" fill="#F7F7F8"/>
</svg>
