<svg width="14" height="14" viewBox="0 0 14 14" fill="none" xmlns="http://www.w3.org/2000/svg">
<path fill-rule="evenodd" clip-rule="evenodd" d="M1.2832 6.99999C1.2832 3.84276 3.84264 1.28333 6.99987 1.28333C10.1571 1.28333 12.7165 3.84276 12.7165 6.99999C12.7165 10.1572 10.1571 12.7167 6.99987 12.7167C3.84264 12.7167 1.2832 10.1572 1.2832 6.99999ZM9.45404 4.54584C9.68185 4.77364 9.68185 5.14299 9.45404 5.3708L7.82486 6.99998L9.45404 8.62917C9.68185 8.85698 9.68185 9.22632 9.45404 9.45413C9.22624 9.68194 8.85689 9.68194 8.62909 9.45413L6.9999 7.82494L5.37071 9.45413C5.1429 9.68194 4.77356 9.68194 4.54575 9.45413C4.31795 9.22632 4.31795 8.85698 4.54575 8.62917L6.17494 6.99998L4.54575 5.3708C4.31795 5.14299 4.31795 4.77364 4.54575 4.54584C4.77356 4.31803 5.1429 4.31803 5.37071 4.54584L6.9999 6.17503L8.62909 4.54584C8.85689 4.31803 9.22624 4.31803 9.45404 4.54584Z" fill="#4E545F"/>
</svg>
