<svg width="18" height="18" viewBox="0 0 18 18" fill="none" xmlns="http://www.w3.org/2000/svg">
<path d="M17.5292 8.1465L14.8776 5.49488C14.7617 5.37818 14.6187 5.29197 14.4614 5.24396C14.3041 5.19594 14.1373 5.18761 13.976 5.2197C13.8147 5.25179 13.6639 5.32331 13.5369 5.42787C13.41 5.53243 13.3109 5.66679 13.2485 5.81896C13.1726 6.00117 13.1524 6.20174 13.1903 6.39541C13.2283 6.58909 13.3227 6.76721 13.4616 6.90734L15.5656 9.01131L13.4616 11.1135C13.2836 11.3033 13.1864 11.5548 13.1906 11.8149C13.1947 12.075 13.2999 12.3233 13.4839 12.5073C13.6678 12.6912 13.9161 12.7964 14.1762 12.8005C14.4363 12.8047 14.6878 12.7075 14.8776 12.5295L17.5309 9.87612C17.6728 9.78737 17.79 9.66432 17.8718 9.51833C17.9536 9.37233 17.9973 9.2081 17.9989 9.04077C18.0074 8.86358 17.9685 8.68732 17.8862 8.53014C17.804 8.37296 17.6813 8.24054 17.5309 8.1465H17.5292ZM2.434 8.63523L4.53624 6.53126C4.62921 6.43829 4.70296 6.32792 4.75327 6.20644C4.80359 6.08497 4.82949 5.95478 4.82949 5.8233C4.82949 5.69181 4.80359 5.56162 4.75327 5.44015C4.70296 5.31867 4.62921 5.2083 4.53624 5.11533C4.44326 5.02236 4.33289 4.94861 4.21142 4.89829C4.08995 4.84798 3.95975 4.82208 3.82827 4.82208C3.69679 4.82208 3.5666 4.84798 3.44512 4.89829C3.32365 4.94861 3.21328 5.02236 3.1203 5.11533L0.468682 7.76695C0.325201 7.85692 0.206969 7.98192 0.125109 8.13017C0.0432489 8.27843 0.000452956 8.44508 0.000748019 8.61443C-0.0060937 8.79123 0.0340974 8.96669 0.117218 9.12288C0.200339 9.27907 0.323414 9.41042 0.473881 9.50351L3.12377 12.1517C3.21643 12.2452 3.3267 12.3194 3.44821 12.3701C3.56973 12.4208 3.70008 12.4469 3.83174 12.4469C3.96339 12.4469 4.09374 12.4208 4.21526 12.3701C4.33678 12.3194 4.44705 12.2452 4.5397 12.1517C4.72724 11.9641 4.83259 11.7098 4.83259 11.4446C4.83259 11.1793 4.72724 10.925 4.5397 10.7375L2.43054 8.63523H2.434ZM10.9972 4.54688C10.8216 4.54652 10.649 4.59248 10.4969 4.68011C10.3448 4.76774 10.2184 4.89395 10.1306 5.04601L6.13414 11.9749C6.00913 12.204 5.97865 12.4729 6.04922 12.7242C6.11979 12.9755 6.28581 13.1892 6.51183 13.3198C6.73784 13.4503 7.00594 13.4873 7.25887 13.4229C7.51179 13.3584 7.7295 13.1977 7.8655 12.9749L11.8637 6.04773C11.9513 5.8957 11.9973 5.7233 11.9972 5.54785C11.9971 5.37239 11.9508 5.20006 11.863 5.04816C11.7752 4.89626 11.6489 4.77013 11.497 4.68245C11.345 4.59476 11.1726 4.54861 10.9972 4.54861V4.54688Z" fill="white"/>
</svg>
