<svg width="28" height="28" viewBox="0 0 28 28" fill="none" xmlns="http://www.w3.org/2000/svg">
<path d="M11.6762 6.37184C12.9824 5.06567 15.1005 5.06567 16.4067 6.37184L19.3667 9.3318C22.3076 12.2728 22.3076 17.0412 19.3667 19.9822C16.4257 22.9232 11.6573 22.9232 8.71628 19.9822C5.77533 17.0412 5.77531 12.2728 8.71628 9.3318L11.6762 6.37184ZM14.6557 8.76832C14.3063 8.445 13.7668 8.44491 13.4175 8.76832L10.6997 11.2859C10.5649 11.4107 10.4709 11.5736 10.4301 11.7527L9.60886 15.365C9.5753 15.513 9.58014 15.6617 9.61667 15.7996C9.61827 15.9041 9.6378 16.0107 9.67819 16.115L10.2632 17.6238C10.3411 17.825 10.4876 17.9924 10.6772 18.0955L13.602 19.6843C13.8735 19.8319 14.2007 19.8319 14.4721 19.6843L17.3969 18.0955C17.5865 17.9924 17.733 17.825 17.811 17.6238L18.396 16.115C18.4367 16.0097 18.4562 15.9021 18.4575 15.7966C18.4933 15.6595 18.4977 15.512 18.4643 15.365L17.643 11.7527C17.6023 11.5735 17.5083 11.4107 17.3735 11.2859L14.6557 8.76832Z" fill="url(#paint0_linear_9505_15554)"/>
<path d="M15.8479 11.86C15.6479 12.0428 15.2185 11.8986 14.8887 11.5379C14.559 11.1772 14.4538 10.7366 14.6538 10.5538C14.8539 10.3709 15.2833 10.5151 15.613 10.8758C15.9427 11.2365 16.0479 11.6772 15.8479 11.86Z" fill="url(#paint1_linear_9505_15554)"/>
<path d="M16.8269 12.8971C16.6961 13.0166 16.4153 12.9223 16.1997 12.6865C15.984 12.4506 15.9153 12.1624 16.0461 12.0429C16.1769 11.9233 16.4577 12.0176 16.6733 12.2535C16.8889 12.4894 16.9577 12.7775 16.8269 12.8971Z" fill="url(#paint2_linear_9505_15554)"/>
<path d="M18.8692 2.98068C13.7859 0.0458036 7.28559 1.78755 4.35072 6.87091C4.34861 6.87456 4.34634 6.87849 4.34424 6.88215C3.9774 7.51753 4.19513 8.33012 4.83051 8.69696C5.4659 9.0638 6.27848 8.84607 6.64532 8.21068C6.64743 8.20703 6.6497 8.2031 6.65181 8.19945L6.67063 8.21031C9.56327 3.88383 15.3584 2.48775 19.9308 5.12763C21.5664 6.07198 22.8332 7.41007 23.68 8.95328C22.9044 6.52052 21.2548 4.35804 18.8692 2.98068Z" fill="url(#paint3_linear_9505_15554)"/>
<path d="M9.21594 25.019C14.2993 27.9539 20.7996 26.2122 23.7344 21.1288C23.7365 21.1252 23.7388 21.1212 23.7409 21.1176C24.1077 20.4822 23.89 19.6696 23.2546 19.3028C22.6192 18.9359 21.8067 19.1537 21.4398 19.789C21.4377 19.7927 21.4354 19.7966 21.4333 19.8003L21.4145 19.7894C18.5219 24.1159 12.7268 25.512 8.15439 22.8721C6.51874 21.9277 5.25199 20.5897 4.40516 19.0464C5.18072 21.4792 6.8303 23.6417 9.21594 25.019Z" fill="url(#paint4_linear_9505_15554)"/>
<ellipse cx="3.78077" cy="11.8289" rx="1.22469" ry="1.22469" transform="rotate(-7.00002 3.78077 11.8289)" fill="#929CB3"/>
<ellipse cx="24.3048" cy="16.1681" rx="1.22469" ry="1.22469" transform="rotate(178 24.3048 16.1681)" fill="#929CB3"/>
<ellipse cx="0.7873" cy="0.787302" rx="0.7873" ry="0.787302" transform="matrix(0.927183 -0.374608 0.374605 0.927184 2.56207 14.9073)" fill="#929CB3"/>
<defs>
<linearGradient id="paint0_linear_9505_15554" x1="14.0415" y1="5.39221" x2="14.0415" y2="22.1879" gradientUnits="userSpaceOnUse">
<stop stop-color="#F7F7F8"/>
<stop offset="1" stop-color="#E3E3E7"/>
</linearGradient>
<linearGradient id="paint1_linear_9505_15554" x1="14.6538" y1="10.5538" x2="15.8479" y2="11.86" gradientUnits="userSpaceOnUse">
<stop stop-color="#F7F7F8"/>
<stop offset="1" stop-color="#E3E3E7"/>
</linearGradient>
<linearGradient id="paint2_linear_9505_15554" x1="16.0461" y1="12.0429" x2="16.8269" y2="12.8971" gradientUnits="userSpaceOnUse">
<stop stop-color="#F7F7F8"/>
<stop offset="1" stop-color="#E3E3E7"/>
</linearGradient>
<linearGradient id="paint3_linear_9505_15554" x1="17.3642" y1="2.11175" x2="11.3793" y2="12.4779" gradientUnits="userSpaceOnUse">
<stop stop-color="#707889"/>
<stop offset="1" stop-color="#929CB3"/>
</linearGradient>
<linearGradient id="paint4_linear_9505_15554" x1="10.721" y1="25.888" x2="16.7059" y2="15.5218" gradientUnits="userSpaceOnUse">
<stop stop-color="#707889"/>
<stop offset="1" stop-color="#929CB3"/>
</linearGradient>
</defs>
</svg>
