<svg width="18" height="18" viewBox="0 0 18 18" fill="none" xmlns="http://www.w3.org/2000/svg">
<path fill-rule="evenodd" clip-rule="evenodd" d="M2.4 15C2.4 14.6686 2.66863 14.4 3 14.4L15 14.4C15.3314 14.4 15.6 14.6686 15.6 15C15.6 15.3314 15.3314 15.6 15 15.6L3 15.6C2.66863 15.6 2.4 15.3314 2.4 15Z" fill="#777F91"/>
<path fill-rule="evenodd" clip-rule="evenodd" d="M8.4 12C8.4 11.6686 8.66863 11.4 9 11.4H15C15.3314 11.4 15.6 11.6686 15.6 12C15.6 12.3314 15.3314 12.6 15 12.6L9 12.6C8.66863 12.6 8.4 12.3314 8.4 12Z" fill="#777F91"/>
<path fill-rule="evenodd" clip-rule="evenodd" d="M11.0733 1.64172C10.8844 1.45276 10.578 1.45276 10.389 1.64172L9.4617 2.56906L12.4309 5.5383L13.3583 4.61097C13.449 4.52022 13.5 4.39715 13.5 4.26882C13.5 4.14049 13.449 4.01741 13.3583 3.92667L11.0733 1.64172ZM11.5824 6.38683L8.61317 3.41758L2.39172 9.63903C2.30098 9.72978 2.25 9.85285 2.25 9.98118V12.2661C2.25 12.5334 2.46664 12.75 2.73387 12.75H5.01882C5.14715 12.75 5.27022 12.699 5.36097 12.6083L11.5824 6.38683Z" fill="#777F91"/>
</svg>
