<svg width="24" height="24" viewBox="0 0 24 24" fill="none" xmlns="http://www.w3.org/2000/svg">
<path d="M16.3265 2.9978C15.642 2.9978 14.9569 3.25925 14.4383 3.77798L5.75539 12.4694C5.65187 12.5721 5.58305 12.7047 5.55854 12.8485L5.01176 16.1807C4.99423 16.29 5.00288 16.4019 5.03698 16.5072C5.07108 16.6125 5.12967 16.7083 5.20794 16.7865C5.28621 16.8648 5.38192 16.9234 5.48723 16.9575C5.59253 16.9916 5.70442 17.0003 5.81371 16.9827L9.15274 16.4432C9.29653 16.4187 9.42907 16.3498 9.53184 16.2463L18.2221 7.55494C19.2602 6.51656 19.252 4.81546 18.2148 3.77798C18.1502 3.7126 18.0734 3.66058 17.9888 3.62486C17.9863 3.62485 17.9839 3.62485 17.9815 3.62486C17.4958 3.23397 16.9207 2.9978 16.3265 2.9978ZM16.3265 4.39046C16.6488 4.39046 16.9773 4.51628 17.2306 4.76962C17.7371 5.27628 17.7362 6.06484 17.2306 6.5706L16.9098 6.88413L15.1163 5.09044L15.4298 4.76962C15.6831 4.51628 16.0043 4.39046 16.3265 4.39046ZM14.1248 6.08207L15.9183 7.87576L8.70073 15.0943L6.55005 15.4443L6.89999 13.3079L14.1248 6.08207Z" fill="#585E6B"/>
<path d="M4.28564 19.7144H19.7142" stroke="#585E6B" stroke-width="1.3" stroke-linecap="round"/>
<path d="M13.4072 16.4253L19.7146 16.4253" stroke="#585E6B" stroke-width="1.3" stroke-linecap="round"/>
</svg>
