<svg width="20" height="20" viewBox="0 0 20 20" fill="none" xmlns="http://www.w3.org/2000/svg">
<path d="M13.1609 2.32821C13.6487 1.84044 14.3103 1.56641 15.0001 1.56641C15.6899 1.56641 16.3515 1.84044 16.8392 2.32821C17.327 2.81599 17.6011 3.47756 17.6011 4.16738C17.6011 4.8572 17.327 5.51877 16.8392 6.00655L6.37008 16.4757L6.32175 16.5249C6.08175 16.7649 5.87091 16.9766 5.61591 17.1324C5.39232 17.2697 5.1485 17.3709 4.89341 17.4324C4.60341 17.5007 4.30425 17.5007 3.96508 17.5007H2.50008C2.27907 17.5007 2.06711 17.4129 1.91083 17.2566C1.75455 17.1004 1.66675 16.8884 1.66675 16.6674V15.2724V15.2024C1.66675 14.8632 1.66675 14.5649 1.73591 14.274C1.79738 14.019 1.89862 13.7751 2.03591 13.5515C2.19091 13.2965 2.40258 13.0849 2.64258 12.8465L2.69258 12.7965L13.1601 2.32905L13.1609 2.32821ZM15.6609 3.50655C15.5742 3.41972 15.4711 3.35084 15.3578 3.30384C15.2444 3.25685 15.1228 3.23266 15.0001 3.23266C14.8773 3.23266 14.7558 3.25685 14.6424 3.30384C14.529 3.35084 14.426 3.41972 14.3392 3.50655L3.87008 13.9757C3.55341 14.2924 3.49508 14.3582 3.45591 14.4224C3.41015 14.4969 3.3764 14.5782 3.35591 14.6632C3.33925 14.7365 3.33341 14.8249 3.33341 15.2715V15.8341H3.89591C4.34258 15.8341 4.43091 15.8291 4.50425 15.8107C4.58957 15.7903 4.67114 15.7566 4.74591 15.7107C4.81008 15.6715 4.87591 15.6132 5.19175 15.2974L15.6609 4.82821C15.7477 4.74146 15.8166 4.63844 15.8636 4.52505C15.9106 4.41166 15.9348 4.29012 15.9348 4.16738C15.9348 4.04464 15.9106 3.9231 15.8636 3.80971C15.8166 3.69632 15.7477 3.5933 15.6609 3.50655ZM18.0626 14.3857C18.1434 14.4596 18.2088 14.5486 18.2551 14.6478C18.3015 14.7469 18.3279 14.8542 18.3327 14.9636C18.3376 15.0729 18.3209 15.1822 18.2836 15.2851C18.2462 15.3879 18.189 15.4825 18.1151 15.5632L17.2817 16.4749C16.6901 17.1216 15.8717 17.5007 15.0001 17.5007C14.1292 17.5007 13.3109 17.1216 12.7192 16.4757C12.5872 16.3262 12.4254 16.206 12.2441 16.1227C12.0629 16.0395 11.8662 15.9951 11.6667 15.9924C11.2876 15.9924 10.9076 16.1557 10.6142 16.4757C10.4648 16.6386 10.2568 16.7355 10.036 16.745C9.8152 16.7545 9.59963 16.676 9.43675 16.5266C9.27386 16.3771 9.177 16.1692 9.16746 15.9483C9.15793 15.7275 9.23651 15.5119 9.38591 15.349C9.97758 14.704 10.7967 14.3257 11.6667 14.3257C12.5376 14.3257 13.3559 14.704 13.9476 15.349L13.9484 15.3499C14.2417 15.6699 14.6217 15.8341 15.0001 15.8341C15.3784 15.8341 15.7584 15.6699 16.0517 15.3507L16.8851 14.4382C16.9589 14.3574 17.048 14.292 17.1471 14.2457C17.2463 14.1993 17.3536 14.1729 17.463 14.1681C17.5723 14.1632 17.6815 14.1799 17.7844 14.2172C17.8873 14.2546 17.9818 14.3118 18.0626 14.3857Z" fill="#2C3039"/>
</svg>
