<svg width="70" height="70" viewBox="0 0 70 70" fill="none" xmlns="http://www.w3.org/2000/svg">
<path d="M6.63601 29.3605C5.38769 27.1985 6.12846 24.4339 8.29055 23.1857L27.8647 11.8852C30.0268 10.637 32.7915 11.3778 34.0398 13.5398L47.7288 37.2485L44.7057 47.8333L28.0677 57.4387C25.9056 58.6869 23.1409 57.9461 21.8926 55.7841L6.63601 29.3605Z" fill="#343A46"/>
<path d="M17.5007 18.2652C17.5007 15.4094 19.8159 13.0942 22.6717 13.0942H48.5271C51.383 13.0942 53.6981 15.4094 53.6981 18.2652V49.2901L44.6488 58.339H22.6717C19.8159 58.339 17.5007 56.0239 17.5007 53.1681V18.2652Z" fill="#434852"/>
<path d="M53.5671 49.2899L44.5178 58.3389L44.5178 52.7372C44.5178 50.8333 46.0612 49.2899 47.9651 49.2899L53.5671 49.2899Z" fill="#343A46"/>
<rect x="24.5007" y="21.5076" width="22.6234" height="2.26224" rx="1.13112" fill="#585E6B"/>
<rect x="24.5007" y="29.8013" width="22.6234" height="2.26224" rx="1.13112" fill="#585E6B"/>
<rect x="24.5007" y="38.0959" width="22.6234" height="2.26224" rx="1.13112" fill="#585E6B"/>
<g opacity="0.2" filter="url(#filter0_d_4104_40320)">
<path fill-rule="evenodd" clip-rule="evenodd" d="M44 34.8C44 29.3876 48.3876 25 53.8 25C59.2124 25 63.6 29.3876 63.6 34.8C63.6 40.2124 59.2124 44.6 53.8 44.6C48.3876 44.6 44 40.2124 44 34.8Z" fill="#303541"/>
</g>
<path fill-rule="evenodd" clip-rule="evenodd" d="M44 34.8C44 29.3876 48.3876 25 53.8 25C59.2124 25 63.6 29.3876 63.6 34.8C63.6 40.2124 59.2124 44.6 53.8 44.6C48.3876 44.6 44 40.2124 44 34.8Z" fill="#EB4D67"/>
<path d="M53.7999 29.063C54.7396 29.0639 55.4706 29.8852 55.3583 30.822L54.6682 36.5933C54.6168 37.0362 54.2413 37.37 53.7951 37.37C53.3489 37.37 52.9734 37.0362 52.922 36.5933L52.2416 30.8188C52.1325 29.8852 52.8602 29.0639 53.7999 29.063Z" fill="#F7F7F8"/>
<path d="M52.5441 39.2873C52.5441 39.6372 52.6661 39.9357 52.9068 40.1764C53.1476 40.4172 53.4461 40.5391 53.796 40.5391C54.1458 40.5391 54.4443 40.4172 54.6851 40.1764C54.9258 39.9357 55.0478 39.6372 55.0478 39.2873C55.0478 38.9374 54.9258 38.6389 54.6851 38.3982C54.4443 38.1574 54.1458 38.0355 53.796 38.0355C53.4461 38.0355 53.1476 38.1574 52.9068 38.3982C52.6661 38.6389 52.5441 38.9374 52.5441 39.2873Z" fill="#F7F7F8"/>
<defs>
<filter id="filter0_d_4104_40320" x="41" y="25" width="22.6001" height="22.6001" filterUnits="userSpaceOnUse" color-interpolation-filters="sRGB">
<feFlood flood-opacity="0" result="BackgroundImageFix"/>
<feColorMatrix in="SourceAlpha" type="matrix" values="0 0 0 0 0 0 0 0 0 0 0 0 0 0 0 0 0 0 127 0" result="hardAlpha"/>
<feOffset dx="-3" dy="3"/>
<feComposite in2="hardAlpha" operator="out"/>
<feColorMatrix type="matrix" values="0 0 0 0 0 0 0 0 0 0 0 0 0 0 0 0 0 0 0.6 0"/>
<feBlend mode="normal" in2="BackgroundImageFix" result="effect1_dropShadow_4104_40320"/>
<feBlend mode="normal" in="SourceGraphic" in2="effect1_dropShadow_4104_40320" result="shape"/>
</filter>
</defs>
</svg>
