<svg width="14" height="14" viewBox="0 0 14 14" fill="none" xmlns="http://www.w3.org/2000/svg">
<path fill-rule="evenodd" clip-rule="evenodd" d="M5.47895 11.4167C5.67704 11.4167 5.83763 11.2561 5.83763 11.058C5.83763 10.8599 5.67704 10.6993 5.47895 10.6993L3.80861 10.6993L5.81183 8.69612C5.90813 8.59982 5.87265 8.4082 5.73257 8.26813C5.5925 8.12805 5.40088 8.09257 5.30458 8.18887L3.30136 10.1921L3.30136 8.52175C3.30136 8.32366 3.14077 8.16307 2.94268 8.16307C2.74458 8.16307 2.584 8.32366 2.584 8.52175L2.584 11.058C2.584 11.2561 2.74458 11.4167 2.94268 11.4167L5.47895 11.4167Z" fill="#F7F7F8"/>
<path d="M5.83763 11.058L5.68763 11.058L5.68763 11.058L5.83763 11.058ZM5.47895 11.4167L5.47895 11.5667L5.47895 11.5667L5.47895 11.4167ZM5.47895 10.6993L5.47895 10.5493L5.47895 10.6993ZM3.80861 10.6993L3.70255 10.5933C3.65965 10.6362 3.64681 10.7007 3.67003 10.7567C3.69325 10.8128 3.74794 10.8493 3.80861 10.8493L3.80861 10.6993ZM5.81183 8.69612L5.70576 8.59005L5.70576 8.59005L5.81183 8.69612ZM5.30458 8.18887L5.19851 8.0828L5.19851 8.0828L5.30458 8.18887ZM3.30136 10.1921L3.15136 10.1921C3.15136 10.2528 3.18791 10.3074 3.24396 10.3307C3.30001 10.3539 3.36453 10.341 3.40743 10.2981L3.30136 10.1921ZM3.30136 8.52175L3.15136 8.52175L3.15136 8.52175L3.30136 8.52175ZM2.94268 8.16307L2.94268 8.01307L2.94268 8.01307L2.94268 8.16307ZM2.584 8.52175L2.734 8.52175L2.584 8.52175ZM2.584 11.058L2.434 11.058L2.584 11.058ZM2.94268 11.4167L2.94268 11.2667L2.94268 11.2667L2.94268 11.4167ZM5.68763 11.058C5.68763 11.1733 5.5942 11.2667 5.47895 11.2667L5.47895 11.5667C5.75988 11.5667 5.98763 11.339 5.98763 11.058L5.68763 11.058ZM5.47895 10.8493C5.5942 10.8493 5.68763 10.9428 5.68763 11.058L5.98763 11.058C5.98763 10.7771 5.75988 10.5493 5.47895 10.5493L5.47895 10.8493ZM3.80861 10.8493L5.47895 10.8493L5.47895 10.5493L3.80861 10.5493L3.80861 10.8493ZM5.70576 8.59005L3.70255 10.5933L3.91468 10.8054L5.9179 8.80219L5.70576 8.59005ZM5.62651 8.37419C5.67785 8.42554 5.7052 8.48187 5.71335 8.52585C5.72164 8.57063 5.70893 8.58689 5.70576 8.59005L5.9179 8.80219C6.01103 8.70905 6.02873 8.58135 6.00833 8.47122C5.98779 8.36031 5.92736 8.25078 5.83864 8.16206L5.62651 8.37419ZM5.41064 8.29493C5.41381 8.29177 5.43007 8.27906 5.47485 8.28735C5.51883 8.29549 5.57516 8.32284 5.62651 8.37419L5.83864 8.16206C5.74991 8.07333 5.64039 8.0129 5.52947 7.99236C5.41935 7.97197 5.29164 7.98967 5.19851 8.0828L5.41064 8.29493ZM3.40743 10.2981L5.41064 8.29493L5.19851 8.0828L3.19529 10.086L3.40743 10.2981ZM3.15136 8.52175L3.15136 10.1921L3.45136 10.1921L3.45136 8.52175L3.15136 8.52175ZM2.94268 8.31307C3.05793 8.31307 3.15136 8.4065 3.15136 8.52175L3.45136 8.52175C3.45136 8.24082 3.22362 8.01307 2.94268 8.01307L2.94268 8.31307ZM2.734 8.52175C2.734 8.4065 2.82743 8.31307 2.94268 8.31307L2.94268 8.01307C2.66174 8.01307 2.434 8.24081 2.434 8.52175L2.734 8.52175ZM2.734 11.058L2.734 8.52175L2.434 8.52175L2.434 11.058L2.734 11.058ZM2.94268 11.2667C2.82743 11.2667 2.734 11.1733 2.734 11.058L2.434 11.058C2.434 11.339 2.66174 11.5667 2.94268 11.5667L2.94268 11.2667ZM5.47895 11.2667L2.94268 11.2667L2.94268 11.5667L5.47895 11.5667L5.47895 11.2667Z" fill="#F7F7F8"/>
<path fill-rule="evenodd" clip-rule="evenodd" d="M8.52087 2.58327C8.32278 2.58327 8.16219 2.74385 8.16219 2.94195C8.16219 3.14004 8.32278 3.30063 8.52087 3.30063L10.1912 3.30063L8.18799 5.30385C8.09169 5.40015 8.12717 5.59177 8.26724 5.73184C8.40732 5.87192 8.59894 5.9074 8.69524 5.8111L10.6985 3.80789L10.6985 5.47822C10.6985 5.67631 10.859 5.8369 11.0571 5.8369C11.2552 5.8369 11.4158 5.67631 11.4158 5.47822V2.94195C11.4158 2.74385 11.2552 2.58327 11.0571 2.58327L8.52087 2.58327Z" fill="#F7F7F8"/>
<path d="M8.16219 2.94195L8.31219 2.94195L8.31219 2.94195L8.16219 2.94195ZM8.52087 2.58327L8.52087 2.43327L8.52087 2.43327L8.52087 2.58327ZM8.52087 3.30063L8.52087 3.45063L8.52087 3.30063ZM10.1912 3.30063L10.2973 3.4067C10.3402 3.3638 10.353 3.29928 10.3298 3.24323C10.3066 3.18718 10.2519 3.15063 10.1912 3.15063V3.30063ZM8.18799 5.30385L8.29405 5.40992L8.29405 5.40992L8.18799 5.30385ZM8.69524 5.8111L8.80131 5.91717L8.80131 5.91717L8.69524 5.8111ZM10.6985 3.80789H10.8485C10.8485 3.74722 10.8119 3.69252 10.7559 3.6693C10.6998 3.64609 10.6353 3.65892 10.5924 3.70182L10.6985 3.80789ZM10.6985 5.47822L10.8485 5.47822V5.47822L10.6985 5.47822ZM11.0571 5.8369L11.0571 5.9869L11.0571 5.9869L11.0571 5.8369ZM11.0571 2.58327L11.0571 2.73327L11.0571 2.73327L11.0571 2.58327ZM8.31219 2.94195C8.31219 2.8267 8.40562 2.73327 8.52087 2.73327L8.52087 2.43327C8.23993 2.43327 8.01219 2.66101 8.01219 2.94195L8.31219 2.94195ZM8.52087 3.15063C8.40562 3.15063 8.31219 3.0572 8.31219 2.94195L8.01219 2.94195C8.01219 3.22289 8.23993 3.45063 8.52087 3.45063L8.52087 3.15063ZM10.1912 3.15063L8.52087 3.15063L8.52087 3.45063L10.1912 3.45063V3.15063ZM8.29405 5.40992L10.2973 3.4067L10.0851 3.19456L8.08192 5.19778L8.29405 5.40992ZM8.37331 5.62578C8.32196 5.57443 8.29461 5.5181 8.28647 5.47412C8.27818 5.42934 8.29088 5.41308 8.29405 5.40992L8.08192 5.19778C7.98879 5.29092 7.97109 5.41862 7.99148 5.52875C8.01202 5.63966 8.07245 5.74918 8.16118 5.83791L8.37331 5.62578ZM8.58917 5.70504C8.58601 5.7082 8.56975 5.72091 8.52497 5.71262C8.48099 5.70448 8.42466 5.67713 8.37331 5.62578L8.16118 5.83791C8.2499 5.92664 8.35943 5.98707 8.47034 6.00761C8.58047 6.028 8.70817 6.0103 8.80131 5.91717L8.58917 5.70504ZM10.5924 3.70182L8.58917 5.70504L8.80131 5.91717L10.8045 3.91395L10.5924 3.70182ZM10.8485 5.47822L10.8485 3.80789H10.5485L10.5485 5.47822L10.8485 5.47822ZM11.0571 5.6869C10.9419 5.6869 10.8485 5.59347 10.8485 5.47822L10.5485 5.47822C10.5485 5.75915 10.7762 5.9869 11.0571 5.9869L11.0571 5.6869ZM11.2658 5.47822C11.2658 5.59347 11.1724 5.6869 11.0571 5.6869L11.0571 5.9869C11.3381 5.9869 11.5658 5.75915 11.5658 5.47822L11.2658 5.47822ZM11.2658 2.94195V5.47822L11.5658 5.47822V2.94195L11.2658 2.94195ZM11.0571 2.73327C11.1724 2.73327 11.2658 2.8267 11.2658 2.94195L11.5658 2.94195C11.5658 2.66101 11.3381 2.43327 11.0571 2.43327L11.0571 2.73327ZM8.52087 2.73327L11.0571 2.73327L11.0571 2.43327L8.52087 2.43327L8.52087 2.73327Z" fill="#F7F7F8"/>
<path fill-rule="evenodd" clip-rule="evenodd" d="M11.4166 8.52163C11.4166 8.32354 11.256 8.16295 11.0579 8.16295C10.8598 8.16295 10.6992 8.32353 10.6992 8.52163L10.6992 10.1911L8.6968 8.18874C8.6005 8.09243 8.40888 8.12792 8.26881 8.26799C8.12874 8.40807 8.09325 8.59969 8.18955 8.69599L10.1928 10.6992L8.52163 10.6992C8.32353 10.6992 8.16294 10.8598 8.16294 11.0579C8.16294 11.256 8.32353 11.4166 8.52163 11.4166L11.0579 11.4166C11.256 11.4166 11.4166 11.256 11.4166 11.0579L11.4166 8.52163Z" fill="#F7F7F8"/>
<path d="M11.0579 8.16295L11.0579 8.31295L11.0579 8.31295L11.0579 8.16295ZM11.4166 8.52163L11.5666 8.52163L11.5666 8.52163L11.4166 8.52163ZM10.6992 8.52163L10.8492 8.52163L10.6992 8.52163ZM10.6992 10.1911L10.5931 10.2972C10.636 10.3401 10.7006 10.3529 10.7566 10.3297C10.8127 10.3065 10.8492 10.2518 10.8492 10.1911L10.6992 10.1911ZM8.6968 8.18874L8.80287 8.08267L8.80287 8.08267L8.6968 8.18874ZM8.18955 8.69599L8.29562 8.58992L8.29562 8.58992L8.18955 8.69599ZM10.1928 10.6992L10.1928 10.8492C10.2534 10.8492 10.3081 10.8127 10.3314 10.7566C10.3546 10.7006 10.3417 10.636 10.2988 10.5931L10.1928 10.6992ZM8.52163 10.6992L8.52163 10.5492L8.52163 10.6992ZM8.52163 11.4166L8.52163 11.5666L8.52163 11.4166ZM11.0579 11.4166L11.0579 11.2666L11.0579 11.2666L11.0579 11.4166ZM11.4166 11.0579L11.2666 11.0579L11.2666 11.0579L11.4166 11.0579ZM11.0579 8.31295C11.1731 8.31295 11.2666 8.40638 11.2666 8.52163L11.5666 8.52163C11.5666 8.24069 11.3388 8.01295 11.0579 8.01295L11.0579 8.31295ZM10.8492 8.52163C10.8492 8.40638 10.9426 8.31295 11.0579 8.31295L11.0579 8.01295C10.777 8.01295 10.5492 8.24069 10.5492 8.52163L10.8492 8.52163ZM10.8492 10.1911L10.8492 8.52163L10.5492 8.52163L10.5492 10.1911L10.8492 10.1911ZM8.59074 8.2948L10.5931 10.2972L10.8053 10.0851L8.80287 8.08267L8.59074 8.2948ZM8.37488 8.37406C8.42622 8.32271 8.48255 8.29536 8.52654 8.28722C8.57131 8.27892 8.58757 8.29163 8.59074 8.2948L8.80287 8.08267C8.70974 7.98954 8.58203 7.97184 8.47191 7.99223C8.36099 8.01277 8.25147 8.0732 8.16274 8.16193L8.37488 8.37406ZM8.29562 8.58992C8.29245 8.58676 8.27974 8.5705 8.28803 8.52572C8.29618 8.48173 8.32353 8.42541 8.37488 8.37406L8.16274 8.16193C8.07402 8.25065 8.01359 8.36017 7.99305 8.47109C7.97265 8.58122 7.99035 8.70892 8.08349 8.80206L8.29562 8.58992ZM10.2988 10.5931L8.29562 8.58992L8.08349 8.80206L10.0867 10.8053L10.2988 10.5931ZM8.52163 10.8492L10.1928 10.8492L10.1928 10.5492L8.52163 10.5492L8.52163 10.8492ZM8.31294 11.0579C8.31294 10.9426 8.40637 10.8492 8.52163 10.8492L8.52163 10.5492C8.24069 10.5492 8.01294 10.777 8.01294 11.0579L8.31294 11.0579ZM8.52163 11.2666C8.40637 11.2666 8.31294 11.1731 8.31294 11.0579L8.01294 11.0579C8.01294 11.3388 8.24069 11.5666 8.52163 11.5666L8.52163 11.2666ZM11.0579 11.2666L8.52163 11.2666L8.52163 11.5666L11.0579 11.5666L11.0579 11.2666ZM11.2666 11.0579C11.2666 11.1731 11.1731 11.2666 11.0579 11.2666L11.0579 11.5666C11.3388 11.5666 11.5666 11.3388 11.5666 11.0579L11.2666 11.0579ZM11.2666 8.52163L11.2666 11.0579L11.5666 11.0579L11.5666 8.52163L11.2666 8.52163Z" fill="#F7F7F8"/>
<path fill-rule="evenodd" clip-rule="evenodd" d="M2.58355 5.47837C2.58355 5.67647 2.74413 5.83705 2.94223 5.83705C3.14032 5.83705 3.30091 5.67647 3.30091 5.47837L3.30091 3.80886L5.30332 5.81126C5.39962 5.90756 5.59124 5.87208 5.73131 5.73201C5.87139 5.59193 5.90687 5.40031 5.81057 5.30401L3.80734 3.30078L5.4785 3.30078C5.67659 3.30078 5.83718 3.1402 5.83718 2.9421C5.83718 2.74401 5.67659 2.58342 5.4785 2.58342H2.94223C2.74413 2.58342 2.58355 2.74401 2.58355 2.9421L2.58355 5.47837Z" fill="#F7F7F8"/>
<path d="M2.94223 5.83705L2.94223 5.68705L2.94223 5.68705L2.94223 5.83705ZM2.58355 5.47837L2.43355 5.47837L2.43355 5.47837L2.58355 5.47837ZM3.30091 5.47837L3.15091 5.47837L3.30091 5.47837ZM3.30091 3.80886L3.40698 3.70279C3.36408 3.65989 3.29956 3.64706 3.24351 3.67027C3.18746 3.69349 3.15091 3.74819 3.15091 3.80886H3.30091ZM5.30332 5.81126L5.19725 5.91733L5.19725 5.91733L5.30332 5.81126ZM5.81057 5.30401L5.7045 5.41008L5.7045 5.41008L5.81057 5.30401ZM3.80734 3.30078V3.15078C3.74668 3.15078 3.69198 3.18733 3.66876 3.24338C3.64555 3.29943 3.65838 3.36395 3.70128 3.40685L3.80734 3.30078ZM5.4785 3.30078L5.4785 3.15078L5.4785 3.15078L5.4785 3.30078ZM5.83718 2.9421L5.68718 2.9421L5.68718 2.9421L5.83718 2.9421ZM5.4785 2.58342L5.4785 2.43342L5.4785 2.58342ZM2.94223 2.58342L2.94223 2.73342L2.94223 2.73342L2.94223 2.58342ZM2.58355 2.9421L2.73355 2.9421L2.73355 2.9421L2.58355 2.9421ZM2.94223 5.68705C2.82698 5.68705 2.73355 5.59362 2.73355 5.47837L2.43355 5.47837C2.43355 5.75931 2.66129 5.98705 2.94223 5.98705L2.94223 5.68705ZM3.15091 5.47837C3.15091 5.59362 3.05748 5.68705 2.94223 5.68705L2.94223 5.98705C3.22317 5.98705 3.45091 5.75931 3.45091 5.47837H3.15091ZM3.15091 3.80886L3.15091 5.47837L3.45091 5.47837L3.45091 3.80886H3.15091ZM5.40938 5.7052L3.40698 3.70279L3.19484 3.91492L5.19725 5.91733L5.40938 5.7052ZM5.62525 5.62594C5.5739 5.67729 5.51757 5.70464 5.47359 5.71278C5.42881 5.72108 5.41255 5.70837 5.40938 5.7052L5.19725 5.91733C5.29038 6.01046 5.41809 6.02816 5.52821 6.00777C5.63913 5.98723 5.74865 5.9268 5.83738 5.83807L5.62525 5.62594ZM5.7045 5.41008C5.70767 5.41324 5.72038 5.4295 5.71209 5.47428C5.70394 5.51826 5.67659 5.57459 5.62525 5.62594L5.83738 5.83807C5.9261 5.74935 5.98653 5.63983 6.00707 5.52891C6.02747 5.41878 6.00977 5.29108 5.91664 5.19794L5.7045 5.41008ZM3.70128 3.40685L5.7045 5.41008L5.91664 5.19794L3.91341 3.19472L3.70128 3.40685ZM5.4785 3.15078L3.80734 3.15078V3.45078L5.4785 3.45078L5.4785 3.15078ZM5.68718 2.9421C5.68718 3.05735 5.59375 3.15078 5.4785 3.15078L5.4785 3.45078C5.75943 3.45078 5.98718 3.22304 5.98718 2.9421L5.68718 2.9421ZM5.4785 2.73342C5.59375 2.73342 5.68718 2.82685 5.68718 2.9421L5.98718 2.9421C5.98718 2.66116 5.75943 2.43342 5.4785 2.43342V2.73342ZM2.94223 2.73342L5.4785 2.73342V2.43342H2.94223L2.94223 2.73342ZM2.73355 2.9421C2.73355 2.82685 2.82698 2.73342 2.94223 2.73342L2.94223 2.43342C2.66129 2.43342 2.43355 2.66116 2.43355 2.9421L2.73355 2.9421ZM2.73355 5.47837L2.73355 2.9421L2.43355 2.9421L2.43355 5.47837L2.73355 5.47837Z" fill="#F7F7F8"/>
<path fill-rule="evenodd" clip-rule="evenodd" d="M2.58355 5.47837C2.58355 5.67647 2.74413 5.83705 2.94223 5.83705C3.14032 5.83705 3.30091 5.67647 3.30091 5.47837L3.30091 3.80886L5.30332 5.81126C5.39962 5.90756 5.59124 5.87208 5.73131 5.73201C5.87139 5.59193 5.90687 5.40031 5.81057 5.30401L3.80734 3.30078L5.4785 3.30078C5.67659 3.30078 5.83718 3.1402 5.83718 2.9421C5.83718 2.74401 5.67659 2.58342 5.4785 2.58342H2.94223C2.74413 2.58342 2.58355 2.74401 2.58355 2.9421L2.58355 5.47837Z" fill="#F7F7F8"/>
<path d="M2.94223 5.83705L2.94223 5.68705L2.94223 5.68705L2.94223 5.83705ZM2.58355 5.47837L2.43355 5.47837L2.43355 5.47837L2.58355 5.47837ZM3.30091 5.47837L3.15091 5.47837L3.30091 5.47837ZM3.30091 3.80886L3.40698 3.70279C3.36408 3.65989 3.29956 3.64706 3.24351 3.67027C3.18746 3.69349 3.15091 3.74819 3.15091 3.80886H3.30091ZM5.30332 5.81126L5.19725 5.91733L5.19725 5.91733L5.30332 5.81126ZM5.81057 5.30401L5.7045 5.41008L5.7045 5.41008L5.81057 5.30401ZM3.80734 3.30078V3.15078C3.74668 3.15078 3.69198 3.18733 3.66876 3.24338C3.64555 3.29943 3.65838 3.36395 3.70128 3.40685L3.80734 3.30078ZM5.4785 3.30078L5.4785 3.15078L5.4785 3.15078L5.4785 3.30078ZM5.83718 2.9421L5.68718 2.9421L5.68718 2.9421L5.83718 2.9421ZM5.4785 2.58342L5.4785 2.43342L5.4785 2.58342ZM2.94223 2.58342L2.94223 2.73342L2.94223 2.73342L2.94223 2.58342ZM2.58355 2.9421L2.73355 2.9421L2.73355 2.9421L2.58355 2.9421ZM2.94223 5.68705C2.82698 5.68705 2.73355 5.59362 2.73355 5.47837L2.43355 5.47837C2.43355 5.75931 2.66129 5.98705 2.94223 5.98705L2.94223 5.68705ZM3.15091 5.47837C3.15091 5.59362 3.05748 5.68705 2.94223 5.68705L2.94223 5.98705C3.22317 5.98705 3.45091 5.75931 3.45091 5.47837H3.15091ZM3.15091 3.80886L3.15091 5.47837L3.45091 5.47837L3.45091 3.80886H3.15091ZM5.40938 5.7052L3.40698 3.70279L3.19484 3.91492L5.19725 5.91733L5.40938 5.7052ZM5.62525 5.62594C5.5739 5.67729 5.51757 5.70464 5.47359 5.71278C5.42881 5.72108 5.41255 5.70837 5.40938 5.7052L5.19725 5.91733C5.29038 6.01046 5.41809 6.02816 5.52821 6.00777C5.63913 5.98723 5.74865 5.9268 5.83738 5.83807L5.62525 5.62594ZM5.7045 5.41008C5.70767 5.41324 5.72038 5.4295 5.71209 5.47428C5.70394 5.51826 5.67659 5.57459 5.62525 5.62594L5.83738 5.83807C5.9261 5.74935 5.98653 5.63983 6.00707 5.52891C6.02747 5.41878 6.00977 5.29108 5.91664 5.19794L5.7045 5.41008ZM3.70128 3.40685L5.7045 5.41008L5.91664 5.19794L3.91341 3.19472L3.70128 3.40685ZM5.4785 3.15078L3.80734 3.15078V3.45078L5.4785 3.45078L5.4785 3.15078ZM5.68718 2.9421C5.68718 3.05735 5.59375 3.15078 5.4785 3.15078L5.4785 3.45078C5.75943 3.45078 5.98718 3.22304 5.98718 2.9421L5.68718 2.9421ZM5.4785 2.73342C5.59375 2.73342 5.68718 2.82685 5.68718 2.9421L5.98718 2.9421C5.98718 2.66116 5.75943 2.43342 5.4785 2.43342V2.73342ZM2.94223 2.73342L5.4785 2.73342V2.43342H2.94223L2.94223 2.73342ZM2.73355 2.9421C2.73355 2.82685 2.82698 2.73342 2.94223 2.73342L2.94223 2.43342C2.66129 2.43342 2.43355 2.66116 2.43355 2.9421L2.73355 2.9421ZM2.73355 5.47837L2.73355 2.9421L2.43355 2.9421L2.43355 5.47837L2.73355 5.47837Z" fill="#F7F7F8"/>
</svg>
