<svg width="14" height="14" viewBox="0 0 14 14" fill="none" xmlns="http://www.w3.org/2000/svg">
<path fill-rule="evenodd" clip-rule="evenodd" d="M1.56702 2.68332C1.56702 2.16786 1.98489 1.74999 2.50035 1.74999H7.40035C7.72252 1.74999 7.98368 2.01116 7.98368 2.33332C7.98368 2.65549 7.72252 2.91666 7.40035 2.91666H2.73368V11.0833H10.9003V6.41666C10.9003 6.09449 11.1615 5.83332 11.4837 5.83332C11.8058 5.83332 12.067 6.09449 12.067 6.41666V11.3167C12.067 11.8321 11.6491 12.25 11.1337 12.25H2.50035C1.98488 12.25 1.56702 11.8321 1.56702 11.3167V2.68332Z" fill="#F7F7F8"/>
<path fill-rule="evenodd" clip-rule="evenodd" d="M12.4795 1.33751C12.7073 1.56532 12.7073 1.93466 12.4795 2.16247L7.81283 6.82914C7.58502 7.05694 7.21568 7.05694 6.98787 6.82914C6.76007 6.60133 6.76007 6.23198 6.98787 6.00418L11.6545 1.33751C11.8823 1.10971 12.2517 1.10971 12.4795 1.33751Z" fill="#F7F7F8"/>
<path fill-rule="evenodd" clip-rule="evenodd" d="M11.4837 2.33332H9.73368C9.41152 2.33332 9.15035 2.07216 9.15035 1.74999C9.15035 1.42782 9.41152 1.16666 9.73368 1.16666L12.067 1.16666C12.2217 1.16666 12.3701 1.22811 12.4795 1.33751C12.5889 1.44691 12.6503 1.59528 12.6503 1.74999V4.08332C12.6503 4.40549 12.3892 4.66666 12.067 4.66666C11.7449 4.66666 11.4837 4.40549 11.4837 4.08332V2.33332Z" fill="#F7F7F8"/>
</svg>
