<svg width="20" height="20" viewBox="0 0 20 20" fill="none" xmlns="http://www.w3.org/2000/svg">
<g opacity="0.4">
<path d="M4.10728 7.5C2.59925 8.75 1.6665 10 1.6665 10C1.6665 10 5.39746 15 9.99984 15C10.5706 15 11.128 14.9231 11.6665 14.7884M8.34642 5.20833C8.88084 5.07567 9.43375 5 9.99984 5C14.6022 5 18.3332 10 18.3332 10C18.3332 10 17.4004 11.25 15.8924 12.5" stroke="white" stroke-width="1.5" stroke-linecap="round" stroke-linejoin="round"/>
<path d="M8.46409 8.5918C8.12405 8.96255 7.9165 9.45684 7.9165 9.99959C7.9165 11.1502 8.84925 12.0829 9.99984 12.0829C10.5676 12.0829 11.0824 11.8558 11.4582 11.4874" stroke="white" stroke-width="1.5" stroke-linecap="round" stroke-linejoin="round"/>
<path d="M17.5 17.5L2.5 2.5" stroke="white" stroke-width="1.5" stroke-linecap="round" stroke-linejoin="round"/>
</g>
</svg>
