<svg width="24" height="24" viewBox="0 0 24 24" fill="none" xmlns="http://www.w3.org/2000/svg">
<path d="M24 12C24 18.6274 18.6274 24 12 24C5.37258 24 0 18.6274 0 12C0 5.37258 5.37258 0 12 0C18.6274 0 24 5.37258 24 12Z" fill="black" fill-opacity="0.8"/>
<path fill-rule="evenodd" clip-rule="evenodd" d="M12 23.1429C18.154 23.1429 23.1429 18.154 23.1429 12C23.1429 5.84597 18.154 0.857143 12 0.857143C5.84597 0.857143 0.857143 5.84597 0.857143 12C0.857143 18.154 5.84597 23.1429 12 23.1429ZM12 24C18.6274 24 24 18.6274 24 12C24 5.37258 18.6274 0 12 0C5.37258 0 0 5.37258 0 12C0 18.6274 5.37258 24 12 24Z" fill="#F83A4D"/>
<path d="M23.9808 12.6082C24.0533 11.1919 23.873 9.73867 23.4088 8.30952C22.9446 6.88044 22.2365 5.59876 21.3457 4.49561L0.12755 11.3917C0.0550846 12.8079 0.235405 14.2611 0.699616 15.6902C1.16385 17.1193 1.87194 18.401 2.76285 19.5042L23.9808 12.6082Z" fill="#F83A4D"/>
<path d="M20.7032 11.9017L17.6364 12.8981L16.032 7.96021L19.0988 6.96375L19.3577 7.76084L17.1556 8.47636L17.5682 9.7463L19.5407 9.10541L19.7887 9.86872L17.8163 10.5096L18.2421 11.8201L20.4442 11.1046L20.7032 11.9017Z" fill="white"/>
<path d="M12.4122 9.13618L13.2551 11.7301L14.4117 8.48651L15.4317 8.15509L14.4818 10.7938L17.0564 13.0864L16.0567 13.4112L14.1514 11.7077L13.6743 13.0203L14.0167 14.0741L13.152 14.355L11.5476 9.41711L12.4122 9.13618Z" fill="white"/>
<path d="M9.04752 15.6888L8.1491 15.9808L8.328 10.4634L9.2129 10.1759L12.6006 14.5344L11.6887 14.8307L10.9192 13.8186L9.07513 14.4177L9.04752 15.6888ZM9.13747 11.8285L9.09478 13.6048L10.4323 13.1702L9.34687 11.7604C9.26464 11.6452 9.16907 11.512 9.12264 11.4151C9.1331 11.5162 9.14085 11.678 9.13747 11.8285Z" fill="white"/>
<path d="M7.20583 14.0543L5.36847 14.6513L6.02473 16.671L5.16009 16.9519L3.55566 12.014L6.60892 11.022L6.86791 11.8191L4.67929 12.5302L5.11607 13.8744L6.95343 13.2774L7.20583 14.0543Z" fill="white"/>
</svg>
