<svg width="18" height="18" viewBox="0 0 18 18" fill="none" xmlns="http://www.w3.org/2000/svg">
<path fill-rule="evenodd" clip-rule="evenodd" d="M13.1429 10.7494C12.1257 10.7494 11.2983 11.5721 11.2983 12.5828C11.2983 13.594 12.1257 14.4167 13.1429 14.4167C14.16 14.4167 14.9874 13.594 14.9874 12.5828C14.9874 11.5721 14.16 10.7494 13.1429 10.7494Z" fill="#777F91"/>
<path fill-rule="evenodd" clip-rule="evenodd" d="M4.85676 3.58325C3.8396 3.58325 3.01221 4.40593 3.01221 5.4166C3.01221 6.42787 3.8396 7.25055 4.85676 7.25055C5.87392 7.25055 6.70131 6.42787 6.70131 5.4166C6.70131 4.40593 5.87392 3.58325 4.85676 3.58325Z" fill="#8D96A8"/>
<rect x="8.38477" y="4.83262" width="6.3" height="1.16873" fill="#585E6B"/>
<rect x="3.34204" y="11.9988" width="6.3" height="1.16873" fill="#585E6B"/>
</svg>
