<svg width="64" height="80" viewBox="0 0 64 80" fill="none" xmlns="http://www.w3.org/2000/svg">
<g clip-path="url(#clip0_591_18554)">
<path fill-rule="evenodd" clip-rule="evenodd" d="M29.507 10.1892C29.4565 10.1892 29.4059 10.1892 29.3553 10.1892C28.0153 10.1387 26.574 10.2145 25.0064 10.3915C24.9306 10.3915 24.88 10.4168 24.8041 10.4168C24.7536 10.4168 24.703 10.4168 24.6524 10.4421C24.6777 9.68355 24.6524 8.87445 24.5513 8.04006C24.0456 4.27268 22.3263 1.28911 20.4552 0.808706C20.2024 0.732853 19.9242 0.732853 19.6714 0.758137L20.4552 0.656999L24.526 0.15131C26.6752 -0.126819 28.8496 3.13488 29.4059 7.43323C29.5323 8.39404 29.5576 9.32957 29.507 10.1892Z" fill="#E04646"/>
<path d="M29.507 10.1892C29.4565 10.1892 29.4059 10.1892 29.3553 10.1892C28.0153 10.1387 26.574 10.2145 25.0064 10.3915C24.9306 10.3915 24.88 10.4168 24.8041 10.4168C24.7536 10.4168 24.703 10.4168 24.6524 10.4421C24.6777 9.68355 24.6524 8.87445 24.5513 8.04006C24.0456 4.27268 22.3263 1.28911 20.4552 0.808706C20.2024 0.732853 19.9242 0.732853 19.6714 0.758137L20.4552 0.656999L24.526 0.15131C26.6752 -0.126819 28.8496 3.13488 29.4059 7.43323C29.5323 8.39404 29.5576 9.32957 29.507 10.1892Z" stroke="#E04646" stroke-miterlimit="10" stroke-linecap="round" stroke-linejoin="round"/>
<path d="M24.6522 10.4419C24.6017 10.4419 24.5511 10.4672 24.5005 10.4672C23.8431 10.5683 23.2363 10.6695 22.6295 10.7959C22.5789 10.7959 22.5283 10.8212 22.4525 10.8212C22.4019 10.8465 22.3261 10.8465 22.2755 10.8717C22.4778 10.1638 22.5536 9.27883 22.4272 8.29273C22.2755 7.05379 21.8204 5.96656 21.2641 5.33445C20.986 5.00575 20.6573 4.80348 20.3286 4.80348C20.278 4.80348 20.2275 4.80348 20.1769 4.80348C20.1263 4.80348 20.0758 4.82876 20.0252 4.82876C19.6965 4.9299 19.4436 5.20803 19.2414 5.61258C18.8621 6.34583 18.7104 7.50891 18.8621 8.77314C19.0138 9.91094 19.3931 10.9223 19.8735 11.5544C19.8229 11.5797 19.7723 11.5797 19.7218 11.605C19.6712 11.6303 19.6206 11.6303 19.5701 11.6556C18.938 11.8831 18.3311 12.136 17.7496 12.4141C17.699 12.4394 17.6484 12.4647 17.5979 12.49C17.1933 11.4786 16.8899 10.2902 16.7382 9.02598C16.2325 4.82876 17.4715 1.21309 19.5195 0.783251C19.5701 0.783251 19.6206 0.757966 19.6712 0.757966C19.924 0.732682 20.2022 0.757966 20.455 0.808535C22.3261 1.28894 24.0454 4.2725 24.5258 8.03989C24.627 8.87427 24.6775 9.68338 24.6522 10.4419Z" stroke="#E04646" stroke-miterlimit="10" stroke-linecap="round" stroke-linejoin="round"/>
<path d="M55.6511 48.4454C49.6081 46.3973 40.2529 45.7652 29.9621 47.0547C19.6713 48.3442 10.7712 51.3025 5.41089 54.7665C5.51203 54.6654 5.58788 54.5389 5.66373 54.4125C6.24528 53.5781 6.7004 52.592 7.02909 51.5301C7.35779 50.4429 7.58535 49.2545 7.76234 47.9903C8.34389 43.1104 7.86348 36.9915 8.16689 31.1255C8.47031 25.209 9.55754 19.5453 13.3249 15.6009C14.4627 14.4125 15.8281 13.3758 17.4716 12.5415C17.5221 12.5162 17.5474 12.4909 17.598 12.4656C17.6486 12.4403 17.6991 12.415 17.7497 12.3898C18.3312 12.1116 18.9128 11.8588 19.5702 11.6312C19.6208 11.6059 19.6713 11.6059 19.7219 11.5807C19.7725 11.5554 19.823 11.5554 19.8736 11.5301C20.177 11.4289 20.5057 11.3278 20.8344 11.2267C20.885 11.2267 20.9355 11.2014 20.9861 11.1761C21.0367 11.1508 21.0872 11.1508 21.1378 11.1255C21.5171 11.0244 21.8964 10.9233 22.2756 10.8474C22.3262 10.8221 22.402 10.8221 22.4526 10.7968C22.5032 10.7968 22.5537 10.7715 22.6296 10.7715C23.2364 10.6451 23.8685 10.544 24.5006 10.4429C24.5512 10.4429 24.6018 10.4429 24.6524 10.4176C24.7029 10.4176 24.7535 10.3923 24.8041 10.3923C24.8799 10.3923 24.9305 10.367 25.0063 10.367C26.5487 10.1647 28.0152 10.1142 29.3553 10.1647C29.4058 10.1647 29.4564 10.1647 29.507 10.1647C29.5575 10.1647 29.6081 10.1647 29.6587 10.1647C32.8698 10.3164 35.4994 11.1761 37.6738 12.5162C42.3768 15.3986 44.9305 20.6072 46.7763 26.2456C48.622 31.8335 49.7598 37.8765 51.6056 42.453C52.5664 44.8297 53.7295 46.8272 55.2971 48.1673C55.3982 48.2684 55.5247 48.3695 55.6511 48.4454Z" stroke="#E04646" stroke-miterlimit="10" stroke-linecap="round" stroke-linejoin="round"/>
<path fill-rule="evenodd" clip-rule="evenodd" d="M63.5146 61.6179C63.5146 61.5167 63.4893 61.4409 63.464 61.3398C63.4387 61.2386 63.4135 61.1628 63.3882 61.0616C63.3629 60.9605 63.3376 60.8846 63.3123 60.7835C63.287 60.6824 63.2365 60.6065 63.2112 60.5054C62.9583 59.8985 62.5791 59.3423 62.0734 58.8113C62.0228 58.7607 61.9722 58.6849 61.8964 58.6343C61.8458 58.5837 61.77 58.5079 61.7194 58.4573C61.4666 58.2298 61.1884 58.0022 60.885 57.7999C60.354 57.4207 59.7725 57.0667 59.1151 56.738C59.014 56.6874 58.9128 56.6368 58.837 56.5863C58.2554 56.3082 57.6233 56.0553 56.9406 55.8025C56.7131 55.7266 56.4855 55.6508 56.258 55.5749C56.0304 55.499 55.7776 55.4232 55.55 55.3473C54.9432 55.1703 54.3111 54.9934 53.6284 54.8417C53.3503 54.7911 53.0974 54.7152 52.8193 54.6647C52.4147 54.5888 51.9849 54.4877 51.555 54.4118C50.9735 54.3107 50.392 54.2095 49.7851 54.1337C49.4817 54.0831 49.1783 54.0578 48.8749 54.0073C43.6916 53.4004 37.4969 53.4257 30.9229 54.2601C22.8319 55.2715 15.6006 57.3195 10.2655 59.848C4.95581 62.3764 1.54241 65.36 1.11257 68.293C1.08729 68.3941 1.08729 68.4953 1.08729 68.6217C1.08729 68.7228 1.08729 68.824 1.08729 68.8998C1.08729 68.9757 1.08729 69.0768 1.08729 69.1527C1.08729 69.2285 1.11257 69.3296 1.11257 69.4055L0.202334 62.1236C-0.126364 59.6457 1.87111 57.0414 5.4615 54.7152C10.7965 51.226 19.6966 48.293 30.0127 47.0035C40.3035 45.714 49.6587 46.3461 55.7017 48.3941C59.7725 49.7595 62.3262 51.7822 62.6549 54.2854L63.5652 61.4156C63.4893 61.5167 63.4893 61.5673 63.5146 61.6179Z" fill="#E04646"/>
<path d="M63.5146 61.6179C63.5146 61.5167 63.4893 61.4409 63.464 61.3398C63.4387 61.2386 63.4135 61.1628 63.3882 61.0616C63.3629 60.9605 63.3376 60.8846 63.3123 60.7835C63.287 60.6824 63.2365 60.6065 63.2112 60.5054C62.9583 59.8985 62.5791 59.3423 62.0734 58.8113C62.0228 58.7607 61.9722 58.6849 61.8964 58.6343C61.8458 58.5837 61.77 58.5079 61.7194 58.4573C61.4666 58.2298 61.1884 58.0022 60.885 57.7999C60.354 57.4207 59.7725 57.0667 59.1151 56.738C59.014 56.6874 58.9128 56.6368 58.837 56.5863C58.2554 56.3082 57.6233 56.0553 56.9406 55.8025C56.7131 55.7266 56.4855 55.6508 56.258 55.5749C56.0304 55.499 55.7776 55.4232 55.55 55.3473C54.9432 55.1703 54.3111 54.9934 53.6284 54.8417C53.3503 54.7911 53.0974 54.7152 52.8193 54.6647C52.4147 54.5888 51.9849 54.4877 51.5551 54.4118C50.9735 54.3107 50.392 54.2095 49.7851 54.1337C49.4817 54.0831 49.1783 54.0578 48.8749 54.0073C43.6916 53.4004 37.4969 53.4257 30.9229 54.2601C22.8319 55.2715 15.6006 57.3195 10.2655 59.848C4.95581 62.3764 1.54241 65.36 1.11257 68.293C1.08729 68.3941 1.08729 68.4953 1.08729 68.6217C1.08729 68.7228 1.08729 68.824 1.08729 68.8998C1.08729 68.9757 1.08729 69.0768 1.08729 69.1527C1.08729 69.2285 1.11257 69.3296 1.11257 69.4055L0.202334 62.1236C-0.126364 59.6457 1.87111 57.0414 5.4615 54.7152C10.7965 51.226 19.6966 48.293 30.0127 47.0035C40.3035 45.714 49.6587 46.3461 55.7017 48.3941C59.7725 49.7595 62.3262 51.7822 62.6549 54.2854L63.5652 61.4156C63.4893 61.5167 63.4893 61.5673 63.5146 61.6179Z" stroke="#E04646" stroke-miterlimit="10" stroke-linecap="round" stroke-linejoin="round"/>
<path d="M7.30722 66.0176C7.25666 66.0934 7.20609 66.1693 7.15552 66.2451C7.23137 66.1693 7.25666 66.0934 7.30722 66.0176Z" stroke="#E04646" stroke-miterlimit="10" stroke-linecap="round" stroke-linejoin="round"/>
<path d="M34.7156 55.9551C34.5639 55.9551 34.4122 55.9804 34.2605 55.9804C34.4375 55.9804 34.5892 55.9804 34.7156 55.9551Z" stroke="#E04646" stroke-miterlimit="10" stroke-linecap="round" stroke-linejoin="round"/>
<path fill-rule="evenodd" clip-rule="evenodd" d="M34.2856 56.0058C34.4374 56.0058 34.5891 55.9805 34.7155 55.9805C34.5891 55.9805 34.4374 55.9805 34.2856 56.0058ZM57.8508 63.7934C57.876 63.6922 57.9013 63.6164 57.9266 63.5152C57.9013 63.5911 57.9013 63.6922 57.8508 63.7934ZM57.9266 63.5152C57.9519 63.3635 57.9772 63.2118 58.0025 63.0601C58.0025 63.1865 57.9772 63.3635 57.9266 63.5152Z" fill="#E04646"/>
<path d="M57.9266 63.5152C57.9013 63.6164 57.876 63.6922 57.8508 63.7934C57.9013 63.6922 57.9013 63.5911 57.9266 63.5152ZM57.9266 63.5152C57.9519 63.3635 57.9772 63.2118 58.0025 63.0601C58.0025 63.1865 57.9772 63.3635 57.9266 63.5152ZM34.2856 56.0058C34.4374 56.0058 34.5891 55.9805 34.7155 55.9805C34.5891 55.9805 34.4374 55.9805 34.2856 56.0058Z" stroke="#E04646" stroke-miterlimit="10" stroke-linecap="round" stroke-linejoin="round"/>
<path fill-rule="evenodd" clip-rule="evenodd" d="M34.2856 56.0058C34.4374 56.0058 34.5891 55.9805 34.7155 55.9805C34.5891 55.9805 34.4374 55.9805 34.2856 56.0058ZM57.9266 63.5152C57.9519 63.3635 57.9772 63.2118 58.0025 63.0601C58.0025 63.1865 57.9772 63.3635 57.9266 63.5152ZM57.8508 63.7934C57.876 63.6922 57.9013 63.6164 57.9266 63.5152C57.9013 63.5911 57.9013 63.6922 57.8508 63.7934Z" fill="#E04646"/>
<path d="M57.9266 63.5152C57.9519 63.3635 57.9772 63.2118 58.0025 63.0601C58.0025 63.1865 57.9772 63.3635 57.9266 63.5152ZM57.9266 63.5152C57.9013 63.6164 57.876 63.6922 57.8508 63.7934C57.9013 63.6922 57.9013 63.5911 57.9266 63.5152ZM34.2856 56.0058C34.4374 56.0058 34.5891 55.9805 34.7155 55.9805C34.5891 55.9805 34.4374 55.9805 34.2856 56.0058Z" stroke="#E04646" stroke-miterlimit="10" stroke-linecap="round" stroke-linejoin="round"/>
<path fill-rule="evenodd" clip-rule="evenodd" d="M58.0026 63.0343C57.9773 63.186 57.9521 63.3377 57.9268 63.4894C57.9015 63.5906 57.8762 63.6664 57.8509 63.7675L57.8256 63.8181C57.8004 63.8687 57.8004 63.894 57.7751 63.9445C57.7498 63.9951 57.7498 64.0204 57.7245 64.071C57.6992 64.1215 57.6992 64.1468 57.6739 64.1974C57.6487 64.248 57.6486 64.2732 57.6234 64.3238C57.5981 64.3744 57.5981 64.3997 57.5728 64.4502C57.5475 64.4755 57.5475 64.5261 57.5222 64.5514C57.4969 64.5767 57.4969 64.6272 57.4717 64.6525C57.4464 64.7031 57.4211 64.7536 57.3958 64.8042C57.3705 64.8548 57.3452 64.9053 57.32 64.9559C57.2947 65.0065 57.2694 65.0571 57.2188 65.1076C57.1935 65.1582 57.1682 65.2088 57.1177 65.2593C57.0418 65.3858 56.9407 65.5122 56.8395 65.6386C56.8143 65.6639 56.789 65.6892 56.789 65.7145C56.7384 65.765 56.7131 65.8156 56.6626 65.8662C56.612 65.9167 56.5867 65.9673 56.5361 66.0179C56.4856 66.0684 56.435 66.119 56.4097 66.1696C56.3591 66.2201 56.3086 66.2707 56.258 66.3213C56.2074 66.3718 56.1569 66.4224 56.1063 66.4983C56.0557 66.5488 56.0052 66.5994 55.9546 66.65C55.904 66.7005 55.8535 66.7511 55.8029 66.8017C55.7523 66.8523 55.7017 66.9028 55.6512 66.9534C55.6006 67.004 55.55 67.0545 55.4995 67.1051L55.4742 67.1304C55.4236 67.181 55.3478 67.2315 55.2972 67.2821C55.2466 67.3327 55.1961 67.3832 55.1202 67.4085C55.0696 67.4591 55.0191 67.5097 54.9432 67.5349C54.7662 67.6866 54.5892 67.8131 54.387 67.9395C54.3617 67.9648 54.3364 67.9648 54.3111 67.9901C54.2353 68.0406 54.1847 68.0912 54.1088 68.1418C54.033 68.1923 53.9571 68.2429 53.8813 68.2935C53.8307 68.344 53.7548 68.3693 53.7043 68.4199L53.6537 68.4452C53.5779 68.4957 53.5273 68.521 53.4514 68.5716C53.3756 68.6222 53.2997 68.6727 53.2239 68.7233C53.148 68.7739 53.0974 68.7992 53.0216 68.8497L52.9963 68.875C52.9205 68.9256 52.8446 68.9761 52.7687 69.0267C52.6929 69.0773 52.617 69.1279 52.5412 69.1531C52.4653 69.2037 52.3895 69.229 52.3136 69.2796C52.0608 69.4313 51.8079 69.5577 51.5298 69.7094C51.4792 69.7347 51.4034 69.76 51.3528 69.8105C50.9736 70.0128 50.5943 70.1898 50.1897 70.3668C50.1139 70.4174 50.0127 70.4426 49.9116 70.4932C49.8105 70.5438 49.7346 70.5691 49.6335 70.6196C49.5071 70.6702 49.3806 70.7461 49.2289 70.7966C49.1278 70.8472 49.0519 70.8725 48.9508 70.923C48.7991 70.9989 48.6474 71.0495 48.4957 71.1253C48.3945 71.1759 48.2934 71.2012 48.167 71.2517C48.0406 71.3023 47.9141 71.3529 47.7877 71.4035C47.636 71.454 47.5096 71.5046 47.3579 71.5552C47.2567 71.6057 47.1556 71.631 47.0545 71.6816C46.7258 71.808 46.3718 71.9344 46.0431 72.0356C45.9925 72.0608 45.9167 72.0861 45.8661 72.0861C45.8914 72.0356 45.8914 71.9597 45.9167 71.9091C46.0684 71.2265 46.1695 70.5185 46.1948 69.8105C46.2201 68.8497 46.1189 67.8889 45.8914 67.004C45.8914 66.9534 45.8661 66.9028 45.8408 66.8523C45.8408 66.8017 45.8155 66.7511 45.7902 66.7005C44.6524 62.6045 41.062 59.4692 36.6626 59.0899C36.612 59.0899 36.5614 59.0899 36.5108 59.0646L36.4856 58.9129L35.9799 56.1064L35.9546 55.9547C36.0052 55.9547 36.0557 55.9547 36.1063 55.9547C36.3086 55.9547 36.5108 55.9294 36.7131 55.9294C36.789 55.9294 36.8648 55.9294 36.9407 55.9294C37.1177 55.9294 37.2694 55.9041 37.4464 55.9041C37.5728 55.9041 37.6992 55.9041 37.8256 55.8788C37.9521 55.8788 38.0532 55.8788 38.1796 55.8788C38.4578 55.8788 38.7106 55.8788 38.9887 55.8535C39.0899 55.8535 39.191 55.8535 39.2921 55.8535C40.0507 55.8535 40.7839 55.8535 41.5172 55.8788C41.6183 55.8788 41.6942 55.8788 41.7953 55.8788C41.9217 55.8788 42.0481 55.8788 42.1746 55.9041C42.301 55.9041 42.4021 55.9041 42.5285 55.9294C42.832 55.9547 43.1354 55.9547 43.4135 55.9799C43.5652 55.9799 43.7169 56.0052 43.8433 56.0052C43.9445 56.0052 44.0709 56.0305 44.172 56.0305C44.2479 56.0305 44.349 56.0558 44.4249 56.0558C44.6777 56.0811 44.9053 56.1064 45.1581 56.1316C45.411 56.1569 45.6385 56.1822 45.8914 56.2075C46.2706 56.2581 46.6499 56.3086 47.0292 56.3592C47.105 56.3592 47.1556 56.3845 47.2315 56.3845C47.3326 56.4098 47.459 56.4098 47.5602 56.4351C47.6866 56.4603 47.813 56.4856 47.9394 56.4856C48.0406 56.5109 48.167 56.5362 48.2681 56.5362C48.344 56.5615 48.4198 56.5615 48.4957 56.5868C48.5715 56.6121 48.6474 56.6121 48.7232 56.6373C48.7991 56.6626 48.8749 56.6626 48.9508 56.6879C49.0014 56.6879 49.0519 56.7132 49.0772 56.7132C49.1278 56.7132 49.1784 56.7385 49.2289 56.7385C49.2795 56.7385 49.3301 56.7638 49.3806 56.7638C49.4312 56.789 49.4818 56.789 49.5576 56.789C49.684 56.8143 49.8105 56.8396 49.9369 56.8649C50.038 56.8902 50.1139 56.9155 50.215 56.9407C50.2909 56.966 50.3667 56.966 50.4173 56.9913C50.4679 57.0166 50.5437 57.0166 50.5943 57.0419C50.6701 57.0672 50.7207 57.0672 50.7966 57.0925C50.8471 57.1177 50.923 57.1177 50.9736 57.143C51.1758 57.1936 51.3781 57.2694 51.5804 57.32C51.7068 57.3453 51.8332 57.3959 51.9344 57.4212C52.1114 57.4717 52.2883 57.5476 52.4906 57.5981C52.5412 57.6234 52.5918 57.6234 52.6423 57.6487C52.8446 57.7246 53.0216 57.8004 53.2239 57.8763C53.2744 57.9016 53.325 57.9016 53.3756 57.9268C53.4261 57.9521 53.502 57.9774 53.5526 58.0027C53.6031 58.028 53.679 58.0533 53.7296 58.0785C53.8054 58.1038 53.856 58.1291 53.9318 58.1544C53.9824 58.1797 54.033 58.205 54.0835 58.2303C54.1341 58.2555 54.1847 58.2808 54.2352 58.3061C54.2858 58.3314 54.3364 58.3567 54.387 58.382C54.5639 58.4831 54.7409 58.559 54.9179 58.6601C54.9685 58.6854 55.0191 58.7107 55.0443 58.7359C55.1202 58.7865 55.1961 58.8118 55.2466 58.8624C55.2972 58.8877 55.3225 58.9129 55.373 58.9382C55.3983 58.9635 55.4236 58.9635 55.4489 58.9888C55.6006 59.0899 55.7523 59.1911 55.904 59.2922C55.9293 59.3175 55.9799 59.3428 56.0052 59.3681C56.1569 59.4945 56.3086 59.6209 56.4603 59.7473C56.4856 59.7726 56.5109 59.7979 56.5361 59.8232L56.5614 59.8485C56.612 59.899 56.6626 59.9496 56.7131 59.9749C56.7384 60.0002 56.7637 60.0255 56.789 60.0507C56.8143 60.076 56.8395 60.1013 56.8648 60.1266C56.9154 60.1772 56.9407 60.2024 56.9913 60.253C57.0165 60.2783 57.0418 60.3289 57.0924 60.3541L57.1177 60.3794C57.143 60.43 57.1935 60.4553 57.2188 60.5059C57.2441 60.5564 57.2947 60.607 57.32 60.6576C57.3705 60.7081 57.3958 60.784 57.4464 60.8346C57.4717 60.8598 57.4969 60.9104 57.5222 60.9357C57.5475 60.9863 57.5728 61.0368 57.5981 61.0874C57.6234 61.138 57.6487 61.1633 57.6739 61.2138C57.6992 61.2391 57.6992 61.2644 57.7245 61.2897C57.8004 61.4414 57.8762 61.6184 57.9268 61.7954C57.9268 61.8206 57.9521 61.8712 57.9521 61.8965C57.9773 61.9471 57.9773 62.0229 58.0026 62.0735C58.0026 62.0988 58.0026 62.1241 58.0279 62.1493V62.1999C58.0279 62.2505 58.0532 62.3011 58.0532 62.3516C58.0532 62.3769 58.0532 62.4022 58.0532 62.4275V62.5033C58.0279 62.655 58.0279 62.8573 58.0026 63.0343Z" fill="#E04646"/>
<path d="M58.0026 63.0343C57.9773 63.186 57.9521 63.3377 57.9268 63.4894C57.9015 63.5906 57.8762 63.6664 57.8509 63.7675L57.8256 63.8181C57.8004 63.8687 57.8004 63.894 57.7751 63.9445C57.7498 63.9951 57.7498 64.0204 57.7245 64.071C57.6992 64.1215 57.6992 64.1468 57.6739 64.1974C57.6487 64.248 57.6486 64.2732 57.6234 64.3238C57.5981 64.3744 57.5981 64.3997 57.5728 64.4502C57.5475 64.4755 57.5475 64.5261 57.5222 64.5514C57.4969 64.5767 57.4969 64.6272 57.4717 64.6525C57.4464 64.7031 57.4211 64.7536 57.3958 64.8042C57.3705 64.8548 57.3452 64.9053 57.32 64.9559C57.2947 65.0065 57.2694 65.0571 57.2188 65.1076C57.1935 65.1582 57.1682 65.2088 57.1177 65.2593C57.0418 65.3858 56.9407 65.5122 56.8395 65.6386C56.8143 65.6639 56.789 65.6892 56.789 65.7145C56.7384 65.765 56.7131 65.8156 56.6626 65.8662C56.612 65.9167 56.5867 65.9673 56.5361 66.0179C56.4856 66.0684 56.435 66.119 56.4097 66.1696C56.3591 66.2201 56.3086 66.2707 56.258 66.3213C56.2074 66.3718 56.1569 66.4224 56.1063 66.4983C56.0557 66.5488 56.0052 66.5994 55.9546 66.65C55.904 66.7005 55.8535 66.7511 55.8029 66.8017C55.7523 66.8523 55.7017 66.9028 55.6512 66.9534C55.6006 67.004 55.55 67.0545 55.4995 67.1051L55.4742 67.1304C55.4236 67.181 55.3478 67.2315 55.2972 67.2821C55.2466 67.3327 55.1961 67.3832 55.1202 67.4085C55.0696 67.4591 55.0191 67.5097 54.9432 67.5349C54.7662 67.6866 54.5892 67.8131 54.387 67.9395C54.3617 67.9648 54.3364 67.9648 54.3111 67.9901C54.2352 68.0406 54.1847 68.0912 54.1088 68.1418C54.033 68.1923 53.9571 68.2429 53.8813 68.2935C53.8307 68.344 53.7548 68.3693 53.7043 68.4199L53.6537 68.4452C53.5779 68.4957 53.5273 68.521 53.4514 68.5716C53.3756 68.6222 53.2997 68.6727 53.2239 68.7233C53.148 68.7739 53.0974 68.7992 53.0216 68.8497L52.9963 68.875C52.9205 68.9256 52.8446 68.9761 52.7687 69.0267C52.6929 69.0773 52.617 69.1279 52.5412 69.1531C52.4653 69.2037 52.3895 69.229 52.3136 69.2796C52.0608 69.4313 51.8079 69.5577 51.5298 69.7094C51.4792 69.7347 51.4034 69.76 51.3528 69.8105C50.9736 70.0128 50.5943 70.1898 50.1897 70.3668C50.1139 70.4174 50.0127 70.4426 49.9116 70.4932C49.8105 70.5438 49.7346 70.5691 49.6335 70.6196C49.5071 70.6702 49.3806 70.7461 49.2289 70.7966C49.1278 70.8472 49.0519 70.8725 48.9508 70.9231C48.7991 70.9989 48.6474 71.0495 48.4957 71.1253C48.3945 71.1759 48.2934 71.2012 48.167 71.2517C48.0406 71.3023 47.9141 71.3529 47.7877 71.4035C47.636 71.454 47.5096 71.5046 47.3579 71.5552C47.2567 71.6057 47.1556 71.631 47.0545 71.6816C46.7258 71.808 46.3718 71.9344 46.0431 72.0356C45.9925 72.0608 45.9167 72.0861 45.8661 72.0861C45.8914 72.0356 45.8914 71.9597 45.9167 71.9091C46.0684 71.2265 46.1695 70.5185 46.1948 69.8105C46.2201 68.8497 46.1189 67.8889 45.8914 67.004C45.8914 66.9534 45.8661 66.9028 45.8408 66.8523C45.8408 66.8017 45.8155 66.7511 45.7902 66.7005C44.6524 62.6045 41.062 59.4692 36.6626 59.0899C36.612 59.0899 36.5614 59.0899 36.5108 59.0646L36.4856 58.9129L35.9799 56.1064L35.9546 55.9547C36.0052 55.9547 36.0557 55.9547 36.1063 55.9547C36.3086 55.9547 36.5108 55.9294 36.7131 55.9294C36.789 55.9294 36.8648 55.9294 36.9407 55.9294C37.1177 55.9294 37.2694 55.9041 37.4464 55.9041C37.5728 55.9041 37.6992 55.9041 37.8256 55.8788C37.9521 55.8788 38.0532 55.8788 38.1796 55.8788C38.4578 55.8788 38.7106 55.8788 38.9887 55.8535C39.0899 55.8535 39.191 55.8535 39.2921 55.8535C40.0507 55.8535 40.7839 55.8535 41.5172 55.8788C41.6183 55.8788 41.6942 55.8788 41.7953 55.8788C41.9217 55.8788 42.0481 55.8788 42.1746 55.9041C42.301 55.9041 42.4021 55.9041 42.5285 55.9294C42.832 55.9547 43.1354 55.9547 43.4135 55.9799C43.5652 55.9799 43.7169 56.0052 43.8433 56.0052C43.9445 56.0052 44.0709 56.0305 44.172 56.0305C44.2479 56.0305 44.349 56.0558 44.4249 56.0558C44.6777 56.0811 44.9053 56.1064 45.1581 56.1316C45.411 56.1569 45.6385 56.1822 45.8914 56.2075C46.2706 56.2581 46.6499 56.3086 47.0292 56.3592C47.105 56.3592 47.1556 56.3845 47.2315 56.3845C47.3326 56.4098 47.459 56.4098 47.5602 56.4351C47.6866 56.4603 47.813 56.4856 47.9394 56.4856C48.0406 56.5109 48.167 56.5362 48.2681 56.5362C48.344 56.5615 48.4198 56.5615 48.4957 56.5868C48.5715 56.6121 48.6474 56.6121 48.7232 56.6373C48.7991 56.6626 48.8749 56.6626 48.9508 56.6879C49.0014 56.6879 49.0519 56.7132 49.0772 56.7132C49.1278 56.7132 49.1784 56.7385 49.2289 56.7385C49.2795 56.7385 49.3301 56.7638 49.3806 56.7638C49.4312 56.789 49.4818 56.789 49.5576 56.789C49.684 56.8143 49.8105 56.8396 49.9369 56.8649C50.038 56.8902 50.1139 56.9155 50.215 56.9407C50.2909 56.966 50.3667 56.966 50.4173 56.9913C50.4679 57.0166 50.5437 57.0166 50.5943 57.0419C50.6701 57.0672 50.7207 57.0672 50.7966 57.0925C50.8471 57.1177 50.923 57.1177 50.9736 57.143C51.1758 57.1936 51.3781 57.2694 51.5804 57.32C51.7068 57.3453 51.8332 57.3959 51.9344 57.4212C52.1114 57.4717 52.2883 57.5476 52.4906 57.5981C52.5412 57.6234 52.5918 57.6234 52.6423 57.6487C52.8446 57.7246 53.0216 57.8004 53.2239 57.8763C53.2744 57.9016 53.325 57.9016 53.3756 57.9268C53.4261 57.9521 53.502 57.9774 53.5526 58.0027C53.6031 58.028 53.679 58.0533 53.7296 58.0785C53.8054 58.1038 53.856 58.1291 53.9318 58.1544C53.9824 58.1797 54.033 58.205 54.0835 58.2303C54.1341 58.2555 54.1847 58.2808 54.2352 58.3061C54.2858 58.3314 54.3364 58.3567 54.387 58.382C54.5639 58.4831 54.7409 58.559 54.9179 58.6601C54.9685 58.6854 55.0191 58.7107 55.0444 58.7359C55.1202 58.7865 55.1961 58.8118 55.2466 58.8624C55.2972 58.8877 55.3225 58.9129 55.373 58.9382C55.3983 58.9635 55.4236 58.9635 55.4489 58.9888C55.6006 59.0899 55.7523 59.1911 55.904 59.2922C55.9293 59.3175 55.9799 59.3428 56.0052 59.3681C56.1569 59.4945 56.3086 59.6209 56.4603 59.7473C56.4856 59.7726 56.5109 59.7979 56.5361 59.8232L56.5614 59.8485C56.612 59.899 56.6626 59.9496 56.7131 59.9749C56.7384 60.0002 56.7637 60.0255 56.789 60.0507C56.8143 60.076 56.8395 60.1013 56.8648 60.1266C56.9154 60.1772 56.9407 60.2024 56.9913 60.253C57.0165 60.2783 57.0418 60.3289 57.0924 60.3541L57.1177 60.3794C57.143 60.43 57.1935 60.4553 57.2188 60.5059C57.2441 60.5564 57.2947 60.607 57.32 60.6576C57.3705 60.7081 57.3958 60.784 57.4464 60.8346C57.4717 60.8598 57.4969 60.9104 57.5222 60.9357C57.5475 60.9863 57.5728 61.0368 57.5981 61.0874C57.6234 61.138 57.6487 61.1633 57.6739 61.2138C57.6992 61.2391 57.6992 61.2644 57.7245 61.2897C57.8004 61.4414 57.8762 61.6184 57.9268 61.7954C57.9268 61.8206 57.9521 61.8712 57.9521 61.8965C57.9773 61.9471 57.9773 62.0229 58.0026 62.0735C58.0026 62.0988 58.0026 62.1241 58.0279 62.1493V62.1999C58.0279 62.2505 58.0532 62.3011 58.0532 62.3516C58.0532 62.3769 58.0532 62.4022 58.0532 62.4275V62.5033C58.0279 62.655 58.0279 62.8573 58.0026 63.0343Z" stroke="#E04646" stroke-miterlimit="10" stroke-linecap="round" stroke-linejoin="round"/>
<path fill-rule="evenodd" clip-rule="evenodd" d="M7.18066 66.2712C7.23123 66.1954 7.2818 66.1195 7.33237 66.0437C7.25652 66.0943 7.23123 66.1701 7.18066 66.2712ZM57.8507 63.7934C57.876 63.6922 57.9013 63.6164 57.9266 63.5152C57.9013 63.5911 57.9013 63.6922 57.8507 63.7934ZM57.9266 63.5152C57.9518 63.3635 57.9771 63.2118 58.0024 63.0601C58.0024 63.1865 57.9771 63.3635 57.9266 63.5152ZM34.2856 56.0058C34.4373 56.0058 34.589 55.9805 34.7154 55.9805C34.589 55.9805 34.4373 55.9805 34.2856 56.0058Z" fill="#E04646"/>
<path d="M57.9266 63.5152C57.9013 63.6164 57.876 63.6922 57.8507 63.7934C57.9013 63.6922 57.9013 63.5911 57.9266 63.5152ZM57.9266 63.5152C57.9518 63.3635 57.9771 63.2118 58.0024 63.0601C58.0024 63.1865 57.9771 63.3635 57.9266 63.5152ZM7.18066 66.2712C7.23123 66.1954 7.2818 66.1195 7.33237 66.0437C7.25652 66.0943 7.23123 66.1701 7.18066 66.2712ZM34.2856 56.0058C34.4373 56.0058 34.589 55.9805 34.7154 55.9805C34.589 55.9805 34.4373 55.9805 34.2856 56.0058Z" stroke="#E04646" stroke-miterlimit="10" stroke-linecap="round" stroke-linejoin="round"/>
<path d="M45.0062 74.5392C44.9304 74.5644 44.8798 74.5644 44.804 74.5897C45.2338 73.8312 45.5625 73.0474 45.79 72.1877C45.8153 72.1371 45.8153 72.0613 45.8406 72.0107C45.8912 71.9854 45.967 71.9601 46.0176 71.9601C46.3716 71.8337 46.7003 71.7326 47.029 71.6062C47.1301 71.5556 47.2313 71.5303 47.3324 71.4797C47.4841 71.4292 47.6105 71.3786 47.7622 71.328C47.8887 71.2775 48.0151 71.2269 48.1415 71.1763C48.2426 71.1258 48.3691 71.1005 48.4702 71.0499C48.6219 70.9993 48.7736 70.9235 48.9253 70.8476C49.0265 70.7971 49.1023 70.7718 49.2034 70.7212C49.3299 70.6706 49.4563 70.5948 49.608 70.5442C49.7091 70.4936 49.785 70.4684 49.8861 70.4178C49.9873 70.3672 50.0631 70.3419 50.1643 70.2914C50.5688 70.1144 50.9481 69.9121 51.3273 69.7351C51.3779 69.7098 51.4538 69.6845 51.5043 69.634C51.7825 69.5076 52.0353 69.3559 52.2882 69.2041C52.364 69.1536 52.4399 69.1283 52.5157 69.0777C52.5916 69.0272 52.6674 68.9766 52.7433 68.9513C52.8191 68.9007 52.895 68.8502 52.9708 68.7996L52.9961 68.7743C53.072 68.7237 53.1225 68.6985 53.1984 68.6479C53.2742 68.5973 53.3501 68.5467 53.426 68.4962C53.5018 68.4456 53.5524 68.4203 53.6282 68.3698L53.6788 68.3445C53.7294 68.2939 53.8052 68.2686 53.8558 68.218C53.9316 68.1675 54.0075 68.1169 54.0833 68.0663C54.1592 68.0158 54.2098 67.9652 54.2856 67.9146C54.3109 67.8894 54.3362 67.8893 54.3615 67.8641C54.5638 67.7376 54.7407 67.5859 54.9177 67.4595C54.9683 67.4089 55.0442 67.3584 55.0947 67.3331C55.1453 67.2825 55.1959 67.232 55.2717 67.2067C55.3223 67.1561 55.3981 67.1055 55.4487 67.055L55.474 67.0297C55.5246 66.9791 55.5751 66.9285 55.6257 66.878C55.6763 66.8274 55.7268 66.7768 55.7774 66.7263C55.828 66.6757 55.8785 66.6251 55.9291 66.5746C55.9797 66.524 56.0302 66.4734 56.0808 66.4229C56.1314 66.3723 56.182 66.3217 56.2325 66.2459C56.2831 66.1953 56.3337 66.1447 56.3842 66.0942C56.4348 66.0436 56.4854 65.993 56.5107 65.9424C56.5612 65.8919 56.5865 65.8413 56.6371 65.7907C56.6876 65.7402 56.7129 65.6896 56.7635 65.639C56.7888 65.6138 56.8141 65.5885 56.8141 65.5632C56.9152 65.4368 57.0163 65.3103 57.0922 65.1839C57.1175 65.1333 57.168 65.0828 57.1933 65.0322C57.2186 64.9816 57.2439 64.9311 57.2945 64.8805C57.3198 64.8299 57.345 64.7794 57.3703 64.7288C57.3956 64.6782 57.4209 64.6277 57.4462 64.5771C57.4715 64.5518 57.4715 64.5012 57.4967 64.476C57.522 64.4507 57.522 64.4001 57.5473 64.3748C57.5726 64.3242 57.5726 64.299 57.5979 64.2484C57.6232 64.1978 57.6232 64.1725 57.6485 64.122C57.6737 64.0714 57.6737 64.0461 57.699 63.9955C57.7243 63.945 57.7243 63.9197 57.7496 63.8691C57.7749 63.8186 57.7749 63.7933 57.8002 63.7427L57.8254 63.6921C57.8507 63.591 57.876 63.5151 57.9013 63.414C57.9266 63.2623 57.9519 63.1106 57.9772 62.9589C58.0024 62.7566 58.0024 62.5796 57.9772 62.3773V62.3015C57.9772 62.2762 57.9772 62.2509 57.9772 62.2256C57.9772 62.1751 57.9519 62.1245 57.9519 62.0739V62.0234C57.9519 61.9981 57.9519 61.9728 57.9266 61.9475C57.9013 61.8969 57.9013 61.8211 57.876 61.7705C57.876 61.7452 57.8507 61.6947 57.8507 61.6694C57.8002 61.4924 57.7243 61.3407 57.6485 61.1637C57.6232 61.1384 57.6232 61.1131 57.5979 61.0878C57.5726 61.0373 57.5473 61.012 57.522 60.9614C57.4967 60.9108 57.4715 60.8603 57.4462 60.8097C57.4209 60.7844 57.3956 60.7339 57.3703 60.7086C57.3198 60.658 57.2945 60.5821 57.2439 60.5316C57.2186 60.481 57.168 60.4304 57.1428 60.3799C57.1175 60.3293 57.0669 60.304 57.0416 60.2534L57.0163 60.2282C56.9911 60.2029 56.9658 60.1523 56.9152 60.127C56.8646 60.0765 56.8394 60.0259 56.7888 60.0006C56.7635 59.9753 56.7382 59.95 56.7129 59.9247C56.6876 59.8995 56.6624 59.8742 56.6371 59.8489C56.5865 59.7983 56.5359 59.7478 56.4854 59.7225L56.4601 59.6972C56.4348 59.6719 56.4095 59.6466 56.3842 59.6213C56.2325 59.4949 56.0808 59.3685 55.9291 59.2421C55.9038 59.2168 55.8533 59.1915 55.828 59.1662C55.6763 59.0651 55.5246 58.9639 55.3729 58.8628C55.3476 58.8375 55.3223 58.8375 55.297 58.8122C55.2464 58.7869 55.2211 58.7617 55.1706 58.7364C55.0947 58.6858 55.0442 58.6605 54.9683 58.61C54.9177 58.5847 54.8672 58.5594 54.8419 58.5341C54.6649 58.433 54.4879 58.3571 54.3109 58.256C54.2603 58.2307 54.2098 58.2054 54.1592 58.1801C54.1086 58.1548 54.0581 58.1296 54.0075 58.1043C53.9569 58.079 53.9064 58.0537 53.8558 58.0284C53.8052 58.0031 53.7294 57.9778 53.6535 57.9526C53.6029 57.9273 53.5524 57.902 53.4765 57.8767C53.426 57.8514 53.3501 57.8261 53.2995 57.8009C53.249 57.7756 53.1984 57.7503 53.1478 57.7503C52.9708 57.6744 52.7686 57.5986 52.5663 57.5227C52.5157 57.4974 52.4651 57.4974 52.4146 57.4722C52.2376 57.4216 52.0606 57.3457 51.8583 57.2952C51.7319 57.2446 51.6308 57.2193 51.5043 57.194C51.3021 57.1435 51.0998 57.0676 50.8975 57.017C50.8469 56.9918 50.7711 56.9918 50.7205 56.9665C50.6447 56.9412 50.5941 56.9412 50.5182 56.9159C50.4677 56.8906 50.3918 56.8906 50.3412 56.8653C50.2654 56.84 50.1895 56.84 50.139 56.8148C50.0631 56.7895 49.962 56.7642 49.8608 56.7389C49.7344 56.7136 49.608 56.6883 49.4816 56.6631C49.431 56.6378 49.3804 56.6378 49.3046 56.6378C49.254 56.6378 49.2034 56.6125 49.1529 56.6125C49.1023 56.6125 49.0517 56.5872 49.0012 56.5872C48.9506 56.5872 48.9 56.5619 48.8747 56.5619C48.7989 56.5366 48.723 56.5366 48.6472 56.5113C48.5713 56.4861 48.4955 56.4861 48.4196 56.4608C48.3438 56.4355 48.2679 56.4355 48.1921 56.4102C48.0909 56.3849 47.9645 56.3596 47.8634 56.3596C47.7369 56.3344 47.6105 56.3091 47.4841 56.3091C47.383 56.2838 47.2565 56.2838 47.1554 56.2585C47.0796 56.2585 47.029 56.2332 46.9531 56.2332C46.5739 56.1826 46.1946 56.1321 45.8153 56.0815C45.5625 56.0562 45.3349 56.0309 45.0821 56.0057C44.8545 55.9804 44.6017 55.9551 44.3488 55.9298C44.273 55.9298 44.1718 55.9045 44.096 55.9045C43.9948 55.9045 43.8684 55.8792 43.7673 55.8792C43.6156 55.8792 43.4639 55.854 43.3375 55.854C43.034 55.8287 42.7559 55.8287 42.4525 55.8034C42.3261 55.8034 42.2249 55.8034 42.0985 55.7781C41.9721 55.7781 41.8457 55.7781 41.7192 55.7528C41.6181 55.7528 41.5423 55.7528 41.4411 55.7528C40.7079 55.7275 39.9746 55.7275 39.2161 55.7275C39.115 55.7275 39.0138 55.7275 38.9127 55.7275C38.6345 55.7275 38.3817 55.7275 38.1036 55.7528C37.9771 55.7528 37.876 55.7528 37.7496 55.7528C37.6232 55.7528 37.4967 55.7528 37.3703 55.7781C37.1933 55.7781 37.0416 55.8034 36.8646 55.8034C36.7888 55.8034 36.7129 55.8034 36.6371 55.8034C36.4348 55.8034 36.2325 55.8287 36.0302 55.8287C35.9797 55.8287 35.9291 55.8287 35.8785 55.8287H35.8533C35.6763 55.8287 35.4993 55.854 35.3476 55.854C35.12 55.8792 34.9177 55.8792 34.6902 55.9045C34.5385 55.9045 34.3868 55.9298 34.2603 55.9298C33.9569 55.9551 33.6535 55.9804 33.3501 56.0057C32.6168 56.0815 31.8583 56.1574 31.0998 56.2585C31.0492 56.2585 30.9986 56.2585 30.9481 56.2838C30.8975 56.2838 30.8217 56.3091 30.7711 56.3091C30.7205 56.3091 30.6699 56.3344 30.6194 56.3344C30.493 56.3596 30.3918 56.3596 30.2654 56.3849C30.1643 56.4102 30.0884 56.4102 29.9873 56.4355C29.3804 56.5113 28.7989 56.6125 28.1921 56.7136C27.9898 56.7389 27.8128 56.7895 27.6105 56.8148C27.5347 56.84 27.4588 56.84 27.383 56.8653C27.2818 56.8906 27.206 56.8906 27.1048 56.9159C27.0037 56.9412 26.9278 56.9412 26.8267 56.9665C26.6497 56.9918 26.4727 57.0423 26.2704 57.0676C26.1693 57.0929 26.0682 57.1182 25.967 57.1182C25.8912 57.1435 25.8153 57.1435 25.7648 57.1687C25.6636 57.194 25.5625 57.2193 25.4613 57.2193C25.3602 57.2446 25.2591 57.2699 25.1579 57.2699C25.0062 57.2952 24.8545 57.3457 24.7028 57.371C24.2477 57.4722 23.8179 57.5733 23.388 57.6744C23.1857 57.725 23.0088 57.7756 22.8065 57.8261C22.6548 57.8514 22.5284 57.902 22.3766 57.9273C22.2249 57.9526 22.0985 58.0031 21.9468 58.0284C21.5675 58.1296 21.2136 58.2307 20.8343 58.3318C20.6826 58.3824 20.5562 58.4077 20.4045 58.4582C19.5448 58.7111 18.7357 58.9892 17.9519 59.2674C17.8002 59.3179 17.6232 59.3938 17.4715 59.4443C17.3956 59.4696 17.2945 59.5202 17.2186 59.5455C17.0922 59.5961 16.9658 59.6466 16.8646 59.6719C16.5107 59.7983 16.1567 59.95 15.8027 60.1017C15.651 60.1523 15.5246 60.2282 15.3729 60.2787C15.297 60.3293 15.1959 60.3546 15.12 60.3799C15.0442 60.4052 14.9936 60.4304 14.9177 60.4557C14.8166 60.5063 14.7407 60.5316 14.6396 60.5821C14.5637 60.6074 14.5132 60.6327 14.4373 60.658C13.9316 60.8856 13.4512 61.1131 12.9961 61.366C12.8697 61.4418 12.7433 61.4924 12.5916 61.5682C12.4904 61.6188 12.4146 61.6694 12.3134 61.7199C12.2881 61.7452 12.2376 61.7452 12.2123 61.7705C12.1364 61.8211 12.0353 61.8717 11.9595 61.9222C11.8836 61.9728 11.8077 62.0234 11.7066 62.0739C11.6308 62.1245 11.5549 62.1751 11.479 62.2256C11.4285 62.2509 11.3526 62.3015 11.3021 62.3268C11.0998 62.4532 10.9228 62.5543 10.7458 62.6808C10.6699 62.7313 10.5688 62.7819 10.493 62.8577C10.1643 63.0853 9.86084 63.2876 9.58271 63.5151C9.53214 63.5404 9.50686 63.5657 9.45629 63.6163C9.32987 63.7174 9.22873 63.8186 9.10231 63.8944C9.05174 63.9197 9.02645 63.9703 8.97589 63.9955C8.92532 64.0461 8.87475 64.0714 8.84946 64.122C8.79889 64.1473 8.77361 64.1978 8.72304 64.2231C8.67247 64.2737 8.64719 64.299 8.59662 64.3495C8.54605 64.4001 8.52077 64.4254 8.4702 64.476C8.41963 64.5265 8.39434 64.5518 8.34377 64.6024C8.26792 64.6782 8.19207 64.7541 8.11621 64.8299C8.09093 64.8805 8.04036 64.9058 8.01508 64.9564C7.98979 65.0069 7.93922 65.0322 7.91394 65.0828C7.88865 65.1333 7.83809 65.1586 7.8128 65.2092C7.78752 65.2598 7.73695 65.2851 7.71166 65.3356C7.68638 65.3862 7.63581 65.4115 7.61053 65.462C7.58524 65.5126 7.55996 65.5379 7.50939 65.5885C7.4841 65.639 7.45882 65.6643 7.43353 65.7149C7.38297 65.7907 7.3324 65.8666 7.28183 65.9424C7.25654 65.993 7.23126 66.0183 7.20597 66.0689C7.15541 66.1447 7.10484 66.2206 7.05427 66.2964C6.97841 66.4229 6.90256 66.5493 6.85199 66.6757C6.82671 66.701 6.82671 66.7263 6.80142 66.7516C6.77614 66.8021 6.77614 66.8274 6.75085 66.878C6.72557 66.9285 6.72557 66.9538 6.70029 67.0044C6.675 67.055 6.675 67.0802 6.64972 67.1308C6.62443 67.1814 6.62443 67.2067 6.59915 67.2572C6.57386 67.2825 6.57386 67.3331 6.57386 67.3584C6.54858 67.4089 6.54858 67.4342 6.54858 67.4848C6.52329 67.5607 6.49801 67.6365 6.49801 67.7124C6.49801 67.7629 6.47273 67.7882 6.47273 67.8388C6.47273 67.8893 6.44744 67.9399 6.44744 67.9905C6.44744 68.0411 6.42216 68.1169 6.42216 68.1675C6.42216 68.2939 6.42216 68.4456 6.42216 68.572C6.42216 68.5973 6.42216 68.6479 6.42216 68.6732V68.749C6.42216 68.7743 6.42216 68.7996 6.42216 68.8249C6.42216 68.8754 6.44744 68.926 6.44744 68.9766C6.44744 69.0019 6.44744 69.0524 6.47273 69.0777C6.47273 69.103 6.49801 69.1283 6.49801 69.1536C6.49801 69.1789 6.52329 69.2041 6.52329 69.2547C6.52329 69.28 6.54858 69.3053 6.54858 69.3558C6.54858 69.3811 6.57386 69.4064 6.57386 69.457C6.57386 69.4823 6.59915 69.5076 6.59915 69.5581C6.59915 69.5834 6.62443 69.6087 6.62443 69.634C6.64972 69.6593 6.64972 69.7098 6.675 69.7351C6.80142 70.0638 7.0037 70.3925 7.23126 70.6959C7.25654 70.7465 7.30711 70.7718 7.3324 70.8223C7.38297 70.8729 7.40825 70.9235 7.45882 70.9741C7.4841 70.9993 7.50939 71.0246 7.53467 71.0499C7.58524 71.1005 7.63581 71.151 7.68638 71.2016C7.73695 71.2522 7.78752 71.3028 7.83809 71.328H7.86337C7.91394 71.3786 7.93922 71.4039 7.98979 71.4545C8.06565 71.505 8.11621 71.5809 8.19207 71.6314C8.24264 71.682 8.29321 71.7073 8.34377 71.7579C8.49548 71.8843 8.67247 71.9854 8.82418 72.1119C8.87475 72.1371 8.92532 72.1877 8.97589 72.213C9.02645 72.2636 9.10231 72.2888 9.15288 72.3394C9.22873 72.39 9.2793 72.4153 9.35515 72.4658C9.40572 72.4911 9.45629 72.5417 9.53214 72.567H9.55743C9.63328 72.6175 9.70914 72.6428 9.78499 72.6934C9.96198 72.7945 10.139 72.8704 10.316 72.9715C10.3918 73.0221 10.4677 73.0474 10.5688 73.0979C10.6447 73.1485 10.7458 73.1738 10.8217 73.1991C10.8722 73.2244 10.9228 73.2497 10.9481 73.2497C11.0745 73.3002 11.2262 73.3508 11.3526 73.4014C11.4285 73.4266 11.5043 73.4519 11.5802 73.4772C11.656 73.5025 11.7319 73.5278 11.8077 73.5531C11.8583 73.5784 11.9089 73.5784 11.9595 73.6036C12.0353 73.6289 12.1364 73.6542 12.2123 73.6795C12.2881 73.7048 12.3893 73.7301 12.4651 73.7553H12.4904C12.5663 73.7806 12.6421 73.8059 12.718 73.8312C12.9708 73.907 13.2237 73.9829 13.4765 74.0588C13.5271 74.084 13.6029 74.084 13.6535 74.1093C13.7546 74.1346 13.8558 74.1599 13.9569 74.1852C14.2603 74.261 14.5637 74.3369 14.8672 74.4127C14.943 74.438 15.0189 74.438 15.0947 74.4633C15.297 74.5139 15.5246 74.5392 15.7268 74.5897C15.828 74.615 15.9038 74.615 16.005 74.6403C16.0555 74.6403 16.1061 74.6656 16.1567 74.6656C16.2578 74.6909 16.3589 74.6909 16.4601 74.7162H16.4854C16.6118 74.7414 16.7382 74.7667 16.8646 74.792C17.0669 74.8173 17.2439 74.8426 17.4462 74.8679C17.5473 74.8931 17.6485 74.8931 17.7496 74.9184C18.0024 74.9437 18.2553 74.9943 18.5334 75.0196C18.6345 75.0449 18.7357 75.0448 18.8621 75.0448C19.3172 75.0954 19.7723 75.146 20.2275 75.1713C20.3539 75.1713 20.4803 75.1966 20.6067 75.1966C20.7584 75.1966 20.9354 75.2218 21.0871 75.2218C21.3653 75.2471 21.6434 75.2471 21.9468 75.2724C23.1352 75.323 24.3741 75.3483 25.6383 75.323C25.7142 75.323 25.8153 75.323 25.8912 75.323C26.1693 75.323 26.4727 75.323 26.7761 75.2977C26.8267 75.2977 26.9026 75.2977 26.9531 75.2977C26.9784 75.3483 27.029 75.3988 27.0543 75.4494C27.5094 76.1068 28.0656 76.7136 28.6472 77.2446C28.5713 77.2446 28.4955 77.2446 28.4449 77.2699C13.8052 78.2307 1.99738 75.0954 1.08714 69.634C1.08714 69.5834 1.06185 69.5328 1.06185 69.4823C1.01128 69.103 1.01128 68.7237 1.06185 68.3445C1.89624 62.4785 14.6649 56.3596 30.8469 54.3369C47.029 52.2888 60.9101 55.0448 63.1857 60.5063C63.3375 60.8603 63.4386 61.2143 63.4892 61.5935C63.4892 61.6441 63.4892 61.6947 63.5144 61.7452C63.9443 66.4481 56.2831 71.4797 45.0062 74.5392Z" stroke="#E04646" stroke-miterlimit="10" stroke-linecap="round" stroke-linejoin="round"/>
<path d="M34.7156 55.9551C34.5639 55.9551 34.4122 55.9804 34.2605 55.9804C34.4375 55.9804 34.5892 55.9804 34.7156 55.9551Z" stroke="#E04646" stroke-miterlimit="10" stroke-linecap="round" stroke-linejoin="round"/>
<path d="M36.5108 58.989C36.4602 58.989 36.4096 58.989 36.3591 58.989C36.2579 58.989 36.1568 58.989 36.0557 58.9637C34.4627 58.9131 32.971 59.2166 31.6056 59.8234C31.555 59.8487 31.5045 59.874 31.4539 59.8992L31.4286 59.7475L30.8471 56.5364L30.8218 56.3847C30.8723 56.3847 30.9482 56.3594 30.9988 56.3594C31.0493 56.3594 31.0999 56.3594 31.1505 56.3341C31.909 56.233 32.6675 56.1571 33.4008 56.0813C33.7042 56.056 34.0076 56.0307 34.311 56.0054C34.4627 55.9801 34.6144 55.9801 34.7662 55.9801C34.9937 55.9549 35.196 55.9549 35.4235 55.9296C35.6005 55.9296 35.7775 55.9043 35.9292 55.9043H35.9545L35.9798 56.056L36.4855 58.8626L36.5108 58.989Z" stroke="#E04646" stroke-miterlimit="10" stroke-linecap="round" stroke-linejoin="round"/>
<path fill-rule="evenodd" clip-rule="evenodd" d="M31.4539 59.899C31.4033 59.9243 31.3528 59.9496 31.3022 59.9748C29.7598 60.7081 28.4198 61.7953 27.4084 63.1354C26.1442 64.8042 25.3604 66.8775 25.2845 69.1278C25.2845 69.4059 25.2845 69.6841 25.2845 69.9622C25.2845 70.0128 25.2845 70.0633 25.2845 70.1139C25.2845 70.1645 25.2845 70.215 25.2845 70.2656C25.4362 72.0608 26.0177 73.7296 26.9533 75.1455C26.9786 75.1961 27.0291 75.2466 27.0544 75.2972C27.0038 75.2972 26.928 75.2972 26.8774 75.2972C26.574 75.2972 26.2959 75.3225 25.9925 75.3225C25.9166 75.3225 25.8155 75.3225 25.7396 75.3225C24.4754 75.3478 23.2365 75.3225 22.0481 75.2719C21.77 75.2467 21.4918 75.2466 21.1884 75.2214C21.0367 75.2214 20.8597 75.1961 20.708 75.1961C20.5816 75.1961 20.4552 75.1708 20.3287 75.1708C19.8736 75.1202 19.3932 75.0949 18.9634 75.0444C18.8623 75.0444 18.7358 75.0191 18.6347 75.0191C18.3818 74.9938 18.1037 74.9432 17.8509 74.9179C17.7497 74.8927 17.6486 74.8927 17.5475 74.8674C17.3452 74.8421 17.1682 74.8168 16.9659 74.7915C16.8395 74.7662 16.7131 74.741 16.5866 74.7157H16.5614C16.4602 74.6904 16.3591 74.6904 16.258 74.6651C16.2074 74.6651 16.1568 74.6398 16.1062 74.6398C16.0051 74.6145 15.9293 74.6145 15.8281 74.5893C15.6006 74.5387 15.3983 74.5134 15.196 74.4628C15.1202 74.4375 15.0443 74.4375 14.9684 74.4123C14.665 74.3364 14.3616 74.2606 14.0582 74.1847C13.9571 74.1594 13.8559 74.1341 13.7548 74.1089C13.7042 74.0836 13.6284 74.0836 13.5778 74.0583C13.325 73.9824 13.0468 73.9066 12.8193 73.8307C12.7434 73.8054 12.6676 73.7802 12.5917 73.7549H12.5664C12.4906 73.7296 12.3894 73.7043 12.3136 73.679C12.2377 73.6537 12.1366 73.6284 12.0607 73.6032C12.0102 73.5779 11.9596 73.5779 11.909 73.5526C11.8332 73.5273 11.7573 73.502 11.6815 73.4767C11.6056 73.4515 11.5298 73.4262 11.4539 73.4009C11.3275 73.3503 11.1758 73.2997 11.0494 73.2492C10.9988 73.2239 10.9482 73.1986 10.9229 73.1986C10.8471 73.1733 10.7459 73.1228 10.6701 73.0975C10.5942 73.0722 10.4931 73.0216 10.4172 72.9711C10.2403 72.8952 10.0633 72.7941 9.88627 72.6929C9.81042 72.6423 9.73456 72.6171 9.65871 72.5665H9.63342C9.58286 72.5412 9.507 72.4906 9.45643 72.4654C9.38058 72.4148 9.33001 72.3895 9.25416 72.3389C9.20359 72.3137 9.12774 72.2631 9.07717 72.2125C9.0266 72.1872 8.97603 72.1367 8.92546 72.1114C8.74847 71.985 8.59676 71.8838 8.44506 71.7574C8.39449 71.7068 8.34392 71.6815 8.29335 71.631C8.2175 71.5804 8.16693 71.5046 8.09107 71.454C8.0405 71.4034 8.01522 71.3781 7.96465 71.3276H7.93937C7.8888 71.277 7.83823 71.2264 7.78766 71.2011C7.73709 71.1506 7.68652 71.1 7.63595 71.0494C7.61067 71.0241 7.58538 70.9989 7.5601 70.9736C7.50953 70.923 7.48425 70.8724 7.43368 70.8219C7.40839 70.7713 7.35782 70.746 7.33254 70.6954C7.10498 70.392 6.9027 70.0633 6.77628 69.7346C6.751 69.7094 6.751 69.6588 6.72571 69.6335C6.72571 69.6082 6.70043 69.5829 6.70043 69.5576C6.70043 69.5324 6.67514 69.5071 6.67514 69.4565C6.67514 69.4312 6.64986 69.4059 6.64986 69.3554C6.64986 69.3301 6.62458 69.3048 6.62458 69.2542C6.62458 69.2289 6.59929 69.2037 6.59929 69.1531C6.59929 69.1278 6.57401 69.1025 6.57401 69.0772C6.57401 69.052 6.54872 69.0014 6.54872 68.9761C6.54872 68.9255 6.52344 68.875 6.52344 68.8244C6.52344 68.7991 6.52344 68.7738 6.52344 68.7485V68.6727C6.52344 68.6474 6.52344 68.5968 6.52344 68.5716C6.52344 68.4451 6.52344 68.2934 6.52344 68.167C6.52344 68.1164 6.52344 68.0406 6.54872 67.99C6.54872 67.9394 6.57401 67.8889 6.57401 67.8383C6.57401 67.7877 6.59929 67.7624 6.59929 67.7119C6.62458 67.636 6.62458 67.5602 6.64986 67.4843C6.64986 67.4338 6.67514 67.4085 6.67514 67.3579C6.67514 67.3326 6.70043 67.282 6.70043 67.2568C6.72571 67.2062 6.72571 67.1809 6.751 67.1303C6.77628 67.0798 6.77628 67.0545 6.80157 67.0039C6.82685 66.9533 6.82685 66.9281 6.85214 66.8775C6.87742 66.8269 6.87742 66.8016 6.9027 66.7511C6.92799 66.7258 6.92799 66.7005 6.95327 66.6752C7.00384 66.5488 7.0797 66.4224 7.15555 66.296C7.20612 66.2201 7.25669 66.1442 7.30726 66.0684C7.33254 66.0178 7.35782 65.9925 7.38311 65.942C7.43368 65.8661 7.48425 65.7903 7.53482 65.7144C7.5601 65.6638 7.58538 65.6386 7.61067 65.588C7.63595 65.5374 7.66124 65.5121 7.71181 65.4616C7.73709 65.411 7.76238 65.3857 7.81294 65.3351C7.83823 65.2846 7.8888 65.2593 7.91408 65.2087C7.93937 65.1582 7.98994 65.1329 8.01522 65.0823C8.0405 65.0317 8.09107 65.0064 8.11636 64.9559C8.14164 64.9053 8.19221 64.88 8.2175 64.8295C8.29335 64.7536 8.3692 64.6777 8.44506 64.6019C8.49563 64.5513 8.52091 64.526 8.57148 64.4755C8.62205 64.4249 8.64733 64.3996 8.6979 64.349C8.74847 64.2985 8.77375 64.2732 8.82432 64.2226C8.87489 64.1973 8.90018 64.1468 8.95075 64.1215C9.00131 64.0709 9.0266 64.0456 9.07717 63.9951C9.12774 63.9698 9.15302 63.9192 9.20359 63.8939C9.30473 63.7928 9.43115 63.6917 9.55757 63.6158C9.60814 63.5905 9.63342 63.5399 9.68399 63.5147C9.96212 63.2871 10.2655 63.0848 10.5942 62.8573C10.6701 62.8067 10.7712 62.7561 10.8471 62.6803C11.0241 62.5539 11.2011 62.4527 11.4033 62.3263C11.4539 62.301 11.5298 62.2504 11.5803 62.2252C11.6562 62.1746 11.732 62.124 11.8079 62.0734C11.8837 62.0229 11.9596 61.9723 12.0607 61.9217C12.1366 61.8712 12.2377 61.8206 12.3136 61.77C12.3389 61.7448 12.3894 61.7448 12.4147 61.7195C12.5159 61.6689 12.5917 61.6183 12.6928 61.5678C12.8193 61.4919 12.9457 61.4161 13.0974 61.3655C13.5525 61.1126 14.0329 60.8851 14.5386 60.6575C14.6145 60.6322 14.665 60.607 14.7409 60.5817C14.842 60.5311 14.9179 60.5058 15.019 60.4552C15.0949 60.43 15.1454 60.4047 15.2213 60.3794C15.2971 60.3541 15.3983 60.3035 15.4741 60.2783C15.6258 60.2277 15.7523 60.1518 15.904 60.1013C16.258 59.9496 16.6119 59.8231 16.9659 59.6714C17.0923 59.6209 17.2188 59.5703 17.3199 59.545C17.3958 59.5197 17.4969 59.4692 17.5727 59.4439C17.7244 59.3933 17.9014 59.3174 18.0531 59.2669C18.837 58.9887 19.6714 58.7106 20.5057 58.4578C20.6574 58.4072 20.7839 58.3819 20.9356 58.3313C21.2896 58.2302 21.6688 58.1291 22.0481 58.0279C22.1998 58.0027 22.3262 57.9521 22.4779 57.9268C22.6296 57.9015 22.7561 57.8509 22.9078 57.8257C23.11 57.7751 23.287 57.7245 23.4893 57.674C23.9191 57.5728 24.349 57.4717 24.8041 57.3705C24.9558 57.3453 25.1075 57.2947 25.2592 57.2694C25.3604 57.2441 25.4615 57.2188 25.5626 57.2188C25.6638 57.1936 25.7649 57.1683 25.866 57.1683C25.9419 57.143 26.0177 57.143 26.0683 57.1177C26.1695 57.0924 26.2706 57.0671 26.3717 57.0671C26.5487 57.0418 26.7257 56.9913 26.928 56.966C27.0291 56.9407 27.105 56.9407 27.2061 56.9154C27.3073 56.8901 27.3831 56.8901 27.4842 56.8649C27.5601 56.8396 27.636 56.8396 27.7118 56.8143C27.9141 56.789 28.0911 56.7384 28.2934 56.7131C28.8749 56.612 29.4817 56.5109 30.0885 56.435C30.1897 56.4097 30.2655 56.4097 30.3667 56.3844C30.4931 56.3592 30.5942 56.3592 30.7207 56.3339C30.7712 56.3339 30.8218 56.3086 30.8724 56.3086L30.8976 56.4603L31.4792 59.6714L31.4539 59.899Z" fill="#E04646"/>
<path d="M31.4539 59.899C31.4033 59.9243 31.3528 59.9496 31.3022 59.9748C29.7598 60.7081 28.4198 61.7953 27.4084 63.1354C26.1442 64.8042 25.3604 66.8775 25.2845 69.1278C25.2845 69.4059 25.2845 69.6841 25.2845 69.9622C25.2845 70.0128 25.2845 70.0633 25.2845 70.1139C25.2845 70.1645 25.2845 70.215 25.2845 70.2656C25.4362 72.0608 26.0178 73.7296 26.9533 75.1455C26.9786 75.1961 27.0291 75.2466 27.0544 75.2972C27.0038 75.2972 26.928 75.2972 26.8774 75.2972C26.574 75.2972 26.2959 75.3225 25.9925 75.3225C25.9166 75.3225 25.8155 75.3225 25.7396 75.3225C24.4754 75.3478 23.2365 75.3225 22.0481 75.2719C21.77 75.2467 21.4918 75.2466 21.1884 75.2214C21.0367 75.2214 20.8597 75.1961 20.708 75.1961C20.5816 75.1961 20.4552 75.1708 20.3287 75.1708C19.8736 75.1202 19.3932 75.0949 18.9634 75.0444C18.8622 75.0444 18.7358 75.0191 18.6347 75.0191C18.3818 74.9938 18.1037 74.9432 17.8509 74.9179C17.7497 74.8927 17.6486 74.8927 17.5475 74.8674C17.3452 74.8421 17.1682 74.8168 16.9659 74.7915C16.8395 74.7662 16.7131 74.741 16.5866 74.7157H16.5614C16.4602 74.6904 16.3591 74.6904 16.258 74.6651C16.2074 74.6651 16.1568 74.6398 16.1062 74.6398C16.0051 74.6145 15.9293 74.6145 15.8281 74.5893C15.6006 74.5387 15.3983 74.5134 15.196 74.4628C15.1202 74.4375 15.0443 74.4375 14.9684 74.4123C14.665 74.3364 14.3616 74.2606 14.0582 74.1847C13.9571 74.1594 13.8559 74.1341 13.7548 74.1088C13.7042 74.0836 13.6284 74.0836 13.5778 74.0583C13.325 73.9824 13.0468 73.9066 12.8193 73.8307C12.7434 73.8054 12.6676 73.7802 12.5917 73.7549H12.5664C12.4906 73.7296 12.3894 73.7043 12.3136 73.679C12.2377 73.6537 12.1366 73.6284 12.0607 73.6032C12.0102 73.5779 11.9596 73.5779 11.909 73.5526C11.8332 73.5273 11.7573 73.502 11.6815 73.4767C11.6056 73.4515 11.5298 73.4262 11.4539 73.4009C11.3275 73.3503 11.1758 73.2997 11.0494 73.2492C10.9988 73.2239 10.9482 73.1986 10.9229 73.1986C10.8471 73.1733 10.7459 73.1228 10.6701 73.0975C10.5942 73.0722 10.4931 73.0216 10.4172 72.971C10.2403 72.8952 10.0633 72.7941 9.88627 72.6929C9.81042 72.6424 9.73456 72.6171 9.65871 72.5665H9.63342C9.58286 72.5412 9.507 72.4906 9.45643 72.4654C9.38058 72.4148 9.33001 72.3895 9.25416 72.3389C9.20359 72.3137 9.12774 72.2631 9.07717 72.2125C9.0266 72.1872 8.97603 72.1367 8.92546 72.1114C8.74847 71.985 8.59676 71.8838 8.44506 71.7574C8.39449 71.7068 8.34392 71.6815 8.29335 71.631C8.2175 71.5804 8.16693 71.5046 8.09107 71.454C8.0405 71.4034 8.01522 71.3781 7.96465 71.3276H7.93937C7.8888 71.277 7.83823 71.2264 7.78766 71.2011C7.73709 71.1506 7.68652 71.1 7.63595 71.0494C7.61067 71.0241 7.58538 70.9989 7.5601 70.9736C7.50953 70.923 7.48425 70.8724 7.43368 70.8219C7.40839 70.7713 7.35782 70.746 7.33254 70.6954C7.10498 70.392 6.9027 70.0633 6.77628 69.7346C6.751 69.7094 6.751 69.6588 6.72571 69.6335C6.72571 69.6082 6.70043 69.5829 6.70043 69.5576C6.70043 69.5324 6.67514 69.5071 6.67514 69.4565C6.67514 69.4312 6.64986 69.4059 6.64986 69.3554C6.64986 69.3301 6.62458 69.3048 6.62458 69.2542C6.62458 69.2289 6.59929 69.2037 6.59929 69.1531C6.59929 69.1278 6.57401 69.1025 6.57401 69.0772C6.57401 69.052 6.54872 69.0014 6.54872 68.9761C6.54872 68.9255 6.52344 68.875 6.52344 68.8244C6.52344 68.7991 6.52344 68.7738 6.52344 68.7485V68.6727C6.52344 68.6474 6.52344 68.5968 6.52344 68.5716C6.52344 68.4451 6.52344 68.2934 6.52344 68.167C6.52344 68.1164 6.52344 68.0406 6.54872 67.99C6.54872 67.9394 6.57401 67.8889 6.57401 67.8383C6.57401 67.7877 6.59929 67.7624 6.59929 67.7119C6.62458 67.636 6.62458 67.5602 6.64986 67.4843C6.64986 67.4338 6.67514 67.4085 6.67514 67.3579C6.67514 67.3326 6.70043 67.282 6.70043 67.2568C6.72571 67.2062 6.72571 67.1809 6.751 67.1303C6.77628 67.0798 6.77628 67.0545 6.80157 67.0039C6.82685 66.9533 6.82685 66.9281 6.85214 66.8775C6.87742 66.8269 6.87742 66.8016 6.9027 66.7511C6.92799 66.7258 6.92799 66.7005 6.95327 66.6752C7.00384 66.5488 7.0797 66.4224 7.15555 66.296C7.20612 66.2201 7.25669 66.1442 7.30726 66.0684C7.33254 66.0178 7.35782 65.9925 7.38311 65.942C7.43368 65.8661 7.48425 65.7903 7.53482 65.7144C7.5601 65.6638 7.58538 65.6386 7.61067 65.588C7.63595 65.5374 7.66124 65.5121 7.71181 65.4616C7.73709 65.411 7.76238 65.3857 7.81294 65.3351C7.83823 65.2846 7.8888 65.2593 7.91408 65.2087C7.93937 65.1582 7.98994 65.1329 8.01522 65.0823C8.0405 65.0317 8.09107 65.0064 8.11636 64.9559C8.14164 64.9053 8.19221 64.88 8.2175 64.8295C8.29335 64.7536 8.3692 64.6777 8.44506 64.6019C8.49563 64.5513 8.52091 64.526 8.57148 64.4755C8.62205 64.4249 8.64733 64.3996 8.6979 64.3491C8.74847 64.2985 8.77375 64.2732 8.82432 64.2226C8.87489 64.1973 8.90018 64.1468 8.95075 64.1215C9.00131 64.0709 9.0266 64.0456 9.07717 63.9951C9.12774 63.9698 9.15302 63.9192 9.20359 63.8939C9.30473 63.7928 9.43115 63.6917 9.55757 63.6158C9.60814 63.5905 9.63343 63.5399 9.68399 63.5147C9.96212 63.2871 10.2655 63.0848 10.5942 62.8573C10.6701 62.8067 10.7712 62.7561 10.8471 62.6803C11.0241 62.5539 11.2011 62.4527 11.4033 62.3263C11.4539 62.301 11.5298 62.2504 11.5803 62.2252C11.6562 62.1746 11.732 62.124 11.8079 62.0734C11.8837 62.0229 11.9596 61.9723 12.0607 61.9217C12.1366 61.8712 12.2377 61.8206 12.3136 61.77C12.3389 61.7448 12.3894 61.7448 12.4147 61.7195C12.5159 61.6689 12.5917 61.6183 12.6928 61.5678C12.8193 61.4919 12.9457 61.4161 13.0974 61.3655C13.5525 61.1126 14.0329 60.8851 14.5386 60.6575C14.6145 60.6322 14.665 60.607 14.7409 60.5817C14.842 60.5311 14.9179 60.5058 15.019 60.4552C15.0949 60.43 15.1454 60.4047 15.2213 60.3794C15.2971 60.3541 15.3983 60.3035 15.4741 60.2783C15.6258 60.2277 15.7523 60.1518 15.904 60.1013C16.258 59.9496 16.6119 59.8231 16.9659 59.6714C17.0923 59.6209 17.2188 59.5703 17.3199 59.545C17.3958 59.5197 17.4969 59.4692 17.5727 59.4439C17.7244 59.3933 17.9014 59.3174 18.0531 59.2669C18.837 58.9887 19.6714 58.7106 20.5057 58.4578C20.6574 58.4072 20.7839 58.3819 20.9356 58.3313C21.2896 58.2302 21.6688 58.1291 22.0481 58.0279C22.1998 58.0027 22.3262 57.9521 22.4779 57.9268C22.6296 57.9015 22.7561 57.8509 22.9078 57.8257C23.11 57.7751 23.287 57.7245 23.4893 57.674C23.9191 57.5728 24.349 57.4717 24.8041 57.3705C24.9558 57.3453 25.1075 57.2947 25.2592 57.2694C25.3604 57.2441 25.4615 57.2188 25.5626 57.2188C25.6638 57.1936 25.7649 57.1683 25.866 57.1683C25.9419 57.143 26.0178 57.143 26.0683 57.1177C26.1695 57.0924 26.2706 57.0671 26.3717 57.0671C26.5487 57.0418 26.7257 56.9913 26.928 56.966C27.0291 56.9407 27.105 56.9407 27.2061 56.9154C27.3073 56.8901 27.3831 56.8901 27.4842 56.8649C27.5601 56.8396 27.636 56.8396 27.7118 56.8143C27.9141 56.789 28.0911 56.7384 28.2934 56.7131C28.8749 56.612 29.4817 56.5109 30.0885 56.435C30.1897 56.4097 30.2655 56.4097 30.3667 56.3844C30.4931 56.3592 30.5942 56.3592 30.7207 56.3339C30.7712 56.3339 30.8218 56.3086 30.8724 56.3086L30.8976 56.4603L31.4792 59.6714L31.4539 59.899Z" stroke="#E04646" stroke-miterlimit="10" stroke-linecap="round" stroke-linejoin="round"/>
<path d="M46.1694 69.7336C46.1441 70.4668 46.043 71.1495 45.8913 71.8322C45.866 71.8828 45.866 71.9586 45.8407 72.0092C45.8154 72.0597 45.8154 72.1356 45.7901 72.1862C45.5626 73.0458 45.2086 73.8297 44.804 74.5882C43.4134 77.0408 41.0367 78.8613 38.2301 79.5692H38.1795C37.2946 79.7968 36.359 79.8979 35.3982 79.8726C32.8445 79.7968 30.5436 78.8107 28.7737 77.2431C28.1669 76.7121 27.6359 76.1053 27.1808 75.4479C27.1555 75.3973 27.1049 75.3467 27.0796 75.2962C27.0544 75.2456 27.0038 75.195 26.9785 75.1445C26.043 73.7285 25.4362 72.0345 25.3097 70.2645C25.3097 70.214 25.3097 70.1634 25.3097 70.1128C25.3097 70.0623 25.3097 70.0117 25.3097 69.9611C25.2845 69.683 25.2845 69.4049 25.3097 69.1267C25.3856 66.8764 26.1694 64.8031 27.4336 63.1343C28.445 61.7943 29.7851 60.707 31.3274 59.9738C31.378 59.9485 31.4286 59.9232 31.4791 59.8979C31.5297 59.8726 31.5803 59.8474 31.6308 59.8221C32.9962 59.2405 34.5133 58.9371 36.0809 58.9624C36.182 58.9624 36.2832 58.9624 36.3843 58.9877C36.4349 58.9877 36.4855 58.9877 36.536 58.9877C36.5866 58.9877 36.6372 58.9877 36.6877 59.013C41.0872 59.3922 44.6776 62.5275 45.8154 66.6236C45.8407 66.6742 45.8407 66.7247 45.866 66.7753C45.8913 66.8259 45.8913 66.8764 45.9166 66.927C46.0936 67.812 46.1947 68.7728 46.1694 69.7336Z" stroke="#E04646" stroke-miterlimit="10" stroke-linecap="round" stroke-linejoin="round"/>
</g>
<defs>
<clipPath id="clip0_591_18554">
<rect width="63.6662" height="80" fill="white"/>
</clipPath>
</defs>
</svg>
