<svg width="20" height="20" viewBox="0 0 20 20" fill="none" xmlns="http://www.w3.org/2000/svg">
<path d="M0 1.66667C0 0.746192 0.746192 0 1.66667 0H18.3333C19.2538 0 20 0.746192 20 1.66667V18.3333C20 19.2538 19.2538 20 18.3333 20H1.66667C0.746192 20 0 19.2538 0 18.3333V1.66667Z" fill="#292E38"/>
<path fill-rule="evenodd" clip-rule="evenodd" d="M7.74408 5.52186C8.06952 5.19642 8.59715 5.19642 8.92259 5.52186L12.8115 9.41074C13.1369 9.73618 13.1369 10.2638 12.8115 10.5893L8.92259 14.4781C8.59715 14.8036 8.06951 14.8036 7.74408 14.4781C7.41864 14.1527 7.41864 13.6251 7.74408 13.2996L11.0437 10L7.74408 6.70037C7.41864 6.37493 7.41864 5.84729 7.74408 5.52186Z" fill="#777F91"/>
</svg>
