<svg width="18" height="18" viewBox="0 0 18 18" fill="none" xmlns="http://www.w3.org/2000/svg">
<path d="M15.3279 5.48318C14.691 4.37426 13.7739 3.45221 12.6684 2.80943C11.5571 2.15498 10.289 1.81461 8.99939 1.82468C7.70974 1.81506 6.44166 2.15567 5.3304 2.81018C4.22485 3.4529 3.3077 4.37497 2.6709 5.48393C2.01921 6.6027 1.68062 7.87623 1.69065 9.17093C1.68752 10.7104 2.1681 12.2119 3.06451 13.4635C3.96092 14.715 5.22786 15.6534 6.6864 16.1459C6.75054 16.1657 6.81845 16.1699 6.88455 16.1583C6.95065 16.1467 7.01305 16.1196 7.06665 16.0792C7.10663 16.0431 7.13839 15.9989 7.15974 15.9494C7.18109 15.9 7.19155 15.8465 7.1904 15.7927C7.1904 15.7737 7.1889 15.6014 7.1859 15.2759C7.1829 14.9504 7.1814 14.6667 7.1814 14.4247L6.9624 14.4629C6.78886 14.4908 6.61307 14.5021 6.4374 14.4967C6.21543 14.4928 5.99416 14.4705 5.7759 14.4299C5.54351 14.3869 5.32486 14.2886 5.1384 14.1434C4.94064 13.9937 4.79353 13.7869 4.7169 13.5509L4.62165 13.3312C4.54152 13.1573 4.44079 12.9936 4.32165 12.8437C4.21517 12.6907 4.07309 12.5658 3.90765 12.4799L3.8409 12.4319C3.79517 12.3988 3.75362 12.3603 3.71715 12.3172C3.68199 12.277 3.65316 12.2318 3.63165 12.1829C3.61265 12.1384 3.6284 12.1017 3.6789 12.0727C3.76639 12.0374 3.86083 12.0228 3.9549 12.0299L4.1454 12.0584C4.31556 12.1043 4.47541 12.1822 4.6164 12.2879C4.80518 12.4174 4.96275 12.5872 5.07765 12.7852C5.20206 13.0243 5.38212 13.2301 5.60265 13.3852C5.78513 13.5146 6.00225 13.5861 6.2259 13.5907C6.4078 13.593 6.58948 13.577 6.76815 13.5427C6.91612 13.5123 7.0599 13.4642 7.1964 13.3994C7.2277 13.0254 7.39342 12.6753 7.6629 12.4139C7.33397 12.3814 7.00803 12.3237 6.6879 12.2414C6.37511 12.1544 6.0745 12.0284 5.79315 11.8664C5.49949 11.7048 5.24035 11.4872 5.0304 11.2259C4.80394 10.9245 4.63464 10.5841 4.5309 10.2217C4.39372 9.75604 4.32797 9.27229 4.3359 8.78693C4.31948 8.05752 4.5886 7.35054 5.0859 6.81668C4.85243 6.18294 4.87639 5.48297 5.15265 4.86668C5.43217 4.8213 5.71889 4.86651 5.9709 4.99568C6.24468 5.09792 6.51021 5.22103 6.76515 5.36393C6.93315 5.46393 7.06789 5.54993 7.16939 5.62193C8.36508 5.29036 9.62846 5.29036 10.8241 5.62193L11.1856 5.39243C11.4634 5.22471 11.7564 5.08382 12.0609 4.97168C12.3 4.85495 12.5703 4.81814 12.8319 4.86668C13.1135 5.48126 13.1404 6.18229 12.9069 6.81668C13.4042 7.35054 13.6733 8.05752 13.6569 8.78693C13.6645 9.27375 13.5987 9.75893 13.4619 10.2262C13.3594 10.59 13.1884 10.9309 12.9579 11.2304C12.7446 11.4894 12.4843 11.7057 12.1906 11.8679C11.9093 12.0299 11.6087 12.1559 11.2959 12.2429C10.9758 12.3252 10.6498 12.3829 10.3209 12.4154C10.4977 12.5919 10.6336 12.8049 10.7191 13.0396C10.8047 13.2743 10.8377 13.5249 10.8159 13.7737V15.7919C10.8146 15.8454 10.8246 15.8985 10.8451 15.9478C10.8656 15.9972 10.8963 16.0417 10.9351 16.0784C10.9877 16.1189 11.0492 16.1462 11.1145 16.1578C11.1798 16.1694 11.2469 16.1651 11.3101 16.1452C12.7689 15.6528 14.0361 14.7146 14.9326 13.463C15.8292 12.2114 16.3098 10.7098 16.3066 9.17018C16.3168 7.87566 15.9788 6.60221 15.3279 5.48318Z" fill="#777F91"/>
</svg>
