<svg width="28" height="28" viewBox="0 0 28 28" fill="none" xmlns="http://www.w3.org/2000/svg">
<path d="M23.9018 8.28613C22.9054 6.55129 21.4706 5.10878 19.7411 4.10319C18.0026 3.07933 16.0187 2.54684 14.0012 2.5626C11.9836 2.54755 9.99971 3.08042 8.26119 4.10436C6.53163 5.10987 5.09679 6.55239 4.10054 8.2873C3.08102 10.0376 2.55131 12.0299 2.56699 14.0554C2.56209 16.4638 3.31393 18.8129 4.71632 20.7709C6.11871 22.7289 8.10078 24.1969 10.3826 24.9675C10.4829 24.9983 10.5892 25.0049 10.6926 24.9868C10.796 24.9686 10.8936 24.9262 10.9775 24.863C11.04 24.8066 11.0897 24.7374 11.1231 24.66C11.1565 24.5827 11.1729 24.499 11.1711 24.4148C11.1711 24.3851 11.1687 24.1156 11.164 23.6064C11.1593 23.0972 11.157 22.6532 11.157 22.2747L10.8144 22.3345C10.5429 22.3781 10.2679 22.3957 9.99303 22.3873C9.64577 22.3812 9.29962 22.3463 8.95815 22.2829C8.59459 22.2155 8.25254 22.0618 7.96082 21.8347C7.65143 21.6003 7.42129 21.2768 7.3014 20.9077L7.15239 20.5639C7.02703 20.2918 6.86945 20.0358 6.68305 19.8013C6.51648 19.5619 6.29421 19.3666 6.03537 19.2322L5.93094 19.1571C5.8594 19.1053 5.7944 19.045 5.73734 18.9776C5.68234 18.9148 5.63724 18.8439 5.60358 18.7675C5.57386 18.6979 5.5985 18.6404 5.6775 18.5951C5.81439 18.5399 5.96214 18.517 6.10929 18.5282L6.40732 18.5728C6.67353 18.6445 6.92362 18.7664 7.14417 18.9318C7.43951 19.1343 7.68602 19.4 7.86578 19.7097C8.06042 20.0839 8.3421 20.4058 8.68711 20.6484C8.97259 20.8508 9.31228 20.9628 9.66215 20.9699C9.94674 20.9736 10.231 20.9484 10.5105 20.8948C10.742 20.8472 10.9669 20.772 11.1805 20.6707C11.2294 20.0855 11.4887 19.5378 11.9103 19.1289C11.3957 19.078 10.8858 18.9878 10.3849 18.8591C9.89559 18.723 9.4253 18.5259 8.98514 18.2724C8.52573 18.0196 8.12032 17.6791 7.79186 17.2704C7.43758 16.7988 7.17272 16.2663 7.01041 15.6993C6.79581 14.9708 6.69295 14.214 6.70535 13.4547C6.67967 12.3136 7.10069 11.2075 7.87868 10.3723C7.51344 9.38087 7.55092 8.28581 7.98311 7.32165C8.42042 7.25066 8.86896 7.32137 9.26322 7.52346C9.69154 7.68341 10.107 7.87601 10.5058 8.09957C10.7686 8.25602 10.9794 8.39056 11.1382 8.5032C13.0088 7.98448 14.9853 7.98448 16.8559 8.5032L17.4214 8.14416C17.8559 7.88177 18.3144 7.66136 18.7907 7.48592C19.1648 7.30329 19.5876 7.24571 19.9969 7.32165C20.4374 8.28312 20.4796 9.37985 20.1142 10.3723C20.8922 11.2075 21.3132 12.3136 21.2876 13.4547C21.2994 14.2163 21.1966 14.9753 20.9825 15.7063C20.8222 16.2755 20.5546 16.8087 20.194 17.2774C19.8603 17.6825 19.453 18.0209 18.9937 18.2747C18.5535 18.5281 18.0832 18.7252 17.5939 18.8614C17.0931 18.9901 16.5832 19.0804 16.0686 19.1313C16.3451 19.4073 16.5578 19.7407 16.6916 20.1078C16.8254 20.4749 16.8771 20.8669 16.843 21.2562V24.4136C16.841 24.4973 16.8565 24.5803 16.8887 24.6576C16.9208 24.7348 16.9688 24.8044 17.0295 24.8619C17.1117 24.9252 17.2079 24.9678 17.3101 24.986C17.4122 25.0042 17.5172 24.9974 17.6162 24.9663C19.8983 24.196 21.8807 22.7282 23.2834 20.7702C24.686 18.8121 25.438 16.4628 25.433 14.0543C25.4489 12.029 24.92 10.0368 23.9018 8.28613Z" fill="#777F91"/>
</svg>
