<svg width="28" height="28" viewBox="0 0 28 28" fill="none" xmlns="http://www.w3.org/2000/svg">
<path d="M23.9167 8.56675V23.1925C23.9167 23.4598 23.5936 23.5936 23.4046 23.4046L21.8534 21.8534C21.7836 21.7836 21.6888 21.7443 21.5901 21.7443H8.56675C8.34583 21.7443 8.16675 21.5652 8.16675 21.3443V8.53916C8.16675 8.33348 8.33348 8.16675 8.53916 8.16675H23.5167C23.7377 8.16675 23.9167 8.34583 23.9167 8.56675Z" fill="url(#paint0_linear_5477_8512)"/>
<path d="M4.08325 4.38325V19.109C4.08325 19.3763 4.40639 19.5101 4.59538 19.3211L6.1678 17.7487C6.22406 17.6924 6.30036 17.6608 6.37993 17.6608H19.5333C19.6989 17.6608 19.8333 17.5265 19.8333 17.3608V4.38325C19.8333 4.21757 19.6989 4.08325 19.5333 4.08325H4.38325C4.21757 4.08325 4.08325 4.21757 4.08325 4.38325Z" fill="url(#paint1_linear_5477_8512)"/>
<path fill-rule="evenodd" clip-rule="evenodd" d="M11.6765 8.5118C11.3079 8.5118 11.0091 8.81059 11.0091 9.17916V9.70833C11.0091 9.81879 10.9196 9.90833 10.8091 9.90833H9.75078C9.64032 9.90833 9.55078 9.81879 9.55078 9.70833V9.17916C9.55078 8.00517 10.5025 7.05347 11.6765 7.05347H12.2709C13.4278 7.05347 14.3656 7.99132 14.3656 9.14823C14.3656 9.84723 14.017 10.5002 13.4361 10.889L12.5658 11.4715C12.492 11.521 12.4476 11.604 12.4476 11.6929V12.2221C12.4476 12.3325 12.3581 12.4221 12.2476 12.4221H11.1893C11.0788 12.4221 10.9893 12.3325 10.9893 12.2221V11.6929C10.9893 11.1174 11.2764 10.5798 11.7546 10.2596L12.6249 9.67711C12.8014 9.55897 12.9073 9.3606 12.9073 9.14823C12.9073 8.79674 12.6224 8.5118 12.2709 8.5118H11.6765Z" fill="#292E38"/>
<rect x="10.9055" y="13.093" width="1.63333" height="1.63333" rx="0.2" fill="#292E38"/>
<defs>
<linearGradient id="paint0_linear_5477_8512" x1="16.0417" y1="8.16675" x2="16.0417" y2="23.9167" gradientUnits="userSpaceOnUse">
<stop stop-color="#929CB3"/>
<stop offset="1" stop-color="#505662"/>
</linearGradient>
<linearGradient id="paint1_linear_5477_8512" x1="11.9583" y1="19.8333" x2="11.9583" y2="4.08325" gradientUnits="userSpaceOnUse">
<stop stop-color="#CACBCE"/>
<stop offset="1" stop-color="#F4F7FF"/>
</linearGradient>
</defs>
</svg>
