<svg width="70" height="70" viewBox="0 0 70 70" fill="none" xmlns="http://www.w3.org/2000/svg">
<path d="M20.4763 32.1297C21.6163 30.7792 23.2937 30 25.0611 30H44.9053C46.6689 30 48.3432 30.7759 49.4832 32.1215L58.6999 43H11.2999L20.4763 32.1297Z" fill="#343A46"/>
<g opacity="0.2" filter="url(#filter0_d_4208_40189)">
<path d="M31.5076 27.9233L38.4939 34.9097L37.1851 36.2185C36.6218 36.7818 35.7085 36.7818 35.1451 36.2185L30.1988 31.2721C29.6355 30.7088 29.6355 29.7954 30.1988 29.2321L31.5076 27.9233Z" fill="#585E6B"/>
<path d="M35.001 36.0745L30.3435 31.417L16.759 45.0015L16.4055 49.5973C16.3873 49.8338 16.5843 50.0308 16.8208 50.0126L21.4165 49.6591L25.024 46.0516L26.9165 46.0819C27.1349 46.0854 27.3129 45.9074 27.3094 45.689L27.2791 43.7965L27.9628 43.1128L29.8552 43.1431C30.0737 43.1466 30.2516 42.9686 30.2481 42.7502L30.2178 40.8578L30.9016 40.174L32.794 40.2044C33.0124 40.2079 33.1904 40.0299 33.1869 39.8114L33.1566 37.919L35.001 36.0745Z" fill="#585E6B"/>
<path fill-rule="evenodd" clip-rule="evenodd" d="M47.5594 18.8584C43.701 15 37.4452 15 33.5868 18.8584C29.7284 22.7168 29.7284 28.9726 33.5868 32.8311C37.4452 36.6895 43.701 36.6895 47.5594 32.8311C51.4179 28.9726 51.4179 22.7168 47.5594 18.8584ZM39.3455 27.0714C40.8442 28.5701 43.2742 28.5701 44.7729 27.0714C46.2717 25.5726 46.2717 23.1426 44.7729 21.6439C43.2742 20.1451 40.8442 20.1451 39.3455 21.6439C37.8467 23.1426 37.8467 25.5726 39.3455 27.0714Z" fill="#585E6B"/>
<path d="M19.6845 46.7325C19.4013 46.4493 19.4013 45.9902 19.6845 45.707L32.1592 33.2323L33.1848 34.2578L20.7101 46.7325C20.4269 47.0157 19.9677 47.0157 19.6845 46.7325Z" fill="#2E333E"/>
</g>
<path d="M31.5076 27.9233L38.4939 34.9097L37.1851 36.2185C36.6218 36.7818 35.7085 36.7818 35.1451 36.2185L30.1988 31.2721C29.6355 30.7088 29.6355 29.7954 30.1988 29.2321L31.5076 27.9233Z" fill="#585E6B"/>
<path d="M35.001 36.0741L30.3435 31.4165L16.759 45.001L16.4055 49.5968C16.3873 49.8333 16.5843 50.0303 16.8208 50.0121L21.4165 49.6586L25.024 46.0511L26.9165 46.0814C27.1349 46.0849 27.3129 45.9069 27.3094 45.6885L27.2791 43.7961L27.9628 43.1123L29.8552 43.1426C30.0737 43.1461 30.2516 42.9682 30.2481 42.7497L30.2178 40.8573L30.9016 40.1735L32.794 40.2039C33.0124 40.2074 33.1904 40.0294 33.1869 39.811L33.1566 37.9185L35.001 36.0741Z" fill="#585E6B"/>
<path fill-rule="evenodd" clip-rule="evenodd" d="M48.0845 18.334C44.0812 14.3307 37.5907 14.3307 33.5874 18.334C29.5842 22.3372 29.5842 28.8278 33.5874 32.8311C37.5907 36.8343 44.0812 36.8343 48.0845 32.8311C52.0877 28.8278 52.0877 22.3372 48.0845 18.334ZM39.3456 27.0718C40.8444 28.5706 43.2744 28.5706 44.7731 27.0718C46.2719 25.5731 46.2719 23.1431 44.7731 21.6443C43.2744 20.1456 40.8444 20.1456 39.3456 21.6443C37.8469 23.1431 37.8469 25.5731 39.3456 27.0718Z" fill="#585E6B"/>
<path d="M19.6845 46.7325C19.4013 46.4493 19.4013 45.9902 19.6845 45.707L32.1592 33.2323L33.1848 34.2578L20.7101 46.7325C20.4269 47.0157 19.9677 47.0157 19.6845 46.7325Z" fill="#2E333E"/>
<path d="M59 57C59 58.6569 57.6569 60 56 60L14 60C12.3431 60 11 58.6568 11 57L11 44C11 42.8954 11.8954 42 13 42L57 42C58.1046 42 59 42.8954 59 44L59 57Z" fill="#434852"/>
<rect x="28" y="49.5" width="14" height="3" rx="1.5" fill="#303541"/>
<path fill-rule="evenodd" clip-rule="evenodd" d="M24.3882 17.5C23.6645 12.6887 19.513 9 14.5 9C13.6367 9 12.799 9.10939 12 9.31505C15.8412 10.3037 18.7892 13.5172 19.3882 17.5H17.3569C16.485 17.5 16.0307 18.5381 16.6224 19.1785L21.2654 24.2048C21.6614 24.6334 22.3386 24.6334 22.7346 24.2048L27.3776 19.1786C27.9693 18.5381 27.515 17.5 26.6431 17.5H24.3882Z" fill="#8B63FD"/>
<defs>
<filter id="filter0_d_4208_40189" x="16.4043" y="15.9644" width="36.9496" height="36.95" filterUnits="userSpaceOnUse" color-interpolation-filters="sRGB">
<feFlood flood-opacity="0" result="BackgroundImageFix"/>
<feColorMatrix in="SourceAlpha" type="matrix" values="0 0 0 0 0 0 0 0 0 0 0 0 0 0 0 0 0 0 127 0" result="hardAlpha"/>
<feOffset dx="2.90068" dy="2.90068"/>
<feComposite in2="hardAlpha" operator="out"/>
<feColorMatrix type="matrix" values="0 0 0 0 0 0 0 0 0 0 0 0 0 0 0 0 0 0 0.6 0"/>
<feBlend mode="normal" in2="BackgroundImageFix" result="effect1_dropShadow_4208_40189"/>
<feBlend mode="normal" in="SourceGraphic" in2="effect1_dropShadow_4208_40189" result="shape"/>
</filter>
</defs>
</svg>
