<svg width="70" height="70" viewBox="0 0 70 70" fill="none" xmlns="http://www.w3.org/2000/svg">
<path d="M20.4764 32.1297C21.6164 30.7792 23.2939 30 25.0612 30H44.9054C46.669 30 48.3433 30.7759 49.4833 32.1215L58.7 43H11.3L20.4764 32.1297Z" fill="#343A46"/>
<g opacity="0.2" filter="url(#filter0_d_4384_34821)">
<path d="M32.5894 18.012C33.4178 16.5771 35.2526 16.0855 36.6874 16.9139L52.2759 25.9139C53.7108 26.7424 54.2024 28.5771 53.374 30.012L41.374 50.7966C40.5455 52.2315 38.7108 52.7231 37.2759 51.8947L21.6874 42.8947C20.2526 42.0663 19.7609 40.2315 20.5894 38.7966L32.5894 18.012Z" fill="#434852"/>
<rect x="32.6875" y="23.8422" width="8.53243" height="3.08137" rx="0.620683" transform="rotate(30 32.6875 23.8422)" fill="#636A79"/>
<rect x="30.6533" y="27.3656" width="8.53243" height="3.08137" rx="0.620683" transform="rotate(30 30.6533 27.3656)" fill="#636A79"/>
<rect x="28.6184" y="30.8901" width="8.53243" height="3.08137" rx="0.620683" transform="rotate(30 28.6184 30.8901)" fill="#585E6B"/>
<rect x="26.584" y="34.4138" width="8.53243" height="3.08137" rx="0.620683" transform="rotate(30 26.584 34.4138)" fill="#4E545F"/>
<rect x="38.8523" y="32.0994" width="8.53243" height="3.08137" rx="0.620683" transform="rotate(30 38.8523 32.0994)" fill="#636A79"/>
<rect x="36.8176" y="35.6239" width="8.53243" height="3.08137" rx="0.620683" transform="rotate(30 36.8176 35.6239)" fill="#585E6B"/>
<rect x="40.8867" y="28.5759" width="8.53243" height="3.08137" rx="0.620683" transform="rotate(30 40.8867 28.5759)" fill="#636A79"/>
<rect x="34.7832" y="39.1476" width="8.53243" height="3.08137" rx="0.620683" transform="rotate(30 34.7832 39.1476)" fill="#4E545F"/>
<path d="M33.4485 26.527L33.5966 26.3076L33.3356 26.33L33.338 26.1285L33.5976 26.1477L33.4522 25.9307L33.6255 25.8279L33.7371 26.0643L33.8526 25.8271L34.0251 25.9268L33.8766 26.1448L34.1372 26.1233L34.1364 26.3258L33.8767 26.3088L34.0222 26.5235L33.8473 26.6254L33.7362 26.3882L33.621 26.6266L33.4485 26.527Z" fill="#F7F7F8"/>
<path d="M34.6982 27.2485L34.8463 27.0291L34.5853 27.0515L34.5877 26.85L34.8473 26.8692L34.7019 26.6523L34.8752 26.5494L34.9868 26.7858L35.1023 26.5487L35.2748 26.6483L35.1263 26.8664L35.3869 26.8448L35.3861 27.0473L35.1264 27.0303L35.2719 27.245L35.097 27.3469L34.9859 27.1097L34.8707 27.3481L34.6982 27.2485Z" fill="#F7F7F8"/>
<path d="M35.9479 27.9701L36.096 27.7506L35.835 27.773L35.8375 27.5715L36.097 27.5907L35.9516 27.3738L36.1249 27.2709L36.2365 27.5073L36.352 27.2702L36.5245 27.3698L36.376 27.5879L36.6366 27.5663L36.6358 27.7688L36.3761 27.7518L36.5216 27.9666L36.3467 28.0684L36.2356 27.8312L36.1204 28.0697L35.9479 27.9701Z" fill="#F7F7F8"/>
<path d="M37.1976 28.6916L37.3457 28.4721L37.0847 28.4946L37.0872 28.2931L37.3467 28.3122L37.2013 28.0953L37.3746 27.9924L37.4862 28.2288L37.6017 27.9917L37.7742 28.0913L37.6257 28.3094L37.8863 28.2878L37.8855 28.4903L37.6258 28.4734L37.7713 28.6881L37.5964 28.79L37.4853 28.5527L37.3701 28.7912L37.1976 28.6916Z" fill="#F7F7F8"/>
<path d="M41.6477 31.2608L41.7958 31.0414L41.5348 31.0638L41.5373 30.8623L41.7968 30.8814L41.6514 30.6645L41.8247 30.5616L41.9363 30.798L42.0518 30.5609L42.2243 30.6605L42.0759 30.8786L42.3364 30.8571L42.3356 31.0595L42.0759 31.0426L42.2215 31.2573L42.0465 31.3592L41.9354 31.1219L41.8202 31.3604L41.6477 31.2608Z" fill="#F7F7F8"/>
<path d="M42.8974 31.9823L43.0455 31.7629L42.7845 31.7853L42.787 31.5838L43.0465 31.603L42.9011 31.386L43.0744 31.2832L43.186 31.5196L43.3015 31.2824L43.474 31.382L43.3256 31.6001L43.5861 31.5786L43.5853 31.781L43.3256 31.7641L43.4712 31.9788L43.2962 32.0807L43.1851 31.8434L43.07 32.0819L42.8974 31.9823Z" fill="#F7F7F8"/>
<path d="M44.1471 32.7038L44.2952 32.4844L44.0342 32.5068L44.0367 32.3053L44.2962 32.3245L44.1508 32.1075L44.3241 32.0047L44.4357 32.2411L44.5512 32.0039L44.7237 32.1036L44.5753 32.3216L44.8358 32.3001L44.835 32.5026L44.5753 32.4856L44.7209 32.7003L44.5459 32.8022L44.4348 32.565L44.3197 32.8034L44.1471 32.7038Z" fill="#F7F7F8"/>
<path d="M45.3968 33.4253L45.5449 33.2059L45.2839 33.2283L45.2864 33.0268L45.5459 33.046L45.4005 32.8291L45.5738 32.7262L45.6854 32.9626L45.8009 32.7255L45.9734 32.8251L45.825 33.0431L46.0855 33.0216L46.0847 33.2241L45.825 33.2071L45.9706 33.4218L45.7956 33.5237L45.6845 33.2865L45.5694 33.5249L45.3968 33.4253Z" fill="#F7F7F8"/>
<path d="M31.4143 30.0506L31.5624 29.8312L31.3014 29.8536L31.3039 29.6521L31.5634 29.6712L31.418 29.4543L31.5913 29.3514L31.7029 29.5878L31.8184 29.3507L31.9909 29.4503L31.8425 29.6684L32.103 29.6468L32.1022 29.8493L31.8425 29.8324L31.9881 30.0471L31.8131 30.149L31.702 29.9117L31.5868 30.1502L31.4143 30.0506Z" fill="#F7F7F8"/>
<path d="M32.664 30.7721L32.8121 30.5527L32.5511 30.5751L32.5536 30.3736L32.8131 30.3927L32.6677 30.1758L32.841 30.073L32.9526 30.3093L33.0681 30.0722L33.2406 30.1718L33.0922 30.3899L33.3527 30.3684L33.3519 30.5708L33.0922 30.5539L33.2378 30.7686L33.0628 30.8705L32.9517 30.6332L32.8366 30.8717L32.664 30.7721Z" fill="#F7F7F8"/>
<path d="M33.9137 31.4936L34.0618 31.2742L33.8008 31.2966L33.8033 31.0951L34.0628 31.1143L33.9174 30.8973L34.0907 30.7945L34.2023 31.0309L34.3178 30.7937L34.4903 30.8933L34.3419 31.1114L34.6024 31.0899L34.6016 31.2924L34.3419 31.2754L34.4875 31.4901L34.3125 31.592L34.2014 31.3548L34.0863 31.5932L33.9137 31.4936Z" fill="#F7F7F8"/>
<path d="M35.1634 32.2151L35.3115 31.9957L35.0505 32.0181L35.053 31.8166L35.3125 31.8358L35.1671 31.6189L35.3404 31.516L35.452 31.7524L35.5675 31.5153L35.74 31.6149L35.5916 31.8329L35.8521 31.8114L35.8513 32.0139L35.5916 31.9969L35.7372 32.2116L35.5622 32.3135L35.4511 32.0763L35.336 32.3147L35.1634 32.2151Z" fill="#F7F7F8"/>
<path fill-rule="evenodd" clip-rule="evenodd" d="M33.4202 21.9558C34.855 22.7842 36.6898 22.2926 37.5182 20.8577C38.3467 19.4228 37.855 17.5881 36.4202 16.7596L54.6067 27.2596C56.0416 28.0881 56.5332 29.9228 55.7048 31.3577C54.8763 32.7926 53.0416 33.2842 51.6067 32.4558L33.4202 21.9558Z" fill="#343A46"/>
</g>
<path d="M32.5894 18.012C33.4178 16.5771 35.2526 16.0855 36.6874 16.9139L52.2759 25.9139C53.7108 26.7424 54.2024 28.5771 53.374 30.012L41.374 50.7966C40.5455 52.2315 38.7108 52.7231 37.2759 51.8947L21.6874 42.8947C20.2526 42.0663 19.7609 40.2315 20.5894 38.7966L32.5894 18.012Z" fill="#585E6B"/>
<rect x="28.4717" y="30.4148" width="8.53243" height="2.6" rx="1" transform="rotate(30 28.4717 30.4148)" fill="#636A79"/>
<rect x="26.3716" y="34.052" width="8.53243" height="2.6" rx="1" transform="rotate(30 26.3716 34.052)" fill="#606675"/>
<rect x="39.4023" y="31.8759" width="8.53243" height="2.6" rx="1" transform="rotate(30 39.4023 31.8759)" fill="#777F91"/>
<rect x="37.2466" y="35.481" width="8.53243" height="2.6" rx="1" transform="rotate(30 37.2466 35.481)" fill="#636A79"/>
<rect x="35.1465" y="39.1182" width="8.53243" height="2.6" rx="1" transform="rotate(30 35.1465 39.1182)" fill="#606675"/>
<rect x="32.6716" y="23.1403" width="8.53243" height="2.6" rx="1" transform="rotate(30 32.6716 23.1403)" fill="#777F91"/>
<path d="M33.553 25.6167L33.7011 25.3973L33.4401 25.4197L33.4425 25.2182L33.7021 25.2374L33.5567 25.0205L33.73 24.9176L33.8416 25.154L33.9571 24.9169L34.1296 25.0165L33.9811 25.2346L34.2417 25.213L34.2409 25.4155L33.9812 25.3985L34.1267 25.6132L33.9518 25.7151L33.8407 25.4779L33.7255 25.7164L33.553 25.6167Z" fill="#F7F7F8"/>
<path d="M34.8027 26.3383L34.9508 26.1188L34.6898 26.1412L34.6922 25.9397L34.9518 25.9589L34.8064 25.742L34.9797 25.6391L35.0913 25.8755L35.2068 25.6384L35.3793 25.738L35.2308 25.9561L35.4914 25.9345L35.4906 26.137L35.2309 26.12L35.3764 26.3348L35.2015 26.4366L35.0904 26.1994L34.9752 26.4379L34.8027 26.3383Z" fill="#F7F7F8"/>
<path d="M36.0524 27.0598L36.2005 26.8403L35.9395 26.8628L35.9419 26.6613L36.2015 26.6804L36.0561 26.4635L36.2294 26.3606L36.341 26.597L36.4565 26.3599L36.629 26.4595L36.4805 26.6776L36.7411 26.656L36.7403 26.8585L36.4806 26.8416L36.6261 27.0563L36.4512 27.1582L36.3401 26.9209L36.2249 27.1594L36.0524 27.0598Z" fill="#F7F7F8"/>
<path d="M37.3021 27.7813L37.4502 27.5619L37.1892 27.5843L37.1916 27.3828L37.4512 27.4019L37.3058 27.185L37.4791 27.0822L37.5907 27.3185L37.7062 27.0814L37.8787 27.181L37.7302 27.3991L37.9908 27.3776L37.99 27.58L37.7303 27.5631L37.8758 27.7778L37.7009 27.8797L37.5898 27.6424L37.4746 27.8809L37.3021 27.7813Z" fill="#F7F7F8"/>
<rect x="41.4465" y="28.2064" width="8.53243" height="2.6" rx="1" transform="rotate(30 41.4465 28.2064)" fill="#777F91"/>
<path d="M42.3279 30.6829L42.476 30.4635L42.215 30.4859L42.2174 30.2844L42.477 30.3036L42.3316 30.0866L42.5049 29.9838L42.6165 30.2202L42.732 29.983L42.9045 30.0826L42.756 30.3007L43.0166 30.2792L43.0158 30.4816L42.7561 30.4647L42.9016 30.6794L42.7267 30.7813L42.6156 30.544L42.5004 30.7825L42.3279 30.6829Z" fill="#F7F7F8"/>
<path d="M43.5776 31.4044L43.7257 31.185L43.4647 31.2074L43.4671 31.0059L43.7267 31.0251L43.5813 30.8081L43.7546 30.7053L43.8662 30.9417L43.9817 30.7045L44.1542 30.8042L44.0057 31.0222L44.2663 31.0007L44.2655 31.2032L44.0058 31.1862L44.1513 31.4009L43.9764 31.5028L43.8653 31.2656L43.7501 31.504L43.5776 31.4044Z" fill="#F7F7F8"/>
<path d="M44.8273 32.1259L44.9754 31.9065L44.7144 31.9289L44.7168 31.7274L44.9764 31.7466L44.831 31.5297L45.0043 31.4268L45.1159 31.6632L45.2314 31.4261L45.4039 31.5257L45.2554 31.7438L45.516 31.7222L45.5152 31.9247L45.2555 31.9077L45.401 32.1224L45.2261 32.2243L45.115 31.9871L44.9998 32.2255L44.8273 32.1259Z" fill="#F7F7F8"/>
<path d="M46.077 32.8475L46.2251 32.628L45.9641 32.6504L45.9665 32.4489L46.2261 32.4681L46.0807 32.2512L46.254 32.1483L46.3656 32.3847L46.4811 32.1476L46.6536 32.2472L46.5051 32.4653L46.7657 32.4437L46.7649 32.6462L46.5052 32.6292L46.6507 32.844L46.4758 32.9458L46.3647 32.7086L46.2495 32.9471L46.077 32.8475Z" fill="#F7F7F8"/>
<rect x="30.5718" y="26.7775" width="8.53243" height="2.6" rx="1" transform="rotate(30 30.5718 26.7775)" fill="#777F91"/>
<path d="M31.4531 29.254L31.6013 29.0345L31.3402 29.0569L31.3427 28.8554L31.6022 28.8746L31.4569 28.6577L31.6301 28.5548L31.7417 28.7912L31.8572 28.5541L32.0297 28.6537L31.8813 28.8718L32.1418 28.8502L32.141 29.0527L31.8813 29.0357L32.0269 29.2504L31.8519 29.3523L31.7408 29.1151L31.6257 29.3536L31.4531 29.254Z" fill="#F7F7F8"/>
<path d="M32.7028 29.9755L32.851 29.756L32.5899 29.7784L32.5924 29.5769L32.8519 29.5961L32.7066 29.3792L32.8798 29.2763L32.9914 29.5127L33.1069 29.2756L33.2794 29.3752L33.131 29.5933L33.3915 29.5717L33.3907 29.7742L33.131 29.7572L33.2766 29.972L33.1016 30.0739L32.9905 29.8366L32.8754 30.0751L32.7028 29.9755Z" fill="#F7F7F8"/>
<path d="M33.9525 30.697L34.1007 30.4776L33.8396 30.5L33.8421 30.2985L34.1017 30.3176L33.9563 30.1007L34.1295 29.9978L34.2411 30.2342L34.3566 29.9971L34.5291 30.0967L34.3807 30.3148L34.6412 30.2932L34.6404 30.4957L34.3807 30.4788L34.5263 30.6935L34.3513 30.7954L34.2402 30.5581L34.1251 30.7966L33.9525 30.697Z" fill="#F7F7F8"/>
<path d="M35.2022 31.4185L35.3504 31.1991L35.0893 31.2215L35.0918 31.02L35.3514 31.0391L35.206 30.8222L35.3792 30.7194L35.4908 30.9557L35.6063 30.7186L35.7788 30.8182L35.6304 31.0363L35.8909 31.0148L35.8902 31.2172L35.6304 31.2003L35.776 31.415L35.601 31.5169L35.4899 31.2796L35.3748 31.5181L35.2022 31.4185Z" fill="#F7F7F8"/>
<path fill-rule="evenodd" clip-rule="evenodd" d="M33.4202 21.9558C34.855 22.7842 36.6898 22.2926 37.5182 20.8577C38.3467 19.4228 37.855 17.5881 36.4202 16.7596L54.6067 27.2596C56.0416 28.0881 56.5332 29.9228 55.7048 31.3577C54.8763 32.7926 53.0416 33.2842 51.6067 32.4558L33.4202 21.9558Z" fill="#434852"/>
<path d="M59 57C59 58.6569 57.6569 60 56 60L14 60C12.3431 60 11 58.6568 11 57L11 44C11 42.8954 11.8954 42 13 42L57 42C58.1046 42 59 42.8954 59 44L59 57Z" fill="#434852"/>
<rect x="28" y="49.5" width="14" height="3" rx="1.5" fill="#303541"/>
<path fill-rule="evenodd" clip-rule="evenodd" d="M24.3882 17.5C23.6645 12.6887 19.513 9 14.5 9C13.6367 9 12.799 9.10939 12 9.31505C15.8412 10.3037 18.7892 13.5172 19.3882 17.5H17.3569C16.485 17.5 16.0307 18.5381 16.6224 19.1785L21.2654 24.2048C21.6614 24.6334 22.3386 24.6334 22.7346 24.2048L27.3776 19.1786C27.9693 18.5381 27.515 17.5 26.6431 17.5H24.3882Z" fill="#8B63FD"/>
<defs>
<filter id="filter0_d_4384_34821" x="20.187" y="16.5115" width="36.9202" height="38.7856" filterUnits="userSpaceOnUse" color-interpolation-filters="sRGB">
<feFlood flood-opacity="0" result="BackgroundImageFix"/>
<feColorMatrix in="SourceAlpha" type="matrix" values="0 0 0 0 0 0 0 0 0 0 0 0 0 0 0 0 0 0 127 0" result="hardAlpha"/>
<feOffset dx="1" dy="3"/>
<feComposite in2="hardAlpha" operator="out"/>
<feColorMatrix type="matrix" values="0 0 0 0 0 0 0 0 0 0 0 0 0 0 0 0 0 0 0.6 0"/>
<feBlend mode="normal" in2="BackgroundImageFix" result="effect1_dropShadow_4384_34821"/>
<feBlend mode="normal" in="SourceGraphic" in2="effect1_dropShadow_4384_34821" result="shape"/>
</filter>
</defs>
</svg>
