<svg width="24" height="24" viewBox="0 0 24 24" fill="none" xmlns="http://www.w3.org/2000/svg">
<path d="M0 20.1C0 17.946 1.74609 16.2 3.9 16.2H20.1C22.2539 16.2 24 17.946 24 20.1C24 22.2539 22.2539 24 20.1 24H3.9C1.74609 24 0 22.2539 0 20.1Z" fill="#121212"/>
<path fill-rule="evenodd" clip-rule="evenodd" d="M20.1 16.6H3.9C1.967 16.6 0.4 18.167 0.4 20.1C0.4 22.0329 1.967 23.6 3.9 23.6H20.1C22.033 23.6 23.6 22.0329 23.6 20.1C23.6 18.167 22.033 16.6 20.1 16.6ZM3.9 16.2C1.74609 16.2 0 17.946 0 20.1C0 22.2539 1.74609 24 3.9 24H20.1C22.2539 24 24 22.2539 24 20.1C24 17.946 22.2539 16.2 20.1 16.2H3.9Z" fill="#3B3939"/>
<path d="M21.2142 18.4919V19.0085H19.929V19.7267H21.021V20.2475H19.929V21.0791H21.2604V21.5999H19.3074V18.4919H21.2142Z" fill="#F83A4D"/>
<path d="M16.9589 18.4919L17.3705 20.0039C17.4671 20.3567 17.5301 20.6549 17.6309 21.0077H17.6519C17.7485 20.6549 17.8199 20.3567 17.9165 20.0039L18.3197 18.4919H18.9497L17.9963 21.5999H17.2571L16.3079 18.4919H16.9589Z" fill="#F83A4D"/>
<path d="M15.9463 18.4919V21.5999H15.3247V18.4919H15.9463Z" fill="#F83A4D"/>
<path d="M12.4436 19.0085V18.4919H14.8208V19.0085H13.9388V21.5999H13.3172V19.0085H12.4436Z" fill="#F83A4D"/>
<path d="M11.2734 21.6587C10.4838 21.6587 9.84961 21.0959 9.84961 20.0585C9.84961 19.0337 10.509 18.4331 11.2944 18.4331C11.6976 18.4331 12.0042 18.6179 12.2058 18.8321L11.8782 19.2269C11.7228 19.0757 11.5422 18.9665 11.307 18.9665C10.8366 18.9665 10.4838 19.3697 10.4838 20.0375C10.4838 20.7137 10.803 21.1211 11.2944 21.1211C11.5632 21.1211 11.769 20.9951 11.937 20.8145L12.2646 21.2009C12.0084 21.5075 11.6808 21.6587 11.2734 21.6587Z" fill="#F83A4D"/>
<path d="M7.76393 20.8019L7.54553 21.5999H6.91553L7.91093 18.4919H8.64173L9.64133 21.5999H8.99033L8.77193 20.8019H7.76393ZM8.54513 19.9787C8.44853 19.6553 8.36873 19.2983 8.27213 18.9623H8.25533C8.17553 19.3025 8.08733 19.6553 7.99073 19.9787L7.89833 20.3189H8.63753L8.54513 19.9787Z" fill="#F83A4D"/>
<path d="M4.80266 18.4919L5.70566 20.1467L6.01646 20.8187H6.03746C6.00386 20.4953 5.95766 20.0837 5.95766 19.7309V18.4919H6.54566V21.5999H5.91566L5.01686 19.9367L4.70186 19.2689H4.68086C4.71026 19.6049 4.75646 19.9955 4.75646 20.3525V21.5999H4.16846V18.4919H4.80266Z" fill="#F83A4D"/>
<path d="M3.40383 18.4919V21.5999H2.78223V18.4919H3.40383Z" fill="#F83A4D"/>
<path fill-rule="evenodd" clip-rule="evenodd" d="M21.214 18.4919H19.3072V21.5999H21.2602V21.0791H19.9288V20.2475H21.0208V19.7267H19.9288V19.0085H21.214V18.4919ZM19.9648 19.0445H21.25V18.4559H19.2712V21.6359H21.2962V21.0431H19.9648V20.2835H21.0568V19.6907H19.9648V19.0445Z" fill="#F83A4D"/>
<path fill-rule="evenodd" clip-rule="evenodd" d="M17.3705 20.0039L16.9589 18.4919H16.3079L17.2571 21.5999H17.9963L18.9497 18.4919H18.3197L17.9165 20.0039C17.8682 20.1803 17.8262 20.3431 17.7842 20.5058C17.7446 20.6595 17.7049 20.8131 17.66 20.9783C17.6579 20.9859 17.6558 20.9935 17.6537 21.0012C17.6531 21.0034 17.6525 21.0056 17.6519 21.0077H17.6309C17.6303 21.0057 17.6297 21.0036 17.6291 21.0015C17.6269 20.9938 17.6248 20.9861 17.6226 20.9784C17.5713 20.7967 17.5296 20.6288 17.4876 20.4595C17.4511 20.3121 17.4142 20.1636 17.3705 20.0039ZM17.4052 19.9944L16.9864 18.4559H16.2593L17.2305 21.6359H18.0229L18.9984 18.4559H18.2921L17.8818 19.9944C17.8818 19.9945 17.8818 19.9944 17.8818 19.9944C17.8334 20.1711 17.7913 20.3342 17.7494 20.4968C17.7144 20.6322 17.6795 20.7675 17.641 20.9105C17.6016 20.7677 17.5677 20.6326 17.5341 20.4972C17.5302 20.4817 17.5264 20.4663 17.5226 20.4508C17.486 20.3034 17.4491 20.1545 17.4052 19.9944Z" fill="#F83A4D"/>
<path fill-rule="evenodd" clip-rule="evenodd" d="M15.9462 18.4919H15.3246V21.5999H15.9462V18.4919ZM15.9822 18.4559V21.6359H15.2886V18.4559H15.9822Z" fill="#F83A4D"/>
<path fill-rule="evenodd" clip-rule="evenodd" d="M12.4435 19.0085H13.3171V21.5999H13.9387V19.0085H14.8207V18.4919H12.4435V19.0085ZM13.9747 19.0445H14.8567V18.4559H12.4075V19.0445H13.2811V21.6359H13.9747V19.0445Z" fill="#F83A4D"/>
<path fill-rule="evenodd" clip-rule="evenodd" d="M12.2537 18.8306L11.8809 19.2799L11.853 19.2527C11.7014 19.1052 11.5293 19.0025 11.3069 19.0025C11.0828 19.0025 10.8873 19.0982 10.747 19.274C10.6063 19.4505 10.5197 19.7097 10.5197 20.0375C10.5197 20.3704 10.5983 20.6329 10.7334 20.8111C10.8677 20.9884 11.0596 21.0851 11.2943 21.0851C11.5501 21.0851 11.747 20.9657 11.9105 20.79L11.9381 20.7603L12.3115 21.2007L12.2921 21.224C12.0289 21.539 11.6911 21.6947 11.2733 21.6947C10.8697 21.6947 10.504 21.5507 10.2392 21.2724C9.97444 20.9942 9.81348 20.5846 9.81348 20.0585C9.81348 19.5382 9.981 19.1226 10.2512 18.8368C10.5213 18.551 10.8922 18.3971 11.2943 18.3971C11.7094 18.3971 12.025 18.5875 12.2319 18.8074L12.2537 18.8306ZM12.2645 21.2009C12.0083 21.5075 11.6807 21.6587 11.2733 21.6587C10.4837 21.6587 9.84948 21.0959 9.84948 20.0585C9.84948 19.0337 10.5089 18.4331 11.2943 18.4331C11.6975 18.4331 12.0041 18.6179 12.2057 18.8321L11.8781 19.2269C11.8694 19.2185 11.8607 19.2102 11.8519 19.2021C11.7024 19.0639 11.529 18.9665 11.3069 18.9665C10.8365 18.9665 10.4837 19.3697 10.4837 20.0375C10.4837 20.7137 10.8029 21.1211 11.2943 21.1211C11.5499 21.1211 11.7485 21.0072 11.9119 20.8407C11.9203 20.8321 11.9286 20.8234 11.9369 20.8145L12.2645 21.2009Z" fill="#F83A4D"/>
<path fill-rule="evenodd" clip-rule="evenodd" d="M7.5453 21.5999L7.7637 20.8019H8.7717L8.9901 21.5999H9.6411L8.6415 18.4919H7.9107L6.9153 21.5999H7.5453ZM8.74423 20.8379L8.96263 21.6359H9.69049L8.66774 18.4559H7.88443L6.86597 21.6359H7.57277L7.79117 20.8379H8.74423ZM8.39941 19.4403C8.44653 19.6238 8.49332 19.806 8.5449 19.9787L8.6373 20.3189H7.8981L7.9905 19.9787C8.08335 19.6679 8.16844 19.3299 8.24578 19.002C8.24849 18.9905 8.25119 18.979 8.25388 18.9675C8.25429 18.9658 8.25469 18.9641 8.2551 18.9623H8.2719C8.2723 18.9637 8.27271 18.9651 8.27311 18.9666C8.27641 18.9781 8.27969 18.9896 8.28296 19.0011C8.32373 19.1455 8.36168 19.2933 8.39941 19.4403ZM8.2658 19.0736C8.29992 19.1975 8.33228 19.3235 8.36458 19.4494C8.36757 19.461 8.37055 19.4726 8.37353 19.4842C8.41757 19.6557 8.46179 19.8263 8.51027 19.9886L8.59022 20.2829H7.94518L8.02512 19.9886C8.11223 19.6969 8.19246 19.3817 8.2658 19.0736Z" fill="#F83A4D"/>
<path fill-rule="evenodd" clip-rule="evenodd" d="M5.70552 20.1467L4.80252 18.4919H4.16832V21.5999H4.75632V20.3525C4.75632 20.0715 4.72769 19.7696 4.70116 19.4899C4.69562 19.4315 4.69018 19.3741 4.6851 19.3181C4.68471 19.3137 4.68431 19.3093 4.68392 19.3049C4.68312 19.2961 4.68233 19.2872 4.68156 19.2784C4.68128 19.2753 4.681 19.2721 4.68072 19.2689H4.70172L5.01672 19.9367L5.91552 21.5999H6.54552V18.4919H5.95752V19.7309C5.95752 20.0564 5.99684 20.4319 6.02931 20.742C6.03017 20.7502 6.03103 20.7585 6.03189 20.7666C6.03245 20.772 6.03301 20.7774 6.03357 20.7827C6.03451 20.7917 6.03544 20.8006 6.03636 20.8095C6.03668 20.8126 6.037 20.8157 6.03732 20.8187H6.01632L5.70552 20.1467ZM5.98512 20.6655L5.7382 20.1316L4.82389 18.4559H4.13232V21.6359H4.79232V20.3525C4.79232 20.0696 4.76346 19.7654 4.73691 19.4855C4.73461 19.4613 4.73233 19.4373 4.73009 19.4135L4.98416 19.9521L5.89406 21.6359H6.58152V18.4559H5.92152V19.7309C5.92152 20.0307 5.95464 20.3723 5.98512 20.6655Z" fill="#F83A4D"/>
<path fill-rule="evenodd" clip-rule="evenodd" d="M3.40369 18.4919H2.78209V21.5999H3.40369V18.4919ZM3.43969 18.4559V21.6359H2.74609V18.4559H3.43969Z" fill="#F83A4D"/>
</svg>
