<svg width="14" height="14" viewBox="0 0 14 14" fill="none" xmlns="http://www.w3.org/2000/svg">
<path fill-rule="evenodd" clip-rule="evenodd" d="M6.99954 1.74951C4.09976 1.74951 1.74902 4.10025 1.74902 7.00002C1.74902 9.8998 4.09976 12.2505 6.99954 12.2505C9.89931 12.2505 12.25 9.8998 12.25 7.00002C12.25 4.10025 9.89931 1.74951 6.99954 1.74951ZM6.93076 5.35712C7.35389 5.35712 7.69691 5.0141 7.69691 4.59097C7.69691 4.16784 7.35389 3.82483 6.93076 3.82483C6.50763 3.82483 6.16462 4.16784 6.16462 4.59097C6.16462 5.0141 6.50763 5.35712 6.93076 5.35712ZM5.95239 5.9325V6.4654H6.26898C6.42965 6.4654 6.51325 6.58976 6.51325 6.7174V9.46563C6.48709 9.73561 6.26394 9.73545 6.04109 9.73528L6.02464 9.73528V10.175H8.04782V9.73528C8.02654 9.73528 8.00533 9.73555 7.98434 9.73582H7.98432H7.98431C7.7743 9.73854 7.58589 9.74098 7.55921 9.46563V7.05771H7.5566V5.9325H5.95239Z" fill="#F8B44F"/>
</svg>
