<svg width="24" height="24" viewBox="0 0 24 24" fill="none" xmlns="http://www.w3.org/2000/svg">
<path d="M0 20.1C0 17.946 1.74609 16.2 3.9 16.2H20.1C22.2539 16.2 24 17.946 24 20.1C24 22.2539 22.2539 24 20.1 24H3.9C1.74609 24 0 22.2539 0 20.1Z" fill="#121212"/>
<path fill-rule="evenodd" clip-rule="evenodd" d="M20.1 16.6H3.9C1.967 16.6 0.4 18.167 0.4 20.1C0.4 22.0329 1.967 23.6 3.9 23.6H20.1C22.033 23.6 23.6 22.0329 23.6 20.1C23.6 18.167 22.033 16.6 20.1 16.6ZM3.9 16.2C1.74609 16.2 0 17.946 0 20.1C0 22.2539 1.74609 24 3.9 24H20.1C22.2539 24 24 22.2539 24 20.1C24 17.946 22.2539 16.2 20.1 16.2H3.9Z" fill="#3B3939"/>
<path d="M18.3352 18.2904C19.42 18.2904 20.092 18.8472 20.092 20.052C20.092 21.2424 19.42 21.8424 18.3736 21.8424H17.3608V18.2904H18.3352ZM18.292 21.2712C18.9592 21.2712 19.3672 20.916 19.3672 20.052C19.3672 19.1832 18.9592 18.8568 18.292 18.8568H18.0712V21.2712H18.292Z" fill="#F83A4D"/>
<path d="M16.5869 18.2904V18.8808H15.1181V19.7016H16.3661V20.2968H15.1181V21.2472H16.6397V21.8424H14.4077V18.2904H16.5869Z" fill="#F83A4D"/>
<path d="M12.3479 18.2904V21.2472H13.7879V21.8424H11.6375V18.2904H12.3479Z" fill="#F83A4D"/>
<path d="M10.7634 18.2904V21.8424H10.053V18.2904H10.7634Z" fill="#F83A4D"/>
<path d="M7.49157 20.9304L7.24197 21.8424H6.52197L7.65957 18.2904H8.49477L9.63717 21.8424H8.89317L8.64357 20.9304H7.49157ZM8.38437 19.9896C8.27397 19.62 8.18277 19.212 8.07237 18.828H8.05317C7.96197 19.2168 7.86117 19.62 7.75077 19.9896L7.64517 20.3784H8.48997L8.38437 19.9896Z" fill="#F83A4D"/>
<path d="M5.0227 21.9096C4.5043 21.9096 4.1635 21.708 3.9187 21.2856L4.4083 20.9256C4.5475 21.1944 4.7299 21.2952 4.9363 21.2952C5.2483 21.2952 5.4115 21.132 5.4115 20.6376V18.2904H6.1219V20.6952C6.1219 21.3624 5.7859 21.9096 5.0227 21.9096Z" fill="#F83A4D"/>
<path fill-rule="evenodd" clip-rule="evenodd" d="M17.3252 21.8784V18.2544H18.3356C18.8838 18.2544 19.3332 18.3951 19.6457 18.6934C19.9584 18.9919 20.1284 19.443 20.1284 20.052C20.1284 20.6539 19.9584 21.1117 19.6511 21.4191C19.3438 21.7263 18.904 21.8784 18.374 21.8784H17.3252ZM19.054 20.9609C19.2308 20.7733 19.3316 20.4789 19.3316 20.052C19.3316 19.6226 19.2307 19.3346 19.0544 19.1537C18.8783 18.9731 18.6206 18.8928 18.2924 18.8928H18.1076V21.2352H18.2924C18.6199 21.2352 18.8776 21.1481 19.054 20.9609ZM18.0716 21.2712V18.8568H18.2924C18.9596 18.8568 19.3676 19.1832 19.3676 20.052C19.3676 20.916 18.9596 21.2712 18.2924 21.2712H18.0716ZM20.0924 20.052C20.0924 18.8472 19.4204 18.2904 18.3356 18.2904H17.3612V21.8424H18.374C19.4204 21.8424 20.0924 21.2424 20.0924 20.052Z" fill="#F83A4D"/>
<path fill-rule="evenodd" clip-rule="evenodd" d="M16.6233 18.2544V18.9168H15.1545V19.6656H16.4025V20.3328H15.1545V21.2112H16.6761V21.8784H14.3721V18.2544H16.6233ZM15.1185 21.2472V20.2968H16.3665V19.7016H15.1185V18.8808H16.5873V18.2904H14.4081V21.8424H16.6401V21.2472H15.1185Z" fill="#F83A4D"/>
<path fill-rule="evenodd" clip-rule="evenodd" d="M12.3842 18.2544V21.2112H13.8242V21.8784H11.6018V18.2544H12.3842ZM12.3482 21.2472V18.2904H11.6378V21.8424H13.7882V21.2472H12.3482Z" fill="#F83A4D"/>
<path fill-rule="evenodd" clip-rule="evenodd" d="M10.8 18.2544V21.8784H10.0176V18.2544H10.8ZM10.764 18.2904H10.0536V21.8424H10.764V18.2904Z" fill="#F83A4D"/>
<path fill-rule="evenodd" clip-rule="evenodd" d="M8.89368 21.8424L8.64408 20.9304H7.49208L7.24248 21.8424H6.52248L7.66008 18.2904H8.49528L9.63768 21.8424H8.89368ZM7.51955 20.9664L7.26995 21.8784H6.47314L7.6338 18.2544H8.52151L9.68707 21.8784H8.8662L8.6166 20.9664H7.51955ZM8.05368 18.828H8.07288C8.07334 18.8296 8.0738 18.8312 8.07426 18.8328C8.07706 18.8426 8.07985 18.8524 8.08263 18.8622C8.13033 19.0303 8.17459 19.2028 8.2186 19.3742C8.27245 19.5839 8.32593 19.7922 8.38488 19.9896L8.49048 20.3784H7.64568L7.75128 19.9896C7.85837 19.6311 7.95642 19.2409 8.04545 18.863C8.04773 18.8533 8.05001 18.8436 8.05229 18.8339C8.05275 18.8319 8.05321 18.83 8.05368 18.828ZM8.06553 18.9345C7.98047 19.2927 7.88725 19.6601 7.7859 19.9995L7.69276 20.3424H8.44339L8.35025 19.9995C8.29487 19.814 8.24435 19.6191 8.19401 19.4232C8.19059 19.4099 8.18718 19.3965 8.18376 19.3832C8.14518 19.2329 8.1065 19.0823 8.06553 18.9345Z" fill="#F83A4D"/>
<path fill-rule="evenodd" clip-rule="evenodd" d="M3.87183 21.2757L4.42136 20.8716L4.44073 20.909C4.50825 21.0394 4.58494 21.1266 4.66744 21.1812C4.74965 21.2356 4.83975 21.2592 4.93676 21.2592C5.08651 21.2592 5.19247 21.2203 5.26294 21.1297C5.33524 21.0367 5.37596 20.8824 5.37596 20.6376V18.2544H6.15836V20.6952C6.15836 21.0343 6.07303 21.3468 5.88687 21.5753C5.69981 21.8049 5.41421 21.9456 5.02316 21.9456C4.75922 21.9456 4.53793 21.8942 4.3507 21.7873C4.16343 21.6802 4.01286 21.5191 3.88801 21.3036L3.87183 21.2757ZM4.42599 20.9576C4.56286 21.2024 4.73877 21.2952 4.93676 21.2952C5.24876 21.2952 5.41196 21.132 5.41196 20.6376V18.2904H6.12236V20.6952C6.12236 21.3624 5.78636 21.9096 5.02316 21.9096C4.50476 21.9096 4.16396 21.708 3.91916 21.2856L4.40876 20.9256C4.41443 20.9365 4.42017 20.9472 4.42599 20.9576Z" fill="#F83A4D"/>
</svg>
