<svg width="16" height="16" viewBox="0 0 16 16" fill="none" xmlns="http://www.w3.org/2000/svg">
<path d="M4.24407 2.73865C4.55866 2.73873 4.81439 2.9875 4.81464 3.29573C4.81464 3.60417 4.55881 3.85341 4.24407 3.85349C3.96648 3.85358 3.74244 4.07373 3.74229 4.34178V6.4332C3.74224 7.05766 3.45832 7.6126 3.01794 8.00126C3.45847 8.38987 3.74215 8.94546 3.74229 9.56999V11.6614C3.74229 11.9296 3.96639 12.1496 4.24407 12.1497C4.55872 12.1498 4.81448 12.3992 4.81464 12.7075C4.81455 13.0158 4.55876 13.2645 4.24407 13.2645C3.33892 13.2645 2.60047 12.5461 2.60047 11.6614V9.56999C2.60022 9.01339 2.13509 8.55901 1.56251 8.55901C1.24793 8.55888 0.992125 8.31018 0.991943 8.00193C0.992095 7.69366 1.24791 7.44431 1.56251 7.44417C2.13519 7.44417 2.60038 6.98993 2.60047 6.4332V4.34178C2.60062 3.45726 3.33902 2.73874 4.24407 2.73865Z" fill="#8D96A8"/>
<path d="M11.7519 2.73865C12.6569 2.73879 13.3946 3.4573 13.3948 4.34178V6.4332C13.3949 6.98983 13.8602 7.444 14.4327 7.44417C14.7475 7.44417 15.0038 7.69357 15.004 8.00193C15.0038 8.31026 14.7474 8.55901 14.4327 8.55901C13.8603 8.55919 13.395 9.0135 13.3948 9.56999V11.6614C13.3948 12.546 12.657 13.2644 11.7519 13.2645C11.4372 13.2645 11.1807 13.0158 11.1806 12.7075C11.1808 12.3992 11.4372 12.1498 11.7519 12.1497C12.0295 12.1496 12.2536 11.9295 12.2536 11.6614V9.56999C12.2538 8.94571 12.5364 8.38985 12.9766 8.00126C12.5367 7.61263 12.2537 7.05733 12.2536 6.4332V4.34178C12.2535 4.07376 12.0294 3.85363 11.7519 3.85349C11.4371 3.8534 11.1806 3.60416 11.1806 3.29573C11.1809 2.98751 11.4373 2.73874 11.7519 2.73865Z" fill="#8D96A8"/>
<path d="M7.99797 9.01291C8.31253 9.01302 8.56829 9.26179 8.56854 9.56999V11.1387C8.56854 11.4471 8.31269 11.6957 7.99797 11.6958C7.68323 11.6957 7.42672 11.4472 7.42672 11.1387V9.56999C7.42697 9.26177 7.68338 9.013 7.99797 9.01291Z" fill="#8D96A8"/>
<path d="M7.99797 5.35275C8.46001 5.35287 8.83676 5.71894 8.83696 6.17152C8.83696 6.62426 8.46014 6.99017 7.99797 6.99028C7.53578 6.99019 7.15897 6.62428 7.15897 6.17152C7.15917 5.71893 7.5359 5.35284 7.99797 5.35275Z" fill="#8D96A8"/>
</svg>
