<svg width="28" height="28" viewBox="0 0 28 28" fill="none" xmlns="http://www.w3.org/2000/svg">
<path d="M23.9167 8.7999C23.9167 8.57899 23.7377 8.3999 23.5167 8.3999H14.1804L12.0167 23.5666H23.5167C23.7377 23.5666 23.9167 23.3875 23.9167 23.1666V8.7999Z" fill="url(#paint0_linear_4232_19088)"/>
<path fill-rule="evenodd" clip-rule="evenodd" d="M18.9033 13.6074V12.2164C18.9033 12.1059 18.8137 12.0164 18.7033 12.0164H17.9366C17.8261 12.0164 17.7366 12.1059 17.7366 12.2164V13.6074H15.2851C15.1747 13.6074 15.0851 13.697 15.0851 13.8074V14.5741C15.0851 14.6845 15.1747 14.7741 15.2851 14.7741H16.1804C16.3024 15.7865 16.7379 16.7024 17.3869 17.4219C16.8745 17.6951 16.2895 17.8498 15.6683 17.8498H15.285C15.1745 17.8498 15.085 17.9394 15.085 18.0498V18.8165C15.085 18.927 15.1745 19.0165 15.285 19.0165H15.6683C16.6477 19.0165 17.5589 18.7248 18.3198 18.2235C19.0807 18.7248 19.9919 19.0165 20.9713 19.0165H21.3546C21.4651 19.0165 21.5546 18.927 21.5546 18.8165V18.0498C21.5546 17.9394 21.4651 17.8498 21.3546 17.8498H20.9713C20.3501 17.8498 19.7651 17.6951 19.2527 17.4219C19.9017 16.7024 20.3372 15.7865 20.4592 14.7741H21.3548C21.4653 14.7741 21.5548 14.6845 21.5548 14.5741V13.8074C21.5548 13.697 21.4653 13.6074 21.3548 13.6074H18.9033ZM19.2811 14.7741H17.3585C17.4778 15.5193 17.8222 16.1894 18.3198 16.7124C18.8173 16.1894 19.1618 15.5193 19.2811 14.7741Z" fill="url(#paint1_linear_4232_19088)"/>
<path fill-rule="evenodd" clip-rule="evenodd" d="M4.48325 4.43311C4.26234 4.43311 4.08325 4.61219 4.08325 4.83311V19.1998C4.08325 19.4207 4.26234 19.5998 4.48325 19.5998H15.9832L13.8686 4.77661C13.8405 4.57952 13.6717 4.43311 13.4726 4.43311H4.48325ZM12.0166 19.6001V23.5667L15.9833 19.6001H12.0166Z" fill="url(#paint2_linear_4232_19088)"/>
<path fill-rule="evenodd" clip-rule="evenodd" d="M8.80644 8.94119C8.83298 8.8584 8.90996 8.80225 8.99689 8.80225H10.3712C10.4582 8.80225 10.5351 8.8584 10.5617 8.94119L12.4944 14.9695C12.5358 15.0986 12.4395 15.2306 12.3039 15.2306H11.4991C11.4122 15.2306 11.3352 15.1744 11.3087 15.0916L10.6478 13.0303H8.72033L8.05944 15.0917C8.0329 15.1744 7.95593 15.2306 7.86899 15.2306H7.06419C6.92864 15.2306 6.83235 15.0986 6.87374 14.9695L8.80644 8.94119ZM9.09436 11.8636H10.2738L9.68406 10.0243L9.09436 11.8636Z" fill="#292E38"/>
<defs>
<linearGradient id="paint0_linear_4232_19088" x1="17.9667" y1="8.3999" x2="17.9667" y2="23.5666" gradientUnits="userSpaceOnUse">
<stop stop-color="#929CB3"/>
<stop offset="1" stop-color="#505662"/>
</linearGradient>
<linearGradient id="paint1_linear_4232_19088" x1="18.3199" y1="19.0165" x2="18.3199" y2="12.0164" gradientUnits="userSpaceOnUse">
<stop stop-color="#E1E1E3"/>
<stop offset="1" stop-color="#F4F7FF"/>
</linearGradient>
<linearGradient id="paint2_linear_4232_19088" x1="10.0333" y1="19.4972" x2="10.0333" y2="4.43311" gradientUnits="userSpaceOnUse">
<stop stop-color="#CACBCE"/>
<stop offset="1" stop-color="#F4F7FF"/>
</linearGradient>
</defs>
</svg>
