<svg width="18" height="18" viewBox="0 0 18 18" fill="none" xmlns="http://www.w3.org/2000/svg">
<g clip-path="url(#clip0_2268_148)">
<path d="M0.75 9C0.75 4.44375 4.44375 0.75 9 0.75C13.5563 0.75 17.25 4.44375 17.25 9C17.25 13.5563 13.5563 17.25 9 17.25C4.44375 17.25 0.75 13.5563 0.75 9ZM2.29125 8.25H5.2875C5.45533 6.1835 6.14598 4.19363 7.2945 2.4675C5.97402 2.81311 4.78919 3.55059 3.89607 4.5828C3.00296 5.61502 2.44345 6.89355 2.29125 8.25ZM9 2.6625C7.74725 4.27678 6.98171 6.21534 6.7935 8.25H11.2065C11.0183 6.21534 10.2528 4.27678 9 2.6625ZM11.2065 9.75H6.7935C6.98171 11.7847 7.74725 13.7232 9 15.3375C10.2528 13.7232 11.0183 11.7847 11.2065 9.75ZM5.2875 9.75H2.29125C2.4434 11.1064 3.0028 12.3848 3.89577 13.417C4.78874 14.4492 5.97341 15.1868 7.29375 15.5325C6.1455 13.8063 5.45511 11.8164 5.2875 9.75ZM10.7055 15.5325C12.026 15.1869 13.2108 14.4494 14.1039 13.4172C14.997 12.385 15.5565 11.1064 15.7087 9.75H12.7125C12.5447 11.8165 11.854 13.8064 10.7055 15.5325ZM15.7087 8.25C15.5566 6.89365 14.9972 5.61518 14.1042 4.58298C13.2113 3.55077 12.0266 2.81324 10.7062 2.4675C11.8545 4.1937 12.5449 6.18356 12.7125 8.25H15.7087Z" fill="white"/>
</g>
<defs>
<clipPath id="clip0_2268_148">
<rect width="18" height="18" fill="white"/>
</clipPath>
</defs>
</svg>
