<svg width="16" height="16" viewBox="0 0 16 16" fill="none" xmlns="http://www.w3.org/2000/svg">
<path fill-rule="evenodd" clip-rule="evenodd" d="M7.80474 2.86192C8.06509 3.12227 8.06509 3.54438 7.80474 3.80473L3.60948 7.99999L7.80474 12.1953C8.06509 12.4556 8.06509 12.8777 7.80474 13.1381C7.54439 13.3984 7.12228 13.3984 6.86193 13.1381L2.19526 8.47139C1.93491 8.21104 1.93491 7.78893 2.19526 7.52858L6.86193 2.86192C7.12228 2.60157 7.54439 2.60157 7.80474 2.86192Z" fill="#585E6B"/>
<path fill-rule="evenodd" clip-rule="evenodd" d="M2 7.99999C2 7.6318 2.29848 7.33332 2.66667 7.33332L13.3333 7.33332C13.7015 7.33332 14 7.6318 14 7.99999C14 8.36818 13.7015 8.66666 13.3333 8.66666L2.66667 8.66666C2.29848 8.66666 2 8.36818 2 7.99999Z" fill="#585E6B"/>
</svg>
