<svg width="18" height="18" viewBox="0 0 18 18" fill="none" xmlns="http://www.w3.org/2000/svg">
<path d="M9 10.125C9.19891 10.125 9.38968 10.204 9.53033 10.3447C9.67098 10.4853 9.75 10.6761 9.75 10.875V12.375C9.75 12.5739 9.67098 12.7647 9.53033 12.9053C9.38968 13.046 9.19891 13.125 9 13.125C8.80109 13.125 8.61032 13.046 8.46967 12.9053C8.32902 12.7647 8.25 12.5739 8.25 12.375V10.875C8.25 10.6761 8.32902 10.4853 8.46967 10.3447C8.61032 10.204 8.80109 10.125 9 10.125Z" fill="white"/>
<path d="M4.5 6C4.5 4.80653 4.97411 3.66193 5.81802 2.81802C6.66193 1.97411 7.80653 1.5 9 1.5C10.1935 1.5 11.3381 1.97411 12.182 2.81802C13.0259 3.66193 13.5 4.80653 13.5 6V6.8625C13.7122 6.909 13.9155 6.9765 14.112 7.077C14.6765 7.36462 15.1354 7.82354 15.423 8.388C15.6082 8.75175 15.6825 9.1395 15.717 9.561C15.75 9.96675 15.75 10.4655 15.75 11.0685V12.1808C15.75 12.7845 15.75 13.2833 15.717 13.6883C15.6825 14.1105 15.6082 14.4983 15.423 14.862C15.1354 15.4265 14.6765 15.8854 14.112 16.173C13.7483 16.3583 13.3605 16.4325 12.939 16.467C12.5332 16.5 12.0345 16.5 11.4315 16.5H6.5685C5.96475 16.5 5.466 16.5 5.061 16.467C4.63875 16.4325 4.251 16.3583 3.88725 16.173C3.32279 15.8854 2.86387 15.4265 2.57625 14.862C2.391 14.4983 2.31675 14.1105 2.28225 13.689C2.25 13.2825 2.25 12.7845 2.25 12.1815V11.0693C2.25 10.4655 2.25 9.96675 2.283 9.56175C2.3175 9.1395 2.39175 8.75175 2.577 8.388C2.86462 7.82354 3.32354 7.36462 3.888 7.077C4.0845 6.9765 4.28775 6.909 4.5 6.8625V6ZM6 6.7515C6.1785 6.75 6.3675 6.75 6.56925 6.75H11.4307C11.6325 6.75 11.8215 6.75 12 6.7515V6C12 5.20435 11.6839 4.44129 11.1213 3.87868C10.5587 3.31607 9.79565 3 9 3C8.20435 3 7.44129 3.31607 6.87868 3.87868C6.31607 4.44129 6 5.20435 6 6V6.7515ZM5.18325 8.2785C4.85475 8.30475 4.686 8.3535 4.569 8.4135C4.28677 8.55731 4.05731 8.78677 3.9135 9.069C3.8535 9.186 3.80475 9.354 3.7785 9.68325C3.75 10.0208 3.75 10.4573 3.75 11.1V12.15C3.75 12.7928 3.75 13.2293 3.7785 13.5668C3.80475 13.8953 3.8535 14.064 3.9135 14.181C4.05731 14.4632 4.28677 14.6927 4.569 14.8365C4.686 14.8965 4.854 14.9453 5.18325 14.9715C5.52075 15 5.95725 15 6.6 15H11.4C12.0427 15 12.4792 15 12.8168 14.9715C13.1453 14.9453 13.314 14.8965 13.431 14.8365C13.7132 14.6927 13.9427 14.4632 14.0865 14.181C14.1465 14.064 14.1953 13.896 14.2215 13.5668C14.2493 13.2293 14.25 12.7928 14.25 12.15V11.1C14.25 10.4573 14.25 10.0208 14.2215 9.68325C14.1953 9.35475 14.1465 9.186 14.0865 9.069C13.9427 8.78677 13.7132 8.55731 13.431 8.4135C13.314 8.3535 13.146 8.30475 12.8168 8.2785C12.4792 8.25 12.0427 8.25 11.4 8.25H6.6C5.95725 8.25 5.52075 8.25 5.18325 8.2785Z" fill="white"/>
</svg>
