<svg width="28" height="28" viewBox="0 0 28 28" fill="none" xmlns="http://www.w3.org/2000/svg">
<path fill-rule="evenodd" clip-rule="evenodd" d="M12.4954 2.58369C12.5558 2.43258 12.7022 2.3335 12.8649 2.3335H15.1267C15.2894 2.3335 15.4358 2.43258 15.4962 2.58369L15.988 3.81313C17.3736 4.08133 18.6608 4.62529 19.7903 5.3856L21.0087 4.86347C21.1582 4.79936 21.3318 4.83278 21.4469 4.94786L23.0462 6.54718C23.1613 6.66226 23.1947 6.83582 23.1306 6.98541L22.6095 8.20136C23.3715 9.33045 23.9171 10.6176 24.1868 12.0034L25.4166 12.4953C25.5677 12.5557 25.6668 12.7021 25.6668 12.8648V15.1266C25.6668 15.2894 25.5677 15.4357 25.4166 15.4961L24.1873 15.9879C23.9182 17.3723 23.3737 18.6585 22.6131 19.7869L23.1367 21.0086C23.2008 21.1582 23.1674 21.3317 23.0523 21.4468L21.453 23.0461C21.3379 23.1612 21.1644 23.1946 21.0148 23.1305L19.7925 22.6067C18.6657 23.3655 17.3819 23.9091 16 24.1783L15.4953 25.4402C15.4406 25.5769 15.3082 25.6666 15.1609 25.6666H12.8478C12.7005 25.6666 12.5681 25.5769 12.5135 25.4402L12.0085 24.1779C10.6289 23.9089 9.34711 23.3665 8.22179 22.6093L6.9679 23.1467C6.83257 23.2047 6.67555 23.1745 6.57143 23.0703L4.9358 21.4347C4.83169 21.3306 4.80145 21.1736 4.85945 21.0382L5.39631 19.7856C4.63875 18.6612 4.09567 17.3803 3.82571 16.0016L2.55985 15.4952C2.42314 15.4406 2.3335 15.3081 2.3335 15.1609L2.3335 12.8478C2.3335 12.7005 2.42314 12.5681 2.55985 12.5134L3.82254 12.0084C4.0906 10.6277 4.6325 9.34472 5.38943 8.21836L4.85351 6.96788C4.79551 6.83254 4.82574 6.67552 4.92986 6.57141L6.56549 4.93578C6.66961 4.83166 6.82662 4.80142 6.96196 4.85942L8.20823 5.39354C9.33504 4.6328 10.6193 4.0876 12.002 3.81708L12.4954 2.58369ZM22.7688 13.9969C22.7688 18.8372 18.8449 22.7611 14.0046 22.7611C9.16425 22.7611 5.24038 18.8372 5.24038 13.9969C5.24038 9.15657 9.16425 5.23271 14.0046 5.23271C18.8449 5.23271 22.7688 9.15657 22.7688 13.9969Z" fill="url(#paint0_linear_5477_2771)"/>
<path fill-rule="evenodd" clip-rule="evenodd" d="M9.45366 9.46415C10.6567 8.26108 12.2884 7.58521 13.9898 7.58521C15.2328 7.58461 16.4491 7.94511 17.491 8.62288C18.5329 9.30065 19.3555 10.2665 19.8587 11.403C20.362 12.5395 20.5242 13.7977 20.3257 15.0247C20.1272 16.2517 19.5766 17.3947 18.7407 18.3145C17.9048 19.2344 16.8197 19.8917 15.6173 20.2064C14.4148 20.5211 13.1468 20.4798 11.9675 20.0873C10.7881 19.6949 9.74814 18.9683 8.97399 17.9959C8.19985 17.0235 7.72486 15.8471 7.60678 14.6098C7.57471 14.4082 7.57471 14.2065 7.57471 14.0003C7.57471 12.2989 8.25059 10.6672 9.45366 9.46415ZM16.7529 16.0761C17.3994 16.2442 18.0645 16.3304 18.7325 16.3327L18.9524 16.3235C19.0615 16.0965 19.1549 15.8623 19.2319 15.6225C18.4628 15.6414 17.6941 15.5722 16.9408 15.4163C16.9404 15.2242 16.8881 15.0358 16.7896 14.871C17.5522 13.8748 18.0829 12.7211 18.343 11.4939C18.5721 11.6008 18.7981 11.7199 19.0211 11.8513C18.74 11.1905 18.3321 10.5911 17.8206 10.0871V10.5453C16.0197 9.93316 14.0652 9.94446 12.2715 10.5774C12.1296 10.4342 11.9501 10.3341 11.7537 10.2887H11.6392C11.5842 10.0963 11.5246 9.84883 11.4925 9.70678C11.4711 9.61184 11.4558 9.5169 11.4343 9.38365C11.4237 9.31754 11.4115 9.24199 11.3963 9.15233C11.1783 9.2709 10.9685 9.40409 10.7685 9.55099C10.8189 9.71136 10.8189 9.7801 10.8189 9.84425C10.8602 10.0459 10.9152 10.2429 10.9701 10.4399C10.7947 10.5438 10.6535 10.6968 10.5639 10.88C10.4743 11.0632 10.4403 11.2687 10.4661 11.4709C9.74033 11.9508 9.09146 12.5379 8.54156 13.2122C8.50107 13.4745 8.47963 13.7395 8.47741 14.0049V14.2661C9.14633 13.4483 9.91616 12.7185 10.7685 12.0941C10.9005 12.2319 11.0672 12.3315 11.2511 12.3823C11.4351 12.4332 11.6293 12.4333 11.8133 12.3828C12.4285 13.4105 13.2662 14.2873 14.2648 14.9489C14.4526 15.0726 14.6451 15.1871 14.8376 15.2971C14.8178 15.48 14.8462 15.6648 14.92 15.8332C14.0794 16.5023 13.1088 16.9892 12.0699 17.2629C11.9707 17.0637 11.8117 16.9005 11.6151 16.796C11.4186 16.6916 11.1943 16.6512 10.9737 16.6805C10.7531 16.7098 10.5472 16.8073 10.3847 16.9594C10.2222 17.1114 10.1113 17.3105 10.0674 17.5287H9.76502C10.1986 18.0491 10.7254 18.4842 11.3184 18.8117L11.4513 18.7842C11.6336 18.7244 11.7966 18.6167 11.9231 18.4724C12.0496 18.3282 12.1352 18.1526 12.1707 17.964C13.3425 17.6656 14.4364 17.1186 15.3783 16.3602C15.602 16.491 15.8663 16.5343 16.1201 16.4818C16.3739 16.4294 16.5993 16.2849 16.7529 16.0761ZM12.5803 11.619C12.6174 11.4793 12.6247 11.3333 12.6017 11.1906C14.2594 10.6251 16.0594 10.6348 17.7109 11.2181C17.4876 12.3823 17.0001 13.4796 16.2858 14.4257C16.086 14.3411 15.8649 14.3208 15.653 14.3676C15.4412 14.4144 15.2491 14.526 15.1036 14.6869C15.0462 14.6498 14.9857 14.6128 14.9238 14.5748C14.8326 14.5189 14.7382 14.461 14.6454 14.3982C13.7204 13.781 12.9479 12.9615 12.3863 12.0017C12.4771 11.8891 12.5432 11.7588 12.5803 11.619Z" fill="url(#paint1_linear_5477_2771)"/>
<defs>
<linearGradient id="paint0_linear_5477_2771" x1="13.9973" y1="2.3273" x2="13.9973" y2="25.6666" gradientUnits="userSpaceOnUse">
<stop stop-color="#929CB3"/>
<stop offset="1" stop-color="#505662"/>
</linearGradient>
<linearGradient id="paint1_linear_5477_2771" x1="13.9914" y1="17.6866" x2="13.9914" y2="7.58521" gradientUnits="userSpaceOnUse">
<stop stop-color="#CACBCE"/>
<stop offset="1" stop-color="#F4F7FF"/>
</linearGradient>
</defs>
</svg>
