<svg width="16" height="16" viewBox="0 0 16 16" fill="none" xmlns="http://www.w3.org/2000/svg">
<path fill-rule="evenodd" clip-rule="evenodd" d="M3.68062 8.08586C3.47502 8.08586 3.29014 8.21103 3.21378 8.40192L2.98987 8.96171C2.77554 9.05315 2.57469 9.16984 2.39104 9.30797L1.79362 9.22189C1.59013 9.19257 1.38928 9.2901 1.28649 9.46815L0.850568 10.2232C0.74777 10.4012 0.76373 10.6239 0.890868 10.7855L1.26403 11.2597C1.25041 11.3732 1.24341 11.4885 1.24341 11.6054C1.24341 11.7223 1.25041 11.8377 1.26403 11.9512L0.890868 12.4254C0.76373 12.587 0.74777 12.8097 0.850568 12.9877L1.28648 13.7427C1.38928 13.9208 1.59013 14.0183 1.79362 13.989L2.39107 13.9029C2.57471 14.041 2.77555 14.1577 2.98987 14.2492L3.21378 14.8089C3.29014 14.9998 3.47502 15.125 3.68062 15.125H4.55245C4.75805 15.125 4.94293 14.9998 5.01929 14.8089L5.2432 14.2492C5.45754 14.1577 5.65838 14.041 5.84203 13.9029L6.43945 13.989C6.64295 14.0183 6.84379 13.9208 6.94659 13.7427L7.38251 12.9877C7.4853 12.8096 7.46934 12.5869 7.3422 12.4254L6.96905 11.9511C6.98267 11.8377 6.98966 11.7223 6.98966 11.6054C6.98966 11.4885 6.98266 11.3732 6.96904 11.2597L7.3422 10.7855C7.46934 10.6239 7.4853 10.4012 7.38251 10.2232L6.94659 9.46813C6.84379 9.29008 6.64295 9.19255 6.43945 9.22187L5.84201 9.30794C5.65837 9.16983 5.45753 9.05315 5.2432 8.96171L5.01929 8.40192C4.94293 8.21103 4.75805 8.08586 4.55245 8.08586H3.68062ZM2.96745 11.6054C2.96745 10.9707 3.48198 10.4562 4.11669 10.4562C4.75141 10.4562 5.26594 10.9707 5.26594 11.6054C5.26594 12.2401 4.75141 12.7547 4.11669 12.7547C3.48198 12.7547 2.96745 12.2401 2.96745 11.6054Z" fill="#9A77FD"/>
<path fill-rule="evenodd" clip-rule="evenodd" d="M11.9531 2.28002C11.8233 1.76091 11.2845 1.45697 10.7731 1.61433L2.50979 4.15689C2.286 4.22574 2.1333 4.4325 2.1333 4.66664V8.59728L2.22825 8.61096C2.30596 8.56188 2.38576 8.51572 2.46747 8.47264L2.5948 8.15433C2.7724 7.71033 3.20242 7.41919 3.68062 7.41919H4.55245C5.03065 7.41919 5.46067 7.71033 5.63827 8.15432L5.7656 8.47264C5.84731 8.51571 5.92709 8.56187 6.00479 8.61094L6.34438 8.56201C6.81769 8.49382 7.28484 8.72066 7.52394 9.13479L7.95986 9.88982C8.19896 10.304 8.16183 10.8219 7.86612 11.1977L7.65368 11.4677C7.65544 11.5134 7.65633 11.5594 7.65633 11.6054C7.65633 11.6515 7.65544 11.6974 7.65368 11.7431L7.86612 12.0131C8.16183 12.3889 8.19896 12.9069 7.95986 13.321L7.64484 13.8666H12.9333C13.4488 13.8666 13.8666 13.4488 13.8666 12.9333V5.06664C13.8666 4.55117 13.4488 4.1333 12.9333 4.1333H12.4164L11.9531 2.28002ZM10.9524 2.67519L11.3169 4.1333H6.21349L10.9524 2.67519ZM11.77 9.5081C12.1382 9.5081 12.4367 9.20962 12.4367 8.84143C12.4367 8.47324 12.1382 8.17476 11.77 8.17476C11.4018 8.17476 11.1033 8.47324 11.1033 8.84143C11.1033 9.20962 11.4018 9.5081 11.77 9.5081Z" fill="#9A77FD"/>
</svg>
