<svg width="18" height="18" viewBox="0 0 18 18" fill="none" xmlns="http://www.w3.org/2000/svg">
<path d="M3.87075 3H14.13C14.5253 3 14.8665 3 15.147 3.0225C15.4432 3.04725 15.7387 3.1005 16.0222 3.24525C16.4456 3.46096 16.7898 3.80515 17.0055 4.2285C17.1502 4.512 17.2035 4.8075 17.2275 5.10375C17.2507 5.385 17.2507 5.72625 17.2507 6.12075V8.25C17.2508 8.3485 17.2314 8.44604 17.1937 8.53705C17.156 8.62806 17.1008 8.71075 17.0311 8.7804C16.9615 8.85006 16.8788 8.90532 16.7878 8.94301C16.6968 8.98071 16.5993 9.00011 16.5007 9.00011C16.4022 9.00011 16.3047 8.98071 16.2137 8.94301C16.1227 8.90532 16.04 8.85006 15.9704 8.7804C15.9007 8.71075 15.8455 8.62806 15.8078 8.53705C15.7701 8.44604 15.7507 8.3485 15.7507 8.25H2.25V11.85C2.25 12.2828 2.25 12.5618 2.268 12.774C2.2845 12.978 2.313 13.053 2.33175 13.0905C2.40365 13.2316 2.51838 13.3463 2.6595 13.4183C2.697 13.437 2.772 13.4655 2.976 13.482C3.1875 13.5 3.46725 13.5 3.9 13.5H8.625C8.7235 13.5 8.82104 13.5194 8.91205 13.5571C9.00306 13.5947 9.08575 13.65 9.1554 13.7196C9.22506 13.7893 9.28032 13.872 9.31801 13.963C9.35571 14.054 9.37511 14.1515 9.37511 14.25C9.37511 14.3485 9.35571 14.446 9.31801 14.537C9.28032 14.628 9.22506 14.7107 9.1554 14.7804C9.08575 14.85 9.00306 14.9053 8.91205 14.9429C8.82104 14.9806 8.7235 15 8.625 15H3.87075C3.4755 15 3.135 15 2.85375 14.9775C2.5575 14.9528 2.262 14.8995 1.9785 14.7548C1.55515 14.539 1.21096 14.1948 0.99525 13.7715C0.8505 13.488 0.79725 13.1925 0.77325 12.8963C0.75 12.615 0.75 12.2738 0.75 11.8785V6.1215C0.75 5.72625 0.75 5.38575 0.7725 5.1045C0.79725 4.80825 0.8505 4.51275 0.99525 4.22925C1.21096 3.8059 1.55515 3.46171 1.9785 3.246C2.262 3.10125 2.5575 3.048 2.85375 3.024C3.135 3 3.47625 3 3.87075 3ZM2.25 6.75H15.75V6.15C15.75 5.71725 15.75 5.43825 15.732 5.226C15.7155 5.022 15.687 4.94625 15.6682 4.9095C15.5963 4.76838 15.4816 4.65365 15.3405 4.58175C15.303 4.563 15.228 4.5345 15.024 4.518C14.8125 4.5 14.5328 4.5 14.1 4.5H3.9C3.46725 4.5 3.18825 4.5 2.976 4.518C2.772 4.5345 2.69625 4.563 2.6595 4.58175C2.51838 4.65365 2.40365 4.76838 2.33175 4.9095C2.313 4.947 2.2845 5.022 2.268 5.226C2.25 5.4375 2.25 5.71725 2.25 6.15V6.75Z" fill="white"/>
<path d="M14.3625 9.89964L16.0028 10.4854C16.1484 10.5375 16.2743 10.6334 16.3633 10.7598C16.4523 10.8863 16.5001 11.0372 16.5 11.1919V13.0684C16.5 14.2234 15.708 15.0859 15.105 15.5884C14.7213 15.9061 14.3041 16.181 13.8607 16.4081L13.8353 16.4209L13.8278 16.4246L13.8248 16.4261H13.8233L13.5 15.7496L13.1775 16.4261H13.1753L13.1723 16.4246L13.1648 16.4209L13.1393 16.4081C13.012 16.3433 12.8869 16.2743 12.7643 16.2011C12.4588 16.0198 12.1679 15.8149 11.8943 15.5884C11.292 15.0859 10.5 14.2234 10.5 13.0684V11.1919C10.4999 11.0372 10.5477 10.8863 10.6367 10.7598C10.7257 10.6334 10.8516 10.5375 10.9973 10.4854L12.6368 9.89964C13.1944 9.70012 13.8041 9.70012 14.3618 9.89964H14.3625ZM13.5 14.8931C13.726 14.7571 13.9416 14.6044 14.145 14.4364C14.6678 14.0006 15 13.5229 15 13.0684V11.7199L13.857 11.3119C13.6262 11.2293 13.3738 11.2293 13.143 11.3119L12 11.7199V13.0684C12 13.5229 12.333 14.0006 12.855 14.4364C13.0845 14.6276 13.317 14.7821 13.5 14.8939V14.8931Z" fill="white"/>
<path d="M13.5 15.75L13.1775 16.4265C13.3807 16.524 13.6185 16.524 13.8225 16.4265L13.5 15.75Z" fill="white"/>
</svg>
