<svg width="28" height="28" viewBox="0 0 28 28" fill="none" xmlns="http://www.w3.org/2000/svg">
<path fill-rule="evenodd" clip-rule="evenodd" d="M8.9834 12.8334C8.9834 12.3179 9.40127 11.9001 9.91673 11.9001H12.2501C12.7655 11.9001 13.1834 12.3179 13.1834 12.8334C13.1834 13.3489 12.7655 13.7667 12.2501 13.7667H9.91673C9.40127 13.7667 8.9834 13.3489 8.9834 12.8334Z" fill="#777F91"/>
<path fill-rule="evenodd" clip-rule="evenodd" d="M14.8167 12.8334C14.8167 12.3179 15.2346 11.9001 15.7501 11.9001H18.0834C18.5989 11.9001 19.0167 12.3179 19.0167 12.8334C19.0167 13.3489 18.5989 13.7667 18.0834 13.7667H15.7501C15.2346 13.7667 14.8167 13.3489 14.8167 12.8334Z" fill="#777F91"/>
<path fill-rule="evenodd" clip-rule="evenodd" d="M8.9834 15.7501C8.9834 15.2346 9.40127 14.8167 9.91673 14.8167H12.2501C12.7655 14.8167 13.1834 15.2346 13.1834 15.7501C13.1834 16.2655 12.7655 16.6834 12.2501 16.6834H9.91673C9.40127 16.6834 8.9834 16.2655 8.9834 15.7501Z" fill="#777F91"/>
<path fill-rule="evenodd" clip-rule="evenodd" d="M14.8167 15.7501C14.8167 15.2346 15.2346 14.8167 15.7501 14.8167H18.0834C18.5989 14.8167 19.0167 15.2346 19.0167 15.7501C19.0167 16.2655 18.5989 16.6834 18.0834 16.6834H15.7501C15.2346 16.6834 14.8167 16.2655 14.8167 15.7501Z" fill="#777F91"/>
<path fill-rule="evenodd" clip-rule="evenodd" d="M8.9834 18.6667C8.9834 18.1513 9.40127 17.7334 9.91673 17.7334H12.2501C12.7655 17.7334 13.1834 18.1513 13.1834 18.6667C13.1834 19.1822 12.7655 19.6001 12.2501 19.6001H9.91673C9.40127 19.6001 8.9834 19.1822 8.9834 18.6667Z" fill="#777F91"/>
<path fill-rule="evenodd" clip-rule="evenodd" d="M14.8167 18.6667C14.8167 18.1513 15.2346 17.7334 15.7501 17.7334H18.0834C18.5989 17.7334 19.0167 18.1513 19.0167 18.6667C19.0167 19.1822 18.5989 19.6001 18.0834 19.6001H15.7501C15.2346 19.6001 14.8167 19.1822 14.8167 18.6667Z" fill="#777F91"/>
<path fill-rule="evenodd" clip-rule="evenodd" d="M18.8531 2.82519C19.7481 2.54981 20.6909 3.08172 20.918 3.99016L21.7288 7.2334H22.6334C23.5355 7.2334 24.2667 7.96467 24.2667 8.86674V22.6334C24.2667 23.5355 23.5355 24.2667 22.6334 24.2667H5.36673C4.46467 24.2667 3.7334 23.5355 3.7334 22.6334V8.16674C3.7334 7.757 4.00063 7.39517 4.39225 7.27468L18.8531 2.82519ZM20.9791 9.10007C20.9926 9.10036 21.0061 9.10036 21.0196 9.10007H22.4001V22.4001H5.60007V9.10007H20.9791ZM19.8047 7.2334L19.1667 4.68171L10.8737 7.2334H19.8047Z" fill="#777F91"/>
</svg>
