<svg width="14" height="14" viewBox="0 0 14 14" fill="none" xmlns="http://www.w3.org/2000/svg">
<path d="M7.77825 3.26907C7.91897 3.485 7.858 3.77412 7.64208 3.91484L5.31014 5.43458C5.09422 5.5753 4.8051 5.51433 4.66438 5.2984C4.52365 5.08248 4.58462 4.79336 4.80055 4.65264L7.13248 3.1329C7.34841 2.99218 7.63753 3.05314 7.77825 3.26907Z" fill="#838B9C"/>
<path d="M9.19853 4.93161C9.41446 4.79089 9.47542 4.50177 9.3347 4.28585C9.19398 4.06992 8.90486 4.00895 8.68894 4.14967L6.357 5.66941C6.14108 5.81013 6.08011 6.09925 6.22083 6.31518C6.36155 6.5311 6.65067 6.59207 6.8666 6.45135L9.19853 4.93161Z" fill="#838B9C"/>
<path fill-rule="evenodd" clip-rule="evenodd" d="M6.74766 1.35876C6.90251 1.25797 7.10225 1.25802 7.25704 1.3589L11.9209 4.39838C12.0531 4.48451 12.1328 4.63159 12.1328 4.78935C12.1328 4.94711 12.0531 5.09418 11.9209 5.18032L10.8249 5.89461L11.9209 6.60891C12.0531 6.69504 12.1328 6.84212 12.1328 6.99988C12.1328 7.15764 12.0531 7.30471 11.9209 7.39085L10.8249 8.10513L11.9209 8.81942C12.0531 8.90555 12.1328 9.05263 12.1328 9.21039C12.1328 9.36815 12.0531 9.51522 11.9209 9.60136L7.25704 12.6408C7.10225 12.7417 6.90251 12.7418 6.74766 12.641L2.07829 9.60149C1.946 9.51538 1.86621 9.36823 1.86621 9.21039C1.86621 9.05254 1.946 8.90539 2.07829 8.81928L3.1754 8.10513L2.07829 7.39098C1.946 7.30487 1.86621 7.15772 1.86621 6.99988C1.86621 6.84203 1.946 6.69488 2.07829 6.60877L3.17541 5.89461L2.07829 5.18045C1.946 5.09434 1.86621 4.94719 1.86621 4.78935C1.86621 4.6315 1.946 4.48435 2.07829 4.39824L6.74766 1.35876ZM4.03081 8.66196L3.1883 9.21039L7.0021 11.6929L10.8114 9.21039L9.97018 8.66216L7.25704 10.4303C7.10225 10.5312 6.90251 10.5313 6.74766 10.4305L4.03081 8.66196ZM7.25704 8.21979L9.97016 6.45164L10.8114 6.99988L7.0021 9.48243L3.1883 6.99988L4.03083 6.45144L6.74766 8.21993C6.90251 8.32073 7.10225 8.32068 7.25704 8.21979ZM3.1883 4.78935L7.0021 7.2719L10.8114 4.78935L7.0021 2.30679L3.1883 4.78935Z" fill="#838B9C"/>
</svg>
