<svg width="28" height="28" viewBox="0 0 28 28" fill="none" xmlns="http://www.w3.org/2000/svg">
<path fill-rule="evenodd" clip-rule="evenodd" d="M18.853 2.82519C19.7479 2.54981 20.6907 3.08172 20.9179 3.99016L21.7287 7.2334H22.6333C23.5353 7.2334 24.2666 7.96467 24.2666 8.86674V15.1667C24.2666 15.6822 23.8487 16.1001 23.3333 16.1001C22.8178 16.1001 22.3999 15.6822 22.3999 15.1667V9.10007H21.0195C21.0059 9.10037 20.9925 9.10036 20.979 9.10007H5.59994V22.4001H12.8333C13.3487 22.4001 13.7666 22.8179 13.7666 23.3334C13.7666 23.8489 13.3487 24.2667 12.8333 24.2667H5.36661C4.46454 24.2667 3.73328 23.5355 3.73328 22.6334V8.16674C3.73328 7.757 4.00051 7.39517 4.39213 7.27468L18.853 2.82519ZM10.8736 7.2334H19.8046L19.1666 4.68171L10.8736 7.2334ZM9.91661 11.9001C9.40114 11.9001 8.98328 12.3179 8.98328 12.8334C8.98328 13.3489 9.40114 13.7667 9.91661 13.7667H12.2499C12.7654 13.7667 13.1833 13.3489 13.1833 12.8334C13.1833 12.3179 12.7654 11.9001 12.2499 11.9001H9.91661ZM15.7499 11.9001C15.2345 11.9001 14.8166 12.3179 14.8166 12.8334C14.8166 13.3489 15.2345 13.7667 15.7499 13.7667H18.0833C18.5987 13.7667 19.0166 13.3489 19.0166 12.8334C19.0166 12.3179 18.5987 11.9001 18.0833 11.9001H15.7499ZM8.98328 15.7501C8.98328 15.2346 9.40114 14.8167 9.91661 14.8167H12.2499C12.7654 14.8167 13.1833 15.2346 13.1833 15.7501C13.1833 16.2655 12.7654 16.6834 12.2499 16.6834H9.91661C9.40114 16.6834 8.98328 16.2655 8.98328 15.7501ZM15.7499 14.8167C15.2345 14.8167 14.8166 15.2346 14.8166 15.7501C14.8166 16.2655 15.2345 16.6834 15.7499 16.6834H18.0833C18.5987 16.6834 19.0166 16.2655 19.0166 15.7501C19.0166 15.2346 18.5987 14.8167 18.0833 14.8167H15.7499ZM8.98328 18.6667C8.98328 18.1513 9.40114 17.7334 9.91661 17.7334H12.2499C12.7654 17.7334 13.1833 18.1513 13.1833 18.6667C13.1833 19.1822 12.7654 19.6001 12.2499 19.6001H9.91661C9.40114 19.6001 8.98328 19.1822 8.98328 18.6667ZM15.7499 17.7334C15.2345 17.7334 14.8166 18.1513 14.8166 18.6667C14.8166 18.9286 14.9244 19.1652 15.098 19.3347C15.5821 18.721 16.1551 18.1805 16.7978 17.7334H15.7499Z" fill="#777F91"/>
<path fill-rule="evenodd" clip-rule="evenodd" d="M17.2766 22.1667C17.9808 23.6879 19.5064 24.7334 21.2665 24.7334C23.0267 24.7334 24.5523 23.6879 25.2565 22.1667C24.5523 20.6456 23.0267 19.6001 21.2665 19.6001C19.5064 19.6001 17.9808 20.6456 17.2766 22.1667ZM15.5038 21.5599C16.4606 19.3148 18.6766 17.7334 21.2665 17.7334C23.8564 17.7334 26.0725 19.3148 27.0293 21.5599C27.1945 21.9476 27.1945 22.3859 27.0293 22.7736C26.0725 25.0187 23.8564 26.6001 21.2665 26.6001C18.6766 26.6001 16.4606 25.0187 15.5038 22.7736C15.3386 22.3859 15.3386 21.9476 15.5038 21.5599Z" fill="#777F91"/>
<path d="M22.7665 22.1667C22.7665 22.9952 22.095 23.6667 21.2665 23.6667C20.4381 23.6667 19.7665 22.9952 19.7665 22.1667C19.7665 21.3383 20.4381 20.6667 21.2665 20.6667C22.095 20.6667 22.7665 21.3383 22.7665 22.1667Z" fill="#777F91"/>
</svg>
