<svg width="52" height="52" viewBox="0 0 52 52" fill="none" xmlns="http://www.w3.org/2000/svg">
<path d="M28.892 12.1427C29.4146 12.9447 29.1882 14.0186 28.3862 14.5412L19.7247 20.186C18.9227 20.7087 17.8488 20.4822 17.3262 19.6802C16.8035 18.8782 17.0299 17.8043 17.8319 17.2816L26.4934 11.6369C27.2954 11.1142 28.3693 11.3407 28.892 12.1427Z" fill="#9A77FD"/>
<path d="M34.1673 18.3178C34.9693 17.7952 35.1958 16.7213 34.6731 15.9193C34.1504 15.1173 33.0766 14.8908 32.2745 15.4135L23.6131 21.0582C22.8111 21.5809 22.5846 22.6548 23.1073 23.4568C23.63 24.2588 24.7038 24.4852 25.5058 23.9626L34.1673 18.3178Z" fill="#9A77FD"/>
<path fill-rule="evenodd" clip-rule="evenodd" d="M25.0641 5.04726C25.6392 4.67287 26.3811 4.67306 26.9561 5.04777L44.279 16.3373C44.7699 16.6572 45.066 17.2035 45.066 17.7894C45.066 18.3754 44.7699 18.9217 44.279 19.2416L40.208 21.8947L44.279 24.5478C44.7699 24.8677 45.066 25.414 45.066 26C45.066 26.5859 44.7699 27.1322 44.279 27.4521L40.2081 30.1052L44.279 32.7583C44.7699 33.0782 45.066 33.6245 45.066 34.2104C45.066 34.7964 44.7699 35.3427 44.279 35.6626L26.9561 46.9521C26.3811 47.3268 25.6392 47.327 25.0641 46.9526L7.72071 35.6631C7.22935 35.3433 6.93298 34.7967 6.93298 34.2104C6.93298 33.6241 7.22935 33.0776 7.72071 32.7578L11.7957 30.1052L7.72071 27.4526C7.22935 27.1328 6.93298 26.5863 6.93298 26C6.93298 25.4137 7.22935 24.8671 7.72071 24.5473L11.7957 21.8947L7.72071 19.2421C7.22935 18.9223 6.93298 18.3757 6.93298 17.7894C6.93298 17.2031 7.22935 16.6566 7.72071 16.3367L25.0641 5.04726ZM14.9729 32.1734L11.8436 34.2104L26.0091 43.4314L40.158 34.2104L37.0334 32.1741L26.9561 38.7416C26.3811 39.1163 25.6392 39.1165 25.0641 38.7421L14.9729 32.1734ZM26.9561 30.5311L37.0334 23.9636L40.158 26L26.0091 35.2209L11.8436 26L14.973 23.9629L25.0641 30.5316C25.6392 30.906 26.3811 30.9058 26.9561 30.5311ZM11.8436 17.7894L26.0091 27.0103L40.158 17.7894L26.0091 8.56851L11.8436 17.7894Z" fill="#9A77FD"/>
</svg>
