<svg width="22" height="22" viewBox="0 0 22 22" fill="none" xmlns="http://www.w3.org/2000/svg">
<path d="M3.20752 11C3.20752 6.69631 6.69637 3.20746 11.0001 3.20746C15.3038 3.20746 18.7926 6.69631 18.7926 11C18.7926 15.3037 15.3038 18.7926 11.0001 18.7926C6.69637 18.7926 3.20752 15.3037 3.20752 11Z" fill="#777F91"/>
<path d="M3.20752 11C3.20752 6.69631 6.69637 3.20746 11.0001 3.20746C15.3038 3.20746 18.7926 6.69631 18.7926 11C18.7926 15.3037 15.3038 18.7926 11.0001 18.7926C6.69637 18.7926 3.20752 15.3037 3.20752 11Z" fill="url(#paint0_linear_4418_22307)"/>
<ellipse cx="6.73947" cy="10.95" rx="1.05417" ry="1.05417" fill="#F7F7F8"/>
<ellipse cx="6.73947" cy="10.95" rx="1.05417" ry="1.05417" fill="url(#paint1_linear_4418_22307)"/>
<circle cx="11.002" cy="11.0002" r="1.375" fill="#F7F7F8"/>
<circle cx="11.002" cy="11.0002" r="1.375" fill="url(#paint2_linear_4418_22307)"/>
<circle cx="15.2646" cy="10.95" r="1.05417" fill="#F7F7F8"/>
<circle cx="15.2646" cy="10.95" r="1.05417" fill="url(#paint3_linear_4418_22307)"/>
<path fill-rule="evenodd" clip-rule="evenodd" d="M3.20737 1.77446C2.8768 2.66537 2.27692 3.25948 1.39575 3.5854C2.28721 3.91442 2.8805 4.51592 3.20737 5.39617V1.77446Z" fill="url(#paint4_linear_4418_22307)"/>
<path fill-rule="evenodd" clip-rule="evenodd" d="M3.20743 1.77443C3.53799 2.66534 4.13788 3.25945 5.01904 3.58537C4.12759 3.91439 3.5343 4.51589 3.20743 5.39614V1.77443Z" fill="url(#paint5_linear_4418_22307)"/>
<defs>
<linearGradient id="paint0_linear_4418_22307" x1="11.0001" y1="3.20746" x2="11.0001" y2="18.1863" gradientUnits="userSpaceOnUse">
<stop stop-color="#929CB3"/>
<stop offset="1" stop-color="#707889"/>
</linearGradient>
<linearGradient id="paint1_linear_4418_22307" x1="6.73947" y1="9.89581" x2="6.73947" y2="12.0041" gradientUnits="userSpaceOnUse">
<stop stop-color="#F7F7F8"/>
<stop offset="1" stop-color="#E9E9EE"/>
</linearGradient>
<linearGradient id="paint2_linear_4418_22307" x1="11.002" y1="9.62521" x2="11.002" y2="12.3752" gradientUnits="userSpaceOnUse">
<stop stop-color="#F7F7F8"/>
<stop offset="1" stop-color="#E9E9EE"/>
</linearGradient>
<linearGradient id="paint3_linear_4418_22307" x1="15.2646" y1="9.89584" x2="15.2646" y2="12.0042" gradientUnits="userSpaceOnUse">
<stop stop-color="#F7F7F8"/>
<stop offset="1" stop-color="#E9E9EE"/>
</linearGradient>
<linearGradient id="paint4_linear_4418_22307" x1="2.30156" y1="1.77446" x2="2.30156" y2="5.39617" gradientUnits="userSpaceOnUse">
<stop stop-color="#F7F7F8"/>
<stop offset="1" stop-color="#E9E9EE"/>
</linearGradient>
<linearGradient id="paint5_linear_4418_22307" x1="4.11323" y1="1.77443" x2="4.11323" y2="5.39614" gradientUnits="userSpaceOnUse">
<stop stop-color="#F7F7F8"/>
<stop offset="1" stop-color="#E9E9EE"/>
</linearGradient>
</defs>
</svg>
