<svg width="18" height="18" viewBox="0 0 18 18" fill="none" xmlns="http://www.w3.org/2000/svg">
<path d="M10.5945 5.25056C10.7788 4.5452 11.2135 3.93102 11.8175 3.52271C12.4215 3.11441 13.1534 2.93989 13.8767 3.03174C14.5999 3.12359 15.265 3.47553 15.7477 4.02185C16.2305 4.56817 16.4979 5.27152 16.5 6.00056C16.5007 6.73126 16.2347 7.4371 15.752 7.98561C15.2692 8.53411 14.6028 8.88756 13.878 8.97962C13.1531 9.07168 12.4195 8.89602 11.815 8.48561C11.2104 8.07519 10.7765 7.45825 10.5945 6.75056H2.25C2.05111 6.75053 1.86037 6.6715 1.71975 6.53085C1.57912 6.3902 1.50012 6.19946 1.50012 6.00056C1.50012 5.80167 1.57912 5.61092 1.71975 5.47027C1.86037 5.32962 2.05111 5.25059 2.25 5.25056H10.5945ZM13.5 4.50056C13.1022 4.50056 12.7206 4.6586 12.4393 4.9399C12.158 5.22121 12 5.60274 12 6.00056C12 6.39839 12.158 6.77992 12.4393 7.06122C12.7206 7.34253 13.1022 7.50056 13.5 7.50056C13.8978 7.50056 14.2794 7.34253 14.5607 7.06122C14.842 6.77992 15 6.39839 15 6.00056C15 5.60274 14.842 5.22121 14.5607 4.9399C14.2794 4.6586 13.8978 4.50056 13.5 4.50056ZM1.5 12.0006C1.49928 11.2699 1.76526 10.564 2.24803 10.0155C2.7308 9.46701 3.39716 9.11356 4.12204 9.0215C4.84691 8.92944 5.58047 9.10511 6.18502 9.51552C6.78957 9.92593 7.22355 10.5429 7.4055 11.2506H15.75C15.8485 11.2505 15.946 11.2699 16.037 11.3076C16.1281 11.3453 16.2107 11.4005 16.2804 11.4702C16.3501 11.5398 16.4053 11.6225 16.443 11.7135C16.4807 11.8045 16.5001 11.9021 16.5001 12.0006C16.5001 12.0991 16.4807 12.1966 16.443 12.2876C16.4053 12.3786 16.3501 12.4613 16.2804 12.5309C16.2107 12.6006 16.1281 12.6558 16.037 12.6935C15.946 12.7312 15.8485 12.7506 15.75 12.7506H7.4055C7.2212 13.4559 6.78648 14.0701 6.1825 14.4784C5.57852 14.8867 4.84657 15.0612 4.12333 14.9694C3.4001 14.8775 2.73502 14.5256 2.25227 13.9793C1.76953 13.433 1.50213 12.7296 1.5 12.0006ZM4.5 10.5006C4.10218 10.5006 3.72065 10.6586 3.43934 10.9399C3.15804 11.2212 3 11.6027 3 12.0006C3 12.3984 3.15804 12.7799 3.43934 13.0612C3.72065 13.3425 4.10218 13.5006 4.5 13.5006C4.89783 13.5006 5.27936 13.3425 5.56066 13.0612C5.84197 12.7799 6 12.3984 6 12.0006C6 11.6027 5.84197 11.2212 5.56066 10.9399C5.27936 10.6586 4.89783 10.5006 4.5 10.5006Z" fill="white"/>
</svg>
