<svg width="20" height="20" viewBox="0 0 20 20" fill="none" xmlns="http://www.w3.org/2000/svg">
<path fill-rule="evenodd" clip-rule="evenodd" d="M2.79163 5.83317C2.79163 5.53402 3.03414 5.2915 3.33329 5.2915H16.6666C16.9658 5.2915 17.2083 5.53402 17.2083 5.83317C17.2083 6.13232 16.9658 6.37484 16.6666 6.37484H3.33329C3.03414 6.37484 2.79163 6.13232 2.79163 5.83317Z" fill="#585E6B"/>
<path fill-rule="evenodd" clip-rule="evenodd" d="M2.79163 9.99967C2.79163 9.70052 3.03414 9.45801 3.33329 9.45801H16.6666C16.9658 9.45801 17.2083 9.70052 17.2083 9.99967C17.2083 10.2988 16.9658 10.5413 16.6666 10.5413H3.33329C3.03414 10.5413 2.79163 10.2988 2.79163 9.99967Z" fill="#585E6B"/>
<path fill-rule="evenodd" clip-rule="evenodd" d="M2.79163 14.1667C2.79163 13.8675 3.03414 13.625 3.33329 13.625H16.6666C16.9658 13.625 17.2083 13.8675 17.2083 14.1667C17.2083 14.4658 16.9658 14.7083 16.6666 14.7083H3.33329C3.03414 14.7083 2.79163 14.4658 2.79163 14.1667Z" fill="#585E6B"/>
</svg>
