<svg width="16" height="16" viewBox="0 0 16 16" fill="none" xmlns="http://www.w3.org/2000/svg">
<path d="M8.43336 9.87857C8.67319 9.73225 8.83329 9.46815 8.83329 9.16666C8.83329 8.70642 8.4602 8.33333 7.99996 8.33333C7.53972 8.33333 7.16663 8.70642 7.16663 9.16666C7.16663 9.46821 7.32679 9.73235 7.56669 9.87865V11C7.56669 11.2393 7.7607 11.4333 8.00002 11.4333C8.23935 11.4333 8.43336 11.2393 8.43336 11V9.87857Z" fill="#777F91"/>
<path fill-rule="evenodd" clip-rule="evenodd" d="M7.99993 1.46666C6.23262 1.46666 4.79993 2.89935 4.79993 4.66666V4.79999H3.73326C3.21779 4.79999 2.79993 5.21786 2.79993 5.73333V12.9333C2.79993 13.4488 3.21779 13.8667 3.73326 13.8667H12.2666C12.7821 13.8667 13.1999 13.4488 13.1999 12.9333V5.73333C13.1999 5.21786 12.7821 4.79999 12.2666 4.79999H11.1999V4.66666C11.1999 2.89935 9.76724 1.46666 7.99993 1.46666ZM3.86659 5.86666V12.8H12.1333V5.86666H3.86659ZM10.1333 4.79999V4.66666C10.1333 3.48845 9.17813 2.53333 7.99993 2.53333C6.82172 2.53333 5.86659 3.48845 5.86659 4.66666V4.79999H10.1333Z" fill="#777F91"/>
</svg>
