<svg width="16" height="16" viewBox="0 0 16 16" fill="none" xmlns="http://www.w3.org/2000/svg">
<path fill-rule="evenodd" clip-rule="evenodd" d="M3.06663 2.13333C2.55117 2.13333 2.1333 2.5512 2.1333 3.06666V6.26667C2.1333 6.78213 2.55117 7.2 3.06663 7.2H4.13337L4.13337 8.8H3.06663C2.55117 8.8 2.1333 9.21786 2.1333 9.73333V12.9333C2.1333 13.4488 2.55117 13.8667 3.06663 13.8667H6.26663C6.7821 13.8667 7.19997 13.4488 7.19997 12.9333V11.8667H8.79997V12.9333C8.79997 13.4488 9.21783 13.8667 9.7333 13.8667H12.9333C13.4488 13.8667 13.8666 13.4488 13.8666 12.9333V9.73333C13.8666 9.21787 13.4488 8.8 12.9333 8.8H11.8667V7.2H12.9333C13.4488 7.2 13.8666 6.78213 13.8666 6.26667V3.06666C13.8666 2.5512 13.4488 2.13333 12.9333 2.13333H9.7333C9.21784 2.13333 8.79997 2.5512 8.79997 3.06666V4.13333H7.19997V3.06666C7.19997 2.5512 6.7821 2.13333 6.26663 2.13333H3.06663ZM5.20003 8.8V7.2H6.26663C6.7821 7.2 7.19997 6.78213 7.19997 6.26667V5.2H8.79997V6.26667C8.79997 6.78213 9.21783 7.2 9.7333 7.2H10.8V8.8H9.7333C9.21784 8.8 8.79997 9.21786 8.79997 9.73333V10.8H7.19997V9.73333C7.19997 9.21787 6.7821 8.8 6.26663 8.8H5.20003ZM3.19997 9.86666V12.8H6.1333V9.86666H3.19997ZM6.1333 6.13333V3.2H3.19997V6.13333H6.1333ZM12.8 6.13333H9.86663V3.2H12.8V6.13333ZM9.86663 9.86666H12.8V12.8H9.86663V9.86666Z" fill="#777F91"/>
</svg>
