<svg width="16" height="16" viewBox="0 0 16 16" fill="none" xmlns="http://www.w3.org/2000/svg">
<path fill-rule="evenodd" clip-rule="evenodd" d="M6.32411 2.05338C6.46584 1.69903 6.80904 1.46667 7.19068 1.46667H8.80906C9.1907 1.46667 9.5339 1.69903 9.67564 2.05338L10.0913 3.0925C10.4891 3.26225 10.8619 3.47883 11.2028 3.73522L12.3119 3.57543C12.6896 3.52101 13.0624 3.70205 13.2533 4.03256L14.0624 5.43411C14.2533 5.76463 14.2236 6.17802 13.9876 6.47794L13.2949 7.35825C13.3202 7.56884 13.3332 7.78302 13.3332 8.00001C13.3332 8.21698 13.3202 8.43115 13.2949 8.64173L13.9876 9.52203C14.2236 9.82195 14.2533 10.2353 14.0624 10.5659L13.2533 11.9674C13.0624 12.2979 12.6896 12.479 12.3119 12.4245L11.2029 12.2648C10.862 12.5212 10.4891 12.7378 10.0913 12.9075L9.67563 13.9466C9.5339 14.301 9.1907 14.5333 8.80906 14.5333H7.19068C6.80904 14.5333 6.46584 14.301 6.3241 13.9466L5.90845 12.9075C5.51061 12.7378 5.1378 12.5212 4.79691 12.2648L3.68788 12.4246C3.31013 12.479 2.93731 12.298 2.74649 11.9675L1.9373 10.5659C1.74648 10.2354 1.77611 9.822 2.01211 9.52207L2.70481 8.64177C2.67952 8.43117 2.66654 8.21699 2.66654 8.00001C2.66654 7.78304 2.67952 7.56887 2.7048 7.35828L2.01211 6.47799C1.77611 6.17807 1.74648 5.76467 1.9373 5.43416L2.74649 4.03261C2.93731 3.70209 3.31013 3.52105 3.68788 3.57548L4.79685 3.73526C5.13776 3.47885 5.51059 3.26225 5.90845 3.0925L6.32411 2.05338ZM7.28095 2.53334L6.87969 3.53651C6.7808 3.78372 6.58595 3.96552 6.35959 4.05988C6.01847 4.20207 5.69955 4.38741 5.40967 4.60922C5.21463 4.75846 4.95952 4.83637 4.69587 4.79839L3.62512 4.64412L2.9062 5.88932L3.57491 6.73914C3.7393 6.94806 3.79945 7.20729 3.76823 7.4503C3.74514 7.63004 3.7332 7.8135 3.7332 8.00001C3.7332 8.18653 3.74514 8.37 3.76823 8.54975C3.79945 8.79276 3.73931 9.052 3.57492 9.26091L2.9062 10.1107L3.62512 11.3559L4.69592 11.2017C4.95957 11.1637 5.21468 11.2416 5.40972 11.3908C5.69958 11.6126 6.01849 11.798 6.35959 11.9401C6.58595 12.0345 6.7808 12.2163 6.87969 12.4635L7.28095 13.4667H8.71879L9.12005 12.4635C9.21894 12.2163 9.41379 12.0345 9.64015 11.9401C9.98127 11.7979 10.3002 11.6126 10.5901 11.3908C10.7851 11.2416 11.0402 11.1636 11.3039 11.2016L12.3746 11.3559L13.0935 10.1107L12.4248 9.26087C12.2604 9.05196 12.2003 8.79273 12.2315 8.54972C12.2546 8.36998 12.2665 8.18652 12.2665 8.00001C12.2665 7.81349 12.2546 7.63002 12.2315 7.45026C12.2003 7.20726 12.2604 6.94802 12.4248 6.73911L13.0935 5.88927L12.3746 4.64407L11.3038 4.79835C11.0402 4.83633 10.7851 4.75843 10.59 4.60919C10.3002 4.38739 9.98125 4.20206 9.64015 4.05988C9.41379 3.96552 9.21894 3.78372 9.12005 3.53651L8.71879 2.53334H7.28095ZM8.00016 6.53335C7.19015 6.53335 6.5335 7.19 6.5335 8.00002C6.5335 8.81003 7.19015 9.46668 8.00016 9.46668C8.81018 9.46668 9.46683 8.81003 9.46683 8.00002C9.46683 7.19 8.81018 6.53335 8.00016 6.53335ZM5.46683 8.00002C5.46683 6.60089 6.60104 5.46668 8.00016 5.46668C9.39928 5.46668 10.5335 6.60089 10.5335 8.00002C10.5335 9.39914 9.39928 10.5333 8.00016 10.5333C6.60104 10.5333 5.46683 9.39914 5.46683 8.00002Z" fill="#777F91"/>
</svg>
