<svg width="17" height="16" viewBox="0 0 17 16" fill="none" xmlns="http://www.w3.org/2000/svg">
<path fill-rule="evenodd" clip-rule="evenodd" d="M3.2998 3.06663C3.2998 2.55117 3.71767 2.1333 4.23314 2.1333H11.1665C11.461 2.1333 11.6998 2.37208 11.6998 2.66663C11.6998 2.96119 11.461 3.19997 11.1665 3.19997H4.36647V10.6666C4.36647 10.9612 4.12769 11.2 3.83314 11.2C3.53859 11.2 3.2998 10.9612 3.2998 10.6666V3.06663Z" fill="#777F91"/>
<path fill-rule="evenodd" clip-rule="evenodd" d="M7.2998 7.66663C7.2998 7.37208 7.53859 7.1333 7.83314 7.1333L11.1665 7.1333C11.461 7.1333 11.6998 7.37208 11.6998 7.66663C11.6998 7.96119 11.461 8.19997 11.1665 8.19997L7.83314 8.19997C7.53859 8.19997 7.2998 7.96119 7.2998 7.66663Z" fill="#777F91"/>
<path fill-rule="evenodd" clip-rule="evenodd" d="M7.2998 10.3333C7.2998 10.0387 7.53859 9.79997 7.83314 9.79997H11.1665C11.461 9.79997 11.6998 10.0387 11.6998 10.3333C11.6998 10.6279 11.461 10.8666 11.1665 10.8666H7.83314C7.53859 10.8666 7.2998 10.6279 7.2998 10.3333Z" fill="#777F91"/>
<path fill-rule="evenodd" clip-rule="evenodd" d="M5.2998 5.06663C5.2998 4.55117 5.71767 4.1333 6.23314 4.1333H12.7665C13.2819 4.1333 13.6998 4.55117 13.6998 5.06663V12.9333C13.6998 13.4488 13.2819 13.8666 12.7665 13.8666H6.23314C5.71767 13.8666 5.2998 13.4488 5.2998 12.9333V5.06663ZM6.36647 5.19997V12.8H12.6331V5.19997H6.36647Z" fill="#777F91"/>
</svg>
