<svg width="40" height="40" viewBox="0 0 40 40" fill="none" xmlns="http://www.w3.org/2000/svg">
<path d="M37.569 32.912C35.742 32.912 34.374 31.706 34.374 29.483C34.374 27.287 35.805 26 37.569 26C38.532 26 39.198 26.414 39.63 26.855L38.919 27.701C38.595 27.386 38.226 27.143 37.614 27.143C36.507 27.143 35.733 28.007 35.733 29.438C35.733 30.887 36.399 31.76 37.704 31.76C38.028 31.76 38.352 31.679 38.541 31.508V30.194H37.362V29.105H39.729V32.111C39.27 32.552 38.505 32.912 37.569 32.912Z" fill="#5BA4FB"/>
<path d="M29.3248 26.126L31.2598 29.672L31.9258 31.112H31.9708C31.8988 30.419 31.7998 29.537 31.7998 28.781V26.126H33.0598V32.786H31.7098L29.7838 29.222L29.1088 27.791H29.0638C29.1268 28.511 29.2258 29.348 29.2258 30.113V32.786H27.9658V26.126H29.3248Z" fill="#5BA4FB"/>
<path d="M26.3271 26.126V32.786H24.9951V26.126H26.3271Z" fill="#5BA4FB"/>
<path d="M20.3973 26.126C22.4313 26.126 23.6913 27.17 23.6913 29.429C23.6913 31.661 22.4313 32.786 20.4693 32.786H18.5703V26.126H20.3973ZM20.3163 31.715C21.5673 31.715 22.3323 31.049 22.3323 29.429C22.3323 27.8 21.5673 27.188 20.3163 27.188H19.9023V31.715H20.3163Z" fill="#5BA4FB"/>
<path d="M13.1881 26.126L15.1231 29.672L15.7891 31.112H15.8341C15.7621 30.419 15.6631 29.537 15.6631 28.781V26.126H16.9231V32.786H15.5731L13.6471 29.222L12.9721 27.791H12.9271C12.9901 28.511 13.0891 29.348 13.0891 30.113V32.786H11.8291V26.126H13.1881Z" fill="#5BA4FB"/>
<path d="M10.378 26.126V27.233H7.62399V28.772H9.96399V29.888H7.62399V31.67H10.477V32.786H6.29199V26.126H10.378Z" fill="#5BA4FB"/>
<path d="M2.47606 26.126C3.94306 26.126 5.08606 26.63 5.08606 28.214C5.08606 29.735 3.94306 30.419 2.51206 30.419H1.62106V32.786H0.289062V26.126H2.47606ZM2.42206 29.366C3.33106 29.366 3.78106 28.979 3.78106 28.214C3.78106 27.431 3.30406 27.179 2.37706 27.179H1.62106V29.366H2.42206Z" fill="#5BA4FB"/>
<path d="M24.1473 7.20018L25.1073 9.61351L25.1139 9.62684C25.2073 9.85351 25.0339 10.1602 24.7873 10.1935L22.2139 10.5668C21.9473 10.6068 21.8073 10.3068 21.9606 10.0402L22.5073 9.09351C21.3139 8.49351 19.9606 8.35351 18.6606 8.70018C17.2473 9.08018 16.0739 9.98018 15.3406 11.2468C14.6073 12.5068 14.4139 13.9802 14.7939 15.3935C15.1739 16.8068 16.0739 17.9802 17.3406 18.7135C19.4806 19.9468 22.1939 19.5935 23.9406 17.8468C24.1473 17.6402 24.4873 17.6402 24.6939 17.8468C24.9006 18.0535 24.9006 18.3935 24.6939 18.6002C23.4406 19.8602 21.7673 20.5135 20.0739 20.5135C18.9539 20.5135 17.8273 20.2268 16.8073 19.6402C15.2939 18.7668 14.2139 17.3602 13.7606 15.6735C13.3073 13.9868 13.5406 12.2268 14.4139 10.7135C15.2873 9.20018 16.6939 8.12018 18.3806 7.66684C19.9606 7.24684 21.6006 7.42684 23.0406 8.16684L23.5673 7.24684C23.7206 6.98018 24.0473 6.95351 24.1473 7.20018Z" fill="#5BA4FB"/>
<path d="M19.5339 10.6335C19.5339 10.3402 19.7739 10.1002 20.0673 10.1002C20.3606 10.1002 20.6006 10.3402 20.6006 10.6335V13.7468L22.4473 15.5935C22.6539 15.8002 22.6539 16.1402 22.4473 16.3468C22.3406 16.4468 22.2073 16.5002 22.0673 16.5002C21.9273 16.5002 21.7939 16.4535 21.6873 16.3468L19.6873 14.3468C19.5873 14.2468 19.5339 14.1068 19.5339 13.9668V10.6335Z" fill="#5BA4FB"/>
<path d="M25.9125 13.1068C25.9508 13.1068 25.9893 13.1062 26.0339 13.0935C26.3206 13.0268 26.4939 12.7335 26.4273 12.4468C26.3406 12.0935 26.2273 11.7468 26.0873 11.4135C25.9739 11.1401 25.6606 11.0135 25.3873 11.1335C25.1139 11.2468 24.9873 11.5601 25.1073 11.8335C25.2273 12.1135 25.3206 12.4068 25.3939 12.7001C25.4538 12.9463 25.6731 13.1062 25.9125 13.1068Z" fill="#5BA4FB"/>
<path d="M25.9125 13.1068C25.9108 13.1068 25.909 13.1068 25.9073 13.1068H25.9139L25.9125 13.1068Z" fill="#5BA4FB"/>
<path d="M25.414 15.1068C25.474 14.8135 25.7607 14.6335 26.0473 14.6935L26.0407 14.7001C26.334 14.7601 26.514 15.0468 26.454 15.3335C26.3807 15.6868 26.274 16.0335 26.1407 16.3735C26.0607 16.5868 25.8607 16.7135 25.6473 16.7135C25.5873 16.7135 25.5207 16.7001 25.454 16.6735C25.1807 16.5668 25.0473 16.2535 25.154 15.9801C25.2607 15.6935 25.354 15.4001 25.414 15.1068Z" fill="#5BA4FB"/>
</svg>
