<svg width="12" height="12" viewBox="0 0 12 12" fill="none" xmlns="http://www.w3.org/2000/svg">
<path fill-rule="evenodd" clip-rule="evenodd" d="M1.3501 6.00001C1.3501 5.58579 1.64111 5.25001 2.0001 5.25001L10.0001 5.25001C10.3591 5.25001 10.6501 5.58579 10.6501 6.00001C10.6501 6.41422 10.3591 6.75001 10.0001 6.75001L2.0001 6.75001C1.64111 6.75001 1.3501 6.41422 1.3501 6.00001Z" fill="#9A77FD"/>
<path fill-rule="evenodd" clip-rule="evenodd" d="M6 1.35C6.41421 1.35 6.75 1.64102 6.75 2L6.75 10C6.75 10.359 6.41421 10.65 6 10.65C5.58579 10.65 5.25 10.359 5.25 10L5.25 2C5.25 1.64102 5.58579 1.35 6 1.35Z" fill="#9A77FD"/>
</svg>
