<svg width="24" height="24" viewBox="0 0 24 24" fill="none" xmlns="http://www.w3.org/2000/svg">
<path fill-rule="evenodd" clip-rule="evenodd" d="M16.6 3C15.7163 3 15 3.71634 15 4.6V10.4C15 11.2837 15.7163 12 16.6 12H21.4C22.2837 12 23 11.2837 23 10.4V4.6C23 3.71634 22.2837 3 21.4 3H16.6ZM4 6H13C13.5523 6 14 5.55228 14 5C14 4.44772 13.5523 4 13 4H3.6C2.71634 4 2 4.71635 2 5.6V18.4C2 19.2837 2.71635 20 3.6 20H20.4C21.2837 20 22 19.2837 22 18.4V14C22 13.4477 21.5523 13 21 13C20.4477 13 20 13.4477 20 14V18H4V6Z" fill="#F7F7F8"/>
</svg>
