<svg width="16" height="16" viewBox="0 0 16 16" fill="none" xmlns="http://www.w3.org/2000/svg">
<path d="M6.1689 14.5833C5.21282 14.1826 4.57107 13.644 4.09251 12.8976C2.79465 10.9217 3.19082 8.36547 5.06234 6.61078C5.63652 6.07219 6.25085 5.57474 6.82446 5.02174C7.73988 4.15133 8.10858 3.05968 7.8899 1.78853C7.87616 1.69182 7.87616 1.58122 7.86243 1.33276C10.4439 3.40534 10.6213 6.0583 10.1433 8.94572C10.99 8.51719 11.2087 8.03363 11.4274 6.14106C13.2715 8.80784 13.3258 13.5606 9.74709 14.6661C10.6488 13.0081 10.4713 11.5853 9.03662 10.3552C8.25802 9.70596 7.54751 9.04233 7.7525 7.84062C6.36008 8.89056 6.31938 10.3412 6.52385 11.9025C5.93646 11.5434 5.85459 11.0598 5.77271 10.5346C5.2128 11.8886 5.02158 13.2286 6.16889 14.5832L6.1689 14.5833Z" fill="#585E6B"/>
</svg>
