<svg width="28" height="28" viewBox="0 0 28 28" fill="none" xmlns="http://www.w3.org/2000/svg">
<path fill-rule="evenodd" clip-rule="evenodd" d="M13.9963 22.1668C18.5068 22.1668 22.1629 18.5107 22.1629 14.0002C22.1629 13.7866 22.1504 13.5604 22.1378 13.3468C21.8237 9.364 18.6324 6.17273 14.6496 5.85863C14.436 5.84607 14.2098 5.8335 13.9963 5.8335C9.48574 5.8335 5.82959 9.48965 5.82959 14.0002C5.82959 18.5107 9.48574 22.1668 13.9963 22.1668ZM14.279 10.6009C14.1228 10.4447 13.8696 10.4447 13.7134 10.6009L10.597 13.7172C10.4408 13.8734 10.4408 14.1267 10.597 14.2829L13.7134 17.3993C13.8696 17.5555 14.1228 17.5555 14.279 17.3993L17.3954 14.2829C17.5516 14.1267 17.5516 13.8734 17.3954 13.7172L14.279 10.6009Z" fill="url(#paint0_linear_4232_19072)"/>
<path d="M7.03684 3.45313C7.19446 3.20952 7.55089 3.20952 7.70851 3.45313L11.3857 9.13647C11.5579 9.40262 11.3669 9.75376 11.0499 9.75376H3.69544C3.37844 9.75376 3.1874 9.40262 3.3596 9.13647L7.03684 3.45313Z" fill="#D9D9D9"/>
<path d="M7.03684 3.45313C7.19446 3.20952 7.55089 3.20952 7.70851 3.45313L11.3857 9.13647C11.5579 9.40262 11.3669 9.75376 11.0499 9.75376H3.69544C3.37844 9.75376 3.1874 9.40262 3.3596 9.13647L7.03684 3.45313Z" fill="url(#paint1_linear_4232_19072)"/>
<path d="M20.9632 24.5469C20.8055 24.7905 20.4491 24.7905 20.2915 24.5469L16.6143 18.8635C16.4421 18.5974 16.6331 18.2462 16.9501 18.2462L24.3046 18.2462C24.6216 18.2462 24.8126 18.5974 24.6404 18.8635L20.9632 24.5469Z" fill="#D9D9D9"/>
<path d="M20.9632 24.5469C20.8055 24.7905 20.4491 24.7905 20.2915 24.5469L16.6143 18.8635C16.4421 18.5974 16.6331 18.2462 16.9501 18.2462L24.3046 18.2462C24.6216 18.2462 24.8126 18.5974 24.6404 18.8635L20.9632 24.5469Z" fill="url(#paint2_linear_4232_19072)"/>
<defs>
<linearGradient id="paint0_linear_4232_19072" x1="13.9963" y1="18.6929" x2="13.9963" y2="5.8335" gradientUnits="userSpaceOnUse">
<stop stop-color="#CACBCE"/>
<stop offset="1" stop-color="#F4F7FF"/>
</linearGradient>
<linearGradient id="paint1_linear_4232_19072" x1="7.37267" y1="2.93408" x2="7.37267" y2="9.75376" gradientUnits="userSpaceOnUse">
<stop stop-color="#929CB3"/>
<stop offset="1" stop-color="#505662"/>
</linearGradient>
<linearGradient id="paint2_linear_4232_19072" x1="20.6273" y1="25.0659" x2="20.6273" y2="18.2462" gradientUnits="userSpaceOnUse">
<stop stop-color="#929CB3"/>
<stop offset="1" stop-color="#505662"/>
</linearGradient>
</defs>
</svg>
