<svg width="28" height="28" viewBox="0 0 28 28" fill="none" xmlns="http://www.w3.org/2000/svg">
<path opacity="0.2" d="M3.27588 11.5768C3.27588 11.3558 3.45497 11.1768 3.67588 11.1768H21.139C21.3599 11.1768 21.539 11.3558 21.539 11.5768V23.9034C21.539 24.1243 21.3599 24.3034 21.139 24.3034H3.67588C3.45496 24.3034 3.27588 24.1243 3.27588 23.9034V11.5768Z" fill="url(#paint0_linear_4232_19106)"/>
<path opacity="0.4" d="M4.86841 9.84067C4.86841 9.61976 5.04749 9.44067 5.26841 9.44067H22.7315C22.9524 9.44067 23.1315 9.61976 23.1315 9.84067V22.1673C23.1315 22.3882 22.9524 22.5673 22.7315 22.5673H5.26841C5.04749 22.5673 4.86841 22.3882 4.86841 22.1673V9.84067Z" fill="url(#paint1_linear_4232_19106)"/>
<path d="M19.7832 3.80148L6.8645 7.40629H21.2999L20.273 4.06912C20.2092 3.86191 19.992 3.74321 19.7832 3.80148Z" fill="url(#paint2_linear_4232_19106)"/>
<path d="M6.46118 7.80552C6.46118 7.5846 6.64027 7.40552 6.86118 7.40552H24.3243C24.5452 7.40552 24.7243 7.5846 24.7243 7.80552V20.1321C24.7243 20.353 24.5452 20.5321 24.3243 20.5321H6.86118C6.64027 20.5321 6.46118 20.353 6.46118 20.1321V7.80552Z" fill="url(#paint3_linear_4232_19106)"/>
<path fill-rule="evenodd" clip-rule="evenodd" d="M9.05322 15.9033L10.1729 17.8423H10.1743L10.7247 17.5245L9.69687 15.7444L10.6328 14.1239H12.504L13.5318 15.9033L14.0822 15.5855L12.9625 13.6465C12.9057 13.5481 12.8007 13.4875 12.687 13.4875H10.4484C10.3347 13.4875 10.2297 13.5481 10.1729 13.6465L9.05322 15.5855C8.99636 15.6839 8.99636 15.8049 9.05322 15.9033ZM9.57122 18.8958H11.8098V18.8965C11.9235 18.8965 12.0285 18.836 12.0853 18.7376L13.2042 16.7986C13.2611 16.7002 13.2611 16.5791 13.2042 16.4807L12.0853 14.5417L11.535 14.8595L12.5628 16.6389L11.6268 18.2601H9.75491L8.72711 16.48L8.17676 16.7978L9.29568 18.7369C9.35254 18.8353 9.4575 18.8958 9.57122 18.8958Z" fill="url(#paint4_linear_4232_19106)"/>
<rect x="19.9878" y="12.7134" width="2.51118" height="2.51118" rx="0.266769" fill="url(#paint5_linear_4232_19106)"/>
<defs>
<linearGradient id="paint0_linear_4232_19106" x1="12.4074" y1="11.1768" x2="12.4074" y2="24.3034" gradientUnits="userSpaceOnUse">
<stop stop-color="#929CB3"/>
<stop offset="1" stop-color="#505662"/>
</linearGradient>
<linearGradient id="paint1_linear_4232_19106" x1="14" y1="9.44067" x2="14" y2="22.5673" gradientUnits="userSpaceOnUse">
<stop stop-color="#929CB3"/>
<stop offset="1" stop-color="#505662"/>
</linearGradient>
<linearGradient id="paint2_linear_4232_19106" x1="13.8806" y1="3.69678" x2="13.8806" y2="7.40629" gradientUnits="userSpaceOnUse">
<stop stop-color="#929CB3"/>
<stop offset="1" stop-color="#505662"/>
</linearGradient>
<linearGradient id="paint3_linear_4232_19106" x1="15.5927" y1="7.40552" x2="15.5927" y2="20.5321" gradientUnits="userSpaceOnUse">
<stop stop-color="#929CB3"/>
<stop offset="1" stop-color="#505662"/>
</linearGradient>
<linearGradient id="paint4_linear_4232_19106" x1="11.1295" y1="18.8965" x2="11.1295" y2="13.4875" gradientUnits="userSpaceOnUse">
<stop stop-color="#CACBCE"/>
<stop offset="1" stop-color="#F4F7FF"/>
</linearGradient>
<linearGradient id="paint5_linear_4232_19106" x1="21.2434" y1="12.7134" x2="21.2434" y2="15.2246" gradientUnits="userSpaceOnUse">
<stop stop-color="#F7F7F8"/>
<stop offset="1" stop-color="#E9E9EE"/>
</linearGradient>
</defs>
</svg>
