<svg width="18" height="18" viewBox="0 0 18 18" fill="none" xmlns="http://www.w3.org/2000/svg">
<g clip-path="url(#clip0_2268_156)">
<path d="M9.00008 0.75C9.15163 0.750051 9.29961 0.796014 9.42452 0.881833C9.54943 0.967652 9.64542 1.0893 9.69982 1.23075L11.2088 5.154C11.4338 5.73975 11.5051 5.9085 11.6018 6.045C11.6993 6.1815 11.8186 6.30075 11.9551 6.3975C12.0916 6.495 12.2603 6.5655 12.8461 6.79125L16.7693 8.30025C16.9107 8.35476 17.0322 8.45079 17.1179 8.5757C17.2036 8.7006 17.2494 8.84853 17.2494 9C17.2494 9.15148 17.2036 9.2994 17.1179 9.42431C17.0322 9.54921 16.9107 9.64524 16.7693 9.69975L12.8461 11.2088C12.2603 11.4338 12.0916 11.505 11.9551 11.6018C11.8186 11.6993 11.6993 11.8185 11.6026 11.955C11.5051 12.0915 11.4346 12.2603 11.2088 12.846L9.69982 16.7693C9.64531 16.9106 9.54928 17.0321 9.42438 17.1178C9.29948 17.2035 9.15155 17.2493 9.00008 17.2493C8.8486 17.2493 8.70067 17.2035 8.57577 17.1178C8.45087 17.0321 8.35484 16.9106 8.30032 16.7693L6.79133 12.846C6.56633 12.2603 6.49507 12.0915 6.39832 11.955C6.30107 11.8186 6.18167 11.6995 6.04507 11.6025C5.90858 11.505 5.73982 11.4345 5.15408 11.2088L1.23083 9.69975C1.0895 9.64524 0.96799 9.54921 0.882295 9.42431C0.796599 9.2994 0.750732 9.15148 0.750732 9C0.750732 8.84853 0.796599 8.7006 0.882295 8.5757C0.96799 8.45079 1.0895 8.35476 1.23083 8.30025L5.15408 6.79125C5.73982 6.56625 5.90858 6.495 6.04507 6.39825C6.18148 6.30101 6.30062 6.18161 6.39757 6.045C6.49507 5.9085 6.56558 5.73975 6.79133 5.154L8.30032 1.23075C8.35473 1.0893 8.45072 0.967652 8.57563 0.881833C8.70054 0.796014 8.84852 0.750051 9.00008 0.75ZM9.00008 3.5895L8.19082 5.6925L8.16158 5.769C7.97933 6.2445 7.84133 6.6045 7.62083 6.91425C7.42583 7.18725 7.18733 7.4265 6.91432 7.62075C6.60457 7.84125 6.24457 7.97925 5.76907 8.1615L5.69257 8.1915L3.58958 9L5.69257 9.80925L5.76907 9.8385C6.24457 10.0208 6.60457 10.1588 6.91432 10.3793C7.18733 10.5743 7.42658 10.8128 7.62083 11.0858C7.84133 11.3955 7.97933 11.7555 8.16158 12.231L8.19158 12.3075L9.00008 14.4105L9.80933 12.3075L9.83858 12.231C10.0208 11.7555 10.1588 11.3955 10.3793 11.0858C10.5737 10.8124 10.8125 10.5736 11.0858 10.3793C11.3956 10.1588 11.7556 10.0208 12.2311 9.8385L12.3076 9.8085L14.4106 9L12.3076 8.19075L12.2311 8.1615C11.7556 7.97925 11.3956 7.84125 11.0858 7.62075C10.8125 7.42641 10.5737 7.1876 10.3793 6.91425C10.1588 6.6045 10.0208 6.2445 9.83858 5.769L9.80858 5.6925L9.00008 3.5895Z" fill="white"/>
</g>
<defs>
<clipPath id="clip0_2268_156">
<rect width="18" height="18" fill="white"/>
</clipPath>
</defs>
</svg>
