<svg width="14" height="14" viewBox="0 0 14 14" fill="none" xmlns="http://www.w3.org/2000/svg">
<g clip-path="url(#clip0_5933_36373)">
<path fill-rule="evenodd" clip-rule="evenodd" d="M10.2414 5.80935C9.67498 6.37575 8.75666 6.37575 8.19026 5.80935C7.62386 5.24295 7.62386 4.32464 8.19026 3.75824C8.75666 3.19184 9.67498 3.19184 10.2414 3.75824C10.8078 4.32464 10.8078 5.24295 10.2414 5.80935ZM7.928 7.06279C8.92602 7.62749 10.216 7.48467 11.0663 6.63431C12.0883 5.6123 12.0883 3.95529 11.0663 2.93328C10.0443 1.91127 8.38732 1.91127 7.3653 2.93328C6.51451 3.78408 6.37198 5.07493 6.93771 6.07317L2.43842 10.5725C2.16505 10.8458 2.16505 11.289 2.43842 11.5624C2.71179 11.8358 3.155 11.8358 3.42837 11.5624L4.27301 10.7178L5.27181 11.7166L6.26176 10.7266L5.26296 9.72782L6.10161 8.88918L7.10042 9.88799L8.09037 8.89804L7.09156 7.89923L7.928 7.06279Z" fill="#838B9C"/>
</g>
<defs>
<clipPath id="clip0_5933_36373">
<rect width="14" height="14" fill="white"/>
</clipPath>
</defs>
</svg>
