<svg width="28" height="28" viewBox="0 0 28 28" fill="none" xmlns="http://www.w3.org/2000/svg">
<path fill-rule="evenodd" clip-rule="evenodd" d="M18.853 2.82519C19.7479 2.54981 20.6907 3.08172 20.9179 3.99016L21.7287 7.2334H22.6333C23.5353 7.2334 24.2666 7.96467 24.2666 8.86674V15.1667C24.2666 15.6822 23.8487 16.1001 23.3333 16.1001C22.8178 16.1001 22.3999 15.6822 22.3999 15.1667V9.10007H21.0195C21.0059 9.10036 20.9925 9.10036 20.979 9.10007H5.59994V22.4001H12.8333C13.3487 22.4001 13.7666 22.8179 13.7666 23.3334C13.7666 23.8489 13.3487 24.2667 12.8333 24.2667H5.36661C4.46454 24.2667 3.73328 23.5355 3.73328 22.6334V8.16674C3.73328 7.757 4.00051 7.39517 4.39213 7.27468L18.853 2.82519ZM10.8736 7.2334H19.8046L19.1666 4.68171L10.8736 7.2334ZM11.0833 14.64C10.4703 14.64 9.97329 15.137 9.97329 15.7501C9.97329 16.3631 10.4703 16.8601 11.0833 16.8601C11.6964 16.8601 12.1934 16.3631 12.1934 15.7501C12.1934 15.137 11.6964 14.64 11.0833 14.64ZM13.9108 14.8167C13.5192 13.6299 12.4013 12.7734 11.0833 12.7734C9.43934 12.7734 8.10662 14.1061 8.10662 15.7501C8.10662 17.3941 9.43934 18.7268 11.0833 18.7268C12.4013 18.7268 13.5192 17.8702 13.9108 16.6834H15.4017V17.5001C15.4017 17.8966 15.6489 18.2353 15.9976 18.3706C16.3876 18.0166 16.8132 17.7011 17.2684 17.4303V16.6834H18.9455C19.1107 16.6322 19.2783 16.5862 19.448 16.5458C19.7152 16.3816 19.8934 16.0867 19.8934 15.7501C19.8934 15.2346 19.4755 14.8167 18.96 14.8167L13.9108 14.8167Z" fill="#777F91"/>
<path fill-rule="evenodd" clip-rule="evenodd" d="M17.2766 22.1667C17.9808 23.6879 19.5064 24.7334 21.2665 24.7334C23.0267 24.7334 24.5523 23.6879 25.2565 22.1667C24.5523 20.6456 23.0267 19.6001 21.2665 19.6001C19.5064 19.6001 17.9808 20.6456 17.2766 22.1667ZM15.5038 21.5599C16.4606 19.3148 18.6766 17.7334 21.2665 17.7334C23.8564 17.7334 26.0725 19.3148 27.0293 21.5599C27.1945 21.9476 27.1945 22.3859 27.0293 22.7736C26.0725 25.0187 23.8564 26.6001 21.2665 26.6001C18.6766 26.6001 16.4606 25.0187 15.5038 22.7736C15.3386 22.3859 15.3386 21.9476 15.5038 21.5599Z" fill="#777F91"/>
<path d="M22.7665 22.1667C22.7665 22.9952 22.095 23.6667 21.2665 23.6667C20.4381 23.6667 19.7665 22.9952 19.7665 22.1667C19.7665 21.3383 20.4381 20.6667 21.2665 20.6667C22.095 20.6667 22.7665 21.3383 22.7665 22.1667Z" fill="#777F91"/>
</svg>
