<svg width="28" height="28" viewBox="0 0 28 28" fill="none" xmlns="http://www.w3.org/2000/svg">
<path fill-rule="evenodd" clip-rule="evenodd" d="M11.0834 14.64C10.4703 14.64 9.97336 15.137 9.97336 15.7501C9.97336 16.3631 10.4703 16.8601 11.0834 16.8601C11.6965 16.8601 12.1934 16.3631 12.1934 15.7501C12.1934 15.137 11.6965 14.64 11.0834 14.64ZM8.10669 15.7501C8.10669 14.1061 9.43941 12.7734 11.0834 12.7734C12.7274 12.7734 14.0601 14.1061 14.0601 15.7501C14.0601 17.3941 12.7274 18.7268 11.0834 18.7268C9.43941 18.7268 8.10669 17.3941 8.10669 15.7501Z" fill="#777F91"/>
<path fill-rule="evenodd" clip-rule="evenodd" d="M16.3351 14.8167C16.8506 14.8167 17.2684 15.2346 17.2684 15.7501V17.5001C17.2684 18.0155 16.8506 18.4334 16.3351 18.4334C15.8196 18.4334 15.4018 18.0155 15.4018 17.5001V15.7501C15.4018 15.2346 15.8196 14.8167 16.3351 14.8167Z" fill="#777F91"/>
<path fill-rule="evenodd" clip-rule="evenodd" d="M12.1934 15.7501C12.1934 15.2346 12.6113 14.8167 13.1268 14.8167H18.9601C19.4756 14.8167 19.8934 15.2346 19.8934 15.7501C19.8934 16.2655 19.4756 16.6834 18.9601 16.6834L13.1268 16.6834C12.6113 16.6834 12.1934 16.2655 12.1934 15.7501Z" fill="#777F91"/>
<path fill-rule="evenodd" clip-rule="evenodd" d="M18.8531 2.82519C19.7481 2.54981 20.6909 3.08172 20.918 3.99016L21.7288 7.2334H22.6334C23.5355 7.2334 24.2667 7.96467 24.2667 8.86674V22.6334C24.2667 23.5355 23.5355 24.2667 22.6334 24.2667H5.36673C4.46467 24.2667 3.7334 23.5355 3.7334 22.6334V8.16674C3.7334 7.757 4.00063 7.39517 4.39225 7.27468L18.8531 2.82519ZM20.9791 9.10007C20.9926 9.10036 21.0061 9.10036 21.0196 9.10007H22.4001V22.4001H5.60007V9.10007H20.9791ZM19.8047 7.2334L19.1667 4.68171L10.8737 7.2334H19.8047Z" fill="#777F91"/>
</svg>
