<svg width="28" height="28" viewBox="0 0 28 28" fill="none" xmlns="http://www.w3.org/2000/svg">
<path d="M4.31665 4.78324C4.31665 3.88117 5.04792 3.1499 5.94998 3.1499H20.8833C21.7854 3.1499 22.5167 3.88117 22.5167 4.78324V12.2499C22.5167 12.7654 22.0988 13.1832 21.5833 13.1832C21.0679 13.1832 20.65 12.7654 20.65 12.2499V5.01657H6.18332V21.8166H13.4167C13.9321 21.8166 14.35 22.2344 14.35 22.7499C14.35 23.2654 13.9321 23.6832 13.4167 23.6832H5.94998C5.04792 23.6832 4.31665 22.952 4.31665 22.0499V4.78324Z" fill="#777F91"/>
<path d="M21.4611 18.6123C21.6889 18.3845 21.6889 18.0151 21.4611 17.7873C21.2333 17.5595 20.864 17.5595 20.6362 17.7873L18.9481 19.4754L18.1005 18.6278C17.8727 18.4 17.5034 18.4 17.2755 18.6278C17.0477 18.8556 17.0477 19.225 17.2755 19.4528L18.5356 20.7128C18.7634 20.9406 19.1327 20.9406 19.3606 20.7128L21.4611 18.6123Z" fill="#777F91"/>
<path fill-rule="evenodd" clip-rule="evenodd" d="M19.0699 13.6989C19.2635 13.6336 19.4732 13.6336 19.6668 13.6989L23.815 15.0989C24.1944 15.227 24.4498 15.5828 24.4498 15.9832V17.8759C24.4498 20.8416 22.5902 23.4902 19.7514 24.7677C19.5078 24.8773 19.2289 24.8773 18.9853 24.7677C16.1465 23.4902 14.2869 20.8416 14.2869 17.8759V15.9832C14.2869 15.5828 14.5423 15.227 14.9217 15.0989L19.0699 13.6989ZM16.1535 16.6533V17.8759C16.1535 19.9013 17.3528 21.8183 19.3683 22.8788C21.3839 21.8183 22.5832 19.9013 22.5832 17.8759V16.6533L19.3683 15.5683L16.1535 16.6533Z" fill="#777F91"/>
<path d="M8.98332 8.7499C8.98332 8.23444 9.40118 7.81657 9.91665 7.81657H16.9166C17.4321 7.81657 17.85 8.23444 17.85 8.7499C17.85 9.26537 17.4321 9.68324 16.9166 9.68324H9.91665C9.40118 9.68324 8.98332 9.26537 8.98332 8.7499Z" fill="#777F91"/>
<path d="M9.91665 12.4832C9.40118 12.4832 8.98332 12.9011 8.98332 13.4166C8.98332 13.932 9.40118 14.3499 9.91665 14.3499H13.4166C13.9321 14.3499 14.35 13.932 14.35 13.4166C14.35 12.9011 13.9321 12.4832 13.4167 12.4832H9.91665Z" fill="#777F91"/>
</svg>
