<svg width="22" height="22" viewBox="0 0 22 22" fill="none" xmlns="http://www.w3.org/2000/svg">
<path fill-rule="evenodd" clip-rule="evenodd" d="M3.66669 8.47284L5.70283 7.13641L5.80206 7.26907H7.82232C7.67725 7.42597 7.68093 7.67083 7.83337 7.82326L8.72903 8.71893H5.50718V8.47284H3.66669ZM16.7292 8.71893H10.839L11.7347 7.82326C11.8871 7.67083 11.8908 7.42597 11.7457 7.26907H16.3292C16.5501 7.26907 16.7292 7.44815 16.7292 7.66907V8.71893Z" fill="url(#paint0_linear_9129_15211)"/>
<path fill-rule="evenodd" clip-rule="evenodd" d="M9.78403 12.1398C12.3243 12.1398 14.3834 10.0807 14.3834 7.54042C14.3834 7.42013 14.3763 7.29276 14.3692 7.17247C14.1923 4.92941 12.395 3.13214 10.152 2.95524C10.0317 2.94816 9.90432 2.94109 9.78403 2.94109C7.24378 2.94109 5.18469 5.00017 5.18469 7.54042C5.18469 10.0807 7.24378 12.1398 9.78403 12.1398ZM10.0665 5.74971C9.91033 5.5935 9.65707 5.5935 9.50086 5.74971L7.99288 7.25769C7.83667 7.4139 7.83667 7.66717 7.99288 7.82338L9.50086 9.33136C9.65707 9.48757 9.91033 9.48757 10.0665 9.33136L11.5745 7.82338C11.7307 7.66717 11.7307 7.4139 11.5745 7.25769L10.0665 5.74971Z" fill="#F7F7F8"/>
<path d="M3.66669 8.47289H17.9334C18.1543 8.47289 18.3334 8.65197 18.3334 8.87289V18.6146C18.3334 18.8355 18.1543 19.0146 17.9334 19.0146H4.06669C3.84577 19.0146 3.66669 18.8355 3.66669 18.6146V8.47289Z" fill="url(#paint1_linear_9129_15211)"/>
<rect x="14.5292" y="12.7354" width="2.01667" height="2.01667" rx="0.2" fill="url(#paint2_linear_9129_15211)"/>
<path fill-rule="evenodd" clip-rule="evenodd" d="M16.4243 1.76857C16.3138 1.76857 16.2243 1.85811 16.2243 1.96857V4.01143H15.0767C14.9021 4.01143 14.8113 4.21946 14.9301 4.34745L16.7569 6.31678C16.8361 6.40216 16.9712 6.40208 17.0503 6.31659L18.8725 4.34726C18.9909 4.2192 18.9001 4.01143 18.7257 4.01143H17.577V1.96857C17.577 1.85811 17.4874 1.76857 17.377 1.76857H16.4243Z" fill="url(#paint3_linear_9129_15211)"/>
<defs>
<linearGradient id="paint0_linear_9129_15211" x1="10.1979" y1="7.13641" x2="10.1979" y2="8.54706" gradientUnits="userSpaceOnUse">
<stop stop-color="#929CB3"/>
<stop offset="1" stop-color="#707889"/>
</linearGradient>
<linearGradient id="paint1_linear_9129_15211" x1="11" y1="8.47289" x2="11" y2="18.6045" gradientUnits="userSpaceOnUse">
<stop stop-color="#929CB3"/>
<stop offset="1" stop-color="#707889"/>
</linearGradient>
<linearGradient id="paint2_linear_9129_15211" x1="15.5376" y1="12.7354" x2="15.5376" y2="14.7521" gradientUnits="userSpaceOnUse">
<stop stop-color="#F7F7F8"/>
<stop offset="1" stop-color="#E9E9EE"/>
</linearGradient>
<linearGradient id="paint3_linear_9129_15211" x1="16.9012" y1="1.76857" x2="16.9012" y2="6.20135" gradientUnits="userSpaceOnUse">
<stop stop-color="#929CB3"/>
<stop offset="1" stop-color="#707889"/>
</linearGradient>
</defs>
</svg>
