<svg width="18" height="18" viewBox="0 0 18 18" fill="none" xmlns="http://www.w3.org/2000/svg">
<path d="M16.2016 9.11677C16.2016 8.69596 16.0344 8.29234 15.7368 7.99473C15.4392 7.69717 15.0356 7.53 14.6148 7.53C14.4129 7.52774 14.2126 7.56575 14.0256 7.64175C13.8386 7.71781 13.6687 7.83037 13.5257 7.97286C12.4509 7.19966 10.9565 6.69475 9.312 6.6313L10.0332 3.25283L12.3745 3.74621C12.3844 3.96662 12.4588 4.17924 12.5884 4.35777C12.7181 4.5363 12.8973 4.67278 13.1038 4.75036C13.3104 4.82795 13.5351 4.84318 13.7502 4.7942C13.9654 4.74517 14.1614 4.6341 14.3139 4.47472C14.4665 4.31534 14.5688 4.11463 14.6084 3.89759C14.6479 3.68054 14.6229 3.45664 14.5363 3.25368C14.4497 3.05077 14.3055 2.87773 14.1215 2.75601C13.9375 2.6343 13.7218 2.56931 13.5011 2.5691C13.2922 2.5685 13.0876 2.62787 12.9114 2.74014C12.7352 2.85236 12.595 3.01281 12.5072 3.20236L9.88755 2.65132C9.81371 2.63774 9.73749 2.65106 9.67264 2.68881C9.61012 2.73052 9.56496 2.79363 9.54568 2.86624L8.74793 6.63705C7.06596 6.68756 5.55991 7.18089 4.47081 7.9786C4.30467 7.81888 4.10558 7.69746 3.88755 7.62294C3.66949 7.54838 3.43776 7.52246 3.20858 7.54706C2.97945 7.57166 2.75849 7.64614 2.56123 7.76526C2.36394 7.88438 2.19515 8.04525 2.06671 8.23659C1.93827 8.42793 1.85328 8.64506 1.8177 8.87275C1.78217 9.10043 1.79693 9.33318 1.86094 9.55457C1.92495 9.77591 2.03666 9.98062 2.18826 10.1542C2.3398 10.3278 2.52757 10.4661 2.73832 10.5593C2.71193 10.7181 2.69891 10.8788 2.69933 11.0397C2.69933 13.4704 5.52097 15.4308 9.01482 15.4308C12.5087 15.4308 15.336 13.4704 15.336 11.0397C15.3365 10.8831 15.3235 10.7267 15.2971 10.5723C15.5675 10.4368 15.7951 10.2291 15.9547 9.97219C16.1144 9.71531 16.1998 9.41923 16.2016 9.11677ZM5.38249 10.2434C5.38219 10.0205 5.44803 9.80255 5.57166 9.61708C5.69529 9.43166 5.87114 9.287 6.07695 9.20151C6.2828 9.11601 6.50938 9.09349 6.728 9.13682C6.94667 9.18014 7.14754 9.2873 7.30526 9.44481C7.46294 9.60232 7.5704 9.80306 7.61398 10.0216C7.65756 10.2402 7.63534 10.4668 7.55014 10.6728C7.4649 10.8787 7.3205 11.0548 7.1352 11.1786C6.94986 11.3025 6.732 11.3686 6.50913 11.3686C6.2108 11.3678 5.92489 11.2491 5.7138 11.0383C5.50276 10.8275 5.38364 10.5417 5.38249 10.2434ZM11.672 13.2165C10.9002 13.9883 9.43171 14.0387 9.00184 14.0387C8.57196 14.0387 7.09047 13.9753 6.33166 13.2165C6.3043 13.1891 6.28259 13.1566 6.26778 13.1208C6.25297 13.0851 6.24535 13.0467 6.24535 13.0081C6.24535 12.9693 6.25297 12.931 6.26778 12.8952C6.28259 12.8595 6.3043 12.827 6.33166 12.7996C6.35907 12.7723 6.39154 12.7505 6.42733 12.7357C6.46308 12.7209 6.50142 12.7133 6.54011 12.7133C6.57884 12.7133 6.61718 12.7209 6.65293 12.7357C6.68872 12.7505 6.72119 12.7723 6.74856 12.7996C7.2304 13.28 8.26758 13.4574 9.01482 13.4574C9.76205 13.4574 10.7863 13.28 11.2796 12.7996C11.3352 12.7449 11.4101 12.7142 11.4881 12.7142C11.566 12.7142 11.6409 12.7449 11.6965 12.7996C11.7424 12.8608 11.7651 12.9362 11.7607 13.0125C11.7561 13.0889 11.7247 13.1611 11.672 13.2165ZM11.4686 11.3686C11.2457 11.3686 11.0278 11.3025 10.8425 11.1786C10.6572 11.0548 10.5128 10.8787 10.4276 10.6728C10.3423 10.4668 10.3201 10.2402 10.3637 10.0216C10.4073 9.80306 10.5147 9.60232 10.6725 9.44481C10.8302 9.2873 11.031 9.18014 11.2497 9.13682C11.4683 9.09349 11.6949 9.11601 11.9007 9.20151C12.1066 9.287 12.2824 9.43166 12.4061 9.61708C12.5297 9.80255 12.5955 10.0205 12.5952 10.2434C12.5948 10.542 12.476 10.8282 12.2647 11.0391C12.0535 11.2501 11.7671 11.3686 11.4686 11.3686Z" fill="#777F91"/>
</svg>
