<svg width="20" height="20" viewBox="0 0 20 20" fill="none" xmlns="http://www.w3.org/2000/svg">
<g clip-path="url(#clip0_591_18407)">
<path d="M9.99707 0.128906C11.2929 0.12892 12.5762 0.383995 13.7734 0.879883C14.9708 1.37584 16.0592 2.10313 16.9756 3.01953C17.8918 3.93578 18.6184 5.02363 19.1143 6.2207C19.6102 7.41804 19.8652 8.70207 19.8652 9.99805C19.8652 11.2939 19.6102 12.5772 19.1143 13.7744C18.6184 14.9715 17.8918 16.0593 16.9756 16.9756C16.0592 17.892 14.9708 18.6193 13.7734 19.1152C12.5762 19.6111 11.293 19.8662 9.99707 19.8662C8.7012 19.8662 7.41795 19.6111 6.2207 19.1152C5.02338 18.6193 3.93495 17.892 3.01855 16.9756C2.10235 16.0593 1.37577 14.9715 0.879883 13.7744C0.38399 12.5772 0.127966 11.2939 0.12793 9.99805C0.127917 8.70207 0.383942 7.41804 0.879883 6.2207C1.37579 5.02361 2.10235 3.93579 3.01855 3.01953C3.93495 2.10313 5.02338 1.37584 6.2207 0.879883C7.41792 0.384032 8.70123 0.128906 9.99707 0.128906ZM5.75977 9.12012C5.27515 9.12032 4.88204 9.51343 4.88184 9.99805C4.88184 10.4828 5.27502 10.8767 5.75977 10.877H14.2334C14.7187 10.8768 15.1123 10.4829 15.1123 9.99805C15.1121 9.5133 14.7182 9.12012 14.2334 9.12012H5.75977Z" fill="#E04646"/>
</g>
<defs>
<clipPath id="clip0_591_18407">
<rect width="20" height="20" fill="white"/>
</clipPath>
</defs>
</svg>
