<svg width="16" height="16" viewBox="0 0 16 16" fill="none" xmlns="http://www.w3.org/2000/svg">
<path d="M5.52869 3.5282C5.65371 3.40322 5.82324 3.33301 6.00002 3.33301C6.1768 3.33301 6.34634 3.40322 6.47135 3.5282L10.4714 7.5282C10.5963 7.65322 10.6665 7.82276 10.6665 7.99953C10.6665 8.17631 10.5963 8.34585 10.4714 8.47087L6.47135 12.4709C6.34562 12.5923 6.17722 12.6595 6.00242 12.658C5.82762 12.6565 5.66041 12.5863 5.53681 12.4627C5.4132 12.3391 5.34309 12.1719 5.34157 11.9971C5.34005 11.8223 5.40725 11.6539 5.52869 11.5282L9.05735 7.99953L5.52869 4.47087C5.40371 4.34585 5.3335 4.17631 5.3335 3.99953C5.3335 3.82276 5.40371 3.65322 5.52869 3.5282Z" fill="white"/>
</svg>
