<svg width="16" height="16" viewBox="0 0 16 16" fill="none" xmlns="http://www.w3.org/2000/svg">
<path d="M5.52869 3.52918C5.65371 3.40419 5.82324 3.33398 6.00002 3.33398C6.1768 3.33398 6.34634 3.40419 6.47135 3.52918L10.4714 7.52917C10.5963 7.65419 10.6665 7.82373 10.6665 8.00051C10.6665 8.17728 10.5963 8.34682 10.4714 8.47184L6.47135 12.4718C6.34562 12.5933 6.17722 12.6605 6.00242 12.659C5.82762 12.6574 5.66041 12.5873 5.53681 12.4637C5.4132 12.3401 5.34309 12.1729 5.34157 11.9981C5.34005 11.8233 5.40725 11.6549 5.52869 11.5292L9.05735 8.00051L5.52869 4.47184C5.40371 4.34682 5.3335 4.17728 5.3335 4.00051C5.3335 3.82373 5.40371 3.65419 5.52869 3.52918Z" fill="white"/>
</svg>
