<svg width="18" height="18" viewBox="0 0 18 18" fill="none" xmlns="http://www.w3.org/2000/svg">
<path fill-rule="evenodd" clip-rule="evenodd" d="M3.75 7.875C3.75 5.59683 5.59683 3.75 7.875 3.75C10.1532 3.75 12 5.59683 12 7.875C12 10.1532 10.1532 12 7.875 12C5.59683 12 3.75 10.1532 3.75 7.875ZM7.875 2.25C4.7684 2.25 2.25 4.7684 2.25 7.875C2.25 10.9816 4.7684 13.5 7.875 13.5C9.1579 13.5 10.3405 13.0705 11.2868 12.3475L14.4697 15.5303C14.7626 15.8232 15.2374 15.8232 15.5303 15.5303C15.8232 15.2374 15.8232 14.7626 15.5303 14.4697L12.3475 11.2868C13.0705 10.3405 13.5 9.1579 13.5 7.875C13.5 4.7684 10.9816 2.25 7.875 2.25Z" fill="#777F91"/>
</svg>
