<svg width="22" height="22" viewBox="0 0 22 22" fill="none" xmlns="http://www.w3.org/2000/svg">
<path d="M6.875 17.1875C6.875 18.3266 5.95159 19.25 4.8125 19.25L2.86871 19.25C2.80315 19.25 2.75 19.1969 2.75 19.1313L2.75 17.1875C2.75 16.0484 3.67341 15.125 4.8125 15.125C5.95159 15.125 6.875 16.0484 6.875 17.1875Z" fill="url(#paint0_linear_9129_15195)"/>
<path fill-rule="evenodd" clip-rule="evenodd" d="M9.36855 8.94084C9.27541 8.5932 8.8993 8.40522 8.56534 8.53937L2.5667 10.9491C2.22061 11.0882 2.23633 11.5834 2.59053 11.7002L6.76116 13.0755C6.87382 13.1127 6.99716 13.0979 7.09787 13.0352L10.433 10.9584C10.7885 10.737 10.5507 10.1889 10.1461 10.2973C9.93275 10.3545 9.71341 10.2279 9.65624 10.0145L9.36855 8.94084ZM12.9647 6.77206C12.683 6.88521 12.5303 7.1909 12.6088 7.4841L13.0436 9.10683C13.064 9.18295 13.1682 9.25523 13.2351 9.21358L13.9148 8.7903C14.327 8.53368 14.7544 9.09496 14.3974 9.42398L9.26693 14.1524C9.19133 14.222 9.14547 14.3181 9.13885 14.4207L8.91148 17.9449C8.89367 18.221 9.22734 18.372 9.42299 18.1764L11.256 16.3434C11.3978 16.2015 11.6228 16.1867 11.7821 16.3087L15.9366 19.4914C16.1711 19.6711 16.5129 19.5431 16.5718 19.2536L19.5096 4.8111C19.5731 4.49898 19.2641 4.24147 18.9685 4.3602L12.9647 6.77206Z" fill="url(#paint1_linear_9129_15195)"/>
<path fill-rule="evenodd" clip-rule="evenodd" d="M9.83407 13.6297C9.29115 13.5118 8.757 13.309 8.25005 13.0164C5.61934 11.4975 4.71807 8.13393 6.23691 5.50321C7.75576 2.87249 11.1193 1.97123 13.7501 3.49007C13.8746 3.562 14.0023 3.64548 14.1226 3.72473C15.439 4.62976 16.2511 6.03236 16.4514 7.53097L9.83407 13.6297ZM11.8533 6.20925C12.0667 6.15208 12.286 6.27871 12.3432 6.4921L13.0438 9.10674C13.101 9.32013 12.9743 9.53947 12.7609 9.59664L10.1463 10.2972C9.93291 10.3544 9.71358 10.2278 9.6564 10.0144L8.95581 7.39974C8.89863 7.18636 9.02526 6.96702 9.23865 6.90985L11.8533 6.20925Z" fill="url(#paint2_linear_9129_15195)"/>
<defs>
<linearGradient id="paint0_linear_9129_15195" x1="2.91147" y1="19.25" x2="7.96888" y2="13.9421" gradientUnits="userSpaceOnUse">
<stop stop-color="#929CB3"/>
<stop offset="1" stop-color="#707889"/>
</linearGradient>
<linearGradient id="paint1_linear_9129_15195" x1="10.9169" y1="4.33069" x2="10.9169" y2="18.9812" gradientUnits="userSpaceOnUse">
<stop stop-color="#929CB3"/>
<stop offset="1" stop-color="#707889"/>
</linearGradient>
<linearGradient id="paint2_linear_9129_15195" x1="13.8003" y1="3.80904" x2="7.1201" y2="12.5005" gradientUnits="userSpaceOnUse">
<stop stop-color="#F7F7F8"/>
<stop offset="1" stop-color="#E9E9EE"/>
</linearGradient>
</defs>
</svg>
