<svg width="28" height="28" viewBox="0 0 28 28" fill="none" xmlns="http://www.w3.org/2000/svg">
<path d="M4.31665 4.78324C4.31665 3.88117 5.04792 3.1499 5.94998 3.1499H20.8833C21.7854 3.1499 22.5167 3.88117 22.5167 4.78324V12.2499C22.5167 12.7654 22.0988 13.1832 21.5833 13.1832C21.0679 13.1832 20.65 12.7654 20.65 12.2499V5.01657H6.18332V21.8166H12.25C12.7654 21.8166 13.1833 22.2344 13.1833 22.7499C13.1833 23.2654 12.7654 23.6832 12.25 23.6832H5.94998C5.04792 23.6832 4.31665 22.952 4.31665 22.0499V4.78324Z" fill="#777F91"/>
<path d="M8.98332 8.7499C8.98332 8.23444 9.40118 7.81657 9.91665 7.81657H16.9166C17.4321 7.81657 17.85 8.23444 17.85 8.7499C17.85 9.26537 17.4321 9.68324 16.9166 9.68324H9.91665C9.40118 9.68324 8.98332 9.26537 8.98332 8.7499Z" fill="#777F91"/>
<path d="M9.91665 12.4832C9.40118 12.4832 8.98332 12.9011 8.98332 13.4166C8.98332 13.932 9.40118 14.3499 9.91665 14.3499H13.4166C13.9321 14.3499 14.35 13.932 14.35 13.4166C14.35 12.9011 13.9321 12.4832 13.4167 12.4832H9.91665Z" fill="#777F91"/>
<path d="M20.0684 17.2082C20.0684 17.5948 19.755 17.9082 19.3684 17.9082C18.9818 17.9082 18.6684 17.5948 18.6684 17.2082C18.6684 16.8216 18.9818 16.5082 19.3684 16.5082C19.755 16.5082 20.0684 16.8216 20.0684 17.2082Z" fill="#777F91"/>
<path d="M19.3685 18.4915C19.6907 18.4915 19.9519 18.7527 19.9519 19.0749V21.4082C19.9519 21.7304 19.6907 21.9915 19.3685 21.9915C19.0464 21.9915 18.7852 21.7304 18.7852 21.4082V19.0749C18.7852 18.7527 19.0464 18.4915 19.3685 18.4915Z" fill="#777F91"/>
<path fill-rule="evenodd" clip-rule="evenodd" d="M13.7685 19.2499C13.7685 16.1571 16.2757 13.6499 19.3685 13.6499C22.4613 13.6499 24.9685 16.1571 24.9685 19.2499C24.9685 22.3427 22.4613 24.8499 19.3685 24.8499C16.2757 24.8499 13.7685 22.3427 13.7685 19.2499ZM19.3685 15.5166C17.3066 15.5166 15.6351 17.188 15.6351 19.2499C15.6351 21.3118 17.3066 22.9832 19.3685 22.9832C21.4303 22.9832 23.1018 21.3118 23.1018 19.2499C23.1018 17.188 21.4303 15.5166 19.3685 15.5166Z" fill="#777F91"/>
</svg>
