<svg width="20" height="20" viewBox="0 0 20 20" fill="none" xmlns="http://www.w3.org/2000/svg">
<path d="M6.66675 9.99935C6.66675 9.11529 7.01794 8.26745 7.64306 7.64233C8.26818 7.0172 9.11603 6.66602 10.0001 6.66602C10.8841 6.66602 11.732 7.0172 12.3571 7.64233C12.9822 8.26745 13.3334 9.11529 13.3334 9.99935C13.3334 10.8834 12.9822 11.7313 12.3571 12.3564C11.732 12.9815 10.8841 13.3327 10.0001 13.3327C9.11603 13.3327 8.26818 12.9815 7.64306 12.3564C7.01794 11.7313 6.66675 10.8834 6.66675 9.99935ZM10.0001 8.33268C9.55805 8.33268 9.13413 8.50828 8.82157 8.82084C8.50901 9.1334 8.33341 9.55732 8.33341 9.99935C8.33341 10.4414 8.50901 10.8653 8.82157 11.1779C9.13413 11.4904 9.55805 11.666 10.0001 11.666C10.4421 11.666 10.866 11.4904 11.1786 11.1779C11.4912 10.8653 11.6667 10.4414 11.6667 9.99935C11.6667 9.55732 11.4912 9.1334 11.1786 8.82084C10.866 8.50828 10.4421 8.33268 10.0001 8.33268Z" fill="white"/>
<path d="M7.24833 3.53633C7.9025 0.594661 12.0975 0.594661 12.7517 3.53633C12.7862 3.69217 12.8528 3.83913 12.9472 3.96786C13.0416 4.0966 13.1617 4.20431 13.2999 4.28416C13.4382 4.36401 13.5915 4.41425 13.7502 4.4317C13.9088 4.44914 14.0694 4.43341 14.2217 4.38549C17.0967 3.48049 19.1942 7.11299 16.9733 9.15133C16.8557 9.25921 16.7618 9.39037 16.6975 9.53648C16.6333 9.68259 16.6001 9.84047 16.6001 10.0001C16.6001 10.1597 16.6333 10.3176 16.6975 10.4637C16.7618 10.6098 16.8557 10.7409 16.9733 10.8488C19.1942 12.8863 17.0967 16.5188 14.2217 15.6138C14.0694 15.5659 13.9088 15.5502 13.7502 15.5676C13.5915 15.5851 13.4382 15.6353 13.2999 15.7152C13.1617 15.795 13.0416 15.9027 12.9472 16.0315C12.8528 16.1602 12.7862 16.3072 12.7517 16.463C12.0975 19.4047 7.9025 19.4047 7.24833 16.463C7.21376 16.3072 7.14718 16.1602 7.05279 16.0315C6.95841 15.9027 6.83829 15.795 6.70007 15.7152C6.56184 15.6353 6.40852 15.5851 6.24985 15.5676C6.09117 15.5502 5.93061 15.5659 5.77833 15.6138C2.90333 16.5188 0.805834 12.8863 3.02667 10.8488C3.1443 10.7409 3.23822 10.6098 3.30247 10.4637C3.36672 10.3176 3.3999 10.1597 3.3999 10.0001C3.3999 9.84047 3.36672 9.68259 3.30247 9.53648C3.23822 9.39037 3.1443 9.25921 3.02667 9.15133C0.805834 7.11299 2.90333 3.48049 5.77833 4.38466C5.93055 4.43258 6.09106 4.44835 6.24969 4.43095C6.40832 4.41356 6.5616 4.36339 6.69981 4.28363C6.83803 4.20387 6.95816 4.09625 7.05258 3.9676C7.14701 3.83896 7.21367 3.6921 7.24833 3.53633ZM11.1242 3.89799C10.8575 2.69549 9.1425 2.69549 8.87583 3.89799C8.79117 4.27934 8.62817 4.63892 8.39715 4.95391C8.16614 5.26891 7.87217 5.53244 7.5339 5.72779C7.19563 5.92314 6.82044 6.04603 6.43215 6.08867C6.04386 6.13131 5.65094 6.09277 5.27833 5.97549C4.10333 5.60549 3.24583 7.08966 4.15333 7.92299C4.44108 8.187 4.67082 8.50793 4.82798 8.86542C4.98514 9.22291 5.06629 9.60915 5.06629 9.99966C5.06629 10.3902 4.98514 10.7764 4.82798 11.1339C4.67082 11.4914 4.44108 11.8123 4.15333 12.0763C3.24583 12.9097 4.10333 14.3938 5.27833 14.0238C5.65094 13.9066 6.04386 13.868 6.43215 13.9107C6.82044 13.9533 7.19563 14.0762 7.5339 14.2715C7.87217 14.4669 8.16614 14.7304 8.39715 15.0454C8.62817 15.3604 8.79117 15.72 8.87583 16.1013C9.1425 17.3038 10.8567 17.3038 11.1242 16.1013C11.2089 15.7201 11.372 15.3606 11.6031 15.0457C11.8341 14.7308 12.1281 14.4673 12.4664 14.2721C12.8046 14.0768 13.1798 13.954 13.568 13.9114C13.9563 13.8688 14.3491 13.9074 14.7217 14.0247C15.8967 14.3938 16.7542 12.9097 15.8467 12.0763C15.5589 11.8123 15.3292 11.4914 15.172 11.1339C15.0149 10.7764 14.9337 10.3902 14.9337 9.99966C14.9337 9.60915 15.0149 9.22291 15.172 8.86542C15.3292 8.50793 15.5589 8.187 15.8467 7.92299C16.7542 7.08966 15.8967 5.60549 14.7217 5.97549C14.3491 6.09277 13.9561 6.13131 13.5679 6.08867C13.1796 6.04603 12.8044 5.92314 12.4661 5.72779C12.1278 5.53244 11.8339 5.26891 11.6028 4.95391C11.3718 4.63892 11.2088 4.27934 11.1242 3.89799Z" fill="white"/>
</svg>
