<svg width="16" height="16" viewBox="0 0 16 16" fill="none" xmlns="http://www.w3.org/2000/svg">
<path fill-rule="evenodd" clip-rule="evenodd" d="M7.19068 1.46667C6.80904 1.46667 6.46584 1.69903 6.32411 2.05338L5.90845 3.0925C5.51059 3.26226 5.13776 3.47885 4.79685 3.73526L3.68788 3.57548C3.31013 3.52105 2.93731 3.70209 2.74649 4.03261L1.9373 5.43416C1.74648 5.76467 1.77611 6.17807 2.01211 6.47799L2.7048 7.35828C2.67952 7.56887 2.66654 7.78304 2.66654 8.00001C2.66654 8.21699 2.67952 8.43117 2.70481 8.64177L2.01211 9.52207C1.77611 9.822 1.74648 10.2354 1.9373 10.5659L2.74649 11.9675C2.93731 12.298 3.31013 12.479 3.68788 12.4246L4.79691 12.2648C5.1378 12.5212 5.51061 12.7378 5.90845 12.9075L6.3241 13.9466C6.46584 14.301 6.80904 14.5333 7.19068 14.5333H8.80906C9.1907 14.5333 9.5339 14.301 9.67563 13.9466L10.0913 12.9075C10.4891 12.7378 10.862 12.5212 11.2029 12.2648L12.3119 12.4245C12.6896 12.479 13.0624 12.2979 13.2533 11.9674L14.0624 10.5659C14.2533 10.2353 14.2236 9.82195 13.9876 9.52203L13.2949 8.64173C13.3202 8.43115 13.3332 8.21698 13.3332 8.00001C13.3332 7.78302 13.3202 7.56884 13.2949 7.35825L13.9876 6.47794C14.2236 6.17802 14.2533 5.76463 14.0624 5.43411L13.2533 4.03256C13.0624 3.70205 12.6896 3.52101 12.3119 3.57543L11.2028 3.73522C10.8619 3.47883 10.4891 3.26225 10.0913 3.0925L9.67564 2.05338C9.5339 1.69903 9.1907 1.46667 8.80906 1.46667H7.19068ZM5.86683 8.00002C5.86683 6.82181 6.82196 5.86668 8.00016 5.86668C9.17837 5.86668 10.1335 6.82181 10.1335 8.00002C10.1335 9.17822 9.17837 10.1334 8.00016 10.1334C6.82196 10.1334 5.86683 9.17822 5.86683 8.00002Z" fill="#F7F7F8"/>
</svg>
