<svg width="22" height="22" viewBox="0 0 22 22" fill="none" xmlns="http://www.w3.org/2000/svg">
<path d="M18.6956 9.11633C18.6956 11.1308 17.0627 12.7637 15.0482 12.7637C14.9528 12.7637 14.8518 12.7581 14.7564 12.7524C14.6162 10.9737 13.1909 9.54841 11.4121 9.40812C11.4065 9.31273 11.4009 9.21173 11.4009 9.11633C11.4009 7.10188 13.0338 5.46899 15.0482 5.46899C17.0627 5.46899 18.6956 7.10188 18.6956 9.11633Z" fill="#788191"/>
<rect x="4.55347" y="17.4907" width="12.8762" height="1.3" fill="#85888D"/>
<path fill-rule="evenodd" clip-rule="evenodd" d="M10.9915 18.4983C13.9325 18.4983 16.3164 16.1144 16.3164 13.1733C16.3164 13.0341 16.3082 12.8866 16.3 12.7473C16.0952 10.1504 14.0144 8.06958 11.4174 7.86478C11.2782 7.85658 11.1307 7.84839 10.9915 7.84839C8.05044 7.84839 5.6665 10.2323 5.6665 13.1733C5.6665 16.1144 8.05044 18.4983 10.9915 18.4983ZM13.3923 13.1733L10.9915 10.7725L8.59064 13.1733L10.9915 15.5741L13.3923 13.1733Z" fill="white"/>
<rect x="4.55347" y="17.4907" width="12.8762" height="1.5" fill="#788191"/>
<path fill-rule="evenodd" clip-rule="evenodd" d="M6.00003 2.82812C5.51228 4.14264 4.62716 5.01924 3.32703 5.50012C4.64235 5.98559 5.51774 6.87309 6.00003 8.17188V2.82812Z" fill="#788191"/>
<path fill-rule="evenodd" clip-rule="evenodd" d="M5.99997 2.82812C6.48772 4.14264 7.37284 5.01924 8.67297 5.50012C7.35765 5.98559 6.48226 6.87309 5.99997 8.17188V2.82812Z" fill="#788191"/>
</svg>
