<svg width="70" height="70" viewBox="0 0 70 70" fill="none" xmlns="http://www.w3.org/2000/svg">
<g clip-path="url(#clip0_4722_27436)">
<rect x="1.40759" y="44.9082" width="2.5105" height="3.01636" fill="#343A46"/>
<rect x="66.0823" y="44.9082" width="2.5105" height="3.01636" fill="#343A46"/>
<path d="M33.2157 28.1754C34.314 27.5164 35.686 27.5164 36.7843 28.1754L68.0312 46.925C68.7794 47.374 68.7794 48.4584 68.0312 48.9074L36.7843 67.657C35.6861 68.316 34.314 68.316 33.2157 67.657L1.96884 48.9074C1.22058 48.4584 1.22058 47.374 1.96884 46.925L33.2157 28.1754Z" fill="#343A46"/>
<path d="M33.2157 25.1754C34.314 24.5164 35.686 24.5164 36.7843 25.1754L68.0312 43.925C68.7794 44.374 68.7794 45.4584 68.0312 45.9074L36.7843 64.657C35.6861 65.316 34.314 65.316 33.2157 64.657L1.96884 45.9074C1.22058 45.4584 1.22058 44.374 1.96884 43.925L33.2157 25.1754Z" fill="#434852"/>
<path d="M33.4564 27.8388C34.4065 27.2687 35.5935 27.2687 36.5436 27.8388L63.5746 44.0587C64.2219 44.4471 64.2219 45.3853 63.5746 45.7737L36.5436 61.9936C35.5935 62.5637 34.4065 62.5637 33.4564 61.9936L6.4254 45.7737C5.7781 45.3853 5.7781 44.4471 6.4254 44.0587L33.4564 27.8388Z" stroke="#7C4FFC" stroke-width="0.6"/>
<path fill-rule="evenodd" clip-rule="evenodd" d="M54.0005 29.3789C53.59 30.4854 52.8449 31.2233 51.7505 31.6281C52.8577 32.0368 53.5946 32.7838 54.0005 33.8771V29.3789Z" fill="white"/>
<path fill-rule="evenodd" clip-rule="evenodd" d="M54.0003 29.3789C54.4109 30.4854 55.1559 31.2233 56.2504 31.6281C55.1432 32.0368 54.4063 32.7838 54.0003 33.8771V29.3789Z" fill="white"/>
<path d="M53.2999 41.6736C53.2999 41.3826 53.1545 41.0917 52.8636 40.919L36.3909 31.1372C35.5363 30.6281 34.4636 30.6281 33.609 31.1372L17.1363 40.919C16.8454 41.0917 16.709 41.3826 16.7 41.6736V46.2736C16.709 46.5645 16.8545 46.8554 17.1363 47.0281L33.609 56.8099C34.4636 57.319 35.5363 57.319 36.3909 56.8099L52.8636 47.0281C53.1545 46.8554 53.2909 46.5736 53.2999 46.2736V41.6736Z" fill="#343A46"/>
<path opacity="0.16" d="M53.2999 21.6008C53.2999 21.3099 53.1545 21.019 52.8636 20.8463L36.3909 11.0644C35.5363 10.5553 34.4636 10.5553 33.609 11.0644L17.1363 20.8463C16.8454 21.019 16.709 21.3099 16.7 21.6008V41.6553C16.709 41.9462 16.8545 42.2372 17.1363 42.4099L33.609 52.1917C34.4636 52.7008 35.5363 52.7008 36.3909 52.1917L52.8636 42.4099C53.1545 42.2372 53.2909 41.9553 53.2999 41.6553V21.6008Z" fill="#F7F7F8"/>
<path opacity="0.4" d="M51.3899 22.6149C51.3899 22.3473 51.2604 22.0883 51.0014 21.9329L36.2475 13.1703C35.4791 12.7128 34.5209 12.7128 33.7525 13.1703L18.9986 21.9329C18.7396 22.0883 18.6101 22.3473 18.6101 22.6149V40.6494C18.6101 40.9084 18.7482 41.1674 18.9986 41.3228L33.7525 50.0854C34.5209 50.5429 35.4791 50.5429 36.2475 50.0854L51.0014 41.3228C51.2604 41.1674 51.3813 40.9084 51.3899 40.6494V22.6149Z" fill="url(#paint0_linear_4722_27436)"/>
<path fill-rule="evenodd" clip-rule="evenodd" d="M23.5566 30.4482C23.3739 30.9406 23.0424 31.2689 22.5554 31.449C23.0481 31.6308 23.3759 31.9632 23.5566 32.4497V30.4482Z" fill="white"/>
<path fill-rule="evenodd" clip-rule="evenodd" d="M23.5543 30.449C23.737 30.9413 24.0685 31.2696 24.5554 31.4497C24.0628 31.6316 23.7349 31.964 23.5543 32.4504V30.449Z" fill="white"/>
<path d="M26.9931 37.9001H25.6027V40.127H26.9931V37.9001Z" fill="#8D96A8"/>
<path d="M44.9953 37.9001H43.6049V40.127H44.9953V37.9001Z" fill="#8D96A8"/>
<path d="M35.3042 45.2915C40.6622 45.2915 45.0057 42.9793 45.0057 40.127C45.0057 37.2747 40.6622 34.9624 35.3042 34.9624C29.9462 34.9624 25.6027 37.2747 25.6027 40.127C25.6027 42.9793 29.9462 45.2915 35.3042 45.2915Z" fill="#838B9C"/>
<path d="M35.3038 43.0644C40.6618 43.0644 45.0054 40.7522 45.0054 37.8999C45.0054 35.0476 40.6618 32.7354 35.3038 32.7354C29.9458 32.7354 25.6023 35.0476 25.6023 37.8999C25.6023 40.7522 29.9458 43.0644 35.3038 43.0644Z" fill="#C7CAD1"/>
<path d="M35.3042 42.0318C39.5906 42.0318 43.0654 40.182 43.0654 37.9002C43.0654 35.6184 39.5906 33.7686 35.3042 33.7686C31.0178 33.7686 27.543 35.6184 27.543 37.9002C27.543 40.182 31.0178 42.0318 35.3042 42.0318Z" fill="#8D96A8"/>
<path d="M28.3837 33.0608H26.9933V35.2876H28.3837V33.0608Z" fill="#8D96A8"/>
<path d="M46.3859 33.0608H44.9955V35.2876H46.3859V33.0608Z" fill="#8D96A8"/>
<path d="M36.6948 40.4522C42.0528 40.4522 46.3964 38.1399 46.3964 35.2876C46.3964 32.4353 42.0528 30.123 36.6948 30.123C31.3368 30.123 26.9933 32.4353 26.9933 35.2876C26.9933 38.1399 31.3368 40.4522 36.6948 40.4522Z" fill="#838B9C"/>
<path d="M36.6947 38.2253C42.0527 38.2253 46.3962 35.9131 46.3962 33.0608C46.3962 30.2085 42.0527 27.8962 36.6947 27.8962C31.3367 27.8962 26.9932 30.2085 26.9932 33.0608C26.9932 35.9131 31.3367 38.2253 36.6947 38.2253Z" fill="#C7CAD1"/>
<path d="M36.6948 37.1925C40.9812 37.1925 44.456 35.3427 44.456 33.0608C44.456 30.779 40.9812 28.9292 36.6948 28.9292C32.4084 28.9292 28.9336 30.779 28.9336 33.0608C28.9336 35.3427 32.4084 37.1925 36.6948 37.1925Z" fill="#8D96A8"/>
<path d="M26.7744 28.2214H25.384V30.4483H26.7744V28.2214Z" fill="#8D96A8"/>
<path d="M44.7871 28.2214H43.3967V30.4483H44.7871V28.2214Z" fill="#8D96A8"/>
<path d="M35.0856 35.6128C40.4436 35.6128 44.7871 33.3005 44.7871 30.4482C44.7871 27.5959 40.4436 25.2837 35.0856 25.2837C29.7276 25.2837 25.384 27.5959 25.384 30.4482C25.384 33.3005 29.7276 35.6128 35.0856 35.6128Z" fill="#838B9C"/>
<path d="M35.0861 33.3862C40.4441 33.3862 44.7876 31.074 44.7876 28.2217C44.7876 25.3694 40.4441 23.0571 35.0861 23.0571C29.728 23.0571 25.3845 25.3694 25.3845 28.2217C25.3845 31.074 29.728 33.3862 35.0861 33.3862Z" fill="#C7CAD1"/>
<path d="M35.0857 32.3531C39.3721 32.3531 42.8469 30.5033 42.8469 28.2215C42.8469 25.9396 39.3721 24.0898 35.0857 24.0898C30.7993 24.0898 27.3245 25.9396 27.3245 28.2215C27.3245 30.5033 30.7993 32.3531 35.0857 32.3531Z" fill="#8D96A8"/>
<path d="M35.3401 26.2886L38.3542 28.0784C38.4623 28.1433 38.4623 28.2997 38.3542 28.3645L35.3401 30.1544C35.1838 30.2475 34.9875 30.2475 34.8311 30.1544L31.8171 28.3645C31.7089 28.2997 31.7089 28.1433 31.8171 28.0784L34.8311 26.2886C34.9875 26.1955 35.1838 26.1955 35.3401 26.2886Z" fill="#F7F7F8"/>
<path opacity="0.2" d="M36.2475 13.1703L51.0014 21.9329C51.5367 22.2523 51.5367 23.0207 51.0014 23.3314L36.2475 32.094C35.4792 32.5516 34.5209 32.5516 33.7525 32.094L18.9986 23.3314C18.4634 23.012 18.4634 22.2437 18.9986 21.9329L33.7525 13.1703C34.5209 12.7128 35.4792 12.7128 36.2475 13.1703Z" fill="#F7F7F8"/>
<path d="M53.3045 12.928C53.3045 12.6371 53.1591 12.3462 52.8682 12.1735L36.3863 2.38255C35.5318 1.87346 34.4591 1.87346 33.6045 2.38255L17.1318 12.1644C16.8409 12.3371 16.7045 12.628 16.6954 12.9189V17.5189C16.7045 17.8098 16.85 18.1007 17.1318 18.2735L33.6045 28.0553C34.4591 28.5644 35.5318 28.5644 36.3863 28.0553L52.8591 18.2735C53.15 18.1007 53.2863 17.8189 53.2954 17.5189V12.9189L53.3045 12.928Z" fill="#343A46"/>
<path d="M36.391 2.38182L52.8637 12.1636C53.4546 12.5182 53.4546 13.3727 52.8637 13.7273L36.391 23.5091C35.5364 24.0182 34.4637 24.0182 33.6091 23.5091L17.1364 13.7273C16.5455 13.3727 16.5455 12.5182 17.1364 12.1636L33.6091 2.38182C34.4637 1.87273 35.5364 1.87273 36.391 2.38182Z" fill="#434852"/>
<path opacity="0.88" d="M36.1505 4.20743L49.7764 12.2987C50.2652 12.592 50.2652 13.2988 49.7764 13.5921L36.1505 21.6834C35.4437 22.1045 34.5563 22.1045 33.8495 21.6834L20.2236 13.5921C19.7349 13.2988 19.7349 12.592 20.2236 12.2987L33.8495 4.20743C34.5563 3.78632 35.4437 3.78632 36.1505 4.20743Z" stroke="url(#paint1_linear_4722_27436)" stroke-width="0.6" stroke-miterlimit="10" stroke-linecap="round"/>
<path d="M30.8467 13.5947L32.112 10.6472C32.1741 10.4959 32.3682 10.3844 32.6166 10.3445L37.484 9.57976C37.7324 9.53993 37.9963 9.57976 38.1826 9.69129L41.7846 11.874C41.9632 11.9856 42.0408 12.1449 41.9787 12.2963L40.7133 15.2438L39.3238 15.0127L40.4804 12.3042L37.4684 10.4799L33.4007 11.1172L32.2362 13.8178L30.8467 13.5868V13.5947Z" fill="#AD85FF"/>
<path d="M31.8093 16.1917L28.2151 14.0169C28.0366 13.9054 27.9589 13.7461 28.021 13.5947L29.2864 10.6472L30.6759 10.8782L29.5115 13.5788L32.5235 15.4031L36.5913 14.7658L37.7557 12.0652L39.1453 12.2962L37.8799 15.2437C37.8178 15.3951 37.6237 15.5066 37.3753 15.5465L32.508 16.3112C32.2596 16.351 31.9956 16.3112 31.8093 16.1997V16.1917Z" fill="#06E8F4"/>
<path d="M23.1072 47.1099L27.803 49.8944V52.0235L23.1072 49.239V47.1099Z" fill="#7C4FFC"/>
<path d="M16.5737 53.1998V51.067L23.1086 47.1121L27.8039 49.8933V52.0261L21.269 55.9908L16.5737 53.1998Z" fill="url(#paint2_linear_4722_27436)"/>
<path d="M46.8928 47.1099L42.197 49.8944V52.0235L46.8928 49.239V47.1099Z" fill="#7C4FFC"/>
<path d="M53.4263 53.1998V51.067L46.8914 47.1121L42.1961 49.8933V52.0261L48.731 55.9908L53.4263 53.1998Z" fill="url(#paint3_linear_4722_27436)"/>
<path fill-rule="evenodd" clip-rule="evenodd" d="M13.8584 22.2356C13.4935 23.2192 12.8312 23.8751 11.8584 24.2349C12.8426 24.5981 13.4976 25.2622 13.8584 26.234V22.2356Z" fill="white"/>
<path fill-rule="evenodd" clip-rule="evenodd" d="M13.8581 22.2356C14.2231 23.2192 14.8853 23.8751 15.8582 24.2349C14.874 24.5981 14.219 25.2622 13.8581 26.234V22.2356Z" fill="white"/>
<path fill-rule="evenodd" clip-rule="evenodd" d="M48.9933 4.27588C48.7196 5.01347 48.2229 5.50534 47.4934 5.77517C48.2315 6.04757 48.7226 6.54555 48.9933 7.27432V4.27588Z" fill="white"/>
<path fill-rule="evenodd" clip-rule="evenodd" d="M48.9933 4.27612C49.267 5.01371 49.7636 5.50558 50.4932 5.77541C49.7551 6.04781 49.2639 6.5458 48.9933 7.27456V4.27612Z" fill="white"/>
<path fill-rule="evenodd" clip-rule="evenodd" d="M46.3861 39.0137C46.2492 39.3826 46.0008 39.6285 45.636 39.7635C46.0051 39.8997 46.2507 40.1488 46.3861 40.5132V39.0137Z" fill="white"/>
<path fill-rule="evenodd" clip-rule="evenodd" d="M46.3859 39.0134C46.5228 39.3823 46.7711 39.6283 47.136 39.7632C46.7669 39.8995 46.5212 40.1485 46.3859 40.513V39.0134Z" fill="white"/>
<circle cx="0.799438" cy="0.799438" r="0.799438" transform="matrix(-1 0 0 1 29.1707 58.209)" fill="#7C4FFC"/>
<circle cx="0.799438" cy="0.799438" r="0.799438" transform="matrix(-1 0 0 1 25.1543 55.6987)" fill="#7C4FFC"/>
<circle cx="0.799438" cy="0.799438" r="0.799438" transform="matrix(-1 0 0 1 57.05 38.8179)" fill="#7C4FFC"/>
</g>
<defs>
<linearGradient id="paint0_linear_4722_27436" x1="35" y1="22.9257" x2="35" y2="50.4285" gradientUnits="userSpaceOnUse">
<stop stop-color="#F7F7F8" stop-opacity="0"/>
<stop offset="1" stop-color="#F7F7F8"/>
</linearGradient>
<linearGradient id="paint1_linear_4722_27436" x1="19.8571" y1="12.9454" x2="50.143" y2="12.9454" gradientUnits="userSpaceOnUse">
<stop stop-color="#F7F7F8" stop-opacity="0.6"/>
<stop offset="1" stop-color="#F7F7F8" stop-opacity="0.4"/>
</linearGradient>
<linearGradient id="paint2_linear_4722_27436" x1="25.7831" y1="48.6584" x2="21.4483" y2="54.6856" gradientUnits="userSpaceOnUse">
<stop stop-color="#7C4FFC" stop-opacity="0.8"/>
<stop offset="1" stop-color="#7C4FFC" stop-opacity="0"/>
</linearGradient>
<linearGradient id="paint3_linear_4722_27436" x1="44.2169" y1="48.6584" x2="48.5517" y2="54.6856" gradientUnits="userSpaceOnUse">
<stop stop-color="#7C4FFC" stop-opacity="0.8"/>
<stop offset="1" stop-color="#7C4FFC" stop-opacity="0"/>
</linearGradient>
<clipPath id="clip0_4722_27436">
<rect width="70" height="70" fill="white"/>
</clipPath>
</defs>
</svg>
