<svg width="22" height="22" viewBox="0 0 22 22" fill="none" xmlns="http://www.w3.org/2000/svg">
<path fill-rule="evenodd" clip-rule="evenodd" d="M8.11244 19.2498C11.0742 19.2498 13.4749 16.8491 13.4749 13.8874C13.4749 13.7471 13.4666 13.5986 13.4584 13.4584C13.2521 10.8432 11.1567 8.74768 8.54143 8.54144C8.40118 8.53319 8.25269 8.52493 8.11244 8.52493C5.15072 8.52493 2.75 10.9257 2.75 13.8874C2.75 16.8491 5.15072 19.2498 8.11244 19.2498ZM8.3951 11.7525C8.23889 11.5962 7.98562 11.5962 7.82941 11.7525L5.97738 13.6045C5.82117 13.7607 5.82117 14.014 5.97738 14.1702L7.82941 16.0222C7.98562 16.1784 8.23889 16.1784 8.3951 16.0222L10.2471 14.1702C10.4033 14.014 10.4033 13.7607 10.2471 13.6045L8.3951 11.7525Z" fill="url(#paint0_linear_4418_22311)"/>
<path d="M19.2495 8.11246C19.2495 11.0742 16.8488 13.4749 13.8871 13.4749C13.7469 13.4749 13.5984 13.4666 13.4581 13.4584C13.2519 10.8432 11.1564 8.7477 8.54115 8.54146C8.5329 8.40121 8.52466 8.25271 8.52466 8.11246C8.52466 5.15074 10.9254 2.75002 13.8871 2.75002C16.8488 2.75002 19.2495 5.15074 19.2495 8.11246Z" fill="#777F91"/>
<path d="M19.2495 8.11246C19.2495 11.0742 16.8488 13.4749 13.8871 13.4749C13.7469 13.4749 13.5984 13.4666 13.4581 13.4584C13.2519 10.8432 11.1564 8.7477 8.54115 8.54146C8.5329 8.40121 8.52466 8.25271 8.52466 8.11246C8.52466 5.15074 10.9254 2.75002 13.8871 2.75002C16.8488 2.75002 19.2495 5.15074 19.2495 8.11246Z" fill="url(#paint1_linear_4418_22311)"/>
<path d="M3.15 2.75002H6.75436C7.11073 2.75002 7.28919 3.18087 7.03721 3.43286L3.43284 7.03722C3.18086 7.28921 2.75 7.11074 2.75 6.75438V3.15002C2.75 2.9291 2.92909 2.75002 3.15 2.75002Z" fill="#777F91"/>
<path d="M3.15 2.75002H6.75436C7.11073 2.75002 7.28919 3.18087 7.03721 3.43286L3.43284 7.03722C3.18086 7.28921 2.75 7.11074 2.75 6.75438V3.15002C2.75 2.9291 2.92909 2.75002 3.15 2.75002Z" fill="url(#paint2_linear_4418_22311)"/>
<path d="M18.8493 19.25L15.2449 19.25C14.8885 19.25 14.7101 18.8192 14.9621 18.5672L18.5664 14.9628C18.8184 14.7108 19.2493 14.8893 19.2493 15.2457L19.2493 18.85C19.2493 19.0709 19.0702 19.25 18.8493 19.25Z" fill="#777F91"/>
<path d="M18.8493 19.25L15.2449 19.25C14.8885 19.25 14.7101 18.8192 14.9621 18.5672L18.5664 14.9628C18.8184 14.7108 19.2493 14.8893 19.2493 15.2457L19.2493 18.85C19.2493 19.0709 19.0702 19.25 18.8493 19.25Z" fill="url(#paint3_linear_4418_22311)"/>
<defs>
<linearGradient id="paint0_linear_4418_22311" x1="8.11244" y1="8.52493" x2="8.11244" y2="19.2498" gradientUnits="userSpaceOnUse">
<stop stop-color="#F7F7F8"/>
<stop offset="1" stop-color="#E9E9EE"/>
</linearGradient>
<linearGradient id="paint1_linear_4418_22311" x1="13.8871" y1="2.75002" x2="13.8871" y2="13.4749" gradientUnits="userSpaceOnUse">
<stop stop-color="#929CB3"/>
<stop offset="1" stop-color="#707889"/>
</linearGradient>
<linearGradient id="paint2_linear_4418_22311" x1="5.23502" y1="2.75002" x2="5.23502" y2="7.72007" gradientUnits="userSpaceOnUse">
<stop stop-color="#929CB3"/>
<stop offset="1" stop-color="#707889"/>
</linearGradient>
<linearGradient id="paint3_linear_4418_22311" x1="16.7642" y1="14.6764" x2="16.7642" y2="19.25" gradientUnits="userSpaceOnUse">
<stop stop-color="#929CB3"/>
<stop offset="1" stop-color="#6B7383"/>
</linearGradient>
</defs>
</svg>
