<svg width="20" height="20" viewBox="0 0 20 20" fill="none" xmlns="http://www.w3.org/2000/svg">
<path d="M11.5465 9.14982C11.9029 9.14982 12.1917 9.43869 12.1917 9.79504V14.4344C12.1917 14.7907 11.9029 15.0796 11.5465 15.0796C11.1902 15.0796 10.9013 14.7907 10.9013 14.4344V9.79504C10.9013 9.43869 11.1902 9.14982 11.5465 9.14982Z" fill="#585E6B"/>
<path d="M8.45324 9.14986C8.80959 9.14986 9.09847 9.43873 9.09847 9.79508V14.4344C9.09847 14.7908 8.80959 15.0796 8.45324 15.0796C8.0969 15.0796 7.80802 14.7908 7.80802 14.4344V9.79508C7.80802 9.43873 8.0969 9.14986 8.45324 9.14986Z" fill="#585E6B"/>
<path fill-rule="evenodd" clip-rule="evenodd" d="M6.2618 3.343V4.12399H4.29808C3.67448 4.12399 3.16895 4.62953 3.16895 5.25313V6.60497C3.16895 7.12047 3.5144 7.55529 3.98644 7.69055L4.68281 16.7435C4.72807 17.3318 5.21861 17.786 5.80862 17.786H14.1911C14.7811 17.786 15.2716 17.3318 15.3169 16.7435L16.0133 7.69062C16.4854 7.55543 16.831 7.12056 16.831 6.60497V5.25313C16.831 4.62953 16.3254 4.12399 15.7018 4.12399H13.738V3.343C13.738 2.7194 13.2325 2.21387 12.6089 2.21387H7.39094C6.76733 2.21387 6.2618 2.7194 6.2618 3.343ZM7.55224 3.50431V4.12399H12.4476V3.50431H7.55224ZM5.28404 7.73411H14.7157L14.0417 16.4956H5.958L5.28404 7.73411ZM15.4152 6.44367H15.5405V5.41444H4.45939V6.44367H4.5845L4.58728 6.44366H15.4124L15.4152 6.44367Z" fill="#585E6B"/>
</svg>
