<svg width="16" height="16" viewBox="0 0 16 16" fill="none" xmlns="http://www.w3.org/2000/svg">
<path d="M7.5805 2.37851C7.73574 2.00925 8.2645 2.00924 8.41974 2.37851L9.81686 5.70174C9.88231 5.85741 10.0303 5.96378 10.2002 5.97725L13.8266 6.26487C14.2295 6.29683 14.3929 6.79434 14.0859 7.05452L11.323 9.39601C11.1935 9.5057 11.137 9.6778 11.1766 9.8418L12.0207 13.3428C12.1145 13.7318 11.6867 14.0393 11.3417 13.8308L8.23702 11.9547C8.09158 11.8668 7.90867 11.8668 7.76323 11.9547L4.65852 13.8308C4.31353 14.0393 3.88576 13.7318 3.97956 13.3428L4.82368 9.8418C4.86322 9.6778 4.8067 9.5057 4.67727 9.39601L1.91434 7.05452C1.60733 6.79434 1.77072 6.29683 2.17368 6.26487L5.80008 5.97725C5.96996 5.96378 6.11794 5.85741 6.18338 5.70174L7.5805 2.37851Z" fill="#585E6B"/>
</svg>
