<svg width="22" height="22" viewBox="0 0 22 22" fill="none" xmlns="http://www.w3.org/2000/svg">
<path fill-rule="evenodd" clip-rule="evenodd" d="M3.72168 3.60825C3.72168 3.38734 3.90077 3.20825 4.12168 3.20825H17.8775C18.0985 3.20825 18.2775 3.38734 18.2775 3.60825V17.3647C18.2775 17.5856 18.0985 17.7647 17.8775 17.7647H4.12168C3.90077 17.7647 3.72168 17.5856 3.72168 17.3647V3.60825ZM5.43317 5.32163C5.43317 5.10072 5.61226 4.92163 5.83317 4.92163H16.1641C16.385 4.92163 16.5641 5.10072 16.5641 5.32163V13.2064L17.8254 14.4676C17.9816 14.6238 17.9816 14.8771 17.8254 15.0333L15.6891 17.1696C15.5328 17.3258 15.2796 17.3258 15.1234 17.1696L14.0068 16.053H5.83317C5.61226 16.053 5.43317 15.8739 5.43317 15.653V5.32163ZM13.3433 14.1114L13.0235 14.4312C12.9997 14.4356 12.9751 14.4379 12.95 14.4379H7.33337C7.11246 14.4379 6.93337 14.2589 6.93337 14.0379V13.0046C6.93337 12.7837 7.11245 12.6046 7.33337 12.6046H12.95C13.1709 12.6046 13.35 12.7837 13.35 13.0046V14.0379C13.35 14.063 13.3477 14.0876 13.3433 14.1114ZM5.43555 17.7649H8.00423L7.832 18.6314C7.8134 18.725 7.73127 18.7924 7.63584 18.7924H5.80412C5.70871 18.7924 5.62659 18.725 5.60797 18.6314L5.43555 17.7649ZM13.9971 17.7649H16.5658L16.3508 18.4814C16.2954 18.666 16.1255 18.7924 15.9328 18.7924H14.63C14.4373 18.7924 14.2674 18.666 14.212 18.4814L13.9971 17.7649ZM13.8667 7.83866C14.0876 7.83866 14.2667 8.01775 14.2667 8.23866V9.27199C14.2667 9.49291 14.0876 9.67199 13.8667 9.67199H7.33337C7.11246 9.67199 6.93337 9.49291 6.93337 9.27199V8.23866C6.93337 8.01775 7.11246 7.83866 7.33337 7.83866H13.8667ZM13.35 10.6216C13.35 10.4007 13.1709 10.2216 12.95 10.2216H7.33337C7.11245 10.2216 6.93337 10.4007 6.93337 10.6216V11.655C6.93337 11.8759 7.11246 12.055 7.33337 12.055H12.95C13.1709 12.055 13.35 11.8759 13.35 11.655V10.6216Z" fill="url(#paint0_linear_8673_4105)"/>
<path fill-rule="evenodd" clip-rule="evenodd" d="M15.4062 20.6479C18.6635 20.6479 21.3037 18.0077 21.3037 14.7505C21.3037 14.5962 21.2946 14.4329 21.2856 14.2787C21.0587 11.4025 18.7542 9.098 15.878 8.87118C15.7238 8.8621 15.5605 8.85303 15.4062 8.85303C12.149 8.85303 9.50879 11.4933 9.50879 14.7505C9.50879 18.0077 12.149 20.6479 15.4062 20.6479ZM15.6891 12.3744C15.5329 12.2182 15.2796 12.2182 15.1234 12.3744L13.0302 14.4676C12.8739 14.6238 12.8739 14.8771 13.0302 15.0333L15.1234 17.1266C15.2796 17.2828 15.5329 17.2828 15.6891 17.1266L17.7823 15.0333C17.9386 14.8771 17.9386 14.6238 17.7823 14.4676L15.6891 12.3744Z" fill="url(#paint1_linear_8673_4105)"/>
<path d="M5.43359 5.13916V15.813C5.43359 15.9548 5.5086 16.0859 5.63076 16.1578L8.83301 18.0418V2.9104L5.63076 4.7944C5.5086 4.86627 5.43359 4.99742 5.43359 5.13916Z" fill="url(#paint2_linear_8673_4105)"/>
<path d="M8.83301 2.9104H10.033C10.2539 2.9104 10.433 3.08949 10.433 3.3104V17.6432C10.433 17.8641 10.2539 18.0432 10.033 18.0432H8.83301V2.9104Z" fill="url(#paint3_linear_8673_4105)"/>
<path fill-rule="evenodd" clip-rule="evenodd" d="M4.88354 8.10995C4.88354 7.88351 5.06711 7.69995 5.29354 7.69995H7.23355C7.344 7.69995 7.43355 7.78949 7.43355 7.89995V8.59995C7.43355 8.71041 7.344 8.79995 7.23355 8.79995H6.18354C6.07309 8.79995 5.98354 8.88949 5.98354 8.99995V12.5C5.98354 12.6104 6.07309 12.7 6.18354 12.7H7.23355C7.344 12.7 7.43355 12.7895 7.43355 12.9V13.6C7.43355 13.7104 7.344 13.8 7.23355 13.8H5.29354C5.06711 13.8 4.88354 13.6164 4.88354 13.39V8.10995Z" fill="url(#paint4_linear_8673_4105)"/>
<defs>
<linearGradient id="paint0_linear_8673_4105" x1="10.9996" y1="3.20825" x2="10.9996" y2="18.7924" gradientUnits="userSpaceOnUse">
<stop stop-color="#929CB3"/>
<stop offset="1" stop-color="#707889"/>
</linearGradient>
<linearGradient id="paint1_linear_8673_4105" x1="15.4062" y1="8.85303" x2="15.4062" y2="20.6479" gradientUnits="userSpaceOnUse">
<stop stop-color="#F7F7F8"/>
<stop offset="1" stop-color="#E3E3E7"/>
</linearGradient>
<linearGradient id="paint2_linear_8673_4105" x1="5.43359" y1="10.4761" x2="8.83301" y2="10.4761" gradientUnits="userSpaceOnUse">
<stop stop-color="#5E6678"/>
<stop offset="1" stop-color="#7E879A"/>
</linearGradient>
<linearGradient id="paint3_linear_8673_4105" x1="10.433" y1="10.4768" x2="2.0666" y2="10.4768" gradientUnits="userSpaceOnUse">
<stop stop-color="#5E6678"/>
<stop offset="1" stop-color="#7E879A"/>
</linearGradient>
<linearGradient id="paint4_linear_8673_4105" x1="5.43354" y1="10.75" x2="7.43354" y2="10.75" gradientUnits="userSpaceOnUse">
<stop stop-color="#F7F7F8"/>
<stop offset="1" stop-color="#CDCDD6"/>
</linearGradient>
</defs>
</svg>
