<svg width="28" height="28" viewBox="0 0 28 28" fill="none" xmlns="http://www.w3.org/2000/svg">
<path fill-rule="evenodd" clip-rule="evenodd" d="M13.2443 4.97471C13.2443 4.80903 13.3786 4.67471 13.5443 4.67471H14.4609C14.6265 4.67471 14.7609 4.80903 14.7609 4.97471V12.6898L21.3624 8.87835C21.5059 8.79551 21.6893 8.84468 21.7722 8.98816L22.2305 9.78193C22.3133 9.92542 22.2642 10.1089 22.1207 10.1917L15.5201 14.0026L22.2754 17.9028C22.4189 17.9857 22.4681 18.1691 22.3852 18.3126L21.927 19.1064C21.8441 19.2499 21.6606 19.299 21.5172 19.2162L14.7609 15.3154V23.0825C14.7609 23.2482 14.6265 23.3825 14.4609 23.3825H13.5443C13.3786 23.3825 13.2443 23.2482 13.2443 23.0825V15.3165L6.59998 19.1526C6.4565 19.2355 6.27302 19.1863 6.19018 19.0428L5.73189 18.249C5.64905 18.1055 5.69821 17.9221 5.8417 17.8392L12.4869 14.0026L5.84667 10.1688C5.70318 10.086 5.65402 9.90252 5.73686 9.75903L6.19514 8.96526C6.27798 8.82177 6.46146 8.77261 6.60495 8.85545L13.2443 12.6887V4.97471Z" fill="url(#paint0_linear_9239_34202)"/>
<path fill-rule="evenodd" clip-rule="evenodd" d="M17.1431 2.50186C17.2669 2.37634 17.4546 2.33885 17.6171 2.40718L19.7546 3.3059C19.9171 3.37424 20.0216 3.53463 20.0186 3.7109L19.9947 5.07034C21.2107 5.88312 22.2219 6.91983 22.9956 8.09987L24.3565 8.09052C24.5328 8.08931 24.6921 8.19555 24.7587 8.35879L25.6346 10.5057C25.7012 10.6689 25.6617 10.8563 25.5349 10.9787L24.5578 11.9222C24.8322 13.307 24.8365 14.7559 24.5375 16.1882L25.5056 17.1431C25.6311 17.2669 25.6686 17.4546 25.6003 17.6171L24.7016 19.7546C24.6332 19.9171 24.4728 20.0217 24.2966 20.0186L22.9375 19.9948C22.1243 21.2093 21.0874 22.2193 19.9076 22.9919L19.9169 24.3566C19.9181 24.5329 19.8119 24.6922 19.6487 24.7588L17.5018 25.6347C17.3385 25.7013 17.1512 25.6618 17.0287 25.535L16.0802 24.5527C14.6989 24.8251 13.2541 24.8286 11.8258 24.5307L10.8447 25.5253C10.7327 25.6388 10.5628 25.6728 10.4158 25.6109L8.22707 24.6907C8.08004 24.6288 7.98546 24.4837 7.98825 24.3242L8.01273 22.927C6.80283 22.1158 5.79618 21.0827 5.02528 19.9074L3.62294 19.917C3.46344 19.9181 3.31934 19.822 3.25909 19.6743L2.36217 17.4759C2.30191 17.3282 2.33765 17.1587 2.45239 17.0479L3.46027 16.0748C3.18823 14.6963 3.18392 13.2546 3.4798 11.829L2.48187 10.8447C2.36832 10.7327 2.33439 10.5629 2.39622 10.4158L3.3165 8.2271C3.37832 8.08007 3.52343 7.98549 3.68291 7.98828L5.08087 8.01277C5.89155 6.80147 6.92454 5.79356 8.10005 5.02158L8.09044 3.62302C8.08935 3.46352 8.18547 3.31942 8.33315 3.25917L10.5316 2.36224C10.6792 2.30199 10.8487 2.33772 10.9595 2.45247L11.9277 3.45517C13.3097 3.18104 14.7556 3.17608 16.1852 3.47302L17.1431 2.50186ZM22.3818 17.5229C20.4376 22.147 15.1128 24.3195 10.4887 22.3752C5.86454 20.4309 3.69209 15.1061 5.63638 10.482C7.58067 5.85788 12.9054 3.68544 17.5296 5.62972C22.1537 7.57401 24.3261 12.8988 22.3818 17.5229Z" fill="url(#paint1_linear_9239_34202)"/>
<path d="M18.9807 13.9999C18.9807 16.751 16.7507 18.9809 13.9997 18.9809C11.2487 18.9809 9.0188 16.751 9.0188 13.9999C9.0188 11.2489 11.2487 9.01901 13.9997 9.01901C14.13 9.01901 14.2679 9.02668 14.3982 9.03434C16.8274 9.22592 18.7738 11.1723 18.9653 13.6015C18.973 13.7317 18.9807 13.8697 18.9807 13.9999Z" fill="url(#paint2_linear_9239_34202)"/>
<rect x="13.9995" y="11.7542" width="3.17592" height="3.17592" rx="0.4" transform="rotate(45 13.9995 11.7542)" fill="#191C22"/>
<defs>
<linearGradient id="paint0_linear_9239_34202" x1="14.0034" y1="6.42087" x2="14.0034" y2="21.9968" gradientUnits="userSpaceOnUse">
<stop stop-color="#929CB3"/>
<stop offset="1" stop-color="#707889"/>
</linearGradient>
<linearGradient id="paint1_linear_9239_34202" x1="13.9999" y1="2.33333" x2="13.9999" y2="24.759" gradientUnits="userSpaceOnUse">
<stop stop-color="#929CB3"/>
<stop offset="1" stop-color="#707889"/>
</linearGradient>
<linearGradient id="paint2_linear_9239_34202" x1="13.9997" y1="9.01901" x2="13.9997" y2="18.9809" gradientUnits="userSpaceOnUse">
<stop stop-color="#F7F7F8"/>
<stop offset="1" stop-color="#E3E3E7"/>
</linearGradient>
</defs>
</svg>
