<svg width="20" height="20" viewBox="0 0 20 20" fill="none" xmlns="http://www.w3.org/2000/svg">
<path fill-rule="evenodd" clip-rule="evenodd" d="M5.0427 4.04096C4.83998 3.83824 4.51131 3.83824 4.30859 4.04096C4.10587 4.24368 4.10587 4.57235 4.30859 4.77507L14.9567 15.4232C15.1595 15.6259 15.4881 15.6259 15.6909 15.4232C15.8936 15.2205 15.8936 14.8918 15.6909 14.6891L5.0427 4.04096ZM4.39207 6.97502C4.69309 6.77351 5.01862 6.57892 5.36558 6.39728L6.13877 7.17048C5.71672 7.37366 5.32483 7.59995 4.9696 7.83775C4.32292 8.27066 3.81141 8.73277 3.46778 9.14578C3.29588 9.3524 3.17288 9.53847 3.09498 9.69472C3.01438 9.85638 2.99669 9.95674 2.99669 10.0009C2.99669 10.0427 3.01387 10.1416 3.09461 10.3029C3.17251 10.4585 3.29557 10.6442 3.46758 10.8507C3.8114 11.2634 4.32313 11.7261 4.96993 12.1597C5.7602 12.6896 6.73171 13.1629 7.81287 13.4514C6.67272 12.7266 5.9162 11.4522 5.9162 10.0012C5.9162 9.13664 6.18473 8.33485 6.64292 7.67463L7.39322 8.42492C7.11471 8.88481 6.95439 9.42426 6.95439 10.0012C6.95439 11.6841 8.31865 13.0483 10.0015 13.0483C10.5784 13.0483 11.1179 12.888 11.5778 12.6095L12.3281 13.3598C12.2835 13.3907 12.2384 13.4207 12.1926 13.4499C12.2517 13.4341 12.3106 13.4177 12.3691 13.4008L13.1949 14.2266C12.2199 14.5672 11.1396 14.7826 9.99993 14.7826C7.79879 14.7826 5.81929 13.9792 4.39174 13.022C3.67726 12.543 3.08737 12.0164 2.66989 11.5152C2.46125 11.2647 2.28874 11.0123 2.16623 10.7676C2.04656 10.5285 1.9585 10.2648 1.9585 10.0009C1.9585 9.73621 2.04605 9.47179 2.16586 9.23149C2.28837 8.98576 2.46094 8.73268 2.66969 8.48178C3.08737 7.97976 3.67747 7.45339 4.39207 6.97502ZM8.46328 9.99832C8.46328 9.84556 8.48555 9.69801 8.52702 9.55873L10.4406 11.4723C10.3014 11.5138 10.1538 11.5361 10.001 11.5361C9.15176 11.5361 8.46328 10.8476 8.46328 9.99832ZM10.0267 8.46076L11.5386 9.97267C11.5251 9.14375 10.8556 8.47431 10.0267 8.46076ZM13.0487 10.0012C13.0487 10.437 12.9572 10.8515 12.7923 11.2264L13.5656 11.9996C13.8976 11.4088 14.0869 10.7271 14.0869 10.0012C14.0869 8.54914 13.3294 7.27404 12.188 6.54951C13.269 6.83706 14.2403 7.30893 15.0303 7.83775C15.6769 8.27066 16.1885 8.73277 16.5321 9.14578C16.704 9.3524 16.827 9.53847 16.9049 9.69472C16.9855 9.85638 17.0032 9.95674 17.0032 10.0009C17.0032 10.0427 16.986 10.1416 16.9052 10.3029C16.8273 10.4585 16.7043 10.6442 16.5323 10.8507C16.1885 11.2634 15.6767 11.7261 15.0299 12.1597C14.7761 12.33 14.5035 12.4944 14.2146 12.6486L14.9784 13.4124C15.1985 13.2865 15.4087 13.1558 15.6081 13.022C16.3226 12.543 16.9125 12.0164 17.33 11.5152C17.5386 11.2647 17.7111 11.0123 17.8336 10.7676C17.9533 10.5285 18.0414 10.2648 18.0414 10.0009C18.0414 9.73621 17.9538 9.47179 17.834 9.23149C17.7115 8.98576 17.5389 8.73268 17.3302 8.48178C16.9125 7.97976 16.3224 7.45339 15.6078 6.97502C14.18 6.01918 12.2006 5.2191 9.99993 5.2191C9.0151 5.2191 8.07459 5.37934 7.20799 5.64206L8.77629 7.21036C9.15123 7.04551 9.5657 6.954 10.0015 6.954C11.6844 6.954 13.0487 8.31826 13.0487 10.0012Z" fill="#777F91"/>
</svg>
