<svg width="12" height="12" viewBox="0 0 12 12" fill="none" xmlns="http://www.w3.org/2000/svg">
<path fill-rule="evenodd" clip-rule="evenodd" d="M1.85682 5.81632C1.80846 5.91332 1.79784 5.97353 1.79784 6C1.79784 6.02511 1.80815 6.08443 1.85659 6.1812C1.90333 6.27457 1.97717 6.38601 2.08038 6.50991C2.28667 6.75756 2.59371 7.03512 2.98179 7.29534C3.45561 7.61305 4.03803 7.89685 4.68617 8.06995C4.00268 7.63497 3.54924 6.87068 3.54924 6.0005C3.54924 5.12843 4.00464 4.36272 4.69061 3.92823C4.04052 4.10066 3.45645 4.38425 2.98159 4.70214C2.59358 4.96188 2.28667 5.23915 2.0805 5.48696C1.97736 5.61093 1.90356 5.72257 1.85682 5.81632ZM9.01779 7.29534C8.54451 7.61267 7.96291 7.89618 7.31567 8.06934C7.99863 7.63425 8.45165 6.87028 8.45165 6.0005C8.45165 5.12883 7.99667 4.36343 7.31123 3.92883C7.96041 4.10132 8.54367 4.38462 9.01798 4.70214C9.40599 4.96188 9.7129 5.23915 9.91907 5.48696C10.0222 5.61093 10.096 5.72257 10.1428 5.81632C10.1911 5.91332 10.2017 5.97353 10.2017 6C10.2017 6.02511 10.1914 6.08443 10.143 6.1812C10.0962 6.27457 10.0224 6.38601 9.91919 6.50991C9.7129 6.75756 9.40586 7.03512 9.01779 7.29534ZM2.63507 4.1845C3.49177 3.611 4.6794 3.13095 5.99979 3.13095C7.32017 3.13095 8.5078 3.611 9.3645 4.1845C9.79326 4.47152 10.1473 4.78734 10.3979 5.08856C10.5232 5.2391 10.6267 5.39095 10.7002 5.53838C10.7721 5.68256 10.8246 5.84122 10.8246 6C10.8246 6.15837 10.7718 6.31659 10.7 6.46004C10.6265 6.60687 10.523 6.75832 10.3978 6.9086C10.1473 7.20931 9.79339 7.52527 9.3647 7.81271C8.50817 8.38703 7.32047 8.86905 5.99979 8.86905C4.6791 8.86905 3.49141 8.38703 2.63487 7.81271C2.20618 7.52527 1.85225 7.20931 1.60176 6.9086C1.47658 6.75832 1.37307 6.60687 1.29957 6.46004C1.22776 6.31659 1.17493 6.15837 1.17493 6C1.17493 5.84122 1.22746 5.68256 1.29934 5.53838C1.37285 5.39095 1.47639 5.2391 1.60164 5.08856C1.85225 4.78734 2.20631 4.47152 2.63507 4.1845ZM6.00044 4.1722C4.99071 4.1722 4.17215 4.99076 4.17215 6.0005C4.17215 7.01023 4.99071 7.82879 6.00044 7.82879C7.01018 7.82879 7.82874 7.01023 7.82874 6.0005C7.82874 4.99076 7.01018 4.1722 6.00044 4.1722ZM5.88552 5.4619C5.88552 5.67547 5.71239 5.84861 5.49882 5.84861C5.34726 5.84861 5.21606 5.76142 5.15265 5.63446C5.10448 5.74631 5.0778 5.86959 5.0778 5.9991C5.0778 6.50868 5.49088 6.92176 6.00046 6.92176C6.51003 6.92176 6.92312 6.50868 6.92312 5.9991C6.92312 5.48953 6.51003 5.07644 6.00046 5.07644C5.89325 5.07644 5.79032 5.09473 5.6946 5.12835C5.80884 5.19555 5.88552 5.31977 5.88552 5.4619Z" fill="#777F91"/>
</svg>
