<svg width="28" height="28" viewBox="0 0 28 28" fill="none" xmlns="http://www.w3.org/2000/svg">
<rect x="7.88745" y="16.4916" width="9.34145" height="7.09905" rx="0.4" transform="rotate(-111.496 7.88745 16.4916)" fill="url(#paint0_linear_8613_10294)"/>
<path fill-rule="evenodd" clip-rule="evenodd" d="M12.955 3.15968L21.1894 5.5486L22.6936 8.16341L19.8122 18.0957C19.7506 18.3079 19.5287 18.43 19.3165 18.3684L9.37911 15.4854C9.16694 15.4239 9.04485 15.202 9.1064 14.9898L12.4594 3.43239C12.5209 3.22022 12.7428 3.09813 12.955 3.15968ZM17.2829 6.8778C17.171 6.68732 16.9259 6.62362 16.7354 6.73552L15.091 7.70159C14.9005 7.81349 14.8368 8.05861 14.9487 8.24909L15.9148 9.89353C16.0267 10.084 16.2718 10.1477 16.4623 10.0358L18.1067 9.06974C18.2972 8.95784 18.3609 8.71272 18.249 8.52224L17.2829 6.8778Z" fill="url(#paint1_linear_8613_10294)"/>
<rect x="3.91992" y="11.5324" width="20.1603" height="12.6923" rx="0.4" fill="url(#paint2_linear_8613_10294)"/>
<rect x="10.6409" y="17.0051" width="6.72009" height="1.74722" rx="0.2" fill="url(#paint3_linear_8613_10294)"/>
<path d="M20.3117 7.38046L20.8027 5.73445L22.2594 8.37894L20.5806 7.87811C20.3689 7.81496 20.2485 7.59215 20.3117 7.38046Z" fill="url(#paint4_linear_8613_10294)"/>
<defs>
<linearGradient id="paint0_linear_8613_10294" x1="17.318" y1="20.3352" x2="12.2933" y2="20.7138" gradientUnits="userSpaceOnUse">
<stop stop-color="#929CB3"/>
<stop offset="1" stop-color="#707889"/>
</linearGradient>
<linearGradient id="paint1_linear_8613_10294" x1="17.7626" y1="4.40884" x2="14.4627" y2="17.1072" gradientUnits="userSpaceOnUse">
<stop stop-color="#F7F7F8"/>
<stop offset="1" stop-color="#E9E9EE"/>
</linearGradient>
<linearGradient id="paint2_linear_8613_10294" x1="14.0001" y1="11.5324" x2="14.0001" y2="24.2247" gradientUnits="userSpaceOnUse">
<stop stop-color="#929CB3"/>
<stop offset="1" stop-color="#707889"/>
</linearGradient>
<linearGradient id="paint3_linear_8613_10294" x1="14.0009" y1="17.0051" x2="14.0009" y2="18.7524" gradientUnits="userSpaceOnUse">
<stop stop-color="#F7F7F8"/>
<stop offset="1" stop-color="#E9E9EE"/>
</linearGradient>
<linearGradient id="paint4_linear_8613_10294" x1="21.5311" y1="7.0567" x2="20.3319" y2="7.60143" gradientUnits="userSpaceOnUse">
<stop stop-color="#929CB3"/>
<stop offset="1" stop-color="#707889"/>
</linearGradient>
</defs>
</svg>
