<svg width="14" height="14" viewBox="0 0 14 14" fill="none" xmlns="http://www.w3.org/2000/svg">
<path fill-rule="evenodd" clip-rule="evenodd" d="M11.5635 12.1145H11.5693C11.6076 12.1145 11.6451 12.1108 11.6817 12.1037C12.0028 12.0462 12.2465 11.7655 12.2465 11.4279V9.83477C12.2465 8.6379 12.2446 8.44041 12.2436 8.42679C12.2441 8.39531 12.245 8.31936 12.2465 8.15211C12.2471 8.07327 12.2477 8.01776 12.2482 7.98016C12.2489 8.1504 12.2497 8.08523 12.25 8.01008C12.2502 7.93493 12.2498 7.8498 12.2482 7.98016C12.2473 7.79278 12.2465 7.32017 12.2465 6.26169V4.46314C12.2465 4.12881 12.0075 3.8503 11.6911 3.78905C11.6517 3.78077 11.611 3.77644 11.5696 3.77644H10.9054L10.6349 2.26485C10.58 1.95637 10.4162 1.69992 10.1864 1.55983C10.0064 1.45052 9.7995 1.42341 9.60451 1.48408L2.32618 3.7397C2.22496 3.77084 2.12995 3.8251 2.04587 3.89847C1.86708 4.02243 1.75 4.22911 1.75 4.46313V8.2239V11.4279C1.75 11.8071 2.05741 12.1145 2.43661 12.1145H11.5598L11.5635 12.1145ZM12.2432 8.44189C12.2432 8.43485 12.2434 8.42277 12.2436 8.42679C12.2433 8.45094 12.2431 8.44893 12.2432 8.44189ZM8.20554 3.77652L10.4576 3.77652L10.2009 2.34304C10.1685 2.16191 10.0775 2.01058 9.95795 1.93771C9.88499 1.89377 9.81028 1.88331 9.7361 1.90624L3.70139 3.77652L8.20554 3.77652ZM10.0685 8.66556C10.4464 8.66556 10.7528 8.35918 10.7528 7.98123C10.7528 7.60328 10.4464 7.2969 10.0685 7.2969C9.69054 7.2969 9.38415 7.60328 9.38415 7.98123C9.38415 8.35918 9.69054 8.66556 10.0685 8.66556Z" fill="#777F91"/>
</svg>
