<svg width="28" height="28" viewBox="0 0 28 28" fill="none" xmlns="http://www.w3.org/2000/svg">
<path fill-rule="evenodd" clip-rule="evenodd" d="M2.56665 14C2.56665 7.68553 7.68553 2.56665 14 2.56665C20.3144 2.56665 25.4333 7.68553 25.4333 14C25.4333 20.3144 20.3144 25.4333 14 25.4333C7.68553 25.4333 2.56665 20.3144 2.56665 14ZM12.8269 5.00123C13.2646 4.58476 13.6593 4.43332 14 4.43332C14.3406 4.43332 14.7354 4.58476 15.173 5.00123C15.6155 5.42227 16.0564 6.07565 16.4469 6.95442C17.1392 8.51202 17.6158 10.6484 17.7144 13.0667H10.2856C10.3841 10.6484 10.8608 8.51202 11.553 6.95442C11.9436 6.07565 12.3845 5.42227 12.8269 5.00123ZM8.41749 13.0667C8.51675 10.4312 9.03349 8.02728 9.84726 6.1963C10.0128 5.82381 10.1931 5.46955 10.388 5.13865C7.16962 6.45184 4.82675 9.46746 4.47826 13.0667H8.41749ZM4.47826 14.9333H8.41749C8.51675 17.5688 9.03349 19.9727 9.84726 21.8037C10.0128 22.1762 10.1931 22.5304 10.388 22.8613C7.16962 21.5481 4.82675 18.5325 4.47826 14.9333ZM23.5217 13.0667C23.1732 9.46746 20.8303 6.45184 17.6119 5.13865C17.8069 5.46955 17.9872 5.82382 18.1527 6.1963C18.9665 8.02728 19.4832 10.4312 19.5825 13.0667H23.5217ZM19.5825 14.9333H23.5217C23.1732 18.5325 20.8303 21.5481 17.6119 22.8613C17.8069 22.5304 17.9872 22.1762 18.1527 21.8037C18.9665 19.9727 19.4832 17.5688 19.5825 14.9333ZM17.7144 14.9333C17.6158 17.3515 17.1392 19.4879 16.4469 21.0455C16.0564 21.9243 15.6155 22.5777 15.173 22.9987C14.7354 23.4152 14.3406 23.5667 14 23.5667C13.6593 23.5667 13.2646 23.4152 12.8269 22.9987C12.3845 22.5777 11.9436 21.9243 11.553 21.0455C10.8608 19.4879 10.3841 17.3515 10.2856 14.9333H17.7144Z" fill="#777F91"/>
</svg>
